<?xml version="1.0" standalone="no"?>
 <!DOCTYPE svg PUBLIC "-//W3C//DTD SVG 1.1//EN" 
 "http://www.w3.org/Graphics/SVG/1.1/DTD/svg11.dtd"> 
<svg
  xmlns:svg="http://www.w3.org/2000/svg"
  xmlns="http://www.w3.org/2000/svg"
  xmlns:xlink="http://www.w3.org/1999/xlink"
  version="1.1"
  width="29.700220cm" height="21.000720cm" viewBox="0 0 116930 82680">
<title>SVG Picture created as Multislope IIA-B_SilkS.svg date 2021/08/23 23:10:10 </title>
  <desc>Picture generated by PCBNEW </desc>
<g style="fill:#000000; fill-opacity:1;stroke:#000000; stroke-opacity:1;
stroke-linecap:round; stroke-linejoin:round;"
 transform="translate(0 0) scale(1 1)">
</g>
<g style="fill:#000000; fill-opacity:0.0; 
stroke:#000000; stroke-width:-0.000393701; stroke-opacity:1; 
stroke-linecap:round; stroke-linejoin:round;">
</g>
<g style="fill:#000000; fill-opacity:0.0; 
stroke:#000000; stroke-width:118.11; stroke-opacity:1; 
stroke-linecap:round; stroke-linejoin:round;">
<g transform="rotate(-180 52854.3 34448.8)">
<text x="52854.3" y="34744.1"
transform="scale(-1 1) translate(-105708.661417 0)"
textLength="9033.36" font-size="787.402" lengthAdjust="spacingAndGlyphs"
text-anchor="middle" opacity="0">elon riding elongate</text>
</g>
<path d="M48664 34209
L48607 34181
L48495 34181
L48439 34209
L48411 34266
L48411 34491
L48439 34547
L48495 34575
L48607 34575
L48664 34547
L48692 34491
L48692 34434
L48411 34378
" />
<path d="M49029 34181
L48973 34209
L48945 34266
L48945 34772
" />
<path d="M49339 34181
L49282 34209
L49254 34237
L49226 34294
L49226 34462
L49254 34519
L49282 34547
L49339 34575
L49423 34575
L49479 34547
L49507 34519
L49535 34462
L49535 34294
L49507 34237
L49479 34209
L49423 34181
L49339 34181
" />
<path d="M49789 34575
L49789 34181
" />
<path d="M49789 34519
L49817 34547
L49873 34575
L49957 34575
L50014 34547
L50042 34491
L50042 34181
" />
<path d="M50773 34181
L50773 34575
" />
<path d="M50773 34462
L50801 34519
L50829 34547
L50885 34575
L50942 34575
" />
<path d="M51138 34181
L51138 34575
" />
<path d="M51138 34772
L51110 34744
L51138 34715
L51167 34744
L51138 34772
L51138 34715
" />
<path d="M51673 34181
L51673 34772
" />
<path d="M51673 34209
L51616 34181
L51504 34181
L51448 34209
L51420 34237
L51392 34294
L51392 34462
L51420 34519
L51448 34547
L51504 34575
L51616 34575
L51673 34547
" />
<path d="M51954 34181
L51954 34575
" />
<path d="M51954 34772
L51926 34744
L51954 34715
L51982 34744
L51954 34772
L51954 34715
" />
<path d="M52235 34575
L52235 34181
" />
<path d="M52235 34519
L52263 34547
L52320 34575
L52404 34575
L52460 34547
L52488 34491
L52488 34181
" />
<path d="M53023 34575
L53023 34097
L52994 34041
L52966 34012
L52910 33984
L52826 33984
L52769 34012
" />
<path d="M53023 34209
L52966 34181
L52854 34181
L52798 34209
L52769 34237
L52741 34294
L52741 34462
L52769 34519
L52798 34547
L52854 34575
L52966 34575
L53023 34547
" />
<path d="M53979 34209
L53922 34181
L53810 34181
L53754 34209
L53726 34266
L53726 34491
L53754 34547
L53810 34575
L53922 34575
L53979 34547
L54007 34491
L54007 34434
L53726 34378
" />
<path d="M54344 34181
L54288 34209
L54260 34266
L54260 34772
" />
<path d="M54654 34181
L54597 34209
L54569 34237
L54541 34294
L54541 34462
L54569 34519
L54597 34547
L54654 34575
L54738 34575
L54794 34547
L54822 34519
L54850 34462
L54850 34294
L54822 34237
L54794 34209
L54738 34181
L54654 34181
" />
<path d="M55104 34575
L55104 34181
" />
<path d="M55104 34519
L55132 34547
L55188 34575
L55272 34575
L55329 34547
L55357 34491
L55357 34181
" />
<path d="M55891 34575
L55891 34097
L55863 34041
L55835 34012
L55778 33984
L55694 33984
L55638 34012
" />
<path d="M55891 34209
L55835 34181
L55722 34181
L55666 34209
L55638 34237
L55610 34294
L55610 34462
L55638 34519
L55666 34547
L55722 34575
L55835 34575
L55891 34547
" />
<path d="M56425 34181
L56425 34491
L56397 34547
L56341 34575
L56228 34575
L56172 34547
" />
<path d="M56425 34209
L56369 34181
L56228 34181
L56172 34209
L56144 34266
L56144 34322
L56172 34378
L56228 34406
L56369 34406
L56425 34434
" />
<path d="M56622 34575
L56847 34575
" />
<path d="M56706 34772
L56706 34266
L56735 34209
L56791 34181
L56847 34181
" />
<path d="M57269 34209
L57213 34181
L57100 34181
L57044 34209
L57016 34266
L57016 34491
L57044 34547
L57100 34575
L57213 34575
L57269 34547
L57297 34491
L57297 34434
L57016 34378
" />
</g>
<g style="fill:#000000; fill-opacity:1.0; 
stroke:#000000; stroke-width:3.93701; stroke-opacity:1; 
stroke-linecap:round; stroke-linejoin:round;">
<path style="fill:#000000; fill-opacity:1.0; 
stroke:#000000; stroke-width:3.93701; stroke-opacity:1; 
stroke-linecap:round; stroke-linejoin:round;fill-rule:evenodd;"
d="M 54972.1,43294.3
54991,43247
54989.1,43228.8
54969.6,43239
54957.9,43261.8
54941.7,43316.1
54948.3,43326.9
Z" /> 
<path style="fill:#000000; fill-opacity:1.0; 
stroke:#000000; stroke-width:3.93701; stroke-opacity:1; 
stroke-linecap:round; stroke-linejoin:round;fill-rule:evenodd;"
d="M 53641.7,40398.8
53636.7,40376.5
53613.6,40336.3
53598.7,40343
53597.2,40359.1
53617.9,40397.8
53625.4,40403.4
Z" /> 
<path style="fill:#000000; fill-opacity:1.0; 
stroke:#000000; stroke-width:3.93701; stroke-opacity:1; 
stroke-linecap:round; stroke-linejoin:round;fill-rule:evenodd;"
d="M 53446.6,45949.4
53438.1,45936.4
53409.1,45934.4
53378.6,45941.4
53391.8,45951.7
53436.5,45955.1
Z" /> 
<path style="fill:#000000; fill-opacity:1.0; 
stroke:#000000; stroke-width:3.93701; stroke-opacity:1; 
stroke-linecap:round; stroke-linejoin:round;fill-rule:evenodd;"
d="M 54478.5,44920.6
54509.2,44891.8
54502.9,44875.3
54498.9,44875
54474.7,44895.3
54465.9,44908
54462.5,44927.6
Z" /> 
<path style="fill:#000000; fill-opacity:1.0; 
stroke:#000000; stroke-width:3.93701; stroke-opacity:1; 
stroke-linecap:round; stroke-linejoin:round;fill-rule:evenodd;"
d="M 54511.5,44632.2
54497.2,44617.9
54482.9,44632.2
54497.2,44646.5
Z" /> 
<path style="fill:#000000; fill-opacity:1.0; 
stroke:#000000; stroke-width:3.93701; stroke-opacity:1; 
stroke-linecap:round; stroke-linejoin:round;fill-rule:evenodd;"
d="M 54531.1,44570.9
54525.8,44560.7
54498.8,44533.5
54493.8,44532.2
54491.9,44550.6
54497.2,44560.7
54524.1,44588
54529.1,44589.3
Z" /> 
<path style="fill:#000000; fill-opacity:1.0; 
stroke:#000000; stroke-width:3.93701; stroke-opacity:1; 
stroke-linecap:round; stroke-linejoin:round;fill-rule:evenodd;"
d="M 54425.8,44575
54453,44549.4
54454.3,44544.8
54432.2,44532.5
54425.8,44532.2
54398.3,44554.1
54397.2,44562.4
54414.7,44579.5
Z" /> 
<path style="fill:#000000; fill-opacity:1.0; 
stroke:#000000; stroke-width:3.93701; stroke-opacity:1; 
stroke-linecap:round; stroke-linejoin:round;fill-rule:evenodd;"
d="M 54625.8,44517.9
54611.5,44503.6
54597.2,44517.9
54611.5,44532.2
Z" /> 
<path style="fill:#000000; fill-opacity:1.0; 
stroke:#000000; stroke-width:3.93701; stroke-opacity:1; 
stroke-linecap:round; stroke-linejoin:round;fill-rule:evenodd;"
d="M 54568.6,44517.9
54554.3,44503.6
54540,44517.9
54554.3,44532.2
Z" /> 
<path style="fill:#000000; fill-opacity:1.0; 
stroke:#000000; stroke-width:3.93701; stroke-opacity:1; 
stroke-linecap:round; stroke-linejoin:round;fill-rule:evenodd;"
d="M 54462.5,44482.8
54468.6,44475
54478.7,44449.3
54451.6,44459
54425.8,44475
54403.8,44498
54416.9,44503.2
Z" /> 
<path style="fill:#000000; fill-opacity:1.0; 
stroke:#000000; stroke-width:3.93701; stroke-opacity:1; 
stroke-linecap:round; stroke-linejoin:round;fill-rule:evenodd;"
d="M 54616.2,44436.9
54612.3,44419.9
54597.2,44417.9
54573.7,44428.3
54578.1,44436.9
54612,44440.4
Z" /> 
<path style="fill:#000000; fill-opacity:1.0; 
stroke:#000000; stroke-width:3.93701; stroke-opacity:1; 
stroke-linecap:round; stroke-linejoin:round;fill-rule:evenodd;"
d="M 54397.2,44432.2
54382.9,44417.9
54368.6,44432.2
54382.9,44446.5
Z" /> 
<path style="fill:#000000; fill-opacity:1.0; 
stroke:#000000; stroke-width:3.93701; stroke-opacity:1; 
stroke-linecap:round; stroke-linejoin:round;fill-rule:evenodd;"
d="M 54454.3,44403.6
54440,44389.3
54425.8,44403.6
54440,44417.9
Z" /> 
<path style="fill:#000000; fill-opacity:1.0; 
stroke:#000000; stroke-width:3.93701; stroke-opacity:1; 
stroke-linecap:round; stroke-linejoin:round;fill-rule:evenodd;"
d="M 54397.2,44375
54382.9,44360.7
54368.6,44375
54382.9,44389.3
Z" /> 
<path style="fill:#000000; fill-opacity:1.0; 
stroke:#000000; stroke-width:3.93701; stroke-opacity:1; 
stroke-linecap:round; stroke-linejoin:round;fill-rule:evenodd;"
d="M 54568.6,44346.5
54554.3,44332.2
54540,44346.5
54554.3,44360.7
Z" /> 
<path style="fill:#000000; fill-opacity:1.0; 
stroke:#000000; stroke-width:3.93701; stroke-opacity:1; 
stroke-linecap:round; stroke-linejoin:round;fill-rule:evenodd;"
d="M 54482.9,44346.5
54468.6,44332.2
54454.3,44346.5
54468.6,44360.7
Z" /> 
<path style="fill:#000000; fill-opacity:1.0; 
stroke:#000000; stroke-width:3.93701; stroke-opacity:1; 
stroke-linecap:round; stroke-linejoin:round;fill-rule:evenodd;"
d="M 54330.5,44294.1
54333.9,44260.2
54330.5,44256
54313.5,44259.9
54311.5,44275
54321.9,44298.5
Z" /> 
<path style="fill:#000000; fill-opacity:1.0; 
stroke:#000000; stroke-width:3.93701; stroke-opacity:1; 
stroke-linecap:round; stroke-linejoin:round;fill-rule:evenodd;"
d="M 53282.6,44138.6
53282.9,44132.2
53260.9,44104.7
53252.6,44103.6
53235.6,44121.1
53240,44132.2
53265.7,44159.4
53270.3,44160.7
Z" /> 
<path style="fill:#000000; fill-opacity:1.0; 
stroke:#000000; stroke-width:3.93701; stroke-opacity:1; 
stroke-linecap:round; stroke-linejoin:round;fill-rule:evenodd;"
d="M 53254.3,44060.7
53240,44046.5
53225.8,44060.7
53240,44075
Z" /> 
<path style="fill:#000000; fill-opacity:1.0; 
stroke:#000000; stroke-width:3.93701; stroke-opacity:1; 
stroke-linecap:round; stroke-linejoin:round;fill-rule:evenodd;"
d="M 53368.6,43689.3
53354.3,43675
53340,43689.3
53354.3,43703.6
Z" /> 
<path style="fill:#000000; fill-opacity:1.0; 
stroke:#000000; stroke-width:3.93701; stroke-opacity:1; 
stroke-linecap:round; stroke-linejoin:round;fill-rule:evenodd;"
d="M 54482.9,43632.2
54468.6,43617.9
54454.3,43632.2
54468.6,43646.5
Z" /> 
<path style="fill:#000000; fill-opacity:1.0; 
stroke:#000000; stroke-width:3.93701; stroke-opacity:1; 
stroke-linecap:round; stroke-linejoin:round;fill-rule:evenodd;"
d="M 54032.9,44261.1
54099.4,44232.4
54187.8,44193.4
54258.4,44167.2
54288.3,44160.3
54307.2,44152.5
54282.9,44132.2
54260.4,44109.4
54269.5,44104
54293.8,44079.1
54304.9,44032.2
54293.3,43975.5
54257.7,43957.5
54215.6,43977.5
54184.7,44035.1
54184.6,44035.5
54165.7,44084.1
54148.4,44092.9
54114.8,44092.3
54098.5,44102.5
54030.5,44131
53931.4,44142.2
53824.3,44135.4
53740,44113
53640,44071.1
53725.8,44034.9
53817.4,44003.1
53911.5,43979.2
54029.8,43949.9
54131.2,43913.8
54204,43876
54236.4,43842
54236,43832
54195.1,43794
54128.5,43782.1
54062.3,43798.8
54041.9,43814
54005.9,43839
53997.2,43824
53969.6,43800.8
53888.6,43789.5
53847.2,43788.4
53763.9,43786
53730.5,43778.4
53740,43763.2
53751,43756.3
53815.8,43739.9
53914.4,43738.8
53951,43742.2
54035.1,43748.8
54064.2,43742.6
54054.3,43731.9
54027.4,43709.9
54052.7,43704.1
54059.1,43704
54108.3,43722.2
54121.1,43739.3
54134.6,43756.8
54137.8,43742.2
54115.1,43700.8
54053,43659.7
53968.9,43624.6
53880.1,43601.3
53804,43595.4
53757.8,43612.7
53755.6,43615.8
53764.2,43643.3
53789.6,43654.8
53803.8,43661.1
53767.2,43658.7
53766.9,43658.7
53696.1,43665.5
53892.4,43665.5
53896.3,43648.5
53911.5,43646.5
53935,43656.9
53930.5,43665.5
53896.6,43668.9
53892.4,43665.5
53696.1,43665.5
53663.5,43668.6
53583.3,43718.2
53540.9,43798.1
53540.2,43802
53539.7,43803.6
53625.8,43803.6
53640,43789.3
53654.3,43803.6
53640,43817.9
53625.8,43803.6
53539.7,43803.6
53530,43832.2
53568.6,43832.2
53582.9,43817.9
53597.2,43832.2
53582.9,43846.5
53568.6,43832.2
53530,43832.2
53520.4,43860.7
53682.9,43860.7
53698.3,43822.7
53711.5,43817.9
53736.8,43841
53740,43860.7
53735.3,43872.4
54041.7,43872.4
54072.9,43852.8
54116,43845.7
54139.9,43855.8
54140,43857.4
54116.5,43872.4
54082.9,43883.3
54044.2,43885.2
54041.7,43872.4
53735.3,43872.4
53724.6,43898.8
53711.5,43903.6
53686.1,43880.5
53682.9,43860.7
53520.4,43860.7
53515.9,43874.1
53481.4,43891.4
53442.7,43852.8
53426.2,43819
53392.9,43750.6
53373,43734.5
53367.8,43767
53378.7,43844.5
53393.3,43910.7
53404.9,43948.1
53863.5,43948.1
53882.9,43932.2
53935,43908
53954.3,43904.5
53959.4,43916.3
53940,43932.2
53888,43956.3
53868.6,43959.9
53863.5,43948.1
53404.9,43948.1
53434.4,44042.8
53481.7,44133.8
53531.3,44176
53538,44177.6
53571.8,44190
53637.7,44218.2
53668.6,44232.1
53801.3,44280.7
53915.1,44290.3
Z" /> 
<path style="fill:#000000; fill-opacity:1.0; 
stroke:#000000; stroke-width:3.93701; stroke-opacity:1; 
stroke-linecap:round; stroke-linejoin:round;fill-rule:evenodd;"
d="M 54454.3,43575
54440,43560.7
54425.8,43575
54440,43589.3
Z" /> 
<path style="fill:#000000; fill-opacity:1.0; 
stroke:#000000; stroke-width:3.93701; stroke-opacity:1; 
stroke-linecap:round; stroke-linejoin:round;fill-rule:evenodd;"
d="M 53225.8,43460.7
53211.5,43446.5
53197.2,43460.7
53211.5,43475
Z" /> 
<path style="fill:#000000; fill-opacity:1.0; 
stroke:#000000; stroke-width:3.93701; stroke-opacity:1; 
stroke-linecap:round; stroke-linejoin:round;fill-rule:evenodd;"
d="M 53303.9,43404.4
53311.5,43389.3
53307.1,43364.4
53282.4,43371.8
53254.3,43389.3
53228.1,43411.5
53255.1,43417.4
53261.5,43417.4
Z" /> 
<path style="fill:#000000; fill-opacity:1.0; 
stroke:#000000; stroke-width:3.93701; stroke-opacity:1; 
stroke-linecap:round; stroke-linejoin:round;fill-rule:evenodd;"
d="M 53740,43203.6
53725.8,43189.3
53711.5,43203.6
53725.8,43217.9
Z" /> 
<path style="fill:#000000; fill-opacity:1.0; 
stroke:#000000; stroke-width:3.93701; stroke-opacity:1; 
stroke-linecap:round; stroke-linejoin:round;fill-rule:evenodd;"
d="M 52869.4,43036.9
52864.2,42981.2
52881.4,42974.1
52898.9,42970.9
52893.8,42947.9
52868.1,42909.3
52855.6,42903.6
52828.6,42880.9
52803.5,42839.3
52780.2,42801.1
52771,42815.4
52770.5,42821.9
52781.1,42874.6
52810.1,42954
52827.7,42993.3
52860.5,43057.8
52873.7,43070.5
Z" /> 
<path style="fill:#000000; fill-opacity:1.0; 
stroke:#000000; stroke-width:3.93701; stroke-opacity:1; 
stroke-linecap:round; stroke-linejoin:round;fill-rule:evenodd;"
d="M 52597.2,42689.3
52582.9,42675
52568.6,42689.3
52582.9,42703.6
Z" /> 
<path style="fill:#000000; fill-opacity:1.0; 
stroke:#000000; stroke-width:3.93701; stroke-opacity:1; 
stroke-linecap:round; stroke-linejoin:round;fill-rule:evenodd;"
d="M 52747.2,42653.8
52807.5,42617.5
52825.8,42609.7
52834.3,42597.9
52792.9,42591.7
52790,42591.6
52728,42602.4
52711.5,42635.7
52722.2,42665.5
Z" /> 
<path style="fill:#000000; fill-opacity:1.0; 
stroke:#000000; stroke-width:3.93701; stroke-opacity:1; 
stroke-linecap:round; stroke-linejoin:round;fill-rule:evenodd;"
d="M 53305.1,42904.7
53347.9,42881.7
53397.3,42854.8
53473.1,42825
53486.2,42820.7
53551.9,42788.6
53622.3,42738.5
53684.4,42682.2
53724.8,42631.7
53730.7,42599.1
53729.8,42598.1
53702.2,42606.7
53649.6,42645.5
53621.5,42670.5
53550.8,42725.9
53504.5,42735.5
53494.2,42729.7
53469.7,42681.5
53490.6,42625.4
53546.8,42569.1
53628.6,42520.2
53726.4,42486.4
53820.9,42475
53936.3,42493.2
54040.2,42536.1
54114.4,42568.6
54167.4,42572.6
54189,42551.4
54168.6,42508.6
54157.5,42496.6
54127.7,42457.5
54125.9,42441.6
54113.5,42427.6
54050.6,42416.4
53943.9,42408.8
53821.8,42405.6
53713.6,42407.4
53645.6,42418.5
53601,42442.9
53578.9,42465
53546.9,42494
53502.7,42513.6
53433.6,42526.4
53327.5,42535.2
53240,42539.7
53090,42545.4
52988.2,42545.3
52925.6,42538.1
52893.5,42522.7
52883.2,42497.8
52882.9,42491.4
52863.3,42445.4
52832.9,42410.9
52801.9,42389.8
52773,42395.4
52734.2,42434.8
52685.1,42499.3
52643,42560.5
52629.1,42589.7
52644.5,42582.2
52709.7,42546
52782.4,42533.3
52841,42545.5
52861.4,42567.9
52865.9,42625.4
52839.6,42657.7
52810.4,42656.4
52786.8,42653.4
52789.6,42670.3
52882.9,42670.3
52906.2,42652.3
52958.1,42647.1
53011.4,42654.6
53037.1,42670.3
53026.6,42683
53190.1,42683
53199.4,42673.1
53282.3,42650.1
53382.9,42673.8
53401.6,42687.9
53369.4,42695.6
53299.4,42698
53216.7,42694.6
53190.1,42683
53026.6,42683
53023.4,42686.8
52969.9,42694.1
52967.4,42694.1
52907.7,42687.1
52882.9,42670.3
52789.6,42670.3
52791.4,42680.8
52811.7,42724.1
52853.5,42774
52985.5,42774
53023.5,42770.1
53035.6,42770.6
53059.7,42775
53168.6,42775
53182.9,42760.7
53197.2,42775
53182.9,42789.3
53168.6,42775
53059.7,42775
53091.5,42780.8
53103,42789.9
53225.8,42789.9
53250.7,42769.8
53311.2,42760.8
53316.2,42760.7
53374.6,42763.5
53395.5,42770.2
53394.8,42771
53351.9,42790.6
53293,42801.6
53242.9,42801.1
53225.8,42789.9
53103,42789.9
53111.5,42796.5
53089.8,42815.8
53040,42810.2
53000,42791.6
52985.5,42774
52853.5,42774
52875.4,42800.1
52973.5,42861.2
53089.2,42902.3
53205.3,42918.4
Z" /> 
<path style="fill:#000000; fill-opacity:1.0; 
stroke:#000000; stroke-width:3.93701; stroke-opacity:1; 
stroke-linecap:round; stroke-linejoin:round;fill-rule:evenodd;"
d="M 52759.1,42322.6
52755.2,42305.7
52740,42303.6
52716.5,42314.1
52721,42322.6
52754.9,42326.1
Z" /> 
<path style="fill:#000000; fill-opacity:1.0; 
stroke:#000000; stroke-width:3.93701; stroke-opacity:1; 
stroke-linecap:round; stroke-linejoin:round;fill-rule:evenodd;"
d="M 53322.6,42287.2
53339.7,42203
53328.9,42131
53294.9,42092.4
53232.2,42076
53205.6,42085.4
53210.1,42101.4
53202.7,42129.2
53184.1,42137.2
53166.1,42153.6
53185.5,42193.1
53223.5,42239.6
53276.5,42294.5
53306.5,42307.7
Z" /> 
<path style="fill:#000000; fill-opacity:1.0; 
stroke:#000000; stroke-width:3.93701; stroke-opacity:1; 
stroke-linecap:round; stroke-linejoin:round;fill-rule:evenodd;"
d="M 53862.4,46015
53974.6,46001.8
54071.9,45980.4
54118.9,45963.5
54212.6,45925.4
54299.7,45896.4
54321.1,45890.9
54399.1,45858.3
54475.7,45804.6
54478,45802.4
54536,45755.7
54579.4,45732.7
54583.4,45732.2
54621.4,45711.3
54654.3,45675
54708.7,45630.2
54753.5,45617.8
54809.7,45599.9
54882.8,45554.9
54911.5,45532.2
54974.4,45481.1
55018.6,45450.5
55028.1,45446.5
55055.2,45421.4
55092.8,45355.6
55135.1,45263
55176.2,45157.5
55210.1,45053.1
55228.9,44975
55247.7,44849.8
55259.5,44724.8
55264,44612.1
55261.1,44524.2
55250.3,44473.2
55240,44465.5
55224.9,44441.6
55214.3,44371.7
55209.7,44268.5
55211.4,44156.8
55221.5,44084.9
55244.1,44035.5
55274,44000.8
55323,43914
55338.4,43794.7
55322.3,43654.8
55276.6,43506.7
55203.3,43362.3
55158.4,43297.1
55111.2,43223.1
55084.9,43158.1
55082.9,43143
55058.5,43053.3
54995.8,42987
54910.5,42960.7
54909.3,42960.7
54851,42955.5
54835.5,42928.4
54843.8,42882.2
54870.8,42816.3
54901.5,42780.8
54935.9,42747
54940,42733.8
54923.4,42697.7
54882.9,42648.1
54833.3,42599.2
54788.9,42565.2
54764.4,42560
54763.5,42561.7
54745.1,42556.2
54707.7,42511.1
54669,42451.8
54614.2,42370
54562.7,42308
54536.6,42286.2
54397.1,42213.7
54251.7,42140.7
54110.3,42072
53982.9,42012.2
53879.5,41966
53809.9,41938.2
53786.8,41932.2
53747.6,41908.6
53740,41878.5
53715,41838.4
53653.8,41804.3
53577.4,41783.2
53507,41782.1
53478.5,41792.3
53452,41794.2
53434.8,41753.5
53425.8,41695.7
53412,41623.4
53394.9,41604.4
53387.9,41611.4
53376.7,41663.8
53383.1,41732.9
53388.4,41798.3
53366.8,41817.9
53322.1,41836.1
53271.6,41875.3
53146.9,41994.9
53058.4,42081.4
53000.8,42140.9
52968.8,42179.7
52956.9,42203.9
52959.9,42219.5
52965.9,42226.6
52979.1,42268.9
52963.2,42295.8
52947.9,42337.6
52978.2,42382.6
53013.9,42414.3
53025,42403.7
53025.8,42381.2
53037.3,42339.3
53049.7,42332.2
53078.2,42309.2
53104.5,42264.5
53120,42202.9
53092.9,42154.5
53089.9,42151.4
53063.1,42117
53079.2,42094.7
53120.8,42076.9
53187.9,42063.8
53289.6,42057.5
53400.8,42059.3
53512.3,42068.1
53586.1,42083.6
53641.8,42112.8
53698.8,42162.3
53700.5,42163.9
53796.7,42257.2
53760,42130.6
53711.2,42021.8
53653.1,41968.6
53611.2,41943.1
53620.6,41933.2
53633.2,41932.6
53683.6,41951.1
53750.5,41998
53776,42020.8
53859.8,42090.6
53960.7,42161
53997.2,42183.2
54089.8,42240.2
54186.2,42305.8
54273.1,42370.1
54337,42423.1
54363.9,42453.4
54396.7,42473.2
54413.9,42475
54450.3,42492.2
54454.3,42505.3
54471.8,42522.3
54482.9,42517.9
54507.7,42523.9
54511.5,42542.4
54528.2,42586.1
54540.7,42594.3
54566.2,42626.6
54584.9,42686.8
54605,42765.4
54626.1,42818.5
54639.9,42867.1
54634.3,42885.6
54636.4,42902.8
54643.5,42903.6
54667.5,42927.7
54675,42960.7
54666.3,43007
54649.8,43017.9
54633.4,43044.1
54628.2,43115.3
54630.1,43160.6
54635,43243.5
54631.5,43277.4
54615.7,43270.3
54590.5,43239.2
54546.9,43172.4
54523.8,43123.5
54496.4,43083.8
54466.2,43091.2
54445.3,43137.4
54442.3,43177.8
54434.3,43244.6
54413.7,43281.7
54403.9,43299.8
54424.1,43303.2
54442.9,43312.7
54411.8,43343
54409.8,43344.5
54373.1,43381.4
54383.5,43414.3
54391.7,43423.1
54417.8,43444.3
54412.9,43418.2
54410.1,43410.7
54407.6,43369.1
54422.7,43360.7
54432.6,43367.7
54662.6,43367.7
54673.1,43360.7
54692.9,43386
54717.4,43451.1
54733.2,43509.3
54811,43509.3
54812.9,43417.4
54816.1,43360.7
54827.1,43208.2
54840.3,43105.3
54859.7,43044.5
54888.9,43018.3
54931.8,43019.3
54980.6,43035.2
55015.2,43075
55025.8,43129.8
55044.3,43211
55075.8,43264.1
55168.6,43390.6
55238.8,43527.3
55277.8,43655.3
55282.9,43709
55277.4,43766.8
55252,43781.1
55218.6,43773.5
55148.9,43747.9
55102.5,43723.4
55091.4,43707.2
55103,43704.5
55132.4,43678.8
55152.6,43617.7
55160.2,43542.8
55151.7,43475.4
55143.3,43456
55123.8,43428.8
55121.5,43448.7
55128,43489.3
55126,43578
55104.2,43628.2
55080.9,43653.9
55069.5,43643.3
55066.4,43588
55066.7,43543.1
55064.1,43456.8
55047.7,43407.7
55008.8,43376.5
54990,43366.9
54934.6,43332.3
54911.5,43302.1
54911.5,43302
54889.6,43276
54881.9,43275
54865.4,43291.2
54880.6,43328.6
54916.4,43370.7
54961.7,43401.1
54968.6,43403.6
55011.9,43428.6
55025.7,43456.5
55004.2,43469.5
54990,43467.9
54965,43484.7
54962.2,43542.3
54980,43629.4
55016.8,43734.9
55031.1,43767.9
55077.7,43855.1
55126.3,43898.8
55193.4,43910.5
55232.9,43908.5
55275.2,43916.5
55282.9,43929
55259,43973.6
55203.6,43995.4
55154.3,43989.2
55101.2,43955.4
55040.9,43900
54991,43841.1
54968.7,43796.9
54968.6,43795.2
54951.7,43761.6
54909.2,43702.8
54885.8,43673.9
54843.5,43619.5
54819.9,43570.6
54811,43509.3
54733.2,43509.3
54733.3,43509.7
54752,43600.9
54752.8,43655.6
54734.9,43691.7
54725.8,43701.5
54700.8,43720.4
54687.9,43706.1
54683.3,43649.1
54682.9,43597.8
54679.6,43504
54671.4,43429.5
54665.6,43405.9
54662.6,43367.7
54432.6,43367.7
54452.9,43381.9
54454.3,43391
54473.5,43408
54490,43403.1
54497,43405.9
54466.7,43437
54460.9,43442.2
54422.1,43488.7
54425.1,43517.5
54452,43517.5
54454.3,43508.3
54476.5,43475.1
54521.3,43461.6
54555.5,43477
54556.9,43500.4
54549.3,43500.9
54502.8,43501.7
54506.8,43529
54525.8,43550.6
54555.7,43591
54540.6,43617.9
54535,43621.6
54513.3,43641.7
54532.9,43646
54562.4,43667.8
54566.9,43710.7
54547.2,43739.4
54547.8,43745.3
54561.5,43742.7
54587.7,43758
54590.9,43775
54625.8,43775
54640,43760.7
54654.3,43775
54640,43789.3
54625.8,43775
54590.9,43775
54596.9,43807.3
54589.9,43870.4
54588,43875
54740,43875
54750.5,43851.5
54759.1,43856
54762.5,43889.9
54759.1,43894.1
54742.1,43890.2
54740,43875
54588,43875
54567.2,43926.7
54555.7,43941
54528.5,43980.7
54529.4,43997.8
54529.7,44033.2
54502.2,44090.4
54458.4,44149.5
54421.2,44183.8
54401.2,44203.6
54425.8,44203.6
54440,44189.3
54454.3,44203.6
54440,44217.9
54425.8,44203.6
54401.2,44203.6
54383.9,44220.7
54368.7,44253.9
54379.8,44267
54402,44257.7
54423.3,44256.7
54416.3,44291.8
54405.4,44327.7
54418,44319.7
54443.3,44289.3
54482.5,44254.1
54492.3,44260.7
54740,44260.7
54754.3,44246.5
54768.6,44260.7
54757.2,44272.1
54833.9,44272.1
54839.8,44243.5
54841.9,44238.1
54864.5,44203.1
54877.4,44202.8
54874.2,44233.1
54857.9,44254.1
54833.9,44272.1
54757.2,44272.1
54754.3,44275
54740,44260.7
54492.3,44260.7
54502.8,44267.9
54539.1,44301.1
54553.7,44303.6
54595.2,44326.7
54598.5,44332.2
54768.6,44332.2
54779.1,44308.7
54787.7,44313.1
54791.1,44347
54787.7,44351.2
54770.7,44347.3
54768.6,44332.2
54598.5,44332.2
54608.2,44348.3
54636.5,44377.8
54654.1,44375.2
54676.4,44384.2
54682.9,44419.7
54688.5,44462.4
54714.3,44455.4
54729.1,44443.7
54763.1,44421
54767.4,44442.2
54764.8,44456
54745.1,44497
54730.7,44503.2
54696.7,44520.1
54654.9,44560
54612.7,44597.6
54588.7,44587.3
54586.8,44583.3
54580.6,44580.5
54586.9,44622.9
54588.2,44629.3
54595,44684.8
54579.8,44694.9
54567.9,44688.9
54542.5,44682.7
54548.6,44713.2
54551.4,44752.8
54539.1,44760.7
54514.6,44783.9
54511.5,44803.6
54526.9,44841.6
54540,44846.5
54565.8,44869.4
54568.6,44886.9
54590,44931.7
54604.3,44940.2
54630.4,44959.4
54605.2,44977.1
54534.3,44990.8
54476.6,44995.8
54400,45005.9
54355,45022.7
54349.7,45032.2
54327.8,45053.3
54268,45068.4
54254.3,45069.9
54179.3,45083.2
54129.8,45103.4
54127.2,45105.6
54078.8,45127.1
54036,45132.2
53978.3,45142.9
53955.3,45159.1
53919.2,45175
53846.6,45184.7
53803.7,45186
53678,45189.9
53598.2,45203
53597.2,45203.6
54854.3,45203.6
54868.6,45189.3
54882.9,45203.6
54868.6,45217.9
54854.3,45203.6
53597.2,45203.6
53553.7,45227.6
53544.2,45239.8
53503.4,45258
53417.9,45247.9
53414.4,45247.1
53333.7,45234.7
53273.1,45235.3
53265.1,45237.5
53230.8,45231.5
53225.8,45215.2
53217.5,45192.8
53191.5,45212.2
53145.3,45242.2
53127.2,45246
53120.9,45233.9
53140,45217.9
53150.2,45200.9
53111.3,45191.9
53042.7,45189.8
52927.8,45178
52836.3,45137.2
52806.5,45116
52751.1,45065.3
52726.2,45024.8
52727.3,45015.3
52728.1,44992.4
52720.7,44992
52671.6,44993.2
52665.5,44992.7
52640.9,44965.1
52609.4,44896.1
52575.5,44800.4
52544,44692.5
52519.5,44587
52506.6,44498.6
52506.3,44494.5
52496.6,44420.6
52480.9,44375.4
52476.9,44371.3
52460,44335.3
52454.3,44282.2
52457,44231.3
52471.3,44232.1
52493.3,44260.2
52535.5,44294.7
52606,44309.3
52674.4,44310.3
52774,44300.8
52847.5,44269.9
52917.7,44212.5
53012,44126.4
53075.4,44074.6
53116.8,44050.5
53136.6,44046.5
53171.7,44021.7
53183.4,43952.2
53172,43845.3
53138,43708.3
53115.5,43639.2
53074.1,43523.1
53036.1,43422.4
53007.7,43353.4
53000.5,43338.4
52986.9,43296
53011.4,43266.9
53056.5,43245.6
53129.2,43225.1
53203.7,43231.8
53258,43247.7
53334.3,43269.1
53375.6,43267.7
53396.5,43247.6
53439.4,43223
53463.5,43226.3
53494,43260.6
53487.7,43310.2
53451.6,43353.6
53415.7,43368.4
53374.6,43379.1
53386.8,43393.4
53404.1,43401.6
53468.4,43401.1
53543.1,43354.5
53621,43269.9
53694.9,43155.4
53757.6,43019.4
53768.4,42989.3
53800.7,42902.6
53831.9,42828.4
53833.4,42825.1
53850.5,42770.1
53846.5,42743.4
53827.8,42756.7
53798.8,42804.8
53768.5,42869
53746.2,42930.4
53740,42963.5
53726.4,43006.1
53692.9,43072.1
53650.2,43143.5
53609.3,43202.3
53581.1,43230.6
53578.6,43231.1
53519.4,43219.2
53435.4,43192.5
53348.9,43159.3
53282.2,43127.9
53261.5,43113.8
53229.8,43058.9
53225.8,43034.2
53213.4,42993.8
53186.6,42998.3
53161.2,43043.8
53159.4,43050.2
53131.5,43095.3
53084.6,43095.8
53036.2,43096.9
53025.8,43123.9
53007.9,43154.6
52954.3,43153.7
52901,43152.4
52883.8,43184.8
52883.3,43200.4
52893.1,43263.1
52913.7,43263.1
52919,43226.1
52928.7,43225.6
52935.6,43263.9
52931,43280.4
52918.3,43291.2
52913.7,43263.1
52893.1,43263.1
52895.6,43279.7
52925.3,43378
52962.6,43467.2
52987.1,43507.4
53015.9,43565
53031.6,43621.7
53036.7,43672.1
53016.4,43685.5
52957.1,43671.7
52823.7,43648.2
52715,43658.2
52644.5,43698.7
52607.1,43746.8
52607,43772.2
52649,43776.5
52738.3,43761.4
52797.2,43748.2
52835.3,43742.1
52826.3,43750.7
52768.9,43787.8
52746.1,43807.8
52891.8,43807.8
52895.6,43791
52908.4,43789.3
52929.1,43771.8
52924.3,43758.4
52933,43749.3
52978.5,43765.7
52994,43773.4
53053.1,43806.5
53082.2,43828
53082.9,43829.6
53059.1,43836.2
53003.9,43833.5
52942,43824.5
52897.8,43811.8
52891.8,43807.8
52746.1,43807.8
52745.7,43808.2
52691.3,43835.3
52615.1,43846.5
52539.1,43857
52501.9,43874.7
52696.4,43874.7
52702.7,43864.7
52740.9,43847.9
52758.9,43882.3
52759.1,43889.3
52797.2,43889.3
52811.5,43875
52825.8,43889.3
52997.2,43889.3
53011.5,43875
53025.8,43889.3
53011.5,43903.6
52997.2,43889.3
52825.8,43889.3
52811.5,43903.6
52797.2,43889.3
52759.1,43889.3
52747.1,43927.4
52737,43932.2
52703.1,43912.1
52696.4,43874.7
52501.9,43874.7
52486.2,43882.2
52466.5,43892.3
52458,43866.7
52459.1,43797
52462.5,43746.5
52487.1,43552.2
52533.2,43381
52581.3,43260.3
52630,43148.5
52661,43071.9
52680.6,43013.7
52694.9,42957.2
52696.8,42948.6
52705.6,42893.8
52693.8,42885.1
52673,42899.9
52633.4,42948.1
52590,43021.7
52583.1,43035.8
52550.2,43096.7
52526.8,43125
52523.1,43124.7
52520.5,43092.4
52525.7,43019.8
52536.5,42929.6
52548.8,42834.9
52555.8,42766.3
52556.2,42739.7
52540.7,42758.1
52508.1,42812.8
52488,42849.5
52472.2,42880.6
52459.4,42912.9
52449.1,42952.2
52441.2,43004.4
52435.3,43075.4
52431.2,43171
52428.4,43297.2
52426.8,43459.8
52426,43664.6
52425.8,43917.5
52425.8,44049.7
52454.7,44049.7
52483.7,43944.4
52510.7,43890.6
52532.3,43891.1
52543.4,43924
52597.6,43924
52606.2,43905.9
52619.1,43920.4
52661.2,43951.1
52708.8,43968.9
52780.8,43969.9
52867.6,43949.6
52880.3,43944.8
52982.9,43903.3
52911.5,43959.9
52834.7,43999
52748.5,44012
52669.3,44000.7
52613.8,43967.2
52597.6,43924
52543.4,43924
52551.2,43947.1
52557.3,43977.8
52584.5,44067.6
52632,44110
52712.1,44114.5
52734.7,44111.4
52809.3,44092.7
52857.1,44068
52861,44063.5
52879.3,44050.8
52882.5,44069.3
52857.8,44104.3
52795.7,44141.4
52714.7,44172.3
52633.4,44188.5
52614.7,44189.3
52516.3,44174.8
52463.6,44129.3
52454.7,44049.7
52425.8,44049.7
52425.8,44074.2
52426,44360.1
52426.9,44594
52428.6,44781.2
52431.4,44927
52435.4,45036.5
52440.8,45115.1
52447.8,45167.8
52456.7,45200
52467.5,45216.9
52468.6,45217.9
52503.3,45260.7
53054.3,45260.7
53068.6,45246.5
53082.9,45260.7
53068.6,45275
53054.3,45260.7
52503.3,45260.7
52504.7,45262.5
52509,45276.7
53282.9,45276.7
53303.6,45247.6
53311.5,45246.5
53339.3,45256.2
53340,45259.1
53320,45283.4
53311.5,45289.3
53285.1,45287
53282.9,45276.7
52509,45276.7
52511.5,45285
52533.3,45326.2
52545.2,45339
54609.6,45339
54637.7,45334.4
54674.7,45339.7
54675.2,45349.4
54636.9,45356.3
54620.4,45351.7
54609.6,45339
52545.2,45339
52578.8,45375
53425.8,45375
53440,45360.7
53454.3,45375
53440,45389.3
53425.8,45375
52578.8,45375
52590,45387
52668.5,45456.1
52755.8,45522
52756.9,45522.6
54549.6,45522.6
54553.5,45505.7
54568.6,45503.6
54592.1,45514.1
54587.7,45522.6
54553.8,45526.1
54549.6,45522.6
52756.9,45522.6
52838.8,45573.3
52844,45576
52914.9,45613.6
52948.1,45633.2
54254.7,45633.2
54282.5,45605.2
54342.7,45574.7
54351.7,45571.3
54413.9,45548.3
54446.5,45535.9
54447.2,45535.6
54454.1,45554.2
54454.3,45562.2
54430.8,45588.1
54376.1,45618.6
54314,45642.5
54269.5,45648.9
54254.7,45633.2
52948.1,45633.2
52961.4,45641
52968.6,45646.5
53014.1,45678.4
53078.2,45711.4
53131.8,45731
53140.9,45732.2
53181.5,45750.2
53194.8,45760.7
53940,45760.7
53949.8,45732.9
53952.6,45732.2
53968.4,45745.1
54037.6,45745.1
54040.2,45731.8
54070.8,45708.2
54103.6,45704.2
54111.5,45714.8
54089.1,45733.2
54067.1,45743.1
54037.6,45745.1
53968.4,45745.1
53977,45752.2
53982.9,45760.7
53980.6,45787.1
53970.3,45789.3
53941.2,45768.6
53940,45760.7
53194.8,45760.7
53234.1,45791.8
53241.7,45797.4
53657.2,45797.4
53685.9,45803.4
53691.3,45805.4
53726.3,45828.1
53726.5,45840.9
53696.3,45837.7
53675.3,45821.4
53657.2,45797.4
53241.7,45797.4
53303.7,45842.8
53331.3,45857.5
53492.7,45857.5
53497.2,45846.5
53522.9,45819.2
53527.4,45817.9
53539.7,45840
53540,45846.5
53518.1,45873.9
53509.8,45875
53492.7,45857.5
53331.3,45857.5
53391.1,45889.3
53568.6,45889.3
53582.9,45875
53597.2,45889.3
53582.9,45903.6
53568.6,45889.3
53391.1,45889.3
53391.7,45889.6
53404.1,45894.9
53467.6,45926.7
53497.4,45954.2
53497.2,45960.8
53499.1,45967.6
53552.4,45967.6
53580.5,45963
53617.6,45968.3
53618,45978
53579.8,45984.8
53563.3,45980.3
53552.4,45967.6
53499.1,45967.6
53504.6,45987.5
53556.7,46006.3
53641.6,46017.2
53747.5,46020.1
Z" /> 
<path style="fill:#000000; fill-opacity:1.0; 
stroke:#000000; stroke-width:3.93701; stroke-opacity:1; 
stroke-linecap:round; stroke-linejoin:round;fill-rule:evenodd;"
d="M 52740,41346.5
52725.8,41332.2
52711.5,41346.5
52725.8,41360.7
Z" /> 
<path style="fill:#000000; fill-opacity:1.0; 
stroke:#000000; stroke-width:3.93701; stroke-opacity:1; 
stroke-linecap:round; stroke-linejoin:round;fill-rule:evenodd;"
d="M 53597.2,41003.6
53582.9,40989.3
53568.6,41003.6
53582.9,41017.9
Z" /> 
<path style="fill:#000000; fill-opacity:1.0; 
stroke:#000000; stroke-width:3.93701; stroke-opacity:1; 
stroke-linecap:round; stroke-linejoin:round;fill-rule:evenodd;"
d="M 53911.5,40975
53897.2,40960.7
53882.9,40975
53897.2,40989.3
Z" /> 
<path style="fill:#000000; fill-opacity:1.0; 
stroke:#000000; stroke-width:3.93701; stroke-opacity:1; 
stroke-linecap:round; stroke-linejoin:round;fill-rule:evenodd;"
d="M 52899.2,41640.2
52950.1,41614.1
53007.3,41575.2
53052,41535.6
53065.2,41516.6
53082.7,41438.9
53080.6,41365.1
53061.1,41314.7
53040,41303.6
53005.1,41279.8
52997.2,41246.5
52985.2,41200
52968.7,41189.3
52939,41167
52892.4,41109.3
52854.9,41053.6
52809.2,40985.5
52778.1,40948.2
52769.2,40947.2
52783.7,40991.9
52807.6,41033
52847.5,41106.2
52879.3,41192.6
52901.6,41281.5
52913.1,41362.3
52912.6,41424.3
52898.7,41456.7
52870.3,41449.1
52855.8,41434
52806.7,41396.7
52778.6,41389.3
52760.1,41401.5
52770.5,41444
52803.5,41510.7
52842.3,41583.4
52868,41631.6
52873.1,41641.4
Z" /> 
<path style="fill:#000000; fill-opacity:1.0; 
stroke:#000000; stroke-width:3.93701; stroke-opacity:1; 
stroke-linecap:round; stroke-linejoin:round;fill-rule:evenodd;"
d="M 53680.9,41379.9
53692.6,41377.8
53764.4,41353.6
53786.9,41314.8
53786.8,41310.1
53762.6,41244
53714.1,41197.8
53683.3,41189.3
53664.3,41171.9
53668.6,41160.7
53661.1,41137.2
53635.6,41132.2
53592.1,41112.2
53525.9,41059.6
53451,40985.6
53448.2,40982.6
53382.2,40915.4
53333.6,40875.5
53311.9,40870.4
53311.5,40873
53324.6,40908.6
53358.9,40980
53407.2,41073.4
53462.1,41175.1
53516.1,41271.3
53561.9,41348.4
53586.7,41385.6
53616.9,41387.9
Z" /> 
<path style="fill:#000000; fill-opacity:1.0; 
stroke:#000000; stroke-width:3.93701; stroke-opacity:1; 
stroke-linecap:round; stroke-linejoin:round;fill-rule:evenodd;"
d="M 53825.8,40832.2
53811.5,40817.9
53797.2,40832.2
53811.5,40846.5
Z" /> 
<path style="fill:#000000; fill-opacity:1.0; 
stroke:#000000; stroke-width:3.93701; stroke-opacity:1; 
stroke-linecap:round; stroke-linejoin:round;fill-rule:evenodd;"
d="M 54395.4,42119
54416,42080
54418.1,42048.5
54427.3,41987.1
54455.4,41908.5
54459.8,41899
54530.4,41748.7
54578,41636.2
54606.2,41548.7
54618.3,41473.5
54617.9,41397.6
54612.4,41340.3
54605.3,41210.7
54620.7,41109.7
54637.8,41061.8
54667.7,40957.6
54680.6,40846.8
54680.6,40835.8
54678.3,40717.9
54600.6,40889.3
54579.9,40790.7
54564.5,40730.3
54551.2,40720.8
54537.3,40747.8
54519.8,40777.1
54513.5,40766.2
54494.1,40743.6
54479.7,40748.4
54439.8,40745.7
54423,40728.7
54401.3,40708.7
54396.4,40717.9
54393,40760.1
54385.8,40839.8
54378.7,40914.3
54373.9,41000.3
54377.6,41055.2
54387,41067
54403,41081.8
54412.2,41137.4
54412.8,41156.3
54416.3,41237.9
54423.9,41351.7
54434.2,41473.5
54434.3,41475
54443.4,41580.5
54445.3,41636
54439,41648.1
54423.6,41623.5
54415.8,41607.4
54387.5,41556.1
54369.1,41553.4
54358.7,41574
54348,41629.4
54341.3,41717.7
54340,41775.5
54334.8,41878.2
54321.5,41968.3
54312.2,42001.7
54298,42055.7
54315.3,42074.3
54326.5,42075
54364,42091.6
54368.6,42105.3
54385.9,42122.9
Z" /> 
<path style="fill:#000000; fill-opacity:1.0; 
stroke:#000000; stroke-width:3.93701; stroke-opacity:1; 
stroke-linecap:round; stroke-linejoin:round;fill-rule:evenodd;"
d="M 54482.9,40689.3
54468.6,40675
54454.3,40689.3
54468.6,40703.6
Z" /> 
<path style="fill:#000000; fill-opacity:1.0; 
stroke:#000000; stroke-width:3.93701; stroke-opacity:1; 
stroke-linecap:round; stroke-linejoin:round;fill-rule:evenodd;"
d="M 53823.2,40583.4
53819.7,40556.8
53803.9,40535.3
53785.3,40556.9
53774.8,40599
53780,40610.3
53808.3,40615
Z" /> 
<path style="fill:#000000; fill-opacity:1.0; 
stroke:#000000; stroke-width:3.93701; stroke-opacity:1; 
stroke-linecap:round; stroke-linejoin:round;fill-rule:evenodd;"
d="M 54014.8,40577
54024.5,40576.1
54123.6,40564.4
54199.7,40549.2
54233.9,40535.5
54228.9,40519.9
54183.3,40513.8
54112.7,40516
54032.5,40525.7
53958.3,40541.9
53921.7,40554.9
53883.4,40574.1
53881.8,40583.3
53923.4,40583.8
Z" /> 
<path style="fill:#000000; fill-opacity:1.0; 
stroke:#000000; stroke-width:3.93701; stroke-opacity:1; 
stroke-linecap:round; stroke-linejoin:round;fill-rule:evenodd;"
d="M 54446.6,40492.3
54438.1,40479.3
54409.1,40477.3
54378.6,40484.3
54391.8,40494.5
54436.5,40498
Z" /> 
<path style="fill:#000000; fill-opacity:1.0; 
stroke:#000000; stroke-width:3.93701; stroke-opacity:1; 
stroke-linecap:round; stroke-linejoin:round;fill-rule:evenodd;"
d="M 54587.7,40465.5
54583.7,40448.5
54568.6,40446.5
54545.1,40456.9
54549.6,40465.5
54583.5,40468.9
Z" /> 
<path style="fill:#000000; fill-opacity:1.0; 
stroke:#000000; stroke-width:3.93701; stroke-opacity:1; 
stroke-linecap:round; stroke-linejoin:round;fill-rule:evenodd;"
d="M 54796.9,40504.4
54823.4,40472.7
54806.7,40444.6
54774.6,40431.8
54742.9,40469.6
54741.7,40472
54725.5,40520.4
54749.1,40528.5
Z" /> 
<path style="fill:#000000; fill-opacity:1.0; 
stroke:#000000; stroke-width:3.93701; stroke-opacity:1; 
stroke-linecap:round; stroke-linejoin:round;fill-rule:evenodd;"
d="M 53844.8,40436.9
53848.2,40403
53844.8,40398.8
53827.8,40402.8
53825.8,40417.9
53836.2,40441.4
Z" /> 
<path style="fill:#000000; fill-opacity:1.0; 
stroke:#000000; stroke-width:3.93701; stroke-opacity:1; 
stroke-linecap:round; stroke-linejoin:round;fill-rule:evenodd;"
d="M 54054.3,40289.3
54040,40275
54025.8,40289.3
54040,40303.6
Z" /> 
<path style="fill:#000000; fill-opacity:1.0; 
stroke:#000000; stroke-width:3.93701; stroke-opacity:1; 
stroke-linecap:round; stroke-linejoin:round;fill-rule:evenodd;"
d="M 54703.7,40235.1
54695.2,40222.2
54666.2,40220.1
54635.7,40227.1
54649,40237.4
54693.6,40240.8
Z" /> 
<path style="fill:#000000; fill-opacity:1.0; 
stroke:#000000; stroke-width:3.93701; stroke-opacity:1; 
stroke-linecap:round; stroke-linejoin:round;fill-rule:evenodd;"
d="M 51682.9,40003.6
51668.6,39989.3
51654.3,40003.6
51668.6,40017.9
Z" /> 
<path style="fill:#000000; fill-opacity:1.0; 
stroke:#000000; stroke-width:3.93701; stroke-opacity:1; 
stroke-linecap:round; stroke-linejoin:round;fill-rule:evenodd;"
d="M 51311.5,39946.5
51297.2,39932.2
51282.9,39946.5
51297.2,39960.7
Z" /> 
<path style="fill:#000000; fill-opacity:1.0; 
stroke:#000000; stroke-width:3.93701; stroke-opacity:1; 
stroke-linecap:round; stroke-linejoin:round;fill-rule:evenodd;"
d="M 51612,39968.4
51607.5,39946.5
51587.2,39908.9
51579.8,39903.6
51569.9,39926.9
51568.6,39946.5
51583.6,39984.5
51596.3,39989.3
Z" /> 
<path style="fill:#000000; fill-opacity:1.0; 
stroke:#000000; stroke-width:3.93701; stroke-opacity:1; 
stroke-linecap:round; stroke-linejoin:round;fill-rule:evenodd;"
d="M 49649.4,40315.8
49856,40309.6
50028.1,40298.4
50177.2,40281.6
50268.6,40267.1
50430.2,40238.3
50543.4,40217
50616.3,40201.2
50656.6,40188.9
50672.5,40178
50671.9,40166.3
50669.8,40162.6
50658,40152.9
50632.5,40147.8
50586.1,40147.8
50511.5,40153.4
50401.4,40165.3
50248.6,40183.9
50063,40207.6
49804.6,40232.7
49528.3,40242.3
49263,40239
49050.9,40230.5
48884.1,40216.5
48750.4,40193.3
48638.1,40157.3
48535.1,40104.5
48429.6,40031.2
48318.6,39941.4
48278,39895.3
48247.4,39829.3
48225.4,39735.9
48210.9,39607.7
48202.6,39437.2
48199.3,39225.8
48199.6,39071.4
48204,38959.4
48214.4,38875.4
48232.8,38804.6
48261,38732.5
48265.4,38722.4
48307.9,38635.4
48347.1,38570.5
48368.2,38546.7
48402.8,38506.9
48438.5,38440.3
48439.7,38437.7
48485.3,38358.3
48559.2,38258.9
48648.6,38153.8
48741,38057.5
48823.4,37984.3
48868.6,37954.3
48960.2,37909.9
49040,37872.8
49117,37832.7
49209.8,37777.4
49245.2,37754.5
49318.9,37708.6
49373.9,37679.9
49389.8,37675
49429.2,37663.5
49498.1,37634.5
49527.7,37620.6
49639.7,37571.2
49777.3,37516.9
49917.4,37466.5
50036.8,37428.5
50069.3,37419.8
50155.7,37392
50221,37363.3
50280.3,37342.6
50382.1,37317.6
50512.1,37291.1
50656.1,37265.4
50799.7,37243.1
50928.7,37226.6
51028.8,37218.5
51048.6,37218.1
51149.7,37207
51243.2,37180
51258.5,37172.9
51342.5,37139.3
51446.4,37110.1
51478.5,37103.5
51638.2,37071
51769.2,37038.1
51861.5,37007.4
51899.9,36987.1
51945.8,36963.5
52024.8,36935
52072.5,36920.8
52151.3,36898.6
52270.3,36864.7
52415,36823.1
52570.7,36778.2
52611.5,36766.3
52759.9,36724
52893.7,36687.3
53001.1,36659.4
53069.8,36643.4
53082.6,36641.2
53141.6,36616
53163.3,36582.2
53162.4,36549.4
53137.7,36537.1
53080.2,36545.8
52981.4,36575.6
52940,36589.5
52839.2,36620.5
52705.8,36656.9
52563.1,36692.4
52511.5,36704.4
52382.6,36735.6
52265.1,36767.7
52176.8,36795.6
52150,36806.1
52075,36834
52016.3,36846.4
52014.2,36846.5
51961.2,36859.4
51885.2,36891.6
51861.8,36903.6
51775.8,36940.4
51696.6,36959.8
51681.9,36960.7
51611.9,36974
51572.9,36996.5
51524.6,37021.7
51433.9,37050.5
51315,37079.2
51182.3,37104.3
51068.6,37120.4
50867.4,37146.4
50670.5,37176.8
50490.2,37209.5
50339,37242
50229.4,37272.1
50211.5,37278.5
50123.9,37308.9
50055.4,37328.4
50031.7,37332.2
49988.4,37343.5
49910.6,37373.3
49817.4,37414
49691.5,37467.6
49553.9,37519.5
49468.6,37547.8
49357.5,37588.9
49253.2,37639.4
49199.7,37673.2
49113,37729.1
49006.6,37785.7
48960.9,37806.5
48885.9,37846.7
48793.9,37907.8
48696.5,37980.5
48605.6,38055.2
48532.7,38122.6
48489.6,38173.4
48482.9,38190.6
48467.6,38226.6
48428.2,38291.2
48396.2,38338.3
48295.6,38482.8
48226.8,38588.3
48185.9,38661
48169.4,38706.9
48168.6,38715.6
48151.4,38764.5
48140,38775
48128.2,38809.7
48118.7,38890.9
48112.6,39007.9
48110.6,39126.7
48106.7,39303.1
48096.4,39427.5
48079.8,39497.8
48074.5,39506.9
48014.4,39557.1
47909.7,39615.5
47771.7,39677.7
47611.7,39739.7
47440.9,39797.2
47270.5,39846
47111.8,39881.9
47037.5,39894.1
46957.3,39909.7
46904.1,39928.6
46894.7,39936.2
46854.9,39960.8
46810.9,39942.6
46788.9,39903.6
46752.8,39860
46690.5,39846.2
46625.7,39864.4
46599,39887.1
46576.3,39947.5
46572,40035.1
46573.4,40046.5
46654.3,40046.5
46661.4,39967
46684.9,39934.2
46697.2,39932.2
46731.7,39956.9
46740,40001.3
46733,40075.3
46722.7,40115.5
46695.6,40158.2
46671.8,40149.3
46656.8,40094.4
46654.3,40046.5
46573.4,40046.5
46583.6,40127.2
46609.1,40201
46632.9,40229.1
46698.4,40242.7
46755.8,40209.8
46789.4,40140.3
46791.4,40128
46806.7,40086.8
46847.4,40053
46922.3,40022.6
47040.2,39991.4
47125.8,39972.6
47279.2,39934.2
47461.3,39879.6
47648.8,39816.5
47818.4,39752.3
47901.7,39716.7
47999.9,39674.8
48077.2,39647
48119.9,39638.2
48123.6,39639.5
48134.9,39676.8
48140,39744.9
48140,39749.9
48149.6,39838.2
48170.8,39909.4
48227.6,39983.4
48328.6,40066.8
48463.1,40152.4
48620.9,40232.5
48625.8,40234.6
48689.4,40262.6
48744.5,40283.5
48800.7,40298.3
48867.6,40308.1
48954.8,40313.9
49071.9,40316.8
49228.5,40317.7
49397.2,40317.8
Z" /> 
<path style="fill:#000000; fill-opacity:1.0; 
stroke:#000000; stroke-width:3.93701; stroke-opacity:1; 
stroke-linecap:round; stroke-linejoin:round;fill-rule:evenodd;"
d="M 53522.2,36566.6
53556.3,36547.4
53629,36523
53703,36503.8
53801.8,36478.8
53883.3,36454.3
53919,36440.5
53951.8,36419.2
53949.6,36391.6
53919,36346.1
53868.3,36298.1
53801,36280.5
53706.9,36293
53575.5,36335.6
53559.2,36341.8
53472.7,36378.2
53412.8,36409.5
53393.6,36427.1
53410.3,36466.8
53447.2,36515.2
53488.3,36555.2
53518,36569.5
Z" /> 
<path style="fill:#000000; fill-opacity:1.0; 
stroke:#000000; stroke-width:3.93701; stroke-opacity:1; 
stroke-linecap:round; stroke-linejoin:round;fill-rule:evenodd;"
d="M 53945.8,41340
54072.2,41315
54145.5,41278.2
54168.6,41229.2
54150,41198.3
54117.5,41201.7
54069.2,41190.4
53999.6,41141.6
53919,41065.4
53837.8,40971.9
53766,40871.4
53739.4,40826.3
53701.3,40749.8
53691.5,40702.7
53707.2,40666.4
53714.1,40657.6
53740.8,40588.8
53750.7,40468.9
53750.5,40427.8
53753.1,40314
53767.1,40255.2
53792.1,40251.8
53814.2,40279.4
53817.6,40299
53801.9,40292.2
53780.6,40291.5
53784.9,40312.8
53804.1,40334.4
53840.2,40316.9
53866,40295.1
53947.9,40250.3
54042.9,40231.4
54128.7,40226.5
54173.5,40218.1
54193.4,40199.8
54204.3,40165.3
54224.3,40135.6
54273.4,40112.1
54362.3,40090.8
54443.3,40076.9
54562.5,40057.6
54669.7,40039.6
54744.3,40026.4
54751.2,40025.1
54804.7,40017.8
54823.9,40034.1
54818.9,40087.9
54814.2,40113.5
54807.4,40188.4
54822.3,40217.7
54824.5,40217.9
54854.1,40212.5
54855.3,40210.7
54860.5,40181.4
54873.4,40109.5
54891.5,40008.9
54897.6,39975
54927,39769.2
54936.7,39592.6
54926.5,39453.3
54897.2,39360.7
54866.8,39278.5
54855.3,39198.1
54878,39106.5
54947.5,39046.6
55062.3,39019.5
55106.4,39017.9
55208.9,39008.1
55304.6,38984
55321.4,38977.2
55391.7,38952.6
55498.2,38923.5
55621,38895.2
55654.3,38888.3
55785.3,38858.5
55912.1,38823
56011.2,38788.8
56025.8,38782.6
56130.6,38743.4
56237.9,38714.8
56268.5,38709.6
56368.2,38685.4
56460,38646.8
56468.5,38641.9
56559.1,38605
56657.3,38589.4
56658,38589.4
56736,38579
56790.7,38553.6
56794.7,38549.5
56845,38517.4
56919.6,38496.2
57053.9,38473
57190.1,38443.3
57314.6,38410.8
57413.6,38379.2
57473.4,38352.2
57481,38346.2
57500.9,38316.5
57508.2,38270.8
57503.3,38195.6
57487.7,38084.9
57470.9,37948.9
57471.2,37865.2
57482.5,37835.5
57507.8,37783.5
57511.5,37755
57525.8,37711.8
57542.6,37703.6
57582.8,37692.3
57658,37662.6
57750,37622
57851.8,37576.7
57942.7,37539.5
57997.4,37520.2
58066.8,37495.4
58173.9,37449.3
58322.6,37380
58517,37285.7
58560.7,37264.2
58661.1,37217.9
58724.4,37198.4
58762.3,37202.9
58773.6,37211.4
58831.5,37242
58893.6,37240.4
58926.9,37216
58934.7,37169.3
58928.8,37095.9
58927.3,37087.5
58908.8,37021
58873.9,36994.1
58809.5,36989.3
58734.5,36998.9
58694.4,37034.8
58684.7,37056.1
58668.8,37085
58650.3,37103.6
58797.2,37103.6
58806.9,37075.8
58809.8,37075
58834.2,37095
58840,37103.6
58837.8,37129.9
58827.4,37132.2
58798.4,37111.4
58797.2,37103.6
58650.3,37103.6
58639.3,37114.6
58589.2,37148.8
58511.2,37191.8
58398.4,37247.6
58243.6,37320.3
58154.3,37361.5
57998.8,37432.5
57887.5,37482
57812.9,37513
57767.7,37528.6
57747.3,37532.2
57704.5,37543.6
57638.9,37571.3
57637.3,37572.1
57535.4,37618.2
57471.6,37634.6
57433.6,37619
57409.3,37569.1
57397.5,37526.5
57372.2,37436.3
57347.2,37361.7
57341,37346.5
57323.2,37285.5
57305.8,37193.7
57298.2,37138.2
57283.6,37038.8
57266,36954.2
57257,36923.9
57237.2,36865.4
57207.6,36771.9
57174.6,36663.6
57173.7,36660.7
57135,36532.3
57088.7,36380.1
57044.1,36235.1
57039.9,36221.7
57007.7,36114.7
56984.7,36031.5
56974.1,35984.7
56974.3,35978.8
57002.7,35964.1
57060.5,35933.1
57068.6,35928.8
57132.1,35902.5
57235.2,35868.6
57361.7,35832
57454.3,35807.8
57684.4,35746.3
57872.3,35685.8
58032.7,35620.9
58180.1,35546.5
58184.8,35543.9
58322.8,35466.8
58363.5,35528.1
58424.6,35575.6
58506.1,35589
58582.9,35567.2
58614.6,35539.3
58637.7,35481.4
58651.6,35393.6
58653.4,35353.6
58651.4,35280
58636.5,35237.6
58597.5,35220.6
58523.3,35223.6
58420.7,35238.1
58350.3,35261.7
58310.1,35291
58257.7,35321.7
58195.4,35332.2
58125.2,35342.9
58096.5,35368.5
58115.1,35399.4
58130.3,35406.9
58447,35406.9
58457,35355.8
58499.9,35306.5
58539.4,35309.3
58564.7,35359.6
58568.6,35403.6
58565.3,35476.7
58548.7,35498.8
58509.2,35476.1
58484.9,35455.8
58447,35406.9
58130.3,35406.9
58144.9,35414.1
58176.3,35429.4
58175.2,35446.6
58135.1,35472.7
58051.2,35513.9
57962.7,35553.7
57894,35581.1
57864.1,35589.3
57823.5,35600.9
57753.1,35630.2
57718.2,35646.5
57629.5,35681.9
57549.4,35701.9
57528.8,35703.6
57468.7,35712.7
57442.1,35728.8
57407.1,35746.2
57333.9,35763.8
57272.2,35773.3
57174.5,35791.6
57094.2,35817.1
57064.7,35832.9
56996.5,35870.1
56945.4,35859.6
56904.2,35797.6
56882.9,35739.2
56840,35603.6
56640,35606.4
56456.6,35623.6
56239.7,35671.6
56140,35700.2
55980.4,35748.2
55806.1,35800.1
55645.2,35847.6
55582.9,35865.7
55457.7,35903.4
55343.3,35940.2
55258,35970.2
55235.7,35979.1
55153.5,36001.9
55046.4,36015.8
54992.1,36017.9
54891,36025.4
54808.5,36044.8
54780.9,36058.2
54720.6,36086.6
54628.8,36115.4
54567.4,36129.7
54401.1,36163.1
54281.6,36187.9
54199.6,36206.4
54146,36220.6
54111.3,36232.8
54088.6,36244
54059.1,36270.8
54077.2,36287.2
54134,36291.8
54220.7,36282.9
54268.9,36273.8
54385.9,36249.8
54516.5,36224.4
54568.6,36214.8
54672.4,36191
54764.4,36161.5
54801.6,36145
54875.2,36120.6
54975.5,36105.7
55025.8,36103.6
55132.3,36095.9
55230.6,36076.4
55264.3,36064.8
55349,36032.4
55474.5,35989.6
55626.1,35940.9
55789.5,35890.6
55950.2,35843.2
56093.6,35803.1
56205.4,35774.9
56220.4,35771.5
56323.5,35746.5
56409.9,35721
56454.2,35703.7
56513.8,35686.7
56603.7,35676.4
56650.2,35675
56735.2,35677.3
56779.9,35690.5
56801.1,35724.4
56811.4,35767.9
56828.4,35834
56859.3,35937.7
56899.1,36062.7
56927.9,36149.4
56968.5,36274
57000.9,36382.7
57021.1,36461.6
57025.9,36492.2
57039,36556.3
57067.7,36626.2
57101.9,36711.3
57127.7,36807.8
57128.4,36811.9
57154.2,36909.4
57193.2,37013.4
57200.9,37030.4
57235.4,37123.4
57253.8,37212.8
57254.8,37230.4
57261.6,37306.5
57278.7,37411.1
57295.2,37489.3
57322.3,37616.5
57348.8,37759.4
57373.1,37906.4
57393.3,38045.8
57407.8,38165.7
57414.9,38254.5
57413,38300.5
57412.1,38302.6
57373.6,38322.6
57304.2,38332.1
57295.5,38332.2
57230.1,38338.5
57197.9,38353.9
57197.2,38356.8
57171.1,38371.8
57102.8,38387.6
57006.8,38400.9
57005,38401.1
56900.2,38416.6
56814.7,38437.8
56769.2,38458.6
56715.7,38484.1
56630.8,38505
56588.9,38510.9
56496.7,38528.2
56422.9,38555.1
56403.2,38567.8
56345.5,38597.4
56258.6,38621.4
56223.6,38627.1
56112.4,38651.5
56001.8,38690.4
55980.8,38700.3
55828,38766.5
55672.2,38816.2
55533.9,38843.3
55482.2,38846.5
55382.2,38859.5
55288,38891.1
55287.4,38891.4
55206.9,38919.9
55099.4,38943.9
55033.4,38953.2
54924.7,38970.8
54855.6,39000.2
54817,39036.9
54756.1,39086.8
54668.1,39103.4
54653.9,39103.6
54578.6,39096.8
54530.6,39080.1
54525.8,39075
54491.1,39062.3
54413.3,39052.5
54306.4,39047.1
54254,39046.5
54072.9,39039.7
53943.6,39016.4
53861.7,38972.2
53823.2,38902.5
53823.9,38803
53859.6,38669.2
53870.8,38637.3
53918.8,38504.1
53969.8,38361.3
54007.9,38254
54045.5,38156.7
54081.3,38079.2
54105.4,38041.1
54136.4,37984.1
54140,37959.3
54156,37909.5
54196.5,37836.6
54222.7,37798
54313.4,37662.8
54369.9,37548.6
54399.3,37436.6
54408.9,37308.9
54411.5,37128.6
54251.3,36980.4
54159.9,36890.8
54074.5,36798.9
54014.2,36725
53964.1,36661.8
53917.3,36630
53851.1,36619
53786.9,36617.9
53680.8,36626.4
53600,36648.9
53581.2,36659.8
53509.7,36692.5
53447.2,36702.7
53391.9,36711.1
53371.1,36746.5
53368.6,36792
53381.7,36860.7
53454.3,36860.7
53468.6,36846.5
53482.9,36860.7
53476.1,36867.5
53548.4,36867.5
53554.3,36846.5
53595.1,36821.6
53620.3,36818.3
53652.3,36822.9
53631.5,36842.7
53625.8,36846.5
53573.4,36871.7
53548.4,36867.5
53476.1,36867.5
53468.6,36875
53454.3,36860.7
53381.7,36860.7
53388.7,36897.8
53440.5,36995.7
53511.3,37062.9
53523.3,37069.2
53566.7,37107
53625.1,37179.8
53687.9,37271.9
53744.3,37367.3
53783.3,37450.4
53783.4,37450.7
53777.8,37506.5
53753.6,37536.4
53660.7,37627.2
53572,37740.3
53496.9,37860.3
53445,37972.1
53425.8,38059.9
53413.6,38097.8
53380.3,38176.3
53330.5,38285.8
53269,38416.6
53200.6,38559.1
53129.8,38703.6
53061.4,38840.4
53000.2,38959.8
52950.8,39052.2
52918.1,39108
52908.6,39119.7
52888.7,39159.4
52883.8,39225.3
52893.4,39288.5
52911.5,39317.9
52930.4,39354.9
52939.5,39423.1
52939.4,39502.3
52930.4,39572.6
52913.1,39613.9
52904.3,39617.9
52864.2,39595.5
52806.6,39537.7
52742.9,39458.1
52684.4,39370.6
52654.3,39315.4
52578.7,39203.8
52472.9,39104.2
52354.5,39030.6
52245.8,38997
52153.3,38994.8
52097.9,39016.6
52085.4,39029.1
52063,39065.4
52067.2,39075
52065.7,39091.6
52040,39122
52006.5,39192.6
52010.6,39239
52011.1,39310.9
52008,39317.9
52111.5,39317.9
52125.8,39303.6
52140,39317.9
52125.8,39332.2
52111.5,39317.9
52008,39317.9
51992.9,39351.6
51968.9,39400
52332.9,39400
52382.1,39375.6
52463.4,39369.2
52510.6,39372.2
52510.3,39379.6
52504,39381.4
52470.4,39406
52473.8,39427.2
52472.7,39439.5
52445.9,39421.8
52406.1,39398.3
52383.9,39420
52379.3,39431.3
52359.1,39462.1
52337.6,39442.5
52332.9,39400
51968.9,39400
51960.7,39416.4
51956.8,39459.4
52209.1,39459.4
52211.7,39446.1
52242.2,39422.4
52275,39418.5
52282.9,39429.1
52260.5,39447.5
52238.6,39457.4
52209.1,39459.4
51956.8,39459.4
51954.4,39486.4
51975.7,39535.9
51979.7,39538.9
52032.5,39556.1
52075.8,39560.3
52128.1,39573.5
52137.4,39602
52104.3,39627.5
52104.6,39637.4
52150.4,39643.6
52166.8,39644.2
52281.4,39619.7
52338.2,39582.2
52411.5,39517.9
52347.2,39591.2
52302.8,39655.2
52283,39710.2
52282.9,39712.6
52275.3,39736.8
52245,39751.4
52181.2,39758.6
52072.8,39760.7
52052.6,39760.7
51930.9,39764
51858.8,39773.5
51839.7,39788.7
51840.2,39789.5
51832.3,39800.7
51785.3,39785.2
51784.7,39785
51726.3,39768.5
51647.5,39768
51532.3,39783.7
51511.6,39787.3
51410.6,39808.4
51333.6,39830.2
51296.3,39848.1
51295.6,39849
51258.2,39867.7
51195.5,39875
51128.7,39888
51111.5,39917.9
51134.5,39955.4
51156,39960.7
51186.6,39948.3
51184.8,39935.3
51199.2,39914.9
51254.5,39895.6
51276,39891.3
51369.7,39870.6
51452.4,39845.4
51457.1,39843.7
51518.7,39830.6
51583.3,39848.1
51635.6,39876.2
51695.4,39920.1
51722.5,39957.8
51721.3,39968
51719.6,39985.7
51729.7,39981.4
51758.5,39994.5
51818.5,40042
51901.7,40116.8
51999.8,40212
52024.9,40237.4
52167.5,40375.5
52290.6,40480.9
52387.7,40548.3
52416.6,40562.9
52489.5,40600.7
52533.8,40636.3
52540,40649.4
52561.3,40691
52608.5,40735.3
52656.4,40759.4
52660.5,40759.8
52662.9,40741.5
52636,40692.8
52588.8,40625.8
52530.5,40552.3
52470.1,40484.4
52416.5,40434.2
52412.4,40430.9
52348.5,40371.8
52307.5,40314.7
52302.9,40302.5
52299.8,40276.9
52313,40260.6
52352.6,40251.4
52428.4,40247.4
52550.2,40246.5
52569.4,40246.5
52700.7,40247.7
52785.8,40252.8
52835.3,40263.4
52860,40281.5
52867.4,40296.5
52895,40344
52948.8,40415.4
52999.6,40475
53114.9,40603.6
53002.3,40432.2
52942.9,40337.1
52895.5,40252.5
52870.1,40196.5
52870.1,40196.5
52846.3,40146.6
52827.3,40132.2
52801.3,40108.7
52771,40052.1
52770.7,40051.4
52728.7,39981.4
52663.8,39902.9
52638.6,39877.7
52581.6,39811.9
52547.1,39749.4
52538.4,39701.8
52558.8,39681.2
52585.2,39686.3
52631.8,39701.4
52644.1,39703.6
52645.7,39721.9
52641.3,39730.1
52650.7,39758.2
52682.5,39774.9
52729,39806.6
52740,39834.1
52760.5,39870.8
52776.7,39875
52813.9,39897.6
52859.1,39953.3
52868.2,39967.9
52919.7,40046.7
52971,40112.5
52974.3,40116.1
53013,40165.6
53025.8,40194.7
53049,40215.3
53068.6,40217.9
53106.7,40229.5
53111.6,40239.3
53127.2,40260.1
53288.4,40260.1
53298,40227.6
53357.4,40210.4
53361.5,40209.8
53461.9,40197
53519.8,40198.4
53548.5,40215.9
53555.3,40232.2
53654.3,40232.2
53668.6,40217.9
53682.9,40232.2
53668.6,40246.5
53654.3,40232.2
53555.3,40232.2
53558.8,40240.4
53593.9,40292.2
53633.6,40319
53681.6,40367.7
53706,40445.2
53703.6,40526.6
53671.1,40587.2
53670.1,40588.1
53634.3,40608.9
53625.8,40591.1
53608.2,40571.4
53595.4,40576.1
53552.3,40574.8
53516.8,40553.6
53453.8,40511
53418.6,40494.6
53375.7,40455.4
53367.7,40425.9
53350.3,40363.3
53324.9,40319.6
53288.4,40260.1
53127.2,40260.1
53133,40267.9
53185.6,40310.2
53195.5,40316.9
53276.4,40391.6
53323.3,40477.1
53327,40556.9
53326.3,40559
53337.3,40613.8
53390.9,40689.3
53454.3,40689.3
53468.6,40675
53482.9,40689.3
53468.6,40703.6
53454.3,40689.3
53390.9,40689.3
53394.3,40694.2
53424.3,40727.2
53498.9,40801.4
53547,40840.7
53564.6,40842.2
53551.8,40810.7
53545.2,40790.4
53562.7,40803.6
53589.8,40850.8
53608.9,40917.9
53641.2,40998.7
53687.5,41055.5
53767.6,41132.4
53826.8,41211.1
53857.2,41278.6
53852.4,41320.2
53845.7,41341
53879.5,41346.4
Z" /> 
<g >
</g>
</g> 
</svg>
