<?xml version="1.0" standalone="no"?>
 <!DOCTYPE svg PUBLIC "-//W3C//DTD SVG 1.1//EN" 
 "http://www.w3.org/Graphics/SVG/1.1/DTD/svg11.dtd"> 
<svg
  xmlns:svg="http://www.w3.org/2000/svg"
  xmlns="http://www.w3.org/2000/svg"
  xmlns:xlink="http://www.w3.org/1999/xlink"
  version="1.1"
  width="29.700220cm" height="21.000720cm" viewBox="0 0 116930 82680">
<title>SVG Picture created as Multislope IIA-F_SilkS.svg date 2021/08/23 23:10:10 </title>
  <desc>Picture generated by PCBNEW </desc>
<g style="fill:#000000; fill-opacity:1;stroke:#000000; stroke-opacity:1;
stroke-linecap:round; stroke-linejoin:round;"
 transform="translate(0 0) scale(1 1)">
</g>
<g style="fill:#000000; fill-opacity:0.0; 
stroke:#000000; stroke-width:-0.000393701; stroke-opacity:1; 
stroke-linecap:round; stroke-linejoin:round;">
</g>
<g style="fill:#000000; fill-opacity:0.0; 
stroke:#000000; stroke-width:47.2441; stroke-opacity:1; 
stroke-linecap:round; stroke-linejoin:round;">
<path d="M47637 29133
L51574 29133
" />
<path d="M47637 33070
L47637 29133
" />
<path d="M51574 33070
L47637 33070
" />
<path d="M51574 29133
L51574 33070
" />
<path d="M59932 36914
L59932 37101
" />
<path d="M60343 36914
L60343 37101
" />
<path d="M72196 45381
L74244 45381
" />
<path d="M72196 34358
L72196 45381
" />
<path d="M74244 33334
L74244 45381
" />
<path d="M72196 34358
L73220 34358
" />
<path d="M73220 34358
L73220 33334
" />
<path d="M73220 33334
L74244 33334
" />
<path d="M72196 33858
L72196 33334
" />
<path d="M72196 33334
L72720 33334
" />
<path d="M44358 37322
L44881 37322
" />
<path d="M44358 37846
L44358 37322
" />
<path d="M44358 38346
L45405 38346
" />
<path d="M45405 38346
L45405 41370
" />
<path d="M44358 38346
L44358 41370
" />
<path d="M44358 41370
L45405 41370
" />
<path d="M46349 37603
L46349 37790
" />
<path d="M46760 37603
L46760 37790
" />
<path d="M46161 40177
L46161 38562
" />
<path d="M46161 38562
L46948 38562
" />
<path d="M46948 38562
L46948 40177
" />
<path d="M46948 40177
L46161 40177
" />
<path d="M47027 39881
L47145 40000
" />
<path d="M47145 40000
L47145 39763
" />
<path d="M47027 39881
L47145 39763
" />
<path d="M50251 39759
L50688 39759
" />
<path d="M50251 40059
L50251 39759
" />
<path d="M50910 40358
L51125 40358
" />
<path d="M50251 40358
L50467 40358
" />
<path d="M51125 40358
L51125 40832
" />
<path d="M50251 40358
L50251 40832
" />
<path d="M50810 40832
L51125 40832
" />
<path d="M50251 40832
L50567 40832
" />
<circle cx="56692.9" cy="32578.7" r="275.591" /> 
<path d="M51189 44788
L51189 44975
" />
<path d="M50778 44788
L50778 44975
" />
<path d="M59243 47042
L59243 46855
" />
<path d="M59654 47042
L59654 46855
" />
<path d="M51467 44975
L51467 44788
" />
<path d="M51878 44975
L51878 44788
" />
<path d="M52170 47727
L52357 47727
" />
<path d="M52170 48138
L52357 48138
" />
<path d="M53449 47727
L53636 47727
" />
<path d="M53449 48138
L53636 48138
" />
<path d="M54729 47727
L54916 47727
" />
<path d="M54729 48138
L54916 48138
" />
<path d="M56701 48331
L56701 48518
" />
<path d="M56290 48331
L56290 48518
" />
<path d="M56290 47042
L56290 46855
" />
<path d="M56701 47042
L56701 46855
" />
<path d="M58455 48518
L58455 48331
" />
<path d="M58867 48518
L58867 48331
" />
<path d="M49302 41235
L49302 41048
" />
<path d="M49713 41235
L49713 41048
" />
<path d="M55207 44975
L55207 44788
" />
<path d="M55619 44975
L55619 44788
" />
<path d="M55207 41727
L55207 41540
" />
<path d="M55619 41727
L55619 41540
" />
<path d="M55207 40546
L55207 40359
" />
<path d="M55619 40546
L55619 40359
" />
<path d="M53931 30323
L53745 30323
" />
<path d="M53931 29912
L53745 29912
" />
<path d="M53745 29223
L53931 29223
" />
<path d="M53745 29634
L53931 29634
" />
<path d="M52367 29223
L52554 29223
" />
<path d="M52367 29634
L52554 29634
" />
<path d="M52554 30323
L52367 30323
" />
<path d="M52554 29912
L52367 29912
" />
<path d="M50286 33951
L50286 33764
" />
<path d="M50697 33951
L50697 33764
" />
<path d="M49499 33951
L49499 33764
" />
<path d="M49910 33951
L49910 33764
" />
<path d="M48138 33764
L48138 33951
" />
<path d="M47727 33764
L47727 33951
" />
<path d="M59248 43582
L59248 43454
" />
<path d="M59649 43582
L59649 43454
" />
<path d="M48618 41205
L48618 41077
" />
<path d="M49019 41205
L49019 41077
" />
<path d="M59248 38449
L59248 38321
" />
<path d="M59649 38449
L59649 38321
" />
<path d="M54168 46157
L54296 46157
" />
<path d="M54168 46559
L54296 46559
" />
<path d="M52790 43204
L52918 43204
" />
<path d="M52790 43606
L52918 43606
" />
<path d="M55507 37071
L55507 36943
" />
<path d="M55909 37071
L55909 36943
" />
<path d="M59649 35565
L59649 35694
" />
<path d="M59248 35565
L59248 35694
" />
<path d="M54168 38283
L54296 38283
" />
<path d="M54168 38685
L54296 38685
" />
<path d="M52790 35330
L52918 35330
" />
<path d="M52790 35732
L52918 35732
" />
<path d="M51472 36382
L51472 36254
" />
<path d="M51874 36382
L51874 36254
" />
<path d="M47732 37760
L47732 37632
" />
<path d="M48133 37760
L48133 37632
" />
<path d="M54168 42220
L54296 42220
" />
<path d="M54168 42622
L54296 42622
" />
<path d="M52790 39267
L52918 39267
" />
<path d="M52790 39669
L52918 39669
" />
<path d="M52396 33559
L52524 33559
" />
<path d="M52396 33960
L52524 33960
" />
<path d="M55507 31264
L55507 31136
" />
<path d="M55909 31264
L55909 31136
" />
<path d="M59649 42178
L59649 42289
" />
<path d="M59248 42178
L59248 42289
" />
<path d="M54767 46944
L54878 46944
" />
<path d="M54767 47346
L54878 47346
" />
<path d="M53487 46944
L53598 46944
" />
<path d="M53487 47346
L53598 47346
" />
<path d="M52208 46944
L52319 46944
" />
<path d="M52208 47346
L52319 47346
" />
<path d="M58460 47004
L58460 46893
" />
<path d="M58862 47004
L58862 46893
" />
<path d="M48330 41086
L48330 41197
" />
<path d="M47929 41086
L47929 41197
" />
<path d="M52909 46559
L52798 46559
" />
<path d="M52909 46157
L52798 46157
" />
<path d="M54287 43606
L54176 43606
" />
<path d="M54287 43204
L54176 43204
" />
<path d="M59248 37063
L59248 36952
" />
<path d="M59649 37063
L59649 36952
" />
<path d="M52909 38685
L52798 38685
" />
<path d="M52909 38283
L52798 38283
" />
<path d="M54287 35732
L54176 35732
" />
<path d="M54287 35330
L54176 35330
" />
<path d="M51874 37641
L51874 37752
" />
<path d="M51472 37641
L51472 37752
" />
<path d="M48133 36263
L48133 36374
" />
<path d="M47732 36263
L47732 36374
" />
<path d="M52909 42622
L52798 42622
" />
<path d="M52909 42220
L52798 42220
" />
<path d="M54287 39669
L54176 39669
" />
<path d="M54287 39267
L54176 39267
" />
<path d="M52405 32870
L52515 32870
" />
<path d="M52405 33271
L52515 33271
" />
<path d="M54818 31256
L54818 31145
" />
<path d="M55220 31256
L55220 31145
" />
<path d="M49330 32258
L49330 32766
" />
<path d="M49330 32766
L49881 32766
" />
<path d="M49881 32766
L49881 32258
" />
<path d="M49881.8 32259 A1188.98 1188.98 0.0 1 0 49330.7 32259" />
<circle cx="56692.9" cy="29626" r="275.591" /> 
<path d="M58200 46649
L57834 46649
" />
<path d="M56956 46649
L57322 46649
" />
<path d="M56956 46649
L56956 47500
" />
<path d="M58200 46649
L58200 47224
" />
<path d="M53543 45889
L54311 45889
" />
<path d="M53543 45889
L52775 45889
" />
<path d="M53543 43874
L54311 43874
" />
<path d="M53543 43874
L52185 43874
" />
<path d="M53543 38015
L54311 38015
" />
<path d="M53543 38015
L52775 38015
" />
<path d="M53543 36000
L54311 36000
" />
<path d="M53543 36000
L52185 36000
" />
<path d="M53543 41952
L54311 41952
" />
<path d="M53543 41952
L52775 41952
" />
<path d="M53543 39937
L54311 39937
" />
<path d="M53543 39937
L52185 39937
" />
<path d="M57578 45151
L58346 45151
" />
<path d="M57578 45151
L56811 45151
" />
<path d="M57578 41659
L58346 41659
" />
<path d="M57578 41659
L56220 41659
" />
<path d="M70078 49409
L61811 49409
" />
<path d="M67401 29330
L70078 29330
" />
<path d="M70078 48359
L68894 48359
" />
<path d="M68894 48359
L68894 49409
" />
<path d="M70078 49409
L70078 49291
" />
<path d="M70078 48464
L70078 48307
" />
<path d="M70078 47440
L70078 47283
" />
<path d="M70078 46456
L70078 46299
" />
<path d="M70078 45433
L70078 45275
" />
<path d="M70078 44448
L70078 44291
" />
<path d="M70078 43464
L70078 43307
" />
<path d="M70078 42440
L70078 42283
" />
<path d="M70078 41456
L70078 41299
" />
<path d="M70078 40433
L70078 40275
" />
<path d="M70078 39448
L70078 39291
" />
<path d="M70078 38464
L70078 38307
" />
<path d="M70078 37440
L70078 37283
" />
<path d="M70078 36456
L70078 36299
" />
<path d="M70078 35433
L70078 35275
" />
<path d="M70078 34448
L70078 34291
" />
<path d="M70078 33425
L70078 33267
" />
<path d="M70078 32440
L70078 32283
" />
<path d="M70078 31456
L70078 31299
" />
<path d="M70078 30433
L70078 30275
" />
<path d="M61811 43464
L61811 43307
" />
<path d="M61811 41456
L61811 41299
" />
<path d="M61811 38464
L61811 38307
" />
<path d="M61811 35433
L61811 35275
" />
<path d="M61811 47440
L61811 47283
" />
<path d="M61811 48464
L61811 48307
" />
<path d="M61811 45433
L61811 45275
" />
<path d="M61811 32440
L61811 32283
" />
<path d="M61811 30433
L61811 30275
" />
<path d="M61811 31456
L61811 31299
" />
<path d="M61811 37440
L61811 37283
" />
<path d="M61811 39448
L61811 39291
" />
<path d="M61811 44448
L61811 44291
" />
<path d="M61811 42440
L61811 42283
" />
<path d="M61811 34448
L61811 34291
" />
<path d="M61811 40433
L61811 40275
" />
<path d="M61811 49409
L61811 49291
" />
<path d="M61811 46456
L61811 46299
" />
<path d="M61811 36456
L61811 36299
" />
<path d="M61811 33425
L61811 33267
" />
<path d="M61811 29330
L64488 29330
" />
<path d="M66535 29330
L66377 29330
" />
<path d="M65511 29330
L65354 29330
" />
<path d="M49803 35015
L49035 35015
" />
<path d="M49803 35015
L50570 35015
" />
<path d="M49803 39000
L49035 39000
" />
<path d="M49803 39000
L51161 39000
" />
<path d="M57578 39000
L58346 39000
" />
<path d="M57578 39000
L56811 39000
" />
<path d="M57578 35015
L58346 35015
" />
<path d="M57578 35015
L56220 35015
" />
<path d="M53149 32602
L53917 32602
" />
<path d="M53149 32602
L52381 32602
" />
<path d="M53149 30586
L53917 30586
" />
<path d="M53149 30586
L51791 30586
" />
<circle cx="56692.9" cy="30610.2" r="275.591" /> 
<circle cx="56692.9" cy="31594.5" r="275.591" /> 
<circle cx="56791.3" cy="45767.7" r="275.591" /> 
<path d="M57578 34590
L58169 34590
" />
<path d="M57578 34590
L56988 34590
" />
<path d="M57578 33322
L58169 33322
" />
<path d="M57578 33322
L56446 33322
" />
<path d="M58200 48125
L57834 48125
" />
<path d="M56956 48125
L57322 48125
" />
<path d="M56956 48125
L56956 48976
" />
<path d="M58200 48125
L58200 48700
" />
<path d="M58582 39645
L58464 39763
" />
<path d="M58464 39527
L58464 39763
" />
<path d="M58582 39645
L58464 39527
" />
<path d="M58661 39350
L59448 39350
" />
<path d="M58661 40964
L58661 39350
" />
<path d="M59448 40964
L58661 40964
" />
<path d="M59448 39350
L59448 40964
" />
<path d="M57401 39645
L57283 39763
" />
<path d="M57283 39527
L57283 39763
" />
<path d="M57401 39645
L57283 39527
" />
<path d="M57480 39350
L58267 39350
" />
<path d="M57480 40964
L57480 39350
" />
<path d="M58267 40964
L57480 40964
" />
<path d="M58267 39350
L58267 40964
" />
<path d="M56220 39645
L56102 39763
" />
<path d="M56102 39527
L56102 39763
" />
<path d="M56220 39645
L56102 39527
" />
<path d="M56299 39350
L57086 39350
" />
<path d="M56299 40964
L56299 39350
" />
<path d="M57086 40964
L56299 40964
" />
<path d="M57086 39350
L57086 40964
" />
<path d="M51496 48492
L51496 49539
" />
<path d="M54519 48492
L51496 48492
" />
<path d="M54519 49539
L51496 49539
" />
<path d="M54519 48492
L54519 49539
" />
<path d="M55019 48492
L55543 48492
" />
<path d="M55543 48492
L55543 49015
" />
<path d="M49153 33267
L48484 33267
" />
<path d="M48484 33267
L48484 34271
" />
<path d="M49153 33267
L49153 34271
" />
<path d="M51472 41689
L51472 41578
" />
<path d="M51874 41689
L51874 41578
" />
<path d="M51874 40200
L51874 40311
" />
<path d="M51472 40200
L51472 40311
" />
</g>
<g style="fill:#000000; fill-opacity:0.0; 
stroke:#000000; stroke-width:59.0551; stroke-opacity:1; 
stroke-linecap:round; stroke-linejoin:round;">
<text x="73220.5" y="45972.4"
textLength="1387.33" font-size="524.934" lengthAdjust="spacingAndGlyphs"
text-anchor="middle" opacity="0">GPIO</text>
<path d="M72826 45578
L72789 45559
L72733 45559
L72676 45578
L72639 45616
L72620 45653
L72601 45728
L72601 45784
L72620 45859
L72639 45897
L72676 45934
L72733 45953
L72770 45953
L72826 45934
L72845 45916
L72845 45784
L72770 45784
" />
<path d="M73014 45953
L73014 45559
L73164 45559
L73201 45578
L73220 45597
L73239 45634
L73239 45691
L73220 45728
L73201 45747
L73164 45766
L73014 45766
" />
<path d="M73407 45953
L73407 45559
" />
<path d="M73670 45559
L73745 45559
L73782 45578
L73820 45616
L73839 45691
L73839 45822
L73820 45897
L73782 45934
L73745 45953
L73670 45953
L73632 45934
L73595 45897
L73576 45822
L73576 45691
L73595 45616
L73632 45578
L73670 45559
" />
</g>
<g style="fill:#000000; fill-opacity:0.0; 
stroke:#000000; stroke-width:60; stroke-opacity:1; 
stroke-linecap:round; stroke-linejoin:round;">
<text x="44881.9" y="41923.8"
textLength="1463.44" font-size="426.667" lengthAdjust="spacingAndGlyphs"
text-anchor="middle" opacity="0">INPUT</text>
<path d="M44264 41908
L44264 41588
" />
<path d="M44417 41908
L44417 41588
L44599 41908
L44599 41588
" />
<path d="M44752 41908
L44752 41588
L44874 41588
L44904 41603
L44919 41619
L44935 41649
L44935 41695
L44919 41725
L44904 41740
L44874 41756
L44752 41756
" />
<path d="M45072 41588
L45072 41847
L45087 41878
L45102 41893
L45133 41908
L45194 41908
L45224 41893
L45239 41878
L45255 41847
L45255 41588
" />
<path d="M45361 41588
L45544 41588
" />
<path d="M45453 41908
L45453 41588
" />
<text x="46555.1" y="40809.6"
textLength="1906.57" font-size="426.667" lengthAdjust="spacingAndGlyphs"
text-anchor="middle" opacity="0">GNDSEL</text>
<path d="M45884 40489
L45854 40474
L45808 40474
L45762 40489
L45732 40520
L45717 40550
L45701 40611
L45701 40657
L45717 40718
L45732 40748
L45762 40779
L45808 40794
L45838 40794
L45884 40779
L45899 40763
L45899 40657
L45838 40657
" />
<path d="M46037 40794
L46037 40474
L46219 40794
L46219 40474
" />
<path d="M46372 40794
L46372 40474
L46448 40474
L46494 40489
L46524 40520
L46539 40550
L46555 40611
L46555 40657
L46539 40718
L46524 40748
L46494 40779
L46448 40794
L46372 40794
" />
<path d="M46677 40779
L46722 40794
L46798 40794
L46829 40779
L46844 40763
L46859 40733
L46859 40702
L46844 40672
L46829 40657
L46798 40641
L46737 40626
L46707 40611
L46692 40596
L46677 40565
L46677 40535
L46692 40504
L46707 40489
L46737 40474
L46814 40474
L46859 40489
" />
<path d="M46997 40626
L47103 40626
" />
<path d="M47149 40794
L46997 40794
L46997 40474
L47149 40474
" />
<path d="M47438 40794
L47286 40794
L47286 40474
" />
<text x="50689" y="41301.7"
textLength="809.429" font-size="426.667" lengthAdjust="spacingAndGlyphs"
text-anchor="middle" opacity="0">INT</text>
<path d="M50399 41286
L50399 40966
" />
<path d="M50551 41286
L50551 40966
L50734 41286
L50734 40966
" />
<path d="M50841 40966
L51024 40966
" />
<path d="M50932 41286
L50932 40966
" />
<text x="57874" y="32738.7"
textLength="1327.52" font-size="426.667" lengthAdjust="spacingAndGlyphs"
text-anchor="middle" opacity="0">GNDA</text>
<path d="M57493 32418
L57462 32403
L57416 32403
L57371 32418
L57340 32449
L57325 32479
L57310 32540
L57310 32586
L57325 32647
L57340 32677
L57371 32708
L57416 32723
L57447 32723
L57493 32708
L57508 32693
L57508 32586
L57447 32586
" />
<path d="M57645 32723
L57645 32403
L57828 32723
L57828 32403
" />
<path d="M57980 32723
L57980 32403
L58056 32403
L58102 32418
L58133 32449
L58148 32479
L58163 32540
L58163 32586
L58148 32647
L58133 32677
L58102 32708
L58056 32723
L57980 32723
" />
<path d="M58285 32632
L58437 32632
" />
<path d="M58254 32723
L58361 32403
L58468 32723
" />
<text x="58070.9" y="29786"
textLength="1815.14" font-size="426.667" lengthAdjust="spacingAndGlyphs"
text-anchor="middle" opacity="0">+6.95V</text>
<path d="M57278 29648
L57522 29648
" />
<path d="M57400 29770
L57400 29526
" />
<path d="M57811 29450
L57750 29450
L57720 29465
L57705 29481
L57674 29526
L57659 29587
L57659 29709
L57674 29740
L57689 29755
L57720 29770
L57781 29770
L57811 29755
L57827 29740
L57842 29709
L57842 29633
L57827 29603
L57811 29587
L57781 29572
L57720 29572
L57689 29587
L57674 29603
L57659 29633
" />
<path d="M57979 29740
L57994 29755
L57979 29770
L57964 29755
L57979 29740
L57979 29770
" />
<path d="M58147 29770
L58208 29770
L58238 29755
L58253 29740
L58284 29694
L58299 29633
L58299 29511
L58284 29481
L58268 29465
L58238 29450
L58177 29450
L58147 29465
L58131 29481
L58116 29511
L58116 29587
L58131 29618
L58147 29633
L58177 29648
L58238 29648
L58268 29633
L58284 29618
L58299 29587
" />
<path d="M58588 29450
L58436 29450
L58421 29603
L58436 29587
L58467 29572
L58543 29572
L58573 29587
L58588 29603
L58604 29633
L58604 29709
L58588 29740
L58573 29755
L58543 29770
L58467 29770
L58436 29755
L58421 29740
" />
<path d="M58695 29450
L58802 29770
L58908 29450
" />
</g>
<g style="fill:#000000; fill-opacity:0.0; 
stroke:#000000; stroke-width:59.0551; stroke-opacity:1; 
stroke-linecap:round; stroke-linejoin:round;">
<text x="65944.9" y="39566.9"
textLength="865.402" font-size="524.934" lengthAdjust="spacingAndGlyphs"
text-anchor="middle" opacity="0">U4</text>
<path d="M65644 39154
L65644 39473
L65663 39510
L65682 39529
L65719 39548
L65794 39548
L65832 39529
L65851 39510
L65869 39473
L65869 39154
" />
<path d="M66226 39285
L66226 39548
" />
<path d="M66132 39135
L66038 39416
L66282 39416
" />
<text x="63740.2" y="29212.6"
textLength="1531.59" font-size="419.947" lengthAdjust="spacingAndGlyphs"
text-anchor="middle" opacity="0">SWDIO</text>
<path d="M63072 29182
L63117 29197
L63192 29197
L63222 29182
L63237 29167
L63252 29137
L63252 29107
L63237 29077
L63222 29062
L63192 29047
L63132 29032
L63102 29017
L63087 29002
L63072 28972
L63072 28942
L63087 28912
L63102 28897
L63132 28882
L63207 28882
L63252 28897
" />
<path d="M63357 28882
L63432 29197
L63492 28972
L63552 29197
L63627 28882
" />
<path d="M63747 29197
L63747 28882
L63822 28882
L63867 28897
L63897 28927
L63912 28957
L63927 29017
L63927 29062
L63912 29122
L63897 29152
L63867 29182
L63822 29197
L63747 29197
" />
<path d="M64062 29197
L64062 28882
" />
<path d="M64272 28882
L64332 28882
L64362 28897
L64392 28927
L64407 28987
L64407 29092
L64392 29152
L64362 29182
L64332 29197
L64272 29197
L64242 29182
L64212 29152
L64197 29092
L64197 28987
L64212 28927
L64242 28897
L64272 28882
" />
<text x="68189" y="29212.6"
textLength="1621.58" font-size="419.947" lengthAdjust="spacingAndGlyphs"
text-anchor="middle" opacity="0">SWCLK</text>
<path d="M67476 29182
L67521 29197
L67596 29197
L67626 29182
L67641 29167
L67656 29137
L67656 29107
L67641 29077
L67626 29062
L67596 29047
L67536 29032
L67506 29017
L67491 29002
L67476 28972
L67476 28942
L67491 28912
L67506 28897
L67536 28882
L67611 28882
L67656 28897
" />
<path d="M67761 28882
L67836 29197
L67896 28972
L67956 29197
L68031 28882
" />
<path d="M68331 29167
L68316 29182
L68271 29197
L68241 29197
L68196 29182
L68166 29152
L68151 29122
L68136 29062
L68136 29017
L68151 28957
L68166 28927
L68196 28897
L68241 28882
L68271 28882
L68316 28897
L68331 28912
" />
<path d="M68616 29197
L68466 29197
L68466 28882
" />
<path d="M68721 29197
L68721 28882
" />
<path d="M68901 29197
L68766 29017
" />
<path d="M68901 28882
L68721 29062
" />
<g transform="rotate(-45 60805.5 41870.1)">
<text x="60805.5" y="42027.6"
textLength="1306.62" font-size="419.947" lengthAdjust="spacingAndGlyphs"
text-anchor="middle" opacity="0">AGND</text>
</g>
<path d="M60450 42299
L60556 42193
" />
<path d="M60492 42384
L60344 42087
L60641 42235
" />
<path d="M60619 41832
L60588 41843
L60556 41875
L60535 41917
L60535 41960
L60545 41992
L60577 42045
L60609 42076
L60662 42108
L60694 42119
L60736 42119
L60778 42098
L60800 42076
L60821 42034
L60821 42013
L60747 41939
L60704 41981
" />
<path d="M60938 41939
L60715 41716
L61065 41811
L60842 41589
" />
<path d="M61171 41705
L60948 41482
L61001 41429
L61044 41408
L61086 41408
L61118 41419
L61171 41451
L61203 41482
L61235 41536
L61245 41567
L61245 41610
L61224 41652
L61171 41705
" />
<g transform="rotate(-45 60905.5 46870.1)">
<text x="60905.5" y="47027.6"
textLength="1036.65" font-size="419.947" lengthAdjust="spacingAndGlyphs"
text-anchor="middle" opacity="0">GND</text>
</g>
<path d="M60624 46928
L60592 46939
L60560 46970
L60539 47013
L60539 47055
L60550 47087
L60582 47140
L60613 47172
L60666 47204
L60698 47214
L60741 47214
L60783 47193
L60804 47172
L60825 47129
L60825 47108
L60751 47034
L60709 47076
" />
<path d="M60942 47034
L60719 46811
L61069 46907
L60847 46684
" />
<path d="M61175 46801
L60953 46578
L61006 46525
L61048 46504
L61091 46504
L61122 46514
L61175 46546
L61207 46578
L61239 46631
L61250 46663
L61250 46705
L61228 46748
L61175 46801
" />
<g transform="rotate(-45 60905.5 36870.1)">
<text x="60905.5" y="37027.6"
textLength="1036.65" font-size="419.947" lengthAdjust="spacingAndGlyphs"
text-anchor="middle" opacity="0">GND</text>
</g>
<path d="M60624 36928
L60592 36939
L60560 36970
L60539 37013
L60539 37055
L60550 37087
L60582 37140
L60613 37172
L60666 37204
L60698 37214
L60741 37214
L60783 37193
L60804 37172
L60825 37129
L60825 37108
L60751 37034
L60709 37076
" />
<path d="M60942 37034
L60719 36811
L61069 36907
L60847 36684
" />
<path d="M61175 36801
L60953 36578
L61006 36525
L61048 36504
L61091 36504
L61122 36514
L61175 36546
L61207 36578
L61239 36631
L61250 36663
L61250 36705
L61228 36748
L61175 36801
" />
<g transform="rotate(-45 60905.5 31870.1)">
<text x="60905.5" y="32027.6"
textLength="1036.65" font-size="419.947" lengthAdjust="spacingAndGlyphs"
text-anchor="middle" opacity="0">GND</text>
</g>
<path d="M60624 31928
L60592 31939
L60560 31970
L60539 32013
L60539 32055
L60550 32087
L60582 32140
L60613 32172
L60666 32204
L60698 32214
L60741 32214
L60783 32193
L60804 32172
L60825 32129
L60825 32108
L60751 32034
L60709 32076
" />
<path d="M60942 32034
L60719 31811
L61069 31907
L60847 31684
" />
<path d="M61175 31801
L60953 31578
L61006 31525
L61048 31504
L61091 31504
L61122 31514
L61175 31546
L61207 31578
L61239 31631
L61250 31663
L61250 31705
L61228 31748
L61175 31801
" />
<g transform="rotate(-45 70984.3 31870.1)">
<text x="70984.3" y="32027.6"
textLength="1036.65" font-size="419.947" lengthAdjust="spacingAndGlyphs"
text-anchor="middle" opacity="0">GND</text>
</g>
<path d="M70703 31928
L70671 31939
L70639 31970
L70618 32013
L70618 32055
L70628 32087
L70660 32140
L70692 32172
L70745 32204
L70777 32214
L70819 32214
L70862 32193
L70883 32172
L70904 32129
L70904 32108
L70830 32034
L70788 32076
" />
<path d="M71021 32034
L70798 31811
L71148 31907
L70925 31684
" />
<path d="M71254 31801
L71031 31578
L71085 31525
L71127 31504
L71169 31504
L71201 31514
L71254 31546
L71286 31578
L71318 31631
L71328 31663
L71328 31705
L71307 31748
L71254 31801
" />
<g transform="rotate(-45 70984.3 36870.1)">
<text x="70984.3" y="37027.6"
textLength="1036.65" font-size="419.947" lengthAdjust="spacingAndGlyphs"
text-anchor="middle" opacity="0">GND</text>
</g>
<path d="M70703 36928
L70671 36939
L70639 36970
L70618 37013
L70618 37055
L70628 37087
L70660 37140
L70692 37172
L70745 37204
L70777 37214
L70819 37214
L70862 37193
L70883 37172
L70904 37129
L70904 37108
L70830 37034
L70788 37076
" />
<path d="M71021 37034
L70798 36811
L71148 36907
L70925 36684
" />
<path d="M71254 36801
L71031 36578
L71085 36525
L71127 36504
L71169 36504
L71201 36514
L71254 36546
L71286 36578
L71318 36631
L71328 36663
L71328 36705
L71307 36748
L71254 36801
" />
<g transform="rotate(-45 70984.3 41870.1)">
<text x="70984.3" y="42027.6"
textLength="1036.65" font-size="419.947" lengthAdjust="spacingAndGlyphs"
text-anchor="middle" opacity="0">GND</text>
</g>
<path d="M70703 41928
L70671 41939
L70639 41970
L70618 42013
L70618 42055
L70628 42087
L70660 42140
L70692 42172
L70745 42204
L70777 42214
L70819 42214
L70862 42193
L70883 42172
L70904 42129
L70904 42108
L70830 42034
L70788 42076
" />
<path d="M71021 42034
L70798 41811
L71148 41907
L70925 41684
" />
<path d="M71254 41801
L71031 41578
L71085 41525
L71127 41504
L71169 41504
L71201 41514
L71254 41546
L71286 41578
L71318 41631
L71328 41663
L71328 41705
L71307 41748
L71254 41801
" />
<g transform="rotate(-45 70984.3 46870.1)">
<text x="70984.3" y="47027.6"
textLength="1036.65" font-size="419.947" lengthAdjust="spacingAndGlyphs"
text-anchor="middle" opacity="0">GND</text>
</g>
<path d="M70703 46928
L70671 46939
L70639 46970
L70618 47013
L70618 47055
L70628 47087
L70660 47140
L70692 47172
L70745 47204
L70777 47214
L70819 47214
L70862 47193
L70883 47172
L70904 47129
L70904 47108
L70830 47034
L70788 47076
" />
<path d="M71021 47034
L70798 46811
L71148 46907
L70925 46684
" />
<path d="M71254 46801
L71031 46578
L71085 46525
L71127 46504
L71169 46504
L71201 46514
L71254 46546
L71286 46578
L71318 46631
L71328 46663
L71328 46705
L71307 46748
L71254 46801
" />
<g transform="rotate(-45 60708.7 48897.6)">
<text x="60708.7" y="49055.1"
textLength="1291.62" font-size="419.947" lengthAdjust="spacingAndGlyphs"
text-anchor="middle" opacity="0">VBUS</text>
</g>
<path d="M60178 49183
L60475 49332
L60326 49035
" />
<path d="M60581 48993
L60623 48971
L60645 48971
L60676 48982
L60708 49014
L60719 49046
L60719 49067
L60708 49099
L60623 49183
L60401 48961
L60475 48887
L60507 48876
L60528 48876
L60560 48887
L60581 48908
L60592 48940
L60592 48961
L60581 48993
L60507 49067
" />
<path d="M60623 48738
L60804 48918
L60835 48929
L60857 48929
L60888 48918
L60931 48876
L60941 48844
L60941 48823
L60931 48791
L60751 48611
" />
<path d="M61058 48727
L61101 48706
L61154 48653
L61164 48621
L61164 48600
L61154 48568
L61132 48547
L61101 48537
L61079 48537
L61048 48547
L60995 48579
L60963 48590
L60941 48590
L60910 48579
L60888 48558
L60878 48526
L60878 48505
L60888 48473
L60941 48420
L60984 48399
" />
<g transform="rotate(-45 60748 47870.1)">
<text x="60748" y="48027.6"
textLength="1216.63" font-size="419.947" lengthAdjust="spacingAndGlyphs"
text-anchor="middle" opacity="0">VSYS</text>
</g>
<path d="M60244 48129
L60541 48278
L60392 47981
" />
<path d="M60668 48129
L60710 48108
L60763 48055
L60774 48023
L60774 48002
L60763 47970
L60742 47949
L60710 47939
L60689 47939
L60657 47949
L60604 47981
L60573 47992
L60551 47992
L60520 47981
L60498 47960
L60488 47928
L60488 47907
L60498 47875
L60551 47822
L60594 47801
" />
<path d="M60838 47769
L60944 47875
" />
<path d="M60647 47726
L60838 47769
L60795 47578
" />
<path d="M61071 47726
L61113 47705
L61166 47652
L61177 47620
L61177 47599
L61166 47567
L61145 47546
L61113 47536
L61092 47536
L61060 47546
L61007 47578
L60976 47589
L60954 47589
L60923 47578
L60901 47557
L60891 47525
L60891 47504
L60901 47472
L60954 47419
L60997 47398
" />
<g transform="rotate(-45 60925.2 45964.6)">
<text x="60925.2" y="46122"
textLength="691.695" font-size="419.947" lengthAdjust="spacingAndGlyphs"
text-anchor="middle" opacity="0">EN</text>
</g>
<path d="M60744 46113
L60819 46038
" />
<path d="M60967 46123
L60861 46229
L60638 46006
L60744 45900
" />
<path d="M61063 46028
L60840 45805
L61190 45900
L60967 45678
" />
<g transform="rotate(-45 60866.1 44842.5)">
<text x="60866.1" y="45000"
textLength="946.663" font-size="419.947" lengthAdjust="spacingAndGlyphs"
text-anchor="middle" opacity="0">3V3</text>
</g>
<path d="M60468 44996
L60606 44858
L60616 45017
L60648 44985
L60680 44975
L60701 44975
L60733 44985
L60786 45038
L60797 45070
L60797 45091
L60786 45123
L60722 45187
L60691 45197
L60669 45197
" />
<path d="M60669 44794
L60966 44943
L60818 44646
" />
<path d="M60871 44593
L61009 44455
L61019 44614
L61051 44582
L61083 44572
L61104 44572
L61136 44582
L61189 44635
L61200 44667
L61200 44688
L61189 44720
L61125 44784
L61094 44794
L61072 44794
" />
<g transform="rotate(-45 60826.8 43996.1)">
<text x="60826.8" y="44153.5"
textLength="1216.63" font-size="419.947" lengthAdjust="spacingAndGlyphs"
text-anchor="middle" opacity="0">VREF</text>
</g>
<path d="M60323 44255
L60619 44404
L60471 44107
" />
<path d="M60895 44128
L60715 44096
" />
<path d="M60768 44255
L60545 44033
L60630 43948
L60662 43937
L60683 43937
L60715 43948
L60747 43980
L60757 44011
L60757 44033
L60747 44064
L60662 44149
" />
<path d="M60874 43916
L60948 43842
" />
<path d="M61097 43927
L60991 44033
L60768 43810
L60874 43704
" />
<path d="M61150 43640
L61075 43715
" />
<path d="M61192 43831
L60969 43608
L61075 43502
" />
<g transform="rotate(-45 60805.5 42970.1)">
<text x="60805.5" y="43127.6"
textLength="1306.62" font-size="419.947" lengthAdjust="spacingAndGlyphs"
text-anchor="middle" opacity="0">GP28</text>
</g>
<path d="M60429 43123
L60397 43134
L60365 43166
L60344 43208
L60344 43251
L60354 43282
L60386 43335
L60418 43367
L60471 43399
L60503 43410
L60545 43410
L60588 43388
L60609 43367
L60630 43325
L60630 43304
L60556 43229
L60513 43272
" />
<path d="M60747 43229
L60524 43007
L60609 42922
L60641 42911
L60662 42911
L60694 42922
L60725 42954
L60736 42985
L60736 43007
L60725 43039
L60641 43123
" />
<path d="M60757 42816
L60757 42795
L60768 42763
L60821 42710
L60853 42699
L60874 42699
L60906 42710
L60927 42731
L60948 42773
L60948 43028
L61086 42890
" />
<path d="M61086 42636
L61054 42646
L61033 42646
L61001 42636
L60991 42625
L60980 42593
L60980 42572
L60991 42540
L61033 42498
L61065 42487
L61086 42487
L61118 42498
L61128 42508
L61139 42540
L61139 42561
L61128 42593
L61086 42636
L61075 42667
L61075 42689
L61086 42720
L61128 42763
L61160 42773
L61181 42773
L61213 42763
L61256 42720
L61266 42689
L61266 42667
L61256 42636
L61213 42593
L61181 42582
L61160 42582
L61128 42593
" />
<g transform="rotate(-45 60805.5 40866.1)">
<text x="60805.5" y="41023.6"
textLength="1306.62" font-size="419.947" lengthAdjust="spacingAndGlyphs"
text-anchor="middle" opacity="0">GP27</text>
</g>
<path d="M60429 41019
L60397 41030
L60365 41062
L60344 41104
L60344 41147
L60354 41178
L60386 41232
L60418 41263
L60471 41295
L60503 41306
L60545 41306
L60588 41285
L60609 41263
L60630 41221
L60630 41200
L60556 41125
L60513 41168
" />
<path d="M60747 41125
L60524 40903
L60609 40818
L60641 40807
L60662 40807
L60694 40818
L60725 40850
L60736 40882
L60736 40903
L60725 40935
L60641 41019
" />
<path d="M60757 40712
L60757 40691
L60768 40659
L60821 40606
L60853 40595
L60874 40595
L60906 40606
L60927 40627
L60948 40669
L60948 40924
L61086 40786
" />
<path d="M60938 40489
L61086 40341
L61213 40659
" />
<g transform="rotate(-45 60805.5 39870.1)">
<text x="60805.5" y="40027.6"
textLength="1306.62" font-size="419.947" lengthAdjust="spacingAndGlyphs"
text-anchor="middle" opacity="0">GP26</text>
</g>
<path d="M60429 40023
L60397 40034
L60365 40066
L60344 40108
L60344 40151
L60354 40182
L60386 40235
L60418 40267
L60471 40299
L60503 40310
L60545 40310
L60588 40288
L60609 40267
L60630 40225
L60630 40204
L60556 40129
L60513 40172
" />
<path d="M60747 40129
L60524 39907
L60609 39822
L60641 39811
L60662 39811
L60694 39822
L60725 39854
L60736 39885
L60736 39907
L60725 39939
L60641 40023
" />
<path d="M60757 39716
L60757 39695
L60768 39663
L60821 39610
L60853 39599
L60874 39599
L60906 39610
L60927 39631
L60948 39673
L60948 39928
L61086 39790
" />
<path d="M61054 39376
L61012 39419
L61001 39451
L61001 39472
L61012 39525
L61044 39578
L61128 39663
L61160 39673
L61181 39673
L61213 39663
L61256 39620
L61266 39589
L61266 39567
L61256 39536
L61203 39482
L61171 39472
L61150 39472
L61118 39482
L61075 39525
L61065 39557
L61065 39578
L61075 39610
" />
<g transform="rotate(-45 60826.8 38870.1)">
<text x="60826.8" y="39027.6"
textLength="1051.65" font-size="419.947" lengthAdjust="spacingAndGlyphs"
text-anchor="middle" opacity="0">RUN</text>
</g>
<path d="M60763 39135
L60582 39103
" />
<path d="M60635 39262
L60413 39039
L60498 38954
L60529 38944
L60551 38944
L60582 38954
L60614 38986
L60625 39018
L60625 39039
L60614 39071
L60529 39156
" />
<path d="M60635 38817
L60816 38997
L60847 39007
L60869 39007
L60901 38997
L60943 38954
L60954 38923
L60954 38901
L60943 38870
L60763 38689
" />
<path d="M61091 38806
L60869 38583
L61219 38679
L60996 38456
" />
<g transform="rotate(-45 60805.5 37870.1)">
<text x="60805.5" y="38027.6"
textLength="1306.62" font-size="419.947" lengthAdjust="spacingAndGlyphs"
text-anchor="middle" opacity="0">GP22</text>
</g>
<path d="M60429 38023
L60397 38034
L60365 38066
L60344 38108
L60344 38151
L60354 38182
L60386 38235
L60418 38267
L60471 38299
L60503 38310
L60545 38310
L60588 38288
L60609 38267
L60630 38225
L60630 38204
L60556 38129
L60513 38172
" />
<path d="M60747 38129
L60524 37907
L60609 37822
L60641 37811
L60662 37811
L60694 37822
L60725 37854
L60736 37885
L60736 37907
L60725 37939
L60641 38023
" />
<path d="M60757 37716
L60757 37695
L60768 37663
L60821 37610
L60853 37599
L60874 37599
L60906 37610
L60927 37631
L60948 37673
L60948 37928
L61086 37790
" />
<path d="M60969 37504
L60969 37482
L60980 37451
L61033 37398
L61065 37387
L61086 37387
L61118 37398
L61139 37419
L61160 37461
L61160 37716
L61298 37578
" />
<g transform="rotate(-45 60805.5 35866.1)">
<text x="60805.5" y="36023.6"
textLength="1306.62" font-size="419.947" lengthAdjust="spacingAndGlyphs"
text-anchor="middle" opacity="0">GP21</text>
</g>
<path d="M60429 36019
L60397 36030
L60365 36062
L60344 36104
L60344 36147
L60354 36178
L60386 36232
L60418 36263
L60471 36295
L60503 36306
L60545 36306
L60588 36285
L60609 36263
L60630 36221
L60630 36200
L60556 36125
L60513 36168
" />
<path d="M60747 36125
L60524 35903
L60609 35818
L60641 35807
L60662 35807
L60694 35818
L60725 35850
L60736 35882
L60736 35903
L60725 35935
L60641 36019
" />
<path d="M60757 35712
L60757 35691
L60768 35659
L60821 35606
L60853 35595
L60874 35595
L60906 35606
L60927 35627
L60948 35669
L60948 35924
L61086 35786
" />
<path d="M61298 35574
L61171 35701
" />
<path d="M61235 35638
L61012 35415
L61022 35468
L61022 35510
L61012 35542
" />
<g transform="rotate(-45 60805.5 34870.1)">
<text x="60805.5" y="35027.6"
textLength="1306.62" font-size="419.947" lengthAdjust="spacingAndGlyphs"
text-anchor="middle" opacity="0">GP20</text>
</g>
<path d="M60429 35023
L60397 35034
L60365 35066
L60344 35108
L60344 35151
L60354 35182
L60386 35235
L60418 35267
L60471 35299
L60503 35310
L60545 35310
L60588 35288
L60609 35267
L60630 35225
L60630 35204
L60556 35129
L60513 35172
" />
<path d="M60747 35129
L60524 34907
L60609 34822
L60641 34811
L60662 34811
L60694 34822
L60725 34854
L60736 34885
L60736 34907
L60725 34939
L60641 35023
" />
<path d="M60757 34716
L60757 34695
L60768 34663
L60821 34610
L60853 34599
L60874 34599
L60906 34610
L60927 34631
L60948 34673
L60948 34928
L61086 34790
" />
<path d="M61001 34429
L61022 34408
L61054 34398
L61075 34398
L61107 34408
L61160 34440
L61213 34493
L61245 34546
L61256 34578
L61256 34599
L61245 34631
L61224 34652
L61192 34663
L61171 34663
L61139 34652
L61086 34620
L61033 34567
L61001 34514
L60991 34482
L60991 34461
L61001 34429
" />
<g transform="rotate(-45 60805.5 33870.1)">
<text x="60805.5" y="34027.6"
textLength="1306.62" font-size="419.947" lengthAdjust="spacingAndGlyphs"
text-anchor="middle" opacity="0">GP19</text>
</g>
<path d="M60429 34023
L60397 34034
L60365 34066
L60344 34108
L60344 34151
L60354 34182
L60386 34235
L60418 34267
L60471 34299
L60503 34310
L60545 34310
L60588 34288
L60609 34267
L60630 34225
L60630 34204
L60556 34129
L60513 34172
" />
<path d="M60747 34129
L60524 33907
L60609 33822
L60641 33811
L60662 33811
L60694 33822
L60725 33854
L60736 33885
L60736 33907
L60725 33939
L60641 34023
" />
<path d="M61086 33790
L60959 33917
" />
<path d="M61022 33854
L60800 33631
L60810 33684
L60810 33726
L60800 33758
" />
<path d="M61192 33684
L61235 33642
L61245 33610
L61245 33589
L61235 33536
L61203 33482
L61118 33398
L61086 33387
L61065 33387
L61033 33398
L60991 33440
L60980 33472
L60980 33493
L60991 33525
L61044 33578
L61075 33589
L61097 33589
L61128 33578
L61171 33536
L61181 33504
L61181 33482
L61171 33451
" />
<g transform="rotate(-45 60805.5 32870.1)">
<text x="60805.5" y="33027.6"
textLength="1306.62" font-size="419.947" lengthAdjust="spacingAndGlyphs"
text-anchor="middle" opacity="0">GP18</text>
</g>
<path d="M60429 33023
L60397 33034
L60365 33066
L60344 33108
L60344 33151
L60354 33182
L60386 33235
L60418 33267
L60471 33299
L60503 33310
L60545 33310
L60588 33288
L60609 33267
L60630 33225
L60630 33204
L60556 33129
L60513 33172
" />
<path d="M60747 33129
L60524 32907
L60609 32822
L60641 32811
L60662 32811
L60694 32822
L60725 32854
L60736 32885
L60736 32907
L60725 32939
L60641 33023
" />
<path d="M61086 32790
L60959 32917
" />
<path d="M61022 32854
L60800 32631
L60810 32684
L60810 32726
L60800 32758
" />
<path d="M61086 32536
L61054 32546
L61033 32546
L61001 32536
L60991 32525
L60980 32493
L60980 32472
L60991 32440
L61033 32398
L61065 32387
L61086 32387
L61118 32398
L61128 32408
L61139 32440
L61139 32461
L61128 32493
L61086 32536
L61075 32567
L61075 32589
L61086 32620
L61128 32663
L61160 32673
L61181 32673
L61213 32663
L61256 32620
L61266 32589
L61266 32567
L61256 32536
L61213 32493
L61181 32482
L61160 32482
L61128 32493
" />
<g transform="rotate(-45 60805.5 30870.1)">
<text x="60805.5" y="31027.6"
textLength="1306.62" font-size="419.947" lengthAdjust="spacingAndGlyphs"
text-anchor="middle" opacity="0">GP17</text>
</g>
<path d="M60429 31023
L60397 31034
L60365 31066
L60344 31108
L60344 31151
L60354 31182
L60386 31235
L60418 31267
L60471 31299
L60503 31310
L60545 31310
L60588 31288
L60609 31267
L60630 31225
L60630 31204
L60556 31129
L60513 31172
" />
<path d="M60747 31129
L60524 30907
L60609 30822
L60641 30811
L60662 30811
L60694 30822
L60725 30854
L60736 30885
L60736 30907
L60725 30939
L60641 31023
" />
<path d="M61086 30790
L60959 30917
" />
<path d="M61022 30854
L60800 30631
L60810 30684
L60810 30726
L60800 30758
" />
<path d="M60938 30493
L61086 30345
L61213 30663
" />
<g transform="rotate(-45 60805.5 29870.1)">
<text x="60805.5" y="30027.6"
textLength="1306.62" font-size="419.947" lengthAdjust="spacingAndGlyphs"
text-anchor="middle" opacity="0">GP16</text>
</g>
<path d="M60429 30023
L60397 30034
L60365 30066
L60344 30108
L60344 30151
L60354 30182
L60386 30235
L60418 30267
L60471 30299
L60503 30310
L60545 30310
L60588 30288
L60609 30267
L60630 30225
L60630 30204
L60556 30129
L60513 30172
" />
<path d="M60747 30129
L60524 29907
L60609 29822
L60641 29811
L60662 29811
L60694 29822
L60725 29854
L60736 29885
L60736 29907
L60725 29939
L60641 30023
" />
<path d="M61086 29790
L60959 29917
" />
<path d="M61022 29854
L60800 29631
L60810 29684
L60810 29726
L60800 29758
" />
<path d="M61054 29376
L61012 29419
L61001 29451
L61001 29472
L61012 29525
L61044 29578
L61128 29663
L61160 29673
L61181 29673
L61213 29663
L61256 29620
L61266 29589
L61266 29567
L61256 29536
L61203 29482
L61171 29472
L61150 29472
L61118 29482
L61075 29525
L61065 29557
L61065 29578
L61075 29610
" />
<g transform="rotate(-45 71084.3 29870.1)">
<text x="71084.3" y="30027.6"
textLength="1306.62" font-size="419.947" lengthAdjust="spacingAndGlyphs"
text-anchor="middle" opacity="0">GP15</text>
</g>
<path d="M70707 30023
L70675 30034
L70644 30066
L70622 30108
L70622 30151
L70633 30182
L70665 30235
L70697 30267
L70750 30299
L70782 30310
L70824 30310
L70866 30288
L70888 30267
L70909 30225
L70909 30204
L70835 30129
L70792 30172
" />
<path d="M71025 30129
L70803 29907
L70888 29822
L70919 29811
L70941 29811
L70972 29822
L71004 29854
L71015 29885
L71015 29907
L71004 29939
L70919 30023
" />
<path d="M71365 29790
L71238 29917
" />
<path d="M71301 29854
L71078 29631
L71089 29684
L71089 29726
L71078 29758
" />
<path d="M71344 29366
L71238 29472
L71333 29589
L71333 29567
L71344 29536
L71397 29482
L71428 29472
L71450 29472
L71481 29482
L71534 29536
L71545 29567
L71545 29589
L71534 29620
L71481 29673
L71450 29684
L71428 29684
" />
<g transform="rotate(-45 71102.4 30870.1)">
<text x="71102.4" y="31027.6"
textLength="1306.62" font-size="419.947" lengthAdjust="spacingAndGlyphs"
text-anchor="middle" opacity="0">GP14</text>
</g>
<path d="M70725 31023
L70694 31034
L70662 31066
L70641 31108
L70641 31151
L70651 31182
L70683 31235
L70715 31267
L70768 31299
L70800 31310
L70842 31310
L70884 31288
L70906 31267
L70927 31225
L70927 31204
L70853 31129
L70810 31172
" />
<path d="M71044 31129
L70821 30907
L70906 30822
L70937 30811
L70959 30811
L70991 30822
L71022 30854
L71033 30885
L71033 30907
L71022 30939
L70937 31023
" />
<path d="M71383 30790
L71256 30917
" />
<path d="M71319 30854
L71097 30631
L71107 30684
L71107 30726
L71097 30758
" />
<path d="M71425 30451
L71574 30599
" />
<path d="M71287 30419
L71394 30631
L71531 30493
" />
<g transform="rotate(-45 71084.3 32870.1)">
<text x="71084.3" y="33027.6"
textLength="1306.62" font-size="419.947" lengthAdjust="spacingAndGlyphs"
text-anchor="middle" opacity="0">GP13</text>
</g>
<path d="M70707 33023
L70675 33034
L70644 33066
L70622 33108
L70622 33151
L70633 33182
L70665 33235
L70697 33267
L70750 33299
L70782 33310
L70824 33310
L70866 33288
L70888 33267
L70909 33225
L70909 33204
L70835 33129
L70792 33172
" />
<path d="M71025 33129
L70803 32907
L70888 32822
L70919 32811
L70941 32811
L70972 32822
L71004 32854
L71015 32885
L71015 32907
L71004 32939
L70919 33023
" />
<path d="M71365 32790
L71238 32917
" />
<path d="M71301 32854
L71078 32631
L71089 32684
L71089 32726
L71078 32758
" />
<path d="M71216 32493
L71354 32355
L71365 32514
L71397 32482
L71428 32472
L71450 32472
L71481 32482
L71534 32536
L71545 32567
L71545 32589
L71534 32620
L71471 32684
L71439 32695
L71418 32695
" />
<g transform="rotate(-45 71141.7 33870.1)">
<text x="71141.7" y="34027.6"
textLength="1306.62" font-size="419.947" lengthAdjust="spacingAndGlyphs"
text-anchor="middle" opacity="0">GP12</text>
</g>
<path d="M70765 34023
L70733 34034
L70701 34066
L70680 34108
L70680 34151
L70691 34182
L70722 34235
L70754 34267
L70807 34299
L70839 34310
L70881 34310
L70924 34288
L70945 34267
L70966 34225
L70966 34204
L70892 34129
L70850 34172
" />
<path d="M71083 34129
L70860 33907
L70945 33822
L70977 33811
L70998 33811
L71030 33822
L71062 33854
L71072 33885
L71072 33907
L71062 33939
L70977 34023
" />
<path d="M71422 33790
L71295 33917
" />
<path d="M71359 33854
L71136 33631
L71147 33684
L71147 33726
L71136 33758
" />
<path d="M71306 33504
L71306 33482
L71316 33451
L71369 33398
L71401 33387
L71422 33387
L71454 33398
L71475 33419
L71497 33461
L71497 33716
L71634 33578
" />
<g transform="rotate(-45 71141.7 34870.1)">
<text x="71141.7" y="35027.6"
textLength="1306.62" font-size="419.947" lengthAdjust="spacingAndGlyphs"
text-anchor="middle" opacity="0">GP11</text>
</g>
<path d="M70765 35023
L70733 35034
L70701 35066
L70680 35108
L70680 35151
L70691 35182
L70722 35235
L70754 35267
L70807 35299
L70839 35310
L70881 35310
L70924 35288
L70945 35267
L70966 35225
L70966 35204
L70892 35129
L70850 35172
" />
<path d="M71083 35129
L70860 34907
L70945 34822
L70977 34811
L70998 34811
L71030 34822
L71062 34854
L71072 34885
L71072 34907
L71062 34939
L70977 35023
" />
<path d="M71422 34790
L71295 34917
" />
<path d="M71359 34854
L71136 34631
L71147 34684
L71147 34726
L71136 34758
" />
<path d="M71634 34578
L71507 34705
" />
<path d="M71571 34642
L71348 34419
L71359 34472
L71359 34514
L71348 34546
" />
<g transform="rotate(-45 71084.3 35870.1)">
<text x="71084.3" y="36027.6"
textLength="1306.62" font-size="419.947" lengthAdjust="spacingAndGlyphs"
text-anchor="middle" opacity="0">GP10</text>
</g>
<path d="M70707 36023
L70675 36034
L70644 36066
L70622 36108
L70622 36151
L70633 36182
L70665 36235
L70697 36267
L70750 36299
L70782 36310
L70824 36310
L70866 36288
L70888 36267
L70909 36225
L70909 36204
L70835 36129
L70792 36172
" />
<path d="M71025 36129
L70803 35907
L70888 35822
L70919 35811
L70941 35811
L70972 35822
L71004 35854
L71015 35885
L71015 35907
L71004 35939
L70919 36023
" />
<path d="M71365 35790
L71238 35917
" />
<path d="M71301 35854
L71078 35631
L71089 35684
L71089 35726
L71078 35758
" />
<path d="M71280 35429
L71301 35408
L71333 35398
L71354 35398
L71386 35408
L71439 35440
L71492 35493
L71524 35546
L71534 35578
L71534 35599
L71524 35631
L71503 35652
L71471 35663
L71450 35663
L71418 35652
L71365 35620
L71312 35567
L71280 35514
L71269 35482
L71269 35461
L71280 35429
" />
<g transform="rotate(-45 70984.3 37870.1)">
<text x="70984.3" y="38027.6"
textLength="1006.66" font-size="419.947" lengthAdjust="spacingAndGlyphs"
text-anchor="middle" opacity="0">GP9</text>
</g>
<path d="M70713 37917
L70682 37928
L70650 37960
L70628 38002
L70628 38045
L70639 38076
L70671 38129
L70703 38161
L70756 38193
L70788 38204
L70830 38204
L70872 38182
L70894 38161
L70915 38119
L70915 38098
L70841 38023
L70798 38066
" />
<path d="M71031 38023
L70809 37801
L70894 37716
L70925 37705
L70947 37705
L70978 37716
L71010 37748
L71021 37779
L71021 37801
L71010 37832
L70925 37917
" />
<path d="M71265 37790
L71307 37748
L71318 37716
L71318 37695
L71307 37642
L71275 37589
L71191 37504
L71159 37493
L71138 37493
L71106 37504
L71063 37546
L71053 37578
L71053 37599
L71063 37631
L71116 37684
L71148 37695
L71169 37695
L71201 37684
L71244 37642
L71254 37610
L71254 37589
L71244 37557
" />
<g transform="rotate(-45 70984.3 38870.1)">
<text x="70984.3" y="39027.6"
textLength="1006.66" font-size="419.947" lengthAdjust="spacingAndGlyphs"
text-anchor="middle" opacity="0">GP8</text>
</g>
<path d="M70713 38917
L70682 38928
L70650 38960
L70628 39002
L70628 39045
L70639 39076
L70671 39129
L70703 39161
L70756 39193
L70788 39204
L70830 39204
L70872 39182
L70894 39161
L70915 39119
L70915 39098
L70841 39023
L70798 39066
" />
<path d="M71031 39023
L70809 38801
L70894 38716
L70925 38705
L70947 38705
L70978 38716
L71010 38748
L71021 38779
L71021 38801
L71010 38832
L70925 38917
" />
<path d="M71159 38642
L71127 38652
L71106 38652
L71074 38642
L71063 38631
L71053 38599
L71053 38578
L71063 38546
L71106 38504
L71138 38493
L71159 38493
L71191 38504
L71201 38514
L71212 38546
L71212 38567
L71201 38599
L71159 38642
L71148 38673
L71148 38695
L71159 38726
L71201 38769
L71233 38779
L71254 38779
L71286 38769
L71328 38726
L71339 38695
L71339 38673
L71328 38642
L71286 38599
L71254 38589
L71233 38589
L71201 38599
" />
<g transform="rotate(-45 70944.9 39881.9)">
<text x="70944.9" y="40039.4"
textLength="1006.66" font-size="419.947" lengthAdjust="spacingAndGlyphs"
text-anchor="middle" opacity="0">GP7</text>
</g>
<path d="M70674 39929
L70642 39940
L70610 39972
L70589 40014
L70589 40056
L70600 40088
L70632 40141
L70663 40173
L70716 40205
L70748 40215
L70791 40215
L70833 40194
L70854 40173
L70875 40131
L70875 40109
L70801 40035
L70759 40078
" />
<path d="M70992 40035
L70769 39812
L70854 39728
L70886 39717
L70907 39717
L70939 39728
L70971 39759
L70982 39791
L70982 39812
L70971 39844
L70886 39929
" />
<path d="M70971 39611
L71119 39462
L71247 39781
" />
<g transform="rotate(-45 70984.3 40870.1)">
<text x="70984.3" y="41027.6"
textLength="1006.66" font-size="419.947" lengthAdjust="spacingAndGlyphs"
text-anchor="middle" opacity="0">GP6</text>
</g>
<path d="M70713 40917
L70682 40928
L70650 40960
L70628 41002
L70628 41045
L70639 41076
L70671 41129
L70703 41161
L70756 41193
L70788 41204
L70830 41204
L70872 41182
L70894 41161
L70915 41119
L70915 41098
L70841 41023
L70798 41066
" />
<path d="M71031 41023
L70809 40801
L70894 40716
L70925 40705
L70947 40705
L70978 40716
L71010 40748
L71021 40779
L71021 40801
L71010 40832
L70925 40917
" />
<path d="M71127 40482
L71085 40525
L71074 40557
L71074 40578
L71085 40631
L71116 40684
L71201 40769
L71233 40779
L71254 40779
L71286 40769
L71328 40726
L71339 40695
L71339 40673
L71328 40642
L71275 40589
L71244 40578
L71222 40578
L71191 40589
L71148 40631
L71138 40663
L71138 40684
L71148 40716
" />
<g transform="rotate(-45 70984.3 42870.1)">
<text x="70984.3" y="43027.6"
textLength="1006.66" font-size="419.947" lengthAdjust="spacingAndGlyphs"
text-anchor="middle" opacity="0">GP5</text>
</g>
<path d="M70713 42917
L70682 42928
L70650 42960
L70628 43002
L70628 43045
L70639 43076
L70671 43129
L70703 43161
L70756 43193
L70788 43204
L70830 43204
L70872 43182
L70894 43161
L70915 43119
L70915 43098
L70841 43023
L70798 43066
" />
<path d="M71031 43023
L70809 42801
L70894 42716
L70925 42705
L70947 42705
L70978 42716
L71010 42748
L71021 42779
L71021 42801
L71010 42832
L70925 42917
" />
<path d="M71138 42472
L71031 42578
L71127 42695
L71127 42673
L71138 42642
L71191 42589
L71222 42578
L71244 42578
L71275 42589
L71328 42642
L71339 42673
L71339 42695
L71328 42726
L71275 42779
L71244 42790
L71222 42790
" />
<g transform="rotate(-45 70984.3 43870.1)">
<text x="70984.3" y="44027.6"
textLength="1006.66" font-size="419.947" lengthAdjust="spacingAndGlyphs"
text-anchor="middle" opacity="0">GP4</text>
</g>
<path d="M70713 43917
L70682 43928
L70650 43960
L70628 44002
L70628 44045
L70639 44076
L70671 44129
L70703 44161
L70756 44193
L70788 44204
L70830 44204
L70872 44182
L70894 44161
L70915 44119
L70915 44098
L70841 44023
L70798 44066
" />
<path d="M71031 44023
L70809 43801
L70894 43716
L70925 43705
L70947 43705
L70978 43716
L71010 43748
L71021 43779
L71021 43801
L71010 43832
L70925 43917
" />
<path d="M71201 43557
L71350 43705
" />
<path d="M71063 43525
L71169 43737
L71307 43599
" />
<g transform="rotate(-45 70984.3 44870.1)">
<text x="70984.3" y="45027.6"
textLength="1006.66" font-size="419.947" lengthAdjust="spacingAndGlyphs"
text-anchor="middle" opacity="0">GP3</text>
</g>
<path d="M70713 44917
L70682 44928
L70650 44960
L70628 45002
L70628 45045
L70639 45076
L70671 45129
L70703 45161
L70756 45193
L70788 45204
L70830 45204
L70872 45182
L70894 45161
L70915 45119
L70915 45098
L70841 45023
L70798 45066
" />
<path d="M71031 45023
L70809 44801
L70894 44716
L70925 44705
L70947 44705
L70978 44716
L71010 44748
L71021 44779
L71021 44801
L71010 44832
L70925 44917
" />
<path d="M71010 44599
L71148 44461
L71159 44620
L71191 44589
L71222 44578
L71244 44578
L71275 44589
L71328 44642
L71339 44673
L71339 44695
L71328 44726
L71265 44790
L71233 44801
L71212 44801
" />
<g transform="rotate(-45 70984.3 48870.1)">
<text x="70984.3" y="49027.6"
textLength="1006.66" font-size="419.947" lengthAdjust="spacingAndGlyphs"
text-anchor="middle" opacity="0">GP0</text>
</g>
<path d="M70713 48917
L70682 48928
L70650 48960
L70628 49002
L70628 49045
L70639 49076
L70671 49129
L70703 49161
L70756 49193
L70788 49204
L70830 49204
L70872 49182
L70894 49161
L70915 49119
L70915 49098
L70841 49023
L70798 49066
" />
<path d="M71031 49023
L70809 48801
L70894 48716
L70925 48705
L70947 48705
L70978 48716
L71010 48748
L71021 48779
L71021 48801
L71010 48832
L70925 48917
" />
<path d="M71074 48536
L71095 48514
L71127 48504
L71148 48504
L71180 48514
L71233 48546
L71286 48599
L71318 48652
L71328 48684
L71328 48705
L71318 48737
L71297 48758
L71265 48769
L71244 48769
L71212 48758
L71159 48726
L71106 48673
L71074 48620
L71063 48589
L71063 48567
L71074 48536
" />
<g transform="rotate(-45 71023.6 45870.1)">
<text x="71023.6" y="46027.6"
textLength="1006.66" font-size="419.947" lengthAdjust="spacingAndGlyphs"
text-anchor="middle" opacity="0">GP2</text>
</g>
<path d="M70753 45917
L70721 45928
L70689 45960
L70668 46002
L70668 46045
L70678 46076
L70710 46129
L70742 46161
L70795 46193
L70827 46204
L70869 46204
L70912 46182
L70933 46161
L70954 46119
L70954 46098
L70880 46023
L70838 46066
" />
<path d="M71071 46023
L70848 45801
L70933 45716
L70965 45705
L70986 45705
L71018 45716
L71050 45748
L71060 45779
L71060 45801
L71050 45832
L70965 45917
" />
<path d="M71081 45610
L71081 45589
L71092 45557
L71145 45504
L71177 45493
L71198 45493
L71230 45504
L71251 45525
L71272 45567
L71272 45822
L71410 45684
" />
<g transform="rotate(-45 71023.6 47874)">
<text x="71023.6" y="48031.5"
textLength="1006.66" font-size="419.947" lengthAdjust="spacingAndGlyphs"
text-anchor="middle" opacity="0">GP1</text>
</g>
<path d="M70753 47921
L70721 47932
L70689 47964
L70668 48006
L70668 48049
L70678 48080
L70710 48133
L70742 48165
L70795 48197
L70827 48208
L70869 48208
L70912 48186
L70933 48165
L70954 48123
L70954 48102
L70880 48027
L70838 48070
" />
<path d="M71071 48027
L70848 47805
L70933 47720
L70965 47709
L70986 47709
L71018 47720
L71050 47752
L71060 47783
L71060 47805
L71050 47836
L70965 47921
" />
<path d="M71410 47688
L71283 47815
" />
<path d="M71347 47752
L71124 47529
L71134 47582
L71134 47624
L71124 47656
" />
</g>
<g style="fill:#000000; fill-opacity:0.0; 
stroke:#000000; stroke-width:60; stroke-opacity:1; 
stroke-linecap:round; stroke-linejoin:round;">
<text x="57874" y="30770.2"
textLength="1356.77" font-size="426.667" lengthAdjust="spacingAndGlyphs"
text-anchor="middle" opacity="0">-10V</text>
<path d="M57310 30633
L57554 30633
" />
<path d="M57874 30754
L57691 30754
" />
<path d="M57782 30754
L57782 30434
L57752 30480
L57721 30511
L57691 30526
" />
<path d="M58072 30434
L58102 30434
L58133 30450
L58148 30465
L58163 30495
L58178 30556
L58178 30633
L58163 30694
L58148 30724
L58133 30739
L58102 30754
L58072 30754
L58041 30739
L58026 30724
L58011 30694
L57995 30633
L57995 30556
L58011 30495
L58026 30465
L58041 30450
L58072 30434
" />
<path d="M58270 30434
L58376 30754
L58483 30434
" />
<text x="57874" y="31754.5"
textLength="1358" font-size="426.667" lengthAdjust="spacingAndGlyphs"
text-anchor="middle" opacity="0">+10V</text>
<path d="M57310 31617
L57554 31617
" />
<path d="M57432 31739
L57432 31495
" />
<path d="M57874 31739
L57691 31739
" />
<path d="M57782 31739
L57782 31419
L57752 31464
L57721 31495
L57691 31510
" />
<path d="M58072 31419
L58102 31419
L58133 31434
L58148 31449
L58163 31480
L58178 31541
L58178 31617
L58163 31678
L58148 31708
L58133 31724
L58102 31739
L58072 31739
L58041 31724
L58026 31708
L58011 31678
L57995 31617
L57995 31541
L58011 31480
L58026 31449
L58041 31434
L58072 31419
" />
<path d="M58270 31419
L58376 31739
L58483 31419
" />
<text x="57972.4" y="45927.7"
textLength="1510.38" font-size="426.667" lengthAdjust="spacingAndGlyphs"
text-anchor="middle" opacity="0">+3.3V</text>
<path d="M57332 45790
L57576 45790
" />
<path d="M57454 45912
L57454 45668
" />
<path d="M57698 45592
L57896 45592
L57789 45714
L57835 45714
L57865 45729
L57881 45744
L57896 45775
L57896 45851
L57881 45882
L57865 45897
L57835 45912
L57743 45912
L57713 45897
L57698 45882
" />
<path d="M58033 45882
L58048 45897
L58033 45912
L58018 45897
L58033 45882
L58033 45912
" />
<path d="M58155 45592
L58353 45592
L58246 45714
L58292 45714
L58322 45729
L58338 45744
L58353 45775
L58353 45851
L58338 45882
L58322 45897
L58292 45912
L58201 45912
L58170 45897
L58155 45882
" />
<path d="M58444 45592
L58551 45912
L58658 45592
" />
<text x="59055.1" y="41498.6"
textLength="1053.24" font-size="426.667" lengthAdjust="spacingAndGlyphs"
text-anchor="middle" opacity="0">SW2</text>
<path d="M58628 41468
L58674 41483
L58750 41483
L58780 41468
L58796 41452
L58811 41422
L58811 41391
L58796 41361
L58780 41346
L58750 41330
L58689 41315
L58658 41300
L58643 41285
L58628 41254
L58628 41224
L58643 41193
L58658 41178
L58689 41163
L58765 41163
L58811 41178
" />
<path d="M58917 41163
L58994 41483
L59055 41254
L59116 41483
L59192 41163
" />
<path d="M59298 41193
L59314 41178
L59344 41163
L59420 41163
L59451 41178
L59466 41193
L59481 41224
L59481 41254
L59466 41300
L59283 41483
L59481 41483
" />
<text x="57972.4" y="41498.6"
textLength="1053.24" font-size="426.667" lengthAdjust="spacingAndGlyphs"
text-anchor="middle" opacity="0">SW1</text>
<path d="M57545 41468
L57591 41483
L57667 41483
L57698 41468
L57713 41452
L57728 41422
L57728 41391
L57713 41361
L57698 41346
L57667 41330
L57606 41315
L57576 41300
L57561 41285
L57545 41254
L57545 41224
L57561 41193
L57576 41178
L57606 41163
L57682 41163
L57728 41178
" />
<path d="M57835 41163
L57911 41483
L57972 41254
L58033 41483
L58109 41163
" />
<path d="M58399 41483
L58216 41483
" />
<path d="M58307 41483
L58307 41163
L58277 41209
L58246 41239
L58216 41254
" />
<text x="56692.9" y="41498.6"
textLength="1418.95" font-size="426.667" lengthAdjust="spacingAndGlyphs"
text-anchor="middle" opacity="0">COMP</text>
<path d="M56281 41452
L56266 41468
L56220 41483
L56190 41483
L56144 41468
L56113 41437
L56098 41407
L56083 41346
L56083 41300
L56098 41239
L56113 41209
L56144 41178
L56190 41163
L56220 41163
L56266 41178
L56281 41193
" />
<path d="M56479 41163
L56540 41163
L56571 41178
L56601 41209
L56616 41270
L56616 41376
L56601 41437
L56571 41468
L56540 41483
L56479 41483
L56449 41468
L56418 41437
L56403 41376
L56403 41270
L56418 41209
L56449 41178
L56479 41163
" />
<path d="M56753 41483
L56753 41163
L56860 41391
L56967 41163
L56967 41483
" />
<path d="M57119 41483
L57119 41163
L57241 41163
L57271 41178
L57287 41193
L57302 41224
L57302 41270
L57287 41300
L57271 41315
L57241 41330
L57119 41330
" />
<g >
</g>
</g> 
</svg>
