%TF.GenerationSoftware,KiCad,Pcbnew,(5.1.10)-1*%
%TF.CreationDate,2021-08-08T16:35:40+05:30*%
%TF.ProjectId,Multislope IIA,4d756c74-6973-46c6-9f70-65204949412e,rev?*%
%TF.SameCoordinates,Original*%
%TF.FileFunction,Legend,Top*%
%TF.FilePolarity,Positive*%
%FSLAX46Y46*%
G04 Gerber Fmt 4.6, Leading zero omitted, Abs format (unit mm)*
G04 Created by KiCad (PCBNEW (5.1.10)-1) date 2021-08-08 16:35:40*
%MOMM*%
%LPD*%
G01*
G04 APERTURE LIST*
%ADD10C,0.120000*%
%ADD11C,0.150000*%
%ADD12C,0.152400*%
G04 APERTURE END LIST*
D10*
X121000000Y-74000000D02*
X131000000Y-74000000D01*
X121000000Y-84000000D02*
X121000000Y-74000000D01*
X131000000Y-84000000D02*
X121000000Y-84000000D01*
X131000000Y-74000000D02*
X131000000Y-84000000D01*
%TO.C,R22*%
X153272500Y-93762742D02*
X153272500Y-94237258D01*
X152227500Y-93762742D02*
X152227500Y-94237258D01*
%TO.C,J3*%
X183380000Y-84670000D02*
X184710000Y-84670000D01*
X183380000Y-86000000D02*
X183380000Y-84670000D01*
X185980000Y-84670000D02*
X188580000Y-84670000D01*
X185980000Y-87270000D02*
X185980000Y-84670000D01*
X183380000Y-87270000D02*
X185980000Y-87270000D01*
X188580000Y-84670000D02*
X188580000Y-115270000D01*
X183380000Y-87270000D02*
X183380000Y-115270000D01*
X183380000Y-115270000D02*
X188580000Y-115270000D01*
%TO.C,J1*%
X112670000Y-105080000D02*
X115330000Y-105080000D01*
X112670000Y-97400000D02*
X112670000Y-105080000D01*
X115330000Y-97400000D02*
X115330000Y-105080000D01*
X112670000Y-97400000D02*
X115330000Y-97400000D01*
X112670000Y-96130000D02*
X112670000Y-94800000D01*
X112670000Y-94800000D02*
X114000000Y-94800000D01*
%TO.C,R21*%
X118772500Y-95512742D02*
X118772500Y-95987258D01*
X117727500Y-95512742D02*
X117727500Y-95987258D01*
%TO.C,JP4*%
X119450000Y-101300000D02*
X119750000Y-101000000D01*
X119750000Y-101600000D02*
X119750000Y-101000000D01*
X119450000Y-101300000D02*
X119750000Y-101600000D01*
X119250000Y-102050000D02*
X117250000Y-102050000D01*
X119250000Y-97950000D02*
X119250000Y-102050000D01*
X117250000Y-97950000D02*
X119250000Y-97950000D01*
X117250000Y-102050000D02*
X117250000Y-97950000D01*
%TO.C,J5*%
X127640000Y-103715000D02*
X128442470Y-103715000D01*
X129057530Y-103715000D02*
X129860000Y-103715000D01*
X127640000Y-102510000D02*
X127640000Y-103715000D01*
X129860000Y-102510000D02*
X129860000Y-103715000D01*
X127640000Y-102510000D02*
X128186529Y-102510000D01*
X129313471Y-102510000D02*
X129860000Y-102510000D01*
X127640000Y-101750000D02*
X127640000Y-100990000D01*
X127640000Y-100990000D02*
X128750000Y-100990000D01*
%TO.C,TP5*%
X144700000Y-82750000D02*
G75*
G03*
X144700000Y-82750000I-700000J0D01*
G01*
%TO.C,R20*%
X128977500Y-113762742D02*
X128977500Y-114237258D01*
X130022500Y-113762742D02*
X130022500Y-114237258D01*
%TO.C,R19*%
X151522500Y-119487258D02*
X151522500Y-119012742D01*
X150477500Y-119487258D02*
X150477500Y-119012742D01*
%TO.C,R18*%
X131772500Y-114237258D02*
X131772500Y-113762742D01*
X130727500Y-114237258D02*
X130727500Y-113762742D01*
%TO.C,R17*%
X132512742Y-122272500D02*
X132987258Y-122272500D01*
X132512742Y-121227500D02*
X132987258Y-121227500D01*
%TO.C,R16*%
X135762742Y-122272500D02*
X136237258Y-122272500D01*
X135762742Y-121227500D02*
X136237258Y-121227500D01*
%TO.C,R15*%
X139012742Y-122272500D02*
X139487258Y-122272500D01*
X139012742Y-121227500D02*
X139487258Y-121227500D01*
%TO.C,R14*%
X142977500Y-122762742D02*
X142977500Y-123237258D01*
X144022500Y-122762742D02*
X144022500Y-123237258D01*
%TO.C,R13*%
X144022500Y-119487258D02*
X144022500Y-119012742D01*
X142977500Y-119487258D02*
X142977500Y-119012742D01*
%TO.C,R12*%
X149522500Y-123237258D02*
X149522500Y-122762742D01*
X148477500Y-123237258D02*
X148477500Y-122762742D01*
%TO.C,R11*%
X126272500Y-104737258D02*
X126272500Y-104262742D01*
X125227500Y-104737258D02*
X125227500Y-104262742D01*
%TO.C,R10*%
X141272500Y-114237258D02*
X141272500Y-113762742D01*
X140227500Y-114237258D02*
X140227500Y-113762742D01*
%TO.C,R9*%
X141272500Y-105987258D02*
X141272500Y-105512742D01*
X140227500Y-105987258D02*
X140227500Y-105512742D01*
%TO.C,R8*%
X141272500Y-102987258D02*
X141272500Y-102512742D01*
X140227500Y-102987258D02*
X140227500Y-102512742D01*
%TO.C,R7*%
X136987258Y-75977500D02*
X136512742Y-75977500D01*
X136987258Y-77022500D02*
X136512742Y-77022500D01*
%TO.C,R6*%
X136512742Y-75272500D02*
X136987258Y-75272500D01*
X136512742Y-74227500D02*
X136987258Y-74227500D01*
%TO.C,R5*%
X133012742Y-75272500D02*
X133487258Y-75272500D01*
X133012742Y-74227500D02*
X133487258Y-74227500D01*
%TO.C,R4*%
X133487258Y-75977500D02*
X133012742Y-75977500D01*
X133487258Y-77022500D02*
X133012742Y-77022500D01*
%TO.C,R3*%
X128772500Y-86237258D02*
X128772500Y-85762742D01*
X127727500Y-86237258D02*
X127727500Y-85762742D01*
%TO.C,R2*%
X126772500Y-86237258D02*
X126772500Y-85762742D01*
X125727500Y-86237258D02*
X125727500Y-85762742D01*
%TO.C,R1*%
X121227500Y-85762742D02*
X121227500Y-86237258D01*
X122272500Y-85762742D02*
X122272500Y-86237258D01*
%TO.C,FB15*%
X151510000Y-110700279D02*
X151510000Y-110374721D01*
X150490000Y-110700279D02*
X150490000Y-110374721D01*
%TO.C,FB14*%
X124510000Y-104662779D02*
X124510000Y-104337221D01*
X123490000Y-104662779D02*
X123490000Y-104337221D01*
%TO.C,FB13*%
X151510000Y-97662779D02*
X151510000Y-97337221D01*
X150490000Y-97662779D02*
X150490000Y-97337221D01*
%TO.C,FB12*%
X137587221Y-118260000D02*
X137912779Y-118260000D01*
X137587221Y-117240000D02*
X137912779Y-117240000D01*
%TO.C,FB11*%
X134087221Y-110760000D02*
X134412779Y-110760000D01*
X134087221Y-109740000D02*
X134412779Y-109740000D01*
%TO.C,FB10*%
X142010000Y-94162779D02*
X142010000Y-93837221D01*
X140990000Y-94162779D02*
X140990000Y-93837221D01*
%TO.C,FB9*%
X150490000Y-90337221D02*
X150490000Y-90662779D01*
X151510000Y-90337221D02*
X151510000Y-90662779D01*
%TO.C,FB8*%
X137587221Y-98260000D02*
X137912779Y-98260000D01*
X137587221Y-97240000D02*
X137912779Y-97240000D01*
%TO.C,FB7*%
X134087221Y-90760000D02*
X134412779Y-90760000D01*
X134087221Y-89740000D02*
X134412779Y-89740000D01*
%TO.C,FB6*%
X131760000Y-92412779D02*
X131760000Y-92087221D01*
X130740000Y-92412779D02*
X130740000Y-92087221D01*
%TO.C,FB5*%
X122260000Y-95912779D02*
X122260000Y-95587221D01*
X121240000Y-95912779D02*
X121240000Y-95587221D01*
%TO.C,FB4*%
X137587221Y-108260000D02*
X137912779Y-108260000D01*
X137587221Y-107240000D02*
X137912779Y-107240000D01*
%TO.C,FB3*%
X134087221Y-100760000D02*
X134412779Y-100760000D01*
X134087221Y-99740000D02*
X134412779Y-99740000D01*
%TO.C,FB2*%
X133087221Y-86260000D02*
X133412779Y-86260000D01*
X133087221Y-85240000D02*
X133412779Y-85240000D01*
%TO.C,FB1*%
X142010000Y-79412779D02*
X142010000Y-79087221D01*
X140990000Y-79412779D02*
X140990000Y-79087221D01*
%TO.C,C18*%
X150490000Y-107134420D02*
X150490000Y-107415580D01*
X151510000Y-107134420D02*
X151510000Y-107415580D01*
%TO.C,C17*%
X139109420Y-120260000D02*
X139390580Y-120260000D01*
X139109420Y-119240000D02*
X139390580Y-119240000D01*
%TO.C,C16*%
X135859420Y-120260000D02*
X136140580Y-120260000D01*
X135859420Y-119240000D02*
X136140580Y-119240000D01*
%TO.C,C15*%
X132609420Y-120260000D02*
X132890580Y-120260000D01*
X132609420Y-119240000D02*
X132890580Y-119240000D01*
%TO.C,C14*%
X149510000Y-119390580D02*
X149510000Y-119109420D01*
X148490000Y-119390580D02*
X148490000Y-119109420D01*
%TO.C,C13*%
X121740000Y-104359420D02*
X121740000Y-104640580D01*
X122760000Y-104359420D02*
X122760000Y-104640580D01*
%TO.C,C12*%
X134390580Y-117240000D02*
X134109420Y-117240000D01*
X134390580Y-118260000D02*
X134109420Y-118260000D01*
%TO.C,C11*%
X137890580Y-109740000D02*
X137609420Y-109740000D01*
X137890580Y-110760000D02*
X137609420Y-110760000D01*
%TO.C,C10*%
X151510000Y-94140580D02*
X151510000Y-93859420D01*
X150490000Y-94140580D02*
X150490000Y-93859420D01*
%TO.C,C8*%
X134390580Y-97240000D02*
X134109420Y-97240000D01*
X134390580Y-98260000D02*
X134109420Y-98260000D01*
%TO.C,C7*%
X137890580Y-89740000D02*
X137609420Y-89740000D01*
X137890580Y-90760000D02*
X137609420Y-90760000D01*
%TO.C,C6*%
X130740000Y-95609420D02*
X130740000Y-95890580D01*
X131760000Y-95609420D02*
X131760000Y-95890580D01*
%TO.C,C5*%
X121240000Y-92109420D02*
X121240000Y-92390580D01*
X122260000Y-92109420D02*
X122260000Y-92390580D01*
%TO.C,C4*%
X134390580Y-107240000D02*
X134109420Y-107240000D01*
X134390580Y-108260000D02*
X134109420Y-108260000D01*
%TO.C,C3*%
X137890580Y-99740000D02*
X137609420Y-99740000D01*
X137890580Y-100760000D02*
X137609420Y-100760000D01*
%TO.C,C2*%
X133109420Y-84510000D02*
X133390580Y-84510000D01*
X133109420Y-83490000D02*
X133390580Y-83490000D01*
%TO.C,C1*%
X140260000Y-79390580D02*
X140260000Y-79109420D01*
X139240000Y-79390580D02*
X139240000Y-79109420D01*
%TO.C,IC1*%
X126700000Y-83227754D02*
X126700000Y-81937754D01*
X125300000Y-83227754D02*
X126700000Y-83227754D01*
X125300000Y-81937754D02*
X125300000Y-83227754D01*
X126699757Y-81937812D02*
G75*
G03*
X125300000Y-81937754I-699757J2937812D01*
G01*
%TO.C,TP4*%
X144700000Y-75250000D02*
G75*
G03*
X144700000Y-75250000I-700000J0D01*
G01*
%TO.C,U9*%
X147830000Y-118490000D02*
X147830000Y-119950000D01*
X144670000Y-118490000D02*
X144670000Y-120650000D01*
X144670000Y-118490000D02*
X145600000Y-118490000D01*
X147830000Y-118490000D02*
X146900000Y-118490000D01*
%TO.C,U8*%
X136000000Y-111440000D02*
X132550000Y-111440000D01*
X136000000Y-111440000D02*
X137950000Y-111440000D01*
X136000000Y-116560000D02*
X134050000Y-116560000D01*
X136000000Y-116560000D02*
X137950000Y-116560000D01*
%TO.C,U7*%
X136000000Y-91440000D02*
X132550000Y-91440000D01*
X136000000Y-91440000D02*
X137950000Y-91440000D01*
X136000000Y-96560000D02*
X134050000Y-96560000D01*
X136000000Y-96560000D02*
X137950000Y-96560000D01*
%TO.C,U6*%
X136000000Y-101440000D02*
X132550000Y-101440000D01*
X136000000Y-101440000D02*
X137950000Y-101440000D01*
X136000000Y-106560000D02*
X134050000Y-106560000D01*
X136000000Y-106560000D02*
X137950000Y-106560000D01*
%TO.C,U5*%
X146250000Y-105815000D02*
X142800000Y-105815000D01*
X146250000Y-105815000D02*
X148200000Y-105815000D01*
X146250000Y-114685000D02*
X144300000Y-114685000D01*
X146250000Y-114685000D02*
X148200000Y-114685000D01*
%TO.C,U4*%
X166400000Y-74500000D02*
X166000000Y-74500000D01*
X169000000Y-74500000D02*
X168600000Y-74500000D01*
X157000000Y-74500000D02*
X163800000Y-74500000D01*
X157000000Y-84900000D02*
X157000000Y-84500000D01*
X157000000Y-92600000D02*
X157000000Y-92200000D01*
X157000000Y-118000000D02*
X157000000Y-117600000D01*
X157000000Y-125500000D02*
X157000000Y-125200000D01*
X157000000Y-102700000D02*
X157000000Y-102300000D01*
X157000000Y-87500000D02*
X157000000Y-87100000D01*
X157000000Y-107800000D02*
X157000000Y-107400000D01*
X157000000Y-112900000D02*
X157000000Y-112500000D01*
X157000000Y-100200000D02*
X157000000Y-99800000D01*
X157000000Y-95100000D02*
X157000000Y-94700000D01*
X157000000Y-79900000D02*
X157000000Y-79500000D01*
X157000000Y-77300000D02*
X157000000Y-76900000D01*
X157000000Y-82400000D02*
X157000000Y-82000000D01*
X157000000Y-115400000D02*
X157000000Y-115000000D01*
X157000000Y-123100000D02*
X157000000Y-122700000D01*
X157000000Y-120500000D02*
X157000000Y-120100000D01*
X157000000Y-90000000D02*
X157000000Y-89600000D01*
X157000000Y-97700000D02*
X157000000Y-97300000D01*
X157000000Y-105300000D02*
X157000000Y-104900000D01*
X157000000Y-110400000D02*
X157000000Y-110000000D01*
X178000000Y-77300000D02*
X178000000Y-76900000D01*
X178000000Y-79900000D02*
X178000000Y-79500000D01*
X178000000Y-82400000D02*
X178000000Y-82000000D01*
X178000000Y-84900000D02*
X178000000Y-84500000D01*
X178000000Y-87500000D02*
X178000000Y-87100000D01*
X178000000Y-90000000D02*
X178000000Y-89600000D01*
X178000000Y-92600000D02*
X178000000Y-92200000D01*
X178000000Y-95100000D02*
X178000000Y-94700000D01*
X178000000Y-97700000D02*
X178000000Y-97300000D01*
X178000000Y-100200000D02*
X178000000Y-99800000D01*
X178000000Y-102700000D02*
X178000000Y-102300000D01*
X178000000Y-105300000D02*
X178000000Y-104900000D01*
X178000000Y-107800000D02*
X178000000Y-107400000D01*
X178000000Y-110400000D02*
X178000000Y-110000000D01*
X178000000Y-112900000D02*
X178000000Y-112500000D01*
X178000000Y-115400000D02*
X178000000Y-115000000D01*
X178000000Y-118000000D02*
X178000000Y-117600000D01*
X178000000Y-120500000D02*
X178000000Y-120100000D01*
X178000000Y-123100000D02*
X178000000Y-122700000D01*
X178000000Y-125500000D02*
X178000000Y-125200000D01*
X174993000Y-122833000D02*
X174993000Y-125500000D01*
X178000000Y-122833000D02*
X174993000Y-122833000D01*
X171200000Y-74500000D02*
X178000000Y-74500000D01*
X178000000Y-125500000D02*
X157000000Y-125500000D01*
%TO.C,U3*%
X126500000Y-99060000D02*
X129950000Y-99060000D01*
X126500000Y-99060000D02*
X124550000Y-99060000D01*
X126500000Y-88940000D02*
X128450000Y-88940000D01*
X126500000Y-88940000D02*
X124550000Y-88940000D01*
%TO.C,U2*%
X146250000Y-88940000D02*
X142800000Y-88940000D01*
X146250000Y-88940000D02*
X148200000Y-88940000D01*
X146250000Y-99060000D02*
X144300000Y-99060000D01*
X146250000Y-99060000D02*
X148200000Y-99060000D01*
%TO.C,U1*%
X135000000Y-77690000D02*
X131550000Y-77690000D01*
X135000000Y-77690000D02*
X136950000Y-77690000D01*
X135000000Y-82810000D02*
X133050000Y-82810000D01*
X135000000Y-82810000D02*
X136950000Y-82810000D01*
%TO.C,TP3*%
X144700000Y-77750000D02*
G75*
G03*
X144700000Y-77750000I-700000J0D01*
G01*
%TO.C,TP2*%
X144700000Y-80250000D02*
G75*
G03*
X144700000Y-80250000I-700000J0D01*
G01*
%TO.C,TP1*%
X144950000Y-116250000D02*
G75*
G03*
X144950000Y-116250000I-700000J0D01*
G01*
%TO.C,RN1*%
X146250000Y-84640000D02*
X143375000Y-84640000D01*
X146250000Y-84640000D02*
X147750000Y-84640000D01*
X146250000Y-87860000D02*
X144750000Y-87860000D01*
X146250000Y-87860000D02*
X147750000Y-87860000D01*
%TO.C,Q1*%
X147830000Y-122240000D02*
X147830000Y-123700000D01*
X144670000Y-122240000D02*
X144670000Y-124400000D01*
X144670000Y-122240000D02*
X145600000Y-122240000D01*
X147830000Y-122240000D02*
X146900000Y-122240000D01*
%TO.C,JP3*%
X151000000Y-99950000D02*
X151000000Y-104050000D01*
X151000000Y-104050000D02*
X149000000Y-104050000D01*
X149000000Y-104050000D02*
X149000000Y-99950000D01*
X149000000Y-99950000D02*
X151000000Y-99950000D01*
X148800000Y-100700000D02*
X148500000Y-100400000D01*
X148500000Y-100400000D02*
X148500000Y-101000000D01*
X148800000Y-100700000D02*
X148500000Y-101000000D01*
%TO.C,JP2*%
X148000000Y-99950000D02*
X148000000Y-104050000D01*
X148000000Y-104050000D02*
X146000000Y-104050000D01*
X146000000Y-104050000D02*
X146000000Y-99950000D01*
X146000000Y-99950000D02*
X148000000Y-99950000D01*
X145800000Y-100700000D02*
X145500000Y-100400000D01*
X145500000Y-100400000D02*
X145500000Y-101000000D01*
X145800000Y-100700000D02*
X145500000Y-101000000D01*
%TO.C,JP1*%
X145000000Y-99950000D02*
X145000000Y-104050000D01*
X145000000Y-104050000D02*
X143000000Y-104050000D01*
X143000000Y-104050000D02*
X143000000Y-99950000D01*
X143000000Y-99950000D02*
X145000000Y-99950000D01*
X142800000Y-100700000D02*
X142500000Y-100400000D01*
X142500000Y-100400000D02*
X142500000Y-101000000D01*
X142800000Y-100700000D02*
X142500000Y-101000000D01*
%TO.C,J2*%
X141080000Y-123170000D02*
X141080000Y-124500000D01*
X139750000Y-123170000D02*
X141080000Y-123170000D01*
X138480000Y-123170000D02*
X138480000Y-125830000D01*
X138480000Y-125830000D02*
X130800000Y-125830000D01*
X138480000Y-123170000D02*
X130800000Y-123170000D01*
X130800000Y-123170000D02*
X130800000Y-125830000D01*
%TO.C,D1*%
X124850000Y-84500000D02*
X124850000Y-87050000D01*
X123150000Y-84500000D02*
X123150000Y-87050000D01*
X124850000Y-84500000D02*
X123150000Y-84500000D01*
%TO.C,C19*%
X131760000Y-105890580D02*
X131760000Y-105609420D01*
X130740000Y-105890580D02*
X130740000Y-105609420D01*
%TO.C,C9*%
X130740000Y-102109420D02*
X130740000Y-102390580D01*
X131760000Y-102109420D02*
X131760000Y-102390580D01*
%TO.C,J3*%
D11*
X184980000Y-115770000D02*
X184884761Y-115722380D01*
X184741904Y-115722380D01*
X184599047Y-115770000D01*
X184503809Y-115865238D01*
X184456190Y-115960476D01*
X184408571Y-116150952D01*
X184408571Y-116293809D01*
X184456190Y-116484285D01*
X184503809Y-116579523D01*
X184599047Y-116674761D01*
X184741904Y-116722380D01*
X184837142Y-116722380D01*
X184980000Y-116674761D01*
X185027619Y-116627142D01*
X185027619Y-116293809D01*
X184837142Y-116293809D01*
X185456190Y-116722380D02*
X185456190Y-115722380D01*
X185837142Y-115722380D01*
X185932380Y-115770000D01*
X185980000Y-115817619D01*
X186027619Y-115912857D01*
X186027619Y-116055714D01*
X185980000Y-116150952D01*
X185932380Y-116198571D01*
X185837142Y-116246190D01*
X185456190Y-116246190D01*
X186456190Y-116722380D02*
X186456190Y-115722380D01*
X187122857Y-115722380D02*
X187313333Y-115722380D01*
X187408571Y-115770000D01*
X187503809Y-115865238D01*
X187551428Y-116055714D01*
X187551428Y-116389047D01*
X187503809Y-116579523D01*
X187408571Y-116674761D01*
X187313333Y-116722380D01*
X187122857Y-116722380D01*
X187027619Y-116674761D01*
X186932380Y-116579523D01*
X186884761Y-116389047D01*
X186884761Y-116055714D01*
X186932380Y-115865238D01*
X187027619Y-115770000D01*
X187122857Y-115722380D01*
%TO.C,J1*%
D12*
X112432457Y-106447695D02*
X112432457Y-105634895D01*
X112819504Y-106447695D02*
X112819504Y-105634895D01*
X113283961Y-106447695D01*
X113283961Y-105634895D01*
X113671009Y-106447695D02*
X113671009Y-105634895D01*
X113980647Y-105634895D01*
X114058057Y-105673600D01*
X114096761Y-105712304D01*
X114135466Y-105789714D01*
X114135466Y-105905828D01*
X114096761Y-105983238D01*
X114058057Y-106021942D01*
X113980647Y-106060647D01*
X113671009Y-106060647D01*
X114483809Y-105634895D02*
X114483809Y-106292876D01*
X114522514Y-106370285D01*
X114561219Y-106408990D01*
X114638628Y-106447695D01*
X114793447Y-106447695D01*
X114870857Y-106408990D01*
X114909561Y-106370285D01*
X114948266Y-106292876D01*
X114948266Y-105634895D01*
X115219200Y-105634895D02*
X115683657Y-105634895D01*
X115451428Y-106447695D02*
X115451428Y-105634895D01*
%TO.C,JP4*%
X116546990Y-102843600D02*
X116469580Y-102804895D01*
X116353466Y-102804895D01*
X116237352Y-102843600D01*
X116159942Y-102921009D01*
X116121238Y-102998419D01*
X116082533Y-103153238D01*
X116082533Y-103269352D01*
X116121238Y-103424171D01*
X116159942Y-103501580D01*
X116237352Y-103578990D01*
X116353466Y-103617695D01*
X116430876Y-103617695D01*
X116546990Y-103578990D01*
X116585695Y-103540285D01*
X116585695Y-103269352D01*
X116430876Y-103269352D01*
X116934038Y-103617695D02*
X116934038Y-102804895D01*
X117398495Y-103617695D01*
X117398495Y-102804895D01*
X117785542Y-103617695D02*
X117785542Y-102804895D01*
X117979066Y-102804895D01*
X118095180Y-102843600D01*
X118172590Y-102921009D01*
X118211295Y-102998419D01*
X118250000Y-103153238D01*
X118250000Y-103269352D01*
X118211295Y-103424171D01*
X118172590Y-103501580D01*
X118095180Y-103578990D01*
X117979066Y-103617695D01*
X117785542Y-103617695D01*
X118559638Y-103578990D02*
X118675752Y-103617695D01*
X118869276Y-103617695D01*
X118946685Y-103578990D01*
X118985390Y-103540285D01*
X119024095Y-103462876D01*
X119024095Y-103385466D01*
X118985390Y-103308057D01*
X118946685Y-103269352D01*
X118869276Y-103230647D01*
X118714457Y-103191942D01*
X118637047Y-103153238D01*
X118598342Y-103114533D01*
X118559638Y-103037123D01*
X118559638Y-102959714D01*
X118598342Y-102882304D01*
X118637047Y-102843600D01*
X118714457Y-102804895D01*
X118907980Y-102804895D01*
X119024095Y-102843600D01*
X119372438Y-103191942D02*
X119643371Y-103191942D01*
X119759485Y-103617695D02*
X119372438Y-103617695D01*
X119372438Y-102804895D01*
X119759485Y-102804895D01*
X120494876Y-103617695D02*
X120107828Y-103617695D01*
X120107828Y-102804895D01*
%TO.C,J5*%
X128014609Y-104867695D02*
X128014609Y-104054895D01*
X128401657Y-104867695D02*
X128401657Y-104054895D01*
X128866114Y-104867695D01*
X128866114Y-104054895D01*
X129137047Y-104054895D02*
X129601504Y-104054895D01*
X129369276Y-104867695D02*
X129369276Y-104054895D01*
%TO.C,TP5*%
X146032380Y-82343600D02*
X145954971Y-82304895D01*
X145838857Y-82304895D01*
X145722742Y-82343600D01*
X145645333Y-82421009D01*
X145606628Y-82498419D01*
X145567923Y-82653238D01*
X145567923Y-82769352D01*
X145606628Y-82924171D01*
X145645333Y-83001580D01*
X145722742Y-83078990D01*
X145838857Y-83117695D01*
X145916266Y-83117695D01*
X146032380Y-83078990D01*
X146071085Y-83040285D01*
X146071085Y-82769352D01*
X145916266Y-82769352D01*
X146419428Y-83117695D02*
X146419428Y-82304895D01*
X146883885Y-83117695D01*
X146883885Y-82304895D01*
X147270933Y-83117695D02*
X147270933Y-82304895D01*
X147464457Y-82304895D01*
X147580571Y-82343600D01*
X147657980Y-82421009D01*
X147696685Y-82498419D01*
X147735390Y-82653238D01*
X147735390Y-82769352D01*
X147696685Y-82924171D01*
X147657980Y-83001580D01*
X147580571Y-83078990D01*
X147464457Y-83117695D01*
X147270933Y-83117695D01*
X148045028Y-82885466D02*
X148432076Y-82885466D01*
X147967619Y-83117695D02*
X148238552Y-82304895D01*
X148509485Y-83117695D01*
%TO.C,TP4*%
X145487352Y-75308057D02*
X146106628Y-75308057D01*
X145796990Y-75617695D02*
X145796990Y-74998419D01*
X146842019Y-74804895D02*
X146687200Y-74804895D01*
X146609790Y-74843600D01*
X146571085Y-74882304D01*
X146493676Y-74998419D01*
X146454971Y-75153238D01*
X146454971Y-75462876D01*
X146493676Y-75540285D01*
X146532380Y-75578990D01*
X146609790Y-75617695D01*
X146764609Y-75617695D01*
X146842019Y-75578990D01*
X146880723Y-75540285D01*
X146919428Y-75462876D01*
X146919428Y-75269352D01*
X146880723Y-75191942D01*
X146842019Y-75153238D01*
X146764609Y-75114533D01*
X146609790Y-75114533D01*
X146532380Y-75153238D01*
X146493676Y-75191942D01*
X146454971Y-75269352D01*
X147267771Y-75540285D02*
X147306476Y-75578990D01*
X147267771Y-75617695D01*
X147229066Y-75578990D01*
X147267771Y-75540285D01*
X147267771Y-75617695D01*
X147693523Y-75617695D02*
X147848342Y-75617695D01*
X147925752Y-75578990D01*
X147964457Y-75540285D01*
X148041866Y-75424171D01*
X148080571Y-75269352D01*
X148080571Y-74959714D01*
X148041866Y-74882304D01*
X148003161Y-74843600D01*
X147925752Y-74804895D01*
X147770933Y-74804895D01*
X147693523Y-74843600D01*
X147654819Y-74882304D01*
X147616114Y-74959714D01*
X147616114Y-75153238D01*
X147654819Y-75230647D01*
X147693523Y-75269352D01*
X147770933Y-75308057D01*
X147925752Y-75308057D01*
X148003161Y-75269352D01*
X148041866Y-75230647D01*
X148080571Y-75153238D01*
X148815961Y-74804895D02*
X148428914Y-74804895D01*
X148390209Y-75191942D01*
X148428914Y-75153238D01*
X148506323Y-75114533D01*
X148699847Y-75114533D01*
X148777257Y-75153238D01*
X148815961Y-75191942D01*
X148854666Y-75269352D01*
X148854666Y-75462876D01*
X148815961Y-75540285D01*
X148777257Y-75578990D01*
X148699847Y-75617695D01*
X148506323Y-75617695D01*
X148428914Y-75578990D01*
X148390209Y-75540285D01*
X149086895Y-74804895D02*
X149357828Y-75617695D01*
X149628761Y-74804895D01*
%TO.C,U4*%
D11*
X166738095Y-99452380D02*
X166738095Y-100261904D01*
X166785714Y-100357142D01*
X166833333Y-100404761D01*
X166928571Y-100452380D01*
X167119047Y-100452380D01*
X167214285Y-100404761D01*
X167261904Y-100357142D01*
X167309523Y-100261904D01*
X167309523Y-99452380D01*
X168214285Y-99785714D02*
X168214285Y-100452380D01*
X167976190Y-99404761D02*
X167738095Y-100119047D01*
X168357142Y-100119047D01*
X160204761Y-74123809D02*
X160319047Y-74161904D01*
X160509523Y-74161904D01*
X160585714Y-74123809D01*
X160623809Y-74085714D01*
X160661904Y-74009523D01*
X160661904Y-73933333D01*
X160623809Y-73857142D01*
X160585714Y-73819047D01*
X160509523Y-73780952D01*
X160357142Y-73742857D01*
X160280952Y-73704761D01*
X160242857Y-73666666D01*
X160204761Y-73590476D01*
X160204761Y-73514285D01*
X160242857Y-73438095D01*
X160280952Y-73400000D01*
X160357142Y-73361904D01*
X160547619Y-73361904D01*
X160661904Y-73400000D01*
X160928571Y-73361904D02*
X161119047Y-74161904D01*
X161271428Y-73590476D01*
X161423809Y-74161904D01*
X161614285Y-73361904D01*
X161919047Y-74161904D02*
X161919047Y-73361904D01*
X162109523Y-73361904D01*
X162223809Y-73400000D01*
X162300000Y-73476190D01*
X162338095Y-73552380D01*
X162376190Y-73704761D01*
X162376190Y-73819047D01*
X162338095Y-73971428D01*
X162300000Y-74047619D01*
X162223809Y-74123809D01*
X162109523Y-74161904D01*
X161919047Y-74161904D01*
X162719047Y-74161904D02*
X162719047Y-73361904D01*
X163252380Y-73361904D02*
X163404761Y-73361904D01*
X163480952Y-73400000D01*
X163557142Y-73476190D01*
X163595238Y-73628571D01*
X163595238Y-73895238D01*
X163557142Y-74047619D01*
X163480952Y-74123809D01*
X163404761Y-74161904D01*
X163252380Y-74161904D01*
X163176190Y-74123809D01*
X163100000Y-74047619D01*
X163061904Y-73895238D01*
X163061904Y-73628571D01*
X163100000Y-73476190D01*
X163176190Y-73400000D01*
X163252380Y-73361904D01*
X171390476Y-74123809D02*
X171504761Y-74161904D01*
X171695238Y-74161904D01*
X171771428Y-74123809D01*
X171809523Y-74085714D01*
X171847619Y-74009523D01*
X171847619Y-73933333D01*
X171809523Y-73857142D01*
X171771428Y-73819047D01*
X171695238Y-73780952D01*
X171542857Y-73742857D01*
X171466666Y-73704761D01*
X171428571Y-73666666D01*
X171390476Y-73590476D01*
X171390476Y-73514285D01*
X171428571Y-73438095D01*
X171466666Y-73400000D01*
X171542857Y-73361904D01*
X171733333Y-73361904D01*
X171847619Y-73400000D01*
X172114285Y-73361904D02*
X172304761Y-74161904D01*
X172457142Y-73590476D01*
X172609523Y-74161904D01*
X172800000Y-73361904D01*
X173561904Y-74085714D02*
X173523809Y-74123809D01*
X173409523Y-74161904D01*
X173333333Y-74161904D01*
X173219047Y-74123809D01*
X173142857Y-74047619D01*
X173104761Y-73971428D01*
X173066666Y-73819047D01*
X173066666Y-73704761D01*
X173104761Y-73552380D01*
X173142857Y-73476190D01*
X173219047Y-73400000D01*
X173333333Y-73361904D01*
X173409523Y-73361904D01*
X173523809Y-73400000D01*
X173561904Y-73438095D01*
X174285714Y-74161904D02*
X173904761Y-74161904D01*
X173904761Y-73361904D01*
X174552380Y-74161904D02*
X174552380Y-73361904D01*
X175009523Y-74161904D02*
X174666666Y-73704761D01*
X175009523Y-73361904D02*
X174552380Y-73819047D01*
X153543597Y-107440964D02*
X153812971Y-107171590D01*
X153651346Y-107656463D02*
X153274223Y-106902216D01*
X154028470Y-107279340D01*
X153974595Y-106255719D02*
X153893783Y-106282656D01*
X153812971Y-106363468D01*
X153759096Y-106471218D01*
X153759096Y-106578967D01*
X153786033Y-106659780D01*
X153866845Y-106794467D01*
X153947658Y-106875279D01*
X154082345Y-106956091D01*
X154163157Y-106983028D01*
X154270906Y-106983028D01*
X154378656Y-106929154D01*
X154432531Y-106875279D01*
X154486406Y-106767529D01*
X154486406Y-106713654D01*
X154297844Y-106525093D01*
X154190094Y-106632842D01*
X154782717Y-106525093D02*
X154217032Y-105959407D01*
X155105966Y-106201844D01*
X154540280Y-105636158D01*
X155375340Y-105932470D02*
X154809654Y-105366784D01*
X154944341Y-105232097D01*
X155052091Y-105178223D01*
X155159841Y-105178223D01*
X155240653Y-105205160D01*
X155375340Y-105285972D01*
X155456152Y-105366784D01*
X155536964Y-105501471D01*
X155563902Y-105582284D01*
X155563902Y-105690033D01*
X155510027Y-105797783D01*
X155375340Y-105932470D01*
X153986158Y-119198155D02*
X153905346Y-119225093D01*
X153824534Y-119305905D01*
X153770659Y-119413654D01*
X153770659Y-119521404D01*
X153797597Y-119602216D01*
X153878409Y-119736903D01*
X153959221Y-119817715D01*
X154093908Y-119898528D01*
X154174720Y-119925465D01*
X154282470Y-119925465D01*
X154390219Y-119871590D01*
X154444094Y-119817715D01*
X154497969Y-119709966D01*
X154497969Y-119656091D01*
X154309407Y-119467529D01*
X154201658Y-119575279D01*
X154794280Y-119467529D02*
X154228595Y-118901844D01*
X155117529Y-119144280D01*
X154551844Y-118578595D01*
X155386903Y-118874906D02*
X154821218Y-118309221D01*
X154955905Y-118174534D01*
X155063654Y-118120659D01*
X155171404Y-118120659D01*
X155252216Y-118147597D01*
X155386903Y-118228409D01*
X155467715Y-118309221D01*
X155548528Y-118443908D01*
X155575465Y-118524720D01*
X155575465Y-118632470D01*
X155521590Y-118740219D01*
X155386903Y-118874906D01*
X153986158Y-93798155D02*
X153905346Y-93825093D01*
X153824534Y-93905905D01*
X153770659Y-94013654D01*
X153770659Y-94121404D01*
X153797597Y-94202216D01*
X153878409Y-94336903D01*
X153959221Y-94417715D01*
X154093908Y-94498528D01*
X154174720Y-94525465D01*
X154282470Y-94525465D01*
X154390219Y-94471590D01*
X154444094Y-94417715D01*
X154497969Y-94309966D01*
X154497969Y-94256091D01*
X154309407Y-94067529D01*
X154201658Y-94175279D01*
X154794280Y-94067529D02*
X154228595Y-93501844D01*
X155117529Y-93744280D01*
X154551844Y-93178595D01*
X155386903Y-93474906D02*
X154821218Y-92909221D01*
X154955905Y-92774534D01*
X155063654Y-92720659D01*
X155171404Y-92720659D01*
X155252216Y-92747597D01*
X155386903Y-92828409D01*
X155467715Y-92909221D01*
X155548528Y-93043908D01*
X155575465Y-93124720D01*
X155575465Y-93232470D01*
X155521590Y-93340219D01*
X155386903Y-93474906D01*
X153986158Y-81098155D02*
X153905346Y-81125093D01*
X153824534Y-81205905D01*
X153770659Y-81313654D01*
X153770659Y-81421404D01*
X153797597Y-81502216D01*
X153878409Y-81636903D01*
X153959221Y-81717715D01*
X154093908Y-81798528D01*
X154174720Y-81825465D01*
X154282470Y-81825465D01*
X154390219Y-81771590D01*
X154444094Y-81717715D01*
X154497969Y-81609966D01*
X154497969Y-81556091D01*
X154309407Y-81367529D01*
X154201658Y-81475279D01*
X154794280Y-81367529D02*
X154228595Y-80801844D01*
X155117529Y-81044280D01*
X154551844Y-80478595D01*
X155386903Y-80774906D02*
X154821218Y-80209221D01*
X154955905Y-80074534D01*
X155063654Y-80020659D01*
X155171404Y-80020659D01*
X155252216Y-80047597D01*
X155386903Y-80128409D01*
X155467715Y-80209221D01*
X155548528Y-80343908D01*
X155575465Y-80424720D01*
X155575465Y-80532470D01*
X155521590Y-80640219D01*
X155386903Y-80774906D01*
X179586158Y-81098155D02*
X179505346Y-81125093D01*
X179424534Y-81205905D01*
X179370659Y-81313654D01*
X179370659Y-81421404D01*
X179397597Y-81502216D01*
X179478409Y-81636903D01*
X179559221Y-81717715D01*
X179693908Y-81798528D01*
X179774720Y-81825465D01*
X179882470Y-81825465D01*
X179990219Y-81771590D01*
X180044094Y-81717715D01*
X180097969Y-81609966D01*
X180097969Y-81556091D01*
X179909407Y-81367529D01*
X179801658Y-81475279D01*
X180394280Y-81367529D02*
X179828595Y-80801844D01*
X180717529Y-81044280D01*
X180151844Y-80478595D01*
X180986903Y-80774906D02*
X180421218Y-80209221D01*
X180555905Y-80074534D01*
X180663654Y-80020659D01*
X180771404Y-80020659D01*
X180852216Y-80047597D01*
X180986903Y-80128409D01*
X181067715Y-80209221D01*
X181148528Y-80343908D01*
X181175465Y-80424720D01*
X181175465Y-80532470D01*
X181121590Y-80640219D01*
X180986903Y-80774906D01*
X179586158Y-93798155D02*
X179505346Y-93825093D01*
X179424534Y-93905905D01*
X179370659Y-94013654D01*
X179370659Y-94121404D01*
X179397597Y-94202216D01*
X179478409Y-94336903D01*
X179559221Y-94417715D01*
X179693908Y-94498528D01*
X179774720Y-94525465D01*
X179882470Y-94525465D01*
X179990219Y-94471590D01*
X180044094Y-94417715D01*
X180097969Y-94309966D01*
X180097969Y-94256091D01*
X179909407Y-94067529D01*
X179801658Y-94175279D01*
X180394280Y-94067529D02*
X179828595Y-93501844D01*
X180717529Y-93744280D01*
X180151844Y-93178595D01*
X180986903Y-93474906D02*
X180421218Y-92909221D01*
X180555905Y-92774534D01*
X180663654Y-92720659D01*
X180771404Y-92720659D01*
X180852216Y-92747597D01*
X180986903Y-92828409D01*
X181067715Y-92909221D01*
X181148528Y-93043908D01*
X181175465Y-93124720D01*
X181175465Y-93232470D01*
X181121590Y-93340219D01*
X180986903Y-93474906D01*
X179586158Y-106498155D02*
X179505346Y-106525093D01*
X179424534Y-106605905D01*
X179370659Y-106713654D01*
X179370659Y-106821404D01*
X179397597Y-106902216D01*
X179478409Y-107036903D01*
X179559221Y-107117715D01*
X179693908Y-107198528D01*
X179774720Y-107225465D01*
X179882470Y-107225465D01*
X179990219Y-107171590D01*
X180044094Y-107117715D01*
X180097969Y-107009966D01*
X180097969Y-106956091D01*
X179909407Y-106767529D01*
X179801658Y-106875279D01*
X180394280Y-106767529D02*
X179828595Y-106201844D01*
X180717529Y-106444280D01*
X180151844Y-105878595D01*
X180986903Y-106174906D02*
X180421218Y-105609221D01*
X180555905Y-105474534D01*
X180663654Y-105420659D01*
X180771404Y-105420659D01*
X180852216Y-105447597D01*
X180986903Y-105528409D01*
X181067715Y-105609221D01*
X181148528Y-105743908D01*
X181175465Y-105824720D01*
X181175465Y-105932470D01*
X181121590Y-106040219D01*
X180986903Y-106174906D01*
X179586158Y-119198155D02*
X179505346Y-119225093D01*
X179424534Y-119305905D01*
X179370659Y-119413654D01*
X179370659Y-119521404D01*
X179397597Y-119602216D01*
X179478409Y-119736903D01*
X179559221Y-119817715D01*
X179693908Y-119898528D01*
X179774720Y-119925465D01*
X179882470Y-119925465D01*
X179990219Y-119871590D01*
X180044094Y-119817715D01*
X180097969Y-119709966D01*
X180097969Y-119656091D01*
X179909407Y-119467529D01*
X179801658Y-119575279D01*
X180394280Y-119467529D02*
X179828595Y-118901844D01*
X180717529Y-119144280D01*
X180151844Y-118578595D01*
X180986903Y-118874906D02*
X180421218Y-118309221D01*
X180555905Y-118174534D01*
X180663654Y-118120659D01*
X180771404Y-118120659D01*
X180852216Y-118147597D01*
X180986903Y-118228409D01*
X181067715Y-118309221D01*
X181148528Y-118443908D01*
X181175465Y-118524720D01*
X181175465Y-118632470D01*
X181121590Y-118740219D01*
X180986903Y-118874906D01*
X152853129Y-124927309D02*
X153607377Y-125304433D01*
X153230253Y-124550186D01*
X153876751Y-124442436D02*
X153984500Y-124388561D01*
X154038375Y-124388561D01*
X154119187Y-124415499D01*
X154200000Y-124496311D01*
X154226937Y-124577123D01*
X154226937Y-124630998D01*
X154200000Y-124711810D01*
X153984500Y-124927309D01*
X153418815Y-124361624D01*
X153607377Y-124173062D01*
X153688189Y-124146125D01*
X153742064Y-124146125D01*
X153822876Y-124173062D01*
X153876751Y-124226937D01*
X153903688Y-124307749D01*
X153903688Y-124361624D01*
X153876751Y-124442436D01*
X153688189Y-124630998D01*
X153984500Y-123795938D02*
X154442436Y-124253874D01*
X154523248Y-124280812D01*
X154577123Y-124280812D01*
X154657935Y-124253874D01*
X154765685Y-124146125D01*
X154792622Y-124065312D01*
X154792622Y-124011438D01*
X154765685Y-123930625D01*
X154307749Y-123472690D01*
X155088934Y-123769001D02*
X155196683Y-123715126D01*
X155331370Y-123580439D01*
X155358308Y-123499627D01*
X155358308Y-123445752D01*
X155331370Y-123364940D01*
X155277496Y-123311065D01*
X155196683Y-123284128D01*
X155142809Y-123284128D01*
X155061996Y-123311065D01*
X154927309Y-123391877D01*
X154846497Y-123418815D01*
X154792622Y-123418815D01*
X154711810Y-123391877D01*
X154657935Y-123338003D01*
X154630998Y-123257190D01*
X154630998Y-123203316D01*
X154657935Y-123122503D01*
X154792622Y-122987816D01*
X154900372Y-122933942D01*
X153020473Y-122249966D02*
X153774720Y-122627089D01*
X153397597Y-121872842D01*
X154097969Y-122249966D02*
X154205719Y-122196091D01*
X154340406Y-122061404D01*
X154367343Y-121980592D01*
X154367343Y-121926717D01*
X154340406Y-121845905D01*
X154286531Y-121792030D01*
X154205719Y-121765093D01*
X154151844Y-121765093D01*
X154071032Y-121792030D01*
X153936345Y-121872842D01*
X153855532Y-121899780D01*
X153801658Y-121899780D01*
X153720845Y-121872842D01*
X153666971Y-121818967D01*
X153640033Y-121738155D01*
X153640033Y-121684280D01*
X153666971Y-121603468D01*
X153801658Y-121468781D01*
X153909407Y-121414906D01*
X154528967Y-121334094D02*
X154798341Y-121603468D01*
X154044094Y-121226345D02*
X154528967Y-121334094D01*
X154421218Y-120849221D01*
X155121590Y-121226345D02*
X155229340Y-121172470D01*
X155364027Y-121037783D01*
X155390964Y-120956971D01*
X155390964Y-120903096D01*
X155364027Y-120822284D01*
X155310152Y-120768409D01*
X155229340Y-120741471D01*
X155175465Y-120741471D01*
X155094653Y-120768409D01*
X154959966Y-120849221D01*
X154879154Y-120876158D01*
X154825279Y-120876158D01*
X154744467Y-120849221D01*
X154690592Y-120795346D01*
X154663654Y-120714534D01*
X154663654Y-120660659D01*
X154690592Y-120579847D01*
X154825279Y-120445160D01*
X154933028Y-120391285D01*
X154292064Y-117127123D02*
X154480625Y-116938561D01*
X154857749Y-117154061D02*
X154588375Y-117423435D01*
X154022690Y-116857749D01*
X154292064Y-116588375D01*
X155100186Y-116911624D02*
X154534500Y-116345938D01*
X155423435Y-116588375D01*
X154857749Y-116022690D01*
X153589847Y-114290592D02*
X153940033Y-113940406D01*
X153966971Y-114344467D01*
X154047783Y-114263654D01*
X154128595Y-114236717D01*
X154182470Y-114236717D01*
X154263282Y-114263654D01*
X154397969Y-114398341D01*
X154424906Y-114479154D01*
X154424906Y-114533028D01*
X154397969Y-114613841D01*
X154236345Y-114775465D01*
X154155532Y-114802402D01*
X154101658Y-114802402D01*
X154101658Y-113778781D02*
X154855905Y-114155905D01*
X154478781Y-113401658D01*
X154613468Y-113266971D02*
X154963654Y-112916784D01*
X154990592Y-113320845D01*
X155071404Y-113240033D01*
X155152216Y-113213096D01*
X155206091Y-113213096D01*
X155286903Y-113240033D01*
X155421590Y-113374720D01*
X155448528Y-113455532D01*
X155448528Y-113509407D01*
X155421590Y-113590219D01*
X155259966Y-113751844D01*
X155179154Y-113778781D01*
X155125279Y-113778781D01*
X153220473Y-112409966D02*
X153974720Y-112787089D01*
X153597597Y-112032842D01*
X154675093Y-112086717D02*
X154217157Y-112005905D01*
X154351844Y-112409966D02*
X153786158Y-111844280D01*
X154001658Y-111628781D01*
X154082470Y-111601844D01*
X154136345Y-111601844D01*
X154217157Y-111628781D01*
X154297969Y-111709593D01*
X154324906Y-111790406D01*
X154324906Y-111844280D01*
X154297969Y-111925093D01*
X154082470Y-112140592D01*
X154621218Y-111547969D02*
X154809780Y-111359407D01*
X155186903Y-111574906D02*
X154917529Y-111844280D01*
X154351844Y-111278595D01*
X154621218Y-111009221D01*
X155321590Y-110847597D02*
X155133028Y-111036158D01*
X155429340Y-111332470D02*
X154863654Y-110766784D01*
X155133028Y-110497410D01*
X153489722Y-109534592D02*
X153408910Y-109561529D01*
X153328097Y-109642341D01*
X153274223Y-109750091D01*
X153274223Y-109857841D01*
X153301160Y-109938653D01*
X153381972Y-110073340D01*
X153462784Y-110154152D01*
X153597471Y-110234964D01*
X153678284Y-110261902D01*
X153786033Y-110261902D01*
X153893783Y-110208027D01*
X153947658Y-110154152D01*
X154001532Y-110046402D01*
X154001532Y-109992528D01*
X153812971Y-109803966D01*
X153705221Y-109911715D01*
X154297844Y-109803966D02*
X153732158Y-109238280D01*
X153947658Y-109022781D01*
X154028470Y-108995844D01*
X154082345Y-108995844D01*
X154163157Y-109022781D01*
X154243969Y-109103593D01*
X154270906Y-109184406D01*
X154270906Y-109238280D01*
X154243969Y-109319093D01*
X154028470Y-109534592D01*
X154324781Y-108753407D02*
X154324781Y-108699532D01*
X154351719Y-108618720D01*
X154486406Y-108484033D01*
X154567218Y-108457096D01*
X154621093Y-108457096D01*
X154701905Y-108484033D01*
X154755780Y-108537908D01*
X154809654Y-108645658D01*
X154809654Y-109292155D01*
X155159841Y-108941969D01*
X155159841Y-108295471D02*
X155079028Y-108322409D01*
X155025154Y-108322409D01*
X154944341Y-108295471D01*
X154917404Y-108268534D01*
X154890467Y-108187722D01*
X154890467Y-108133847D01*
X154917404Y-108053035D01*
X155025154Y-107945285D01*
X155105966Y-107918348D01*
X155159841Y-107918348D01*
X155240653Y-107945285D01*
X155267590Y-107972223D01*
X155294528Y-108053035D01*
X155294528Y-108106910D01*
X155267590Y-108187722D01*
X155159841Y-108295471D01*
X155132903Y-108376284D01*
X155132903Y-108430158D01*
X155159841Y-108510971D01*
X155267590Y-108618720D01*
X155348402Y-108645658D01*
X155402277Y-108645658D01*
X155483089Y-108618720D01*
X155590839Y-108510971D01*
X155617776Y-108430158D01*
X155617776Y-108376284D01*
X155590839Y-108295471D01*
X155483089Y-108187722D01*
X155402277Y-108160784D01*
X155348402Y-108160784D01*
X155267590Y-108187722D01*
X153489722Y-104190592D02*
X153408910Y-104217529D01*
X153328097Y-104298341D01*
X153274223Y-104406091D01*
X153274223Y-104513841D01*
X153301160Y-104594653D01*
X153381972Y-104729340D01*
X153462784Y-104810152D01*
X153597471Y-104890964D01*
X153678284Y-104917902D01*
X153786033Y-104917902D01*
X153893783Y-104864027D01*
X153947658Y-104810152D01*
X154001532Y-104702402D01*
X154001532Y-104648528D01*
X153812971Y-104459966D01*
X153705221Y-104567715D01*
X154297844Y-104459966D02*
X153732158Y-103894280D01*
X153947658Y-103678781D01*
X154028470Y-103651844D01*
X154082345Y-103651844D01*
X154163157Y-103678781D01*
X154243969Y-103759593D01*
X154270906Y-103840406D01*
X154270906Y-103894280D01*
X154243969Y-103975093D01*
X154028470Y-104190592D01*
X154324781Y-103409407D02*
X154324781Y-103355532D01*
X154351719Y-103274720D01*
X154486406Y-103140033D01*
X154567218Y-103113096D01*
X154621093Y-103113096D01*
X154701905Y-103140033D01*
X154755780Y-103193908D01*
X154809654Y-103301658D01*
X154809654Y-103948155D01*
X155159841Y-103597969D01*
X154782717Y-102843722D02*
X155159841Y-102466598D01*
X155483089Y-103274720D01*
X153489722Y-101660592D02*
X153408910Y-101687529D01*
X153328097Y-101768341D01*
X153274223Y-101876091D01*
X153274223Y-101983841D01*
X153301160Y-102064653D01*
X153381972Y-102199340D01*
X153462784Y-102280152D01*
X153597471Y-102360964D01*
X153678284Y-102387902D01*
X153786033Y-102387902D01*
X153893783Y-102334027D01*
X153947658Y-102280152D01*
X154001532Y-102172402D01*
X154001532Y-102118528D01*
X153812971Y-101929966D01*
X153705221Y-102037715D01*
X154297844Y-101929966D02*
X153732158Y-101364280D01*
X153947658Y-101148781D01*
X154028470Y-101121844D01*
X154082345Y-101121844D01*
X154163157Y-101148781D01*
X154243969Y-101229593D01*
X154270906Y-101310406D01*
X154270906Y-101364280D01*
X154243969Y-101445093D01*
X154028470Y-101660592D01*
X154324781Y-100879407D02*
X154324781Y-100825532D01*
X154351719Y-100744720D01*
X154486406Y-100610033D01*
X154567218Y-100583096D01*
X154621093Y-100583096D01*
X154701905Y-100610033D01*
X154755780Y-100663908D01*
X154809654Y-100771658D01*
X154809654Y-101418155D01*
X155159841Y-101067969D01*
X155079028Y-100017410D02*
X154971279Y-100125160D01*
X154944341Y-100205972D01*
X154944341Y-100259847D01*
X154971279Y-100394534D01*
X155052091Y-100529221D01*
X155267590Y-100744720D01*
X155348402Y-100771658D01*
X155402277Y-100771658D01*
X155483089Y-100744720D01*
X155590839Y-100636971D01*
X155617776Y-100556158D01*
X155617776Y-100502284D01*
X155590839Y-100421471D01*
X155456152Y-100286784D01*
X155375340Y-100259847D01*
X155321465Y-100259847D01*
X155240653Y-100286784D01*
X155132903Y-100394534D01*
X155105966Y-100475346D01*
X155105966Y-100529221D01*
X155132903Y-100610033D01*
X154338375Y-99403435D02*
X153880439Y-99322622D01*
X154015126Y-99726683D02*
X153449441Y-99160998D01*
X153664940Y-98945499D01*
X153745752Y-98918561D01*
X153799627Y-98918561D01*
X153880439Y-98945499D01*
X153961251Y-99026311D01*
X153988189Y-99107123D01*
X153988189Y-99160998D01*
X153961251Y-99241810D01*
X153745752Y-99457309D01*
X154015126Y-98595312D02*
X154473062Y-99053248D01*
X154553874Y-99080186D01*
X154607749Y-99080186D01*
X154688561Y-99053248D01*
X154796311Y-98945499D01*
X154823248Y-98864687D01*
X154823248Y-98810812D01*
X154796311Y-98729999D01*
X154338375Y-98272064D01*
X155173435Y-98568375D02*
X154607749Y-98002690D01*
X155496683Y-98245126D01*
X154930998Y-97679441D01*
X153489722Y-96580592D02*
X153408910Y-96607529D01*
X153328097Y-96688341D01*
X153274223Y-96796091D01*
X153274223Y-96903841D01*
X153301160Y-96984653D01*
X153381972Y-97119340D01*
X153462784Y-97200152D01*
X153597471Y-97280964D01*
X153678284Y-97307902D01*
X153786033Y-97307902D01*
X153893783Y-97254027D01*
X153947658Y-97200152D01*
X154001532Y-97092402D01*
X154001532Y-97038528D01*
X153812971Y-96849966D01*
X153705221Y-96957715D01*
X154297844Y-96849966D02*
X153732158Y-96284280D01*
X153947658Y-96068781D01*
X154028470Y-96041844D01*
X154082345Y-96041844D01*
X154163157Y-96068781D01*
X154243969Y-96149593D01*
X154270906Y-96230406D01*
X154270906Y-96284280D01*
X154243969Y-96365093D01*
X154028470Y-96580592D01*
X154324781Y-95799407D02*
X154324781Y-95745532D01*
X154351719Y-95664720D01*
X154486406Y-95530033D01*
X154567218Y-95503096D01*
X154621093Y-95503096D01*
X154701905Y-95530033D01*
X154755780Y-95583908D01*
X154809654Y-95691658D01*
X154809654Y-96338155D01*
X155159841Y-95987969D01*
X154863529Y-95260659D02*
X154863529Y-95206784D01*
X154890467Y-95125972D01*
X155025154Y-94991285D01*
X155105966Y-94964348D01*
X155159841Y-94964348D01*
X155240653Y-94991285D01*
X155294528Y-95045160D01*
X155348402Y-95152910D01*
X155348402Y-95799407D01*
X155698589Y-95449221D01*
X153489722Y-91490592D02*
X153408910Y-91517529D01*
X153328097Y-91598341D01*
X153274223Y-91706091D01*
X153274223Y-91813841D01*
X153301160Y-91894653D01*
X153381972Y-92029340D01*
X153462784Y-92110152D01*
X153597471Y-92190964D01*
X153678284Y-92217902D01*
X153786033Y-92217902D01*
X153893783Y-92164027D01*
X153947658Y-92110152D01*
X154001532Y-92002402D01*
X154001532Y-91948528D01*
X153812971Y-91759966D01*
X153705221Y-91867715D01*
X154297844Y-91759966D02*
X153732158Y-91194280D01*
X153947658Y-90978781D01*
X154028470Y-90951844D01*
X154082345Y-90951844D01*
X154163157Y-90978781D01*
X154243969Y-91059593D01*
X154270906Y-91140406D01*
X154270906Y-91194280D01*
X154243969Y-91275093D01*
X154028470Y-91490592D01*
X154324781Y-90709407D02*
X154324781Y-90655532D01*
X154351719Y-90574720D01*
X154486406Y-90440033D01*
X154567218Y-90413096D01*
X154621093Y-90413096D01*
X154701905Y-90440033D01*
X154755780Y-90493908D01*
X154809654Y-90601658D01*
X154809654Y-91248155D01*
X155159841Y-90897969D01*
X155698589Y-90359221D02*
X155375340Y-90682470D01*
X155536964Y-90520845D02*
X154971279Y-89955160D01*
X154998216Y-90089847D01*
X154998216Y-90197597D01*
X154971279Y-90278409D01*
X153489722Y-88960592D02*
X153408910Y-88987529D01*
X153328097Y-89068341D01*
X153274223Y-89176091D01*
X153274223Y-89283841D01*
X153301160Y-89364653D01*
X153381972Y-89499340D01*
X153462784Y-89580152D01*
X153597471Y-89660964D01*
X153678284Y-89687902D01*
X153786033Y-89687902D01*
X153893783Y-89634027D01*
X153947658Y-89580152D01*
X154001532Y-89472402D01*
X154001532Y-89418528D01*
X153812971Y-89229966D01*
X153705221Y-89337715D01*
X154297844Y-89229966D02*
X153732158Y-88664280D01*
X153947658Y-88448781D01*
X154028470Y-88421844D01*
X154082345Y-88421844D01*
X154163157Y-88448781D01*
X154243969Y-88529593D01*
X154270906Y-88610406D01*
X154270906Y-88664280D01*
X154243969Y-88745093D01*
X154028470Y-88960592D01*
X154324781Y-88179407D02*
X154324781Y-88125532D01*
X154351719Y-88044720D01*
X154486406Y-87910033D01*
X154567218Y-87883096D01*
X154621093Y-87883096D01*
X154701905Y-87910033D01*
X154755780Y-87963908D01*
X154809654Y-88071658D01*
X154809654Y-88718155D01*
X155159841Y-88367969D01*
X154944341Y-87452097D02*
X154998216Y-87398223D01*
X155079028Y-87371285D01*
X155132903Y-87371285D01*
X155213715Y-87398223D01*
X155348402Y-87479035D01*
X155483089Y-87613722D01*
X155563902Y-87748409D01*
X155590839Y-87829221D01*
X155590839Y-87883096D01*
X155563902Y-87963908D01*
X155510027Y-88017783D01*
X155429215Y-88044720D01*
X155375340Y-88044720D01*
X155294528Y-88017783D01*
X155159841Y-87936971D01*
X155025154Y-87802284D01*
X154944341Y-87667597D01*
X154917404Y-87586784D01*
X154917404Y-87532910D01*
X154944341Y-87452097D01*
X153489722Y-86420592D02*
X153408910Y-86447529D01*
X153328097Y-86528341D01*
X153274223Y-86636091D01*
X153274223Y-86743841D01*
X153301160Y-86824653D01*
X153381972Y-86959340D01*
X153462784Y-87040152D01*
X153597471Y-87120964D01*
X153678284Y-87147902D01*
X153786033Y-87147902D01*
X153893783Y-87094027D01*
X153947658Y-87040152D01*
X154001532Y-86932402D01*
X154001532Y-86878528D01*
X153812971Y-86689966D01*
X153705221Y-86797715D01*
X154297844Y-86689966D02*
X153732158Y-86124280D01*
X153947658Y-85908781D01*
X154028470Y-85881844D01*
X154082345Y-85881844D01*
X154163157Y-85908781D01*
X154243969Y-85989593D01*
X154270906Y-86070406D01*
X154270906Y-86124280D01*
X154243969Y-86205093D01*
X154028470Y-86420592D01*
X155159841Y-85827969D02*
X154836592Y-86151218D01*
X154998216Y-85989593D02*
X154432531Y-85423908D01*
X154459468Y-85558595D01*
X154459468Y-85666345D01*
X154432531Y-85747157D01*
X155429215Y-85558595D02*
X155536964Y-85450845D01*
X155563902Y-85370033D01*
X155563902Y-85316158D01*
X155536964Y-85181471D01*
X155456152Y-85046784D01*
X155240653Y-84831285D01*
X155159841Y-84804348D01*
X155105966Y-84804348D01*
X155025154Y-84831285D01*
X154917404Y-84939035D01*
X154890467Y-85019847D01*
X154890467Y-85073722D01*
X154917404Y-85154534D01*
X155052091Y-85289221D01*
X155132903Y-85316158D01*
X155186778Y-85316158D01*
X155267590Y-85289221D01*
X155375340Y-85181471D01*
X155402277Y-85100659D01*
X155402277Y-85046784D01*
X155375340Y-84965972D01*
X153489722Y-83880592D02*
X153408910Y-83907529D01*
X153328097Y-83988341D01*
X153274223Y-84096091D01*
X153274223Y-84203841D01*
X153301160Y-84284653D01*
X153381972Y-84419340D01*
X153462784Y-84500152D01*
X153597471Y-84580964D01*
X153678284Y-84607902D01*
X153786033Y-84607902D01*
X153893783Y-84554027D01*
X153947658Y-84500152D01*
X154001532Y-84392402D01*
X154001532Y-84338528D01*
X153812971Y-84149966D01*
X153705221Y-84257715D01*
X154297844Y-84149966D02*
X153732158Y-83584280D01*
X153947658Y-83368781D01*
X154028470Y-83341844D01*
X154082345Y-83341844D01*
X154163157Y-83368781D01*
X154243969Y-83449593D01*
X154270906Y-83530406D01*
X154270906Y-83584280D01*
X154243969Y-83665093D01*
X154028470Y-83880592D01*
X155159841Y-83287969D02*
X154836592Y-83611218D01*
X154998216Y-83449593D02*
X154432531Y-82883908D01*
X154459468Y-83018595D01*
X154459468Y-83126345D01*
X154432531Y-83207157D01*
X155159841Y-82641471D02*
X155079028Y-82668409D01*
X155025154Y-82668409D01*
X154944341Y-82641471D01*
X154917404Y-82614534D01*
X154890467Y-82533722D01*
X154890467Y-82479847D01*
X154917404Y-82399035D01*
X155025154Y-82291285D01*
X155105966Y-82264348D01*
X155159841Y-82264348D01*
X155240653Y-82291285D01*
X155267590Y-82318223D01*
X155294528Y-82399035D01*
X155294528Y-82452910D01*
X155267590Y-82533722D01*
X155159841Y-82641471D01*
X155132903Y-82722284D01*
X155132903Y-82776158D01*
X155159841Y-82856971D01*
X155267590Y-82964720D01*
X155348402Y-82991658D01*
X155402277Y-82991658D01*
X155483089Y-82964720D01*
X155590839Y-82856971D01*
X155617776Y-82776158D01*
X155617776Y-82722284D01*
X155590839Y-82641471D01*
X155483089Y-82533722D01*
X155402277Y-82506784D01*
X155348402Y-82506784D01*
X155267590Y-82533722D01*
X153489722Y-78800592D02*
X153408910Y-78827529D01*
X153328097Y-78908341D01*
X153274223Y-79016091D01*
X153274223Y-79123841D01*
X153301160Y-79204653D01*
X153381972Y-79339340D01*
X153462784Y-79420152D01*
X153597471Y-79500964D01*
X153678284Y-79527902D01*
X153786033Y-79527902D01*
X153893783Y-79474027D01*
X153947658Y-79420152D01*
X154001532Y-79312402D01*
X154001532Y-79258528D01*
X153812971Y-79069966D01*
X153705221Y-79177715D01*
X154297844Y-79069966D02*
X153732158Y-78504280D01*
X153947658Y-78288781D01*
X154028470Y-78261844D01*
X154082345Y-78261844D01*
X154163157Y-78288781D01*
X154243969Y-78369593D01*
X154270906Y-78450406D01*
X154270906Y-78504280D01*
X154243969Y-78585093D01*
X154028470Y-78800592D01*
X155159841Y-78207969D02*
X154836592Y-78531218D01*
X154998216Y-78369593D02*
X154432531Y-77803908D01*
X154459468Y-77938595D01*
X154459468Y-78046345D01*
X154432531Y-78127157D01*
X154782717Y-77453722D02*
X155159841Y-77076598D01*
X155483089Y-77884720D01*
X153489722Y-76260592D02*
X153408910Y-76287529D01*
X153328097Y-76368341D01*
X153274223Y-76476091D01*
X153274223Y-76583841D01*
X153301160Y-76664653D01*
X153381972Y-76799340D01*
X153462784Y-76880152D01*
X153597471Y-76960964D01*
X153678284Y-76987902D01*
X153786033Y-76987902D01*
X153893783Y-76934027D01*
X153947658Y-76880152D01*
X154001532Y-76772402D01*
X154001532Y-76718528D01*
X153812971Y-76529966D01*
X153705221Y-76637715D01*
X154297844Y-76529966D02*
X153732158Y-75964280D01*
X153947658Y-75748781D01*
X154028470Y-75721844D01*
X154082345Y-75721844D01*
X154163157Y-75748781D01*
X154243969Y-75829593D01*
X154270906Y-75910406D01*
X154270906Y-75964280D01*
X154243969Y-76045093D01*
X154028470Y-76260592D01*
X155159841Y-75667969D02*
X154836592Y-75991218D01*
X154998216Y-75829593D02*
X154432531Y-75263908D01*
X154459468Y-75398595D01*
X154459468Y-75506345D01*
X154432531Y-75587157D01*
X155079028Y-74617410D02*
X154971279Y-74725160D01*
X154944341Y-74805972D01*
X154944341Y-74859847D01*
X154971279Y-74994534D01*
X155052091Y-75129221D01*
X155267590Y-75344720D01*
X155348402Y-75371658D01*
X155402277Y-75371658D01*
X155483089Y-75344720D01*
X155590839Y-75236971D01*
X155617776Y-75156158D01*
X155617776Y-75102284D01*
X155590839Y-75021471D01*
X155456152Y-74886784D01*
X155375340Y-74859847D01*
X155321465Y-74859847D01*
X155240653Y-74886784D01*
X155132903Y-74994534D01*
X155105966Y-75075346D01*
X155105966Y-75129221D01*
X155132903Y-75210033D01*
X179597722Y-76260592D02*
X179516910Y-76287529D01*
X179436097Y-76368341D01*
X179382223Y-76476091D01*
X179382223Y-76583841D01*
X179409160Y-76664653D01*
X179489972Y-76799340D01*
X179570784Y-76880152D01*
X179705471Y-76960964D01*
X179786284Y-76987902D01*
X179894033Y-76987902D01*
X180001783Y-76934027D01*
X180055658Y-76880152D01*
X180109532Y-76772402D01*
X180109532Y-76718528D01*
X179920971Y-76529966D01*
X179813221Y-76637715D01*
X180405844Y-76529966D02*
X179840158Y-75964280D01*
X180055658Y-75748781D01*
X180136470Y-75721844D01*
X180190345Y-75721844D01*
X180271157Y-75748781D01*
X180351969Y-75829593D01*
X180378906Y-75910406D01*
X180378906Y-75964280D01*
X180351969Y-76045093D01*
X180136470Y-76260592D01*
X181267841Y-75667969D02*
X180944592Y-75991218D01*
X181106216Y-75829593D02*
X180540531Y-75263908D01*
X180567468Y-75398595D01*
X180567468Y-75506345D01*
X180540531Y-75587157D01*
X181213966Y-74590473D02*
X180944592Y-74859847D01*
X181187028Y-75156158D01*
X181187028Y-75102284D01*
X181213966Y-75021471D01*
X181348653Y-74886784D01*
X181429465Y-74859847D01*
X181483340Y-74859847D01*
X181564152Y-74886784D01*
X181698839Y-75021471D01*
X181725776Y-75102284D01*
X181725776Y-75156158D01*
X181698839Y-75236971D01*
X181564152Y-75371658D01*
X181483340Y-75398595D01*
X181429465Y-75398595D01*
X179643722Y-78800592D02*
X179562910Y-78827529D01*
X179482097Y-78908341D01*
X179428223Y-79016091D01*
X179428223Y-79123841D01*
X179455160Y-79204653D01*
X179535972Y-79339340D01*
X179616784Y-79420152D01*
X179751471Y-79500964D01*
X179832284Y-79527902D01*
X179940033Y-79527902D01*
X180047783Y-79474027D01*
X180101658Y-79420152D01*
X180155532Y-79312402D01*
X180155532Y-79258528D01*
X179966971Y-79069966D01*
X179859221Y-79177715D01*
X180451844Y-79069966D02*
X179886158Y-78504280D01*
X180101658Y-78288781D01*
X180182470Y-78261844D01*
X180236345Y-78261844D01*
X180317157Y-78288781D01*
X180397969Y-78369593D01*
X180424906Y-78450406D01*
X180424906Y-78504280D01*
X180397969Y-78585093D01*
X180182470Y-78800592D01*
X181313841Y-78207969D02*
X180990592Y-78531218D01*
X181152216Y-78369593D02*
X180586531Y-77803908D01*
X180613468Y-77938595D01*
X180613468Y-78046345D01*
X180586531Y-78127157D01*
X181421590Y-77345972D02*
X181798714Y-77723096D01*
X181071404Y-77265160D02*
X181340778Y-77803908D01*
X181690964Y-77453722D01*
X179597722Y-83880592D02*
X179516910Y-83907529D01*
X179436097Y-83988341D01*
X179382223Y-84096091D01*
X179382223Y-84203841D01*
X179409160Y-84284653D01*
X179489972Y-84419340D01*
X179570784Y-84500152D01*
X179705471Y-84580964D01*
X179786284Y-84607902D01*
X179894033Y-84607902D01*
X180001783Y-84554027D01*
X180055658Y-84500152D01*
X180109532Y-84392402D01*
X180109532Y-84338528D01*
X179920971Y-84149966D01*
X179813221Y-84257715D01*
X180405844Y-84149966D02*
X179840158Y-83584280D01*
X180055658Y-83368781D01*
X180136470Y-83341844D01*
X180190345Y-83341844D01*
X180271157Y-83368781D01*
X180351969Y-83449593D01*
X180378906Y-83530406D01*
X180378906Y-83584280D01*
X180351969Y-83665093D01*
X180136470Y-83880592D01*
X181267841Y-83287969D02*
X180944592Y-83611218D01*
X181106216Y-83449593D02*
X180540531Y-82883908D01*
X180567468Y-83018595D01*
X180567468Y-83126345D01*
X180540531Y-83207157D01*
X180890717Y-82533722D02*
X181240903Y-82183536D01*
X181267841Y-82587597D01*
X181348653Y-82506784D01*
X181429465Y-82479847D01*
X181483340Y-82479847D01*
X181564152Y-82506784D01*
X181698839Y-82641471D01*
X181725776Y-82722284D01*
X181725776Y-82776158D01*
X181698839Y-82856971D01*
X181537215Y-83018595D01*
X181456402Y-83045532D01*
X181402528Y-83045532D01*
X179743722Y-86420592D02*
X179662910Y-86447529D01*
X179582097Y-86528341D01*
X179528223Y-86636091D01*
X179528223Y-86743841D01*
X179555160Y-86824653D01*
X179635972Y-86959340D01*
X179716784Y-87040152D01*
X179851471Y-87120964D01*
X179932284Y-87147902D01*
X180040033Y-87147902D01*
X180147783Y-87094027D01*
X180201658Y-87040152D01*
X180255532Y-86932402D01*
X180255532Y-86878528D01*
X180066971Y-86689966D01*
X179959221Y-86797715D01*
X180551844Y-86689966D02*
X179986158Y-86124280D01*
X180201658Y-85908781D01*
X180282470Y-85881844D01*
X180336345Y-85881844D01*
X180417157Y-85908781D01*
X180497969Y-85989593D01*
X180524906Y-86070406D01*
X180524906Y-86124280D01*
X180497969Y-86205093D01*
X180282470Y-86420592D01*
X181413841Y-85827969D02*
X181090592Y-86151218D01*
X181252216Y-85989593D02*
X180686531Y-85423908D01*
X180713468Y-85558595D01*
X180713468Y-85666345D01*
X180686531Y-85747157D01*
X181117529Y-85100659D02*
X181117529Y-85046784D01*
X181144467Y-84965972D01*
X181279154Y-84831285D01*
X181359966Y-84804348D01*
X181413841Y-84804348D01*
X181494653Y-84831285D01*
X181548528Y-84885160D01*
X181602402Y-84992910D01*
X181602402Y-85639407D01*
X181952589Y-85289221D01*
X179743722Y-88960592D02*
X179662910Y-88987529D01*
X179582097Y-89068341D01*
X179528223Y-89176091D01*
X179528223Y-89283841D01*
X179555160Y-89364653D01*
X179635972Y-89499340D01*
X179716784Y-89580152D01*
X179851471Y-89660964D01*
X179932284Y-89687902D01*
X180040033Y-89687902D01*
X180147783Y-89634027D01*
X180201658Y-89580152D01*
X180255532Y-89472402D01*
X180255532Y-89418528D01*
X180066971Y-89229966D01*
X179959221Y-89337715D01*
X180551844Y-89229966D02*
X179986158Y-88664280D01*
X180201658Y-88448781D01*
X180282470Y-88421844D01*
X180336345Y-88421844D01*
X180417157Y-88448781D01*
X180497969Y-88529593D01*
X180524906Y-88610406D01*
X180524906Y-88664280D01*
X180497969Y-88745093D01*
X180282470Y-88960592D01*
X181413841Y-88367969D02*
X181090592Y-88691218D01*
X181252216Y-88529593D02*
X180686531Y-87963908D01*
X180713468Y-88098595D01*
X180713468Y-88206345D01*
X180686531Y-88287157D01*
X181952589Y-87829221D02*
X181629340Y-88152470D01*
X181790964Y-87990845D02*
X181225279Y-87425160D01*
X181252216Y-87559847D01*
X181252216Y-87667597D01*
X181225279Y-87748409D01*
X179597722Y-91500592D02*
X179516910Y-91527529D01*
X179436097Y-91608341D01*
X179382223Y-91716091D01*
X179382223Y-91823841D01*
X179409160Y-91904653D01*
X179489972Y-92039340D01*
X179570784Y-92120152D01*
X179705471Y-92200964D01*
X179786284Y-92227902D01*
X179894033Y-92227902D01*
X180001783Y-92174027D01*
X180055658Y-92120152D01*
X180109532Y-92012402D01*
X180109532Y-91958528D01*
X179920971Y-91769966D01*
X179813221Y-91877715D01*
X180405844Y-91769966D02*
X179840158Y-91204280D01*
X180055658Y-90988781D01*
X180136470Y-90961844D01*
X180190345Y-90961844D01*
X180271157Y-90988781D01*
X180351969Y-91069593D01*
X180378906Y-91150406D01*
X180378906Y-91204280D01*
X180351969Y-91285093D01*
X180136470Y-91500592D01*
X181267841Y-90907969D02*
X180944592Y-91231218D01*
X181106216Y-91069593D02*
X180540531Y-90503908D01*
X180567468Y-90638595D01*
X180567468Y-90746345D01*
X180540531Y-90827157D01*
X181052341Y-89992097D02*
X181106216Y-89938223D01*
X181187028Y-89911285D01*
X181240903Y-89911285D01*
X181321715Y-89938223D01*
X181456402Y-90019035D01*
X181591089Y-90153722D01*
X181671902Y-90288409D01*
X181698839Y-90369221D01*
X181698839Y-90423096D01*
X181671902Y-90503908D01*
X181618027Y-90557783D01*
X181537215Y-90584720D01*
X181483340Y-90584720D01*
X181402528Y-90557783D01*
X181267841Y-90476971D01*
X181133154Y-90342284D01*
X181052341Y-90207597D01*
X181025404Y-90126784D01*
X181025404Y-90072910D01*
X181052341Y-89992097D01*
X179613096Y-96311218D02*
X179532284Y-96338155D01*
X179451471Y-96418967D01*
X179397597Y-96526717D01*
X179397597Y-96634467D01*
X179424534Y-96715279D01*
X179505346Y-96849966D01*
X179586158Y-96930778D01*
X179720845Y-97011590D01*
X179801658Y-97038528D01*
X179909407Y-97038528D01*
X180017157Y-96984653D01*
X180071032Y-96930778D01*
X180124906Y-96823028D01*
X180124906Y-96769154D01*
X179936345Y-96580592D01*
X179828595Y-96688341D01*
X180421218Y-96580592D02*
X179855532Y-96014906D01*
X180071032Y-95799407D01*
X180151844Y-95772470D01*
X180205719Y-95772470D01*
X180286531Y-95799407D01*
X180367343Y-95880219D01*
X180394280Y-95961032D01*
X180394280Y-96014906D01*
X180367343Y-96095719D01*
X180151844Y-96311218D01*
X181013841Y-95987969D02*
X181121590Y-95880219D01*
X181148528Y-95799407D01*
X181148528Y-95745532D01*
X181121590Y-95610845D01*
X181040778Y-95476158D01*
X180825279Y-95260659D01*
X180744467Y-95233722D01*
X180690592Y-95233722D01*
X180609780Y-95260659D01*
X180502030Y-95368409D01*
X180475093Y-95449221D01*
X180475093Y-95503096D01*
X180502030Y-95583908D01*
X180636717Y-95718595D01*
X180717529Y-95745532D01*
X180771404Y-95745532D01*
X180852216Y-95718595D01*
X180959966Y-95610845D01*
X180986903Y-95530033D01*
X180986903Y-95476158D01*
X180959966Y-95395346D01*
X179613096Y-98851218D02*
X179532284Y-98878155D01*
X179451471Y-98958967D01*
X179397597Y-99066717D01*
X179397597Y-99174467D01*
X179424534Y-99255279D01*
X179505346Y-99389966D01*
X179586158Y-99470778D01*
X179720845Y-99551590D01*
X179801658Y-99578528D01*
X179909407Y-99578528D01*
X180017157Y-99524653D01*
X180071032Y-99470778D01*
X180124906Y-99363028D01*
X180124906Y-99309154D01*
X179936345Y-99120592D01*
X179828595Y-99228341D01*
X180421218Y-99120592D02*
X179855532Y-98554906D01*
X180071032Y-98339407D01*
X180151844Y-98312470D01*
X180205719Y-98312470D01*
X180286531Y-98339407D01*
X180367343Y-98420219D01*
X180394280Y-98501032D01*
X180394280Y-98554906D01*
X180367343Y-98635719D01*
X180151844Y-98851218D01*
X180744467Y-98150845D02*
X180663654Y-98177783D01*
X180609780Y-98177783D01*
X180528967Y-98150845D01*
X180502030Y-98123908D01*
X180475093Y-98043096D01*
X180475093Y-97989221D01*
X180502030Y-97908409D01*
X180609780Y-97800659D01*
X180690592Y-97773722D01*
X180744467Y-97773722D01*
X180825279Y-97800659D01*
X180852216Y-97827597D01*
X180879154Y-97908409D01*
X180879154Y-97962284D01*
X180852216Y-98043096D01*
X180744467Y-98150845D01*
X180717529Y-98231658D01*
X180717529Y-98285532D01*
X180744467Y-98366345D01*
X180852216Y-98474094D01*
X180933028Y-98501032D01*
X180986903Y-98501032D01*
X181067715Y-98474094D01*
X181175465Y-98366345D01*
X181202402Y-98285532D01*
X181202402Y-98231658D01*
X181175465Y-98150845D01*
X181067715Y-98043096D01*
X180986903Y-98016158D01*
X180933028Y-98016158D01*
X180852216Y-98043096D01*
X179513096Y-101421218D02*
X179432284Y-101448155D01*
X179351471Y-101528967D01*
X179297597Y-101636717D01*
X179297597Y-101744467D01*
X179324534Y-101825279D01*
X179405346Y-101959966D01*
X179486158Y-102040778D01*
X179620845Y-102121590D01*
X179701658Y-102148528D01*
X179809407Y-102148528D01*
X179917157Y-102094653D01*
X179971032Y-102040778D01*
X180024906Y-101933028D01*
X180024906Y-101879154D01*
X179836345Y-101690592D01*
X179728595Y-101798341D01*
X180321218Y-101690592D02*
X179755532Y-101124906D01*
X179971032Y-100909407D01*
X180051844Y-100882470D01*
X180105719Y-100882470D01*
X180186531Y-100909407D01*
X180267343Y-100990219D01*
X180294280Y-101071032D01*
X180294280Y-101124906D01*
X180267343Y-101205719D01*
X180051844Y-101421218D01*
X180267343Y-100613096D02*
X180644467Y-100235972D01*
X180967715Y-101044094D01*
X179613096Y-103931218D02*
X179532284Y-103958155D01*
X179451471Y-104038967D01*
X179397597Y-104146717D01*
X179397597Y-104254467D01*
X179424534Y-104335279D01*
X179505346Y-104469966D01*
X179586158Y-104550778D01*
X179720845Y-104631590D01*
X179801658Y-104658528D01*
X179909407Y-104658528D01*
X180017157Y-104604653D01*
X180071032Y-104550778D01*
X180124906Y-104443028D01*
X180124906Y-104389154D01*
X179936345Y-104200592D01*
X179828595Y-104308341D01*
X180421218Y-104200592D02*
X179855532Y-103634906D01*
X180071032Y-103419407D01*
X180151844Y-103392470D01*
X180205719Y-103392470D01*
X180286531Y-103419407D01*
X180367343Y-103500219D01*
X180394280Y-103581032D01*
X180394280Y-103634906D01*
X180367343Y-103715719D01*
X180151844Y-103931218D01*
X180663654Y-102826784D02*
X180555905Y-102934534D01*
X180528967Y-103015346D01*
X180528967Y-103069221D01*
X180555905Y-103203908D01*
X180636717Y-103338595D01*
X180852216Y-103554094D01*
X180933028Y-103581032D01*
X180986903Y-103581032D01*
X181067715Y-103554094D01*
X181175465Y-103446345D01*
X181202402Y-103365532D01*
X181202402Y-103311658D01*
X181175465Y-103230845D01*
X181040778Y-103096158D01*
X180959966Y-103069221D01*
X180906091Y-103069221D01*
X180825279Y-103096158D01*
X180717529Y-103203908D01*
X180690592Y-103284720D01*
X180690592Y-103338595D01*
X180717529Y-103419407D01*
X179613096Y-109011218D02*
X179532284Y-109038155D01*
X179451471Y-109118967D01*
X179397597Y-109226717D01*
X179397597Y-109334467D01*
X179424534Y-109415279D01*
X179505346Y-109549966D01*
X179586158Y-109630778D01*
X179720845Y-109711590D01*
X179801658Y-109738528D01*
X179909407Y-109738528D01*
X180017157Y-109684653D01*
X180071032Y-109630778D01*
X180124906Y-109523028D01*
X180124906Y-109469154D01*
X179936345Y-109280592D01*
X179828595Y-109388341D01*
X180421218Y-109280592D02*
X179855532Y-108714906D01*
X180071032Y-108499407D01*
X180151844Y-108472470D01*
X180205719Y-108472470D01*
X180286531Y-108499407D01*
X180367343Y-108580219D01*
X180394280Y-108661032D01*
X180394280Y-108714906D01*
X180367343Y-108795719D01*
X180151844Y-109011218D01*
X180690592Y-107879847D02*
X180421218Y-108149221D01*
X180663654Y-108445532D01*
X180663654Y-108391658D01*
X180690592Y-108310845D01*
X180825279Y-108176158D01*
X180906091Y-108149221D01*
X180959966Y-108149221D01*
X181040778Y-108176158D01*
X181175465Y-108310845D01*
X181202402Y-108391658D01*
X181202402Y-108445532D01*
X181175465Y-108526345D01*
X181040778Y-108661032D01*
X180959966Y-108687969D01*
X180906091Y-108687969D01*
X179613096Y-111551218D02*
X179532284Y-111578155D01*
X179451471Y-111658967D01*
X179397597Y-111766717D01*
X179397597Y-111874467D01*
X179424534Y-111955279D01*
X179505346Y-112089966D01*
X179586158Y-112170778D01*
X179720845Y-112251590D01*
X179801658Y-112278528D01*
X179909407Y-112278528D01*
X180017157Y-112224653D01*
X180071032Y-112170778D01*
X180124906Y-112063028D01*
X180124906Y-112009154D01*
X179936345Y-111820592D01*
X179828595Y-111928341D01*
X180421218Y-111820592D02*
X179855532Y-111254906D01*
X180071032Y-111039407D01*
X180151844Y-111012470D01*
X180205719Y-111012470D01*
X180286531Y-111039407D01*
X180367343Y-111120219D01*
X180394280Y-111201032D01*
X180394280Y-111254906D01*
X180367343Y-111335719D01*
X180151844Y-111551218D01*
X180852216Y-110635346D02*
X181229340Y-111012470D01*
X180502030Y-110554534D02*
X180771404Y-111093282D01*
X181121590Y-110743096D01*
X179613096Y-114091218D02*
X179532284Y-114118155D01*
X179451471Y-114198967D01*
X179397597Y-114306717D01*
X179397597Y-114414467D01*
X179424534Y-114495279D01*
X179505346Y-114629966D01*
X179586158Y-114710778D01*
X179720845Y-114791590D01*
X179801658Y-114818528D01*
X179909407Y-114818528D01*
X180017157Y-114764653D01*
X180071032Y-114710778D01*
X180124906Y-114603028D01*
X180124906Y-114549154D01*
X179936345Y-114360592D01*
X179828595Y-114468341D01*
X180421218Y-114360592D02*
X179855532Y-113794906D01*
X180071032Y-113579407D01*
X180151844Y-113552470D01*
X180205719Y-113552470D01*
X180286531Y-113579407D01*
X180367343Y-113660219D01*
X180394280Y-113741032D01*
X180394280Y-113794906D01*
X180367343Y-113875719D01*
X180151844Y-114091218D01*
X180367343Y-113283096D02*
X180717529Y-112932910D01*
X180744467Y-113336971D01*
X180825279Y-113256158D01*
X180906091Y-113229221D01*
X180959966Y-113229221D01*
X181040778Y-113256158D01*
X181175465Y-113390845D01*
X181202402Y-113471658D01*
X181202402Y-113525532D01*
X181175465Y-113606345D01*
X181013841Y-113767969D01*
X180933028Y-113794906D01*
X180879154Y-113794906D01*
X179613096Y-124251218D02*
X179532284Y-124278155D01*
X179451471Y-124358967D01*
X179397597Y-124466717D01*
X179397597Y-124574467D01*
X179424534Y-124655279D01*
X179505346Y-124789966D01*
X179586158Y-124870778D01*
X179720845Y-124951590D01*
X179801658Y-124978528D01*
X179909407Y-124978528D01*
X180017157Y-124924653D01*
X180071032Y-124870778D01*
X180124906Y-124763028D01*
X180124906Y-124709154D01*
X179936345Y-124520592D01*
X179828595Y-124628341D01*
X180421218Y-124520592D02*
X179855532Y-123954906D01*
X180071032Y-123739407D01*
X180151844Y-123712470D01*
X180205719Y-123712470D01*
X180286531Y-123739407D01*
X180367343Y-123820219D01*
X180394280Y-123901032D01*
X180394280Y-123954906D01*
X180367343Y-124035719D01*
X180151844Y-124251218D01*
X180528967Y-123281471D02*
X180582842Y-123227597D01*
X180663654Y-123200659D01*
X180717529Y-123200659D01*
X180798341Y-123227597D01*
X180933028Y-123308409D01*
X181067715Y-123443096D01*
X181148528Y-123577783D01*
X181175465Y-123658595D01*
X181175465Y-123712470D01*
X181148528Y-123793282D01*
X181094653Y-123847157D01*
X181013841Y-123874094D01*
X180959966Y-123874094D01*
X180879154Y-123847157D01*
X180744467Y-123766345D01*
X180609780Y-123631658D01*
X180528967Y-123496971D01*
X180502030Y-123416158D01*
X180502030Y-123362284D01*
X180528967Y-123281471D01*
X179713096Y-116631218D02*
X179632284Y-116658155D01*
X179551471Y-116738967D01*
X179497597Y-116846717D01*
X179497597Y-116954467D01*
X179524534Y-117035279D01*
X179605346Y-117169966D01*
X179686158Y-117250778D01*
X179820845Y-117331590D01*
X179901658Y-117358528D01*
X180009407Y-117358528D01*
X180117157Y-117304653D01*
X180171032Y-117250778D01*
X180224906Y-117143028D01*
X180224906Y-117089154D01*
X180036345Y-116900592D01*
X179928595Y-117008341D01*
X180521218Y-116900592D02*
X179955532Y-116334906D01*
X180171032Y-116119407D01*
X180251844Y-116092470D01*
X180305719Y-116092470D01*
X180386531Y-116119407D01*
X180467343Y-116200219D01*
X180494280Y-116281032D01*
X180494280Y-116334906D01*
X180467343Y-116415719D01*
X180251844Y-116631218D01*
X180548155Y-115850033D02*
X180548155Y-115796158D01*
X180575093Y-115715346D01*
X180709780Y-115580659D01*
X180790592Y-115553722D01*
X180844467Y-115553722D01*
X180925279Y-115580659D01*
X180979154Y-115634534D01*
X181033028Y-115742284D01*
X181033028Y-116388781D01*
X181383215Y-116038595D01*
X179713096Y-121721218D02*
X179632284Y-121748155D01*
X179551471Y-121828967D01*
X179497597Y-121936717D01*
X179497597Y-122044467D01*
X179524534Y-122125279D01*
X179605346Y-122259966D01*
X179686158Y-122340778D01*
X179820845Y-122421590D01*
X179901658Y-122448528D01*
X180009407Y-122448528D01*
X180117157Y-122394653D01*
X180171032Y-122340778D01*
X180224906Y-122233028D01*
X180224906Y-122179154D01*
X180036345Y-121990592D01*
X179928595Y-122098341D01*
X180521218Y-121990592D02*
X179955532Y-121424906D01*
X180171032Y-121209407D01*
X180251844Y-121182470D01*
X180305719Y-121182470D01*
X180386531Y-121209407D01*
X180467343Y-121290219D01*
X180494280Y-121371032D01*
X180494280Y-121424906D01*
X180467343Y-121505719D01*
X180251844Y-121721218D01*
X181383215Y-121128595D02*
X181059966Y-121451844D01*
X181221590Y-121290219D02*
X180655905Y-120724534D01*
X180682842Y-120859221D01*
X180682842Y-120966971D01*
X180655905Y-121047783D01*
%TO.C,TP3*%
D12*
X145567923Y-77808057D02*
X146187200Y-77808057D01*
X147000000Y-78117695D02*
X146535542Y-78117695D01*
X146767771Y-78117695D02*
X146767771Y-77304895D01*
X146690361Y-77421009D01*
X146612952Y-77498419D01*
X146535542Y-77537123D01*
X147503161Y-77304895D02*
X147580571Y-77304895D01*
X147657980Y-77343600D01*
X147696685Y-77382304D01*
X147735390Y-77459714D01*
X147774095Y-77614533D01*
X147774095Y-77808057D01*
X147735390Y-77962876D01*
X147696685Y-78040285D01*
X147657980Y-78078990D01*
X147580571Y-78117695D01*
X147503161Y-78117695D01*
X147425752Y-78078990D01*
X147387047Y-78040285D01*
X147348342Y-77962876D01*
X147309638Y-77808057D01*
X147309638Y-77614533D01*
X147348342Y-77459714D01*
X147387047Y-77382304D01*
X147425752Y-77343600D01*
X147503161Y-77304895D01*
X148006323Y-77304895D02*
X148277257Y-78117695D01*
X148548190Y-77304895D01*
%TO.C,TP2*%
X145567923Y-80308057D02*
X146187200Y-80308057D01*
X145877561Y-80617695D02*
X145877561Y-79998419D01*
X147000000Y-80617695D02*
X146535542Y-80617695D01*
X146767771Y-80617695D02*
X146767771Y-79804895D01*
X146690361Y-79921009D01*
X146612952Y-79998419D01*
X146535542Y-80037123D01*
X147503161Y-79804895D02*
X147580571Y-79804895D01*
X147657980Y-79843600D01*
X147696685Y-79882304D01*
X147735390Y-79959714D01*
X147774095Y-80114533D01*
X147774095Y-80308057D01*
X147735390Y-80462876D01*
X147696685Y-80540285D01*
X147657980Y-80578990D01*
X147580571Y-80617695D01*
X147503161Y-80617695D01*
X147425752Y-80578990D01*
X147387047Y-80540285D01*
X147348342Y-80462876D01*
X147309638Y-80308057D01*
X147309638Y-80114533D01*
X147348342Y-79959714D01*
X147387047Y-79882304D01*
X147425752Y-79843600D01*
X147503161Y-79804895D01*
X148006323Y-79804895D02*
X148277257Y-80617695D01*
X148548190Y-79804895D01*
%TO.C,TP1*%
X145624400Y-116308057D02*
X146243676Y-116308057D01*
X145934038Y-116617695D02*
X145934038Y-115998419D01*
X146553314Y-115804895D02*
X147056476Y-115804895D01*
X146785542Y-116114533D01*
X146901657Y-116114533D01*
X146979066Y-116153238D01*
X147017771Y-116191942D01*
X147056476Y-116269352D01*
X147056476Y-116462876D01*
X147017771Y-116540285D01*
X146979066Y-116578990D01*
X146901657Y-116617695D01*
X146669428Y-116617695D01*
X146592019Y-116578990D01*
X146553314Y-116540285D01*
X147404819Y-116540285D02*
X147443523Y-116578990D01*
X147404819Y-116617695D01*
X147366114Y-116578990D01*
X147404819Y-116540285D01*
X147404819Y-116617695D01*
X147714457Y-115804895D02*
X148217619Y-115804895D01*
X147946685Y-116114533D01*
X148062800Y-116114533D01*
X148140209Y-116153238D01*
X148178914Y-116191942D01*
X148217619Y-116269352D01*
X148217619Y-116462876D01*
X148178914Y-116540285D01*
X148140209Y-116578990D01*
X148062800Y-116617695D01*
X147830571Y-116617695D01*
X147753161Y-116578990D01*
X147714457Y-116540285D01*
X148449847Y-115804895D02*
X148720780Y-116617695D01*
X148991714Y-115804895D01*
%TO.C,JP3*%
X148916266Y-105328990D02*
X149032380Y-105367695D01*
X149225904Y-105367695D01*
X149303314Y-105328990D01*
X149342019Y-105290285D01*
X149380723Y-105212876D01*
X149380723Y-105135466D01*
X149342019Y-105058057D01*
X149303314Y-105019352D01*
X149225904Y-104980647D01*
X149071085Y-104941942D01*
X148993676Y-104903238D01*
X148954971Y-104864533D01*
X148916266Y-104787123D01*
X148916266Y-104709714D01*
X148954971Y-104632304D01*
X148993676Y-104593600D01*
X149071085Y-104554895D01*
X149264609Y-104554895D01*
X149380723Y-104593600D01*
X149651657Y-104554895D02*
X149845180Y-105367695D01*
X150000000Y-104787123D01*
X150154819Y-105367695D01*
X150348342Y-104554895D01*
X150619276Y-104632304D02*
X150657980Y-104593600D01*
X150735390Y-104554895D01*
X150928914Y-104554895D01*
X151006323Y-104593600D01*
X151045028Y-104632304D01*
X151083733Y-104709714D01*
X151083733Y-104787123D01*
X151045028Y-104903238D01*
X150580571Y-105367695D01*
X151083733Y-105367695D01*
%TO.C,JP2*%
X146166266Y-105328990D02*
X146282380Y-105367695D01*
X146475904Y-105367695D01*
X146553314Y-105328990D01*
X146592019Y-105290285D01*
X146630723Y-105212876D01*
X146630723Y-105135466D01*
X146592019Y-105058057D01*
X146553314Y-105019352D01*
X146475904Y-104980647D01*
X146321085Y-104941942D01*
X146243676Y-104903238D01*
X146204971Y-104864533D01*
X146166266Y-104787123D01*
X146166266Y-104709714D01*
X146204971Y-104632304D01*
X146243676Y-104593600D01*
X146321085Y-104554895D01*
X146514609Y-104554895D01*
X146630723Y-104593600D01*
X146901657Y-104554895D02*
X147095180Y-105367695D01*
X147250000Y-104787123D01*
X147404819Y-105367695D01*
X147598342Y-104554895D01*
X148333733Y-105367695D02*
X147869276Y-105367695D01*
X148101504Y-105367695D02*
X148101504Y-104554895D01*
X148024095Y-104671009D01*
X147946685Y-104748419D01*
X147869276Y-104787123D01*
%TO.C,JP1*%
X142954971Y-105290285D02*
X142916266Y-105328990D01*
X142800152Y-105367695D01*
X142722742Y-105367695D01*
X142606628Y-105328990D01*
X142529219Y-105251580D01*
X142490514Y-105174171D01*
X142451809Y-105019352D01*
X142451809Y-104903238D01*
X142490514Y-104748419D01*
X142529219Y-104671009D01*
X142606628Y-104593600D01*
X142722742Y-104554895D01*
X142800152Y-104554895D01*
X142916266Y-104593600D01*
X142954971Y-104632304D01*
X143458133Y-104554895D02*
X143612952Y-104554895D01*
X143690361Y-104593600D01*
X143767771Y-104671009D01*
X143806476Y-104825828D01*
X143806476Y-105096761D01*
X143767771Y-105251580D01*
X143690361Y-105328990D01*
X143612952Y-105367695D01*
X143458133Y-105367695D01*
X143380723Y-105328990D01*
X143303314Y-105251580D01*
X143264609Y-105096761D01*
X143264609Y-104825828D01*
X143303314Y-104671009D01*
X143380723Y-104593600D01*
X143458133Y-104554895D01*
X144154819Y-105367695D02*
X144154819Y-104554895D01*
X144425752Y-105135466D01*
X144696685Y-104554895D01*
X144696685Y-105367695D01*
X145083733Y-105367695D02*
X145083733Y-104554895D01*
X145393371Y-104554895D01*
X145470780Y-104593600D01*
X145509485Y-104632304D01*
X145548190Y-104709714D01*
X145548190Y-104825828D01*
X145509485Y-104903238D01*
X145470780Y-104941942D01*
X145393371Y-104980647D01*
X145083733Y-104980647D01*
%TD*%
M02*
