%TF.GenerationSoftware,KiCad,Pcbnew,(5.1.10)-1*%
%TF.CreationDate,2021-08-08T16:35:40+05:30*%
%TF.ProjectId,Multislope IIA,4d756c74-6973-46c6-9f70-65204949412e,rev?*%
%TF.SameCoordinates,Original*%
%TF.FileFunction,Legend,Bot*%
%TF.FilePolarity,Positive*%
%FSLAX46Y46*%
G04 Gerber Fmt 4.6, Leading zero omitted, Abs format (unit mm)*
G04 Created by KiCad (PCBNEW (5.1.10)-1) date 2021-08-08 16:35:40*
%MOMM*%
%LPD*%
G01*
G04 APERTURE LIST*
%ADD10C,0.300000*%
%ADD11C,0.010000*%
G04 APERTURE END LIST*
D10*
X123607142Y-86892857D02*
X123464285Y-86821428D01*
X123178571Y-86821428D01*
X123035714Y-86892857D01*
X122964285Y-87035714D01*
X122964285Y-87607142D01*
X123035714Y-87750000D01*
X123178571Y-87821428D01*
X123464285Y-87821428D01*
X123607142Y-87750000D01*
X123678571Y-87607142D01*
X123678571Y-87464285D01*
X122964285Y-87321428D01*
X124535714Y-86821428D02*
X124392857Y-86892857D01*
X124321428Y-87035714D01*
X124321428Y-88321428D01*
X125321428Y-86821428D02*
X125178571Y-86892857D01*
X125107142Y-86964285D01*
X125035714Y-87107142D01*
X125035714Y-87535714D01*
X125107142Y-87678571D01*
X125178571Y-87750000D01*
X125321428Y-87821428D01*
X125535714Y-87821428D01*
X125678571Y-87750000D01*
X125750000Y-87678571D01*
X125821428Y-87535714D01*
X125821428Y-87107142D01*
X125750000Y-86964285D01*
X125678571Y-86892857D01*
X125535714Y-86821428D01*
X125321428Y-86821428D01*
X126464285Y-87821428D02*
X126464285Y-86821428D01*
X126464285Y-87678571D02*
X126535714Y-87750000D01*
X126678571Y-87821428D01*
X126892857Y-87821428D01*
X127035714Y-87750000D01*
X127107142Y-87607142D01*
X127107142Y-86821428D01*
X128964285Y-86821428D02*
X128964285Y-87821428D01*
X128964285Y-87535714D02*
X129035714Y-87678571D01*
X129107142Y-87750000D01*
X129250000Y-87821428D01*
X129392857Y-87821428D01*
X129892857Y-86821428D02*
X129892857Y-87821428D01*
X129892857Y-88321428D02*
X129821428Y-88250000D01*
X129892857Y-88178571D01*
X129964285Y-88250000D01*
X129892857Y-88321428D01*
X129892857Y-88178571D01*
X131250000Y-86821428D02*
X131250000Y-88321428D01*
X131250000Y-86892857D02*
X131107142Y-86821428D01*
X130821428Y-86821428D01*
X130678571Y-86892857D01*
X130607142Y-86964285D01*
X130535714Y-87107142D01*
X130535714Y-87535714D01*
X130607142Y-87678571D01*
X130678571Y-87750000D01*
X130821428Y-87821428D01*
X131107142Y-87821428D01*
X131250000Y-87750000D01*
X131964285Y-86821428D02*
X131964285Y-87821428D01*
X131964285Y-88321428D02*
X131892857Y-88250000D01*
X131964285Y-88178571D01*
X132035714Y-88250000D01*
X131964285Y-88321428D01*
X131964285Y-88178571D01*
X132678571Y-87821428D02*
X132678571Y-86821428D01*
X132678571Y-87678571D02*
X132750000Y-87750000D01*
X132892857Y-87821428D01*
X133107142Y-87821428D01*
X133250000Y-87750000D01*
X133321428Y-87607142D01*
X133321428Y-86821428D01*
X134678571Y-87821428D02*
X134678571Y-86607142D01*
X134607142Y-86464285D01*
X134535714Y-86392857D01*
X134392857Y-86321428D01*
X134178571Y-86321428D01*
X134035714Y-86392857D01*
X134678571Y-86892857D02*
X134535714Y-86821428D01*
X134250000Y-86821428D01*
X134107142Y-86892857D01*
X134035714Y-86964285D01*
X133964285Y-87107142D01*
X133964285Y-87535714D01*
X134035714Y-87678571D01*
X134107142Y-87750000D01*
X134250000Y-87821428D01*
X134535714Y-87821428D01*
X134678571Y-87750000D01*
X137107142Y-86892857D02*
X136964285Y-86821428D01*
X136678571Y-86821428D01*
X136535714Y-86892857D01*
X136464285Y-87035714D01*
X136464285Y-87607142D01*
X136535714Y-87750000D01*
X136678571Y-87821428D01*
X136964285Y-87821428D01*
X137107142Y-87750000D01*
X137178571Y-87607142D01*
X137178571Y-87464285D01*
X136464285Y-87321428D01*
X138035714Y-86821428D02*
X137892857Y-86892857D01*
X137821428Y-87035714D01*
X137821428Y-88321428D01*
X138821428Y-86821428D02*
X138678571Y-86892857D01*
X138607142Y-86964285D01*
X138535714Y-87107142D01*
X138535714Y-87535714D01*
X138607142Y-87678571D01*
X138678571Y-87750000D01*
X138821428Y-87821428D01*
X139035714Y-87821428D01*
X139178571Y-87750000D01*
X139250000Y-87678571D01*
X139321428Y-87535714D01*
X139321428Y-87107142D01*
X139250000Y-86964285D01*
X139178571Y-86892857D01*
X139035714Y-86821428D01*
X138821428Y-86821428D01*
X139964285Y-87821428D02*
X139964285Y-86821428D01*
X139964285Y-87678571D02*
X140035714Y-87750000D01*
X140178571Y-87821428D01*
X140392857Y-87821428D01*
X140535714Y-87750000D01*
X140607142Y-87607142D01*
X140607142Y-86821428D01*
X141964285Y-87821428D02*
X141964285Y-86607142D01*
X141892857Y-86464285D01*
X141821428Y-86392857D01*
X141678571Y-86321428D01*
X141464285Y-86321428D01*
X141321428Y-86392857D01*
X141964285Y-86892857D02*
X141821428Y-86821428D01*
X141535714Y-86821428D01*
X141392857Y-86892857D01*
X141321428Y-86964285D01*
X141250000Y-87107142D01*
X141250000Y-87535714D01*
X141321428Y-87678571D01*
X141392857Y-87750000D01*
X141535714Y-87821428D01*
X141821428Y-87821428D01*
X141964285Y-87750000D01*
X143321428Y-86821428D02*
X143321428Y-87607142D01*
X143250000Y-87750000D01*
X143107142Y-87821428D01*
X142821428Y-87821428D01*
X142678571Y-87750000D01*
X143321428Y-86892857D02*
X143178571Y-86821428D01*
X142821428Y-86821428D01*
X142678571Y-86892857D01*
X142607142Y-87035714D01*
X142607142Y-87178571D01*
X142678571Y-87321428D01*
X142821428Y-87392857D01*
X143178571Y-87392857D01*
X143321428Y-87464285D01*
X143821428Y-87821428D02*
X144392857Y-87821428D01*
X144035714Y-88321428D02*
X144035714Y-87035714D01*
X144107142Y-86892857D01*
X144250000Y-86821428D01*
X144392857Y-86821428D01*
X145464285Y-86892857D02*
X145321428Y-86821428D01*
X145035714Y-86821428D01*
X144892857Y-86892857D01*
X144821428Y-87035714D01*
X144821428Y-87607142D01*
X144892857Y-87750000D01*
X145035714Y-87821428D01*
X145321428Y-87821428D01*
X145464285Y-87750000D01*
X145535714Y-87607142D01*
X145535714Y-87464285D01*
X144821428Y-87321428D01*
D11*
%TO.C,G\u002A\u002A\u002A*%
G36*
X137022307Y-105003716D02*
G01*
X137343471Y-104940190D01*
X137529560Y-104846668D01*
X137588286Y-104722271D01*
X137540933Y-104643736D01*
X137458556Y-104652251D01*
X137335677Y-104623654D01*
X137158948Y-104499658D01*
X136954365Y-104306070D01*
X136747927Y-104068697D01*
X136565630Y-103813346D01*
X136498039Y-103698788D01*
X136401285Y-103504430D01*
X136376365Y-103384733D01*
X136416202Y-103292542D01*
X136433730Y-103270331D01*
X136501542Y-103095552D01*
X136526840Y-102790963D01*
X136526164Y-102686543D01*
X136532977Y-102397556D01*
X136568417Y-102248226D01*
X136632016Y-102239640D01*
X136688073Y-102309784D01*
X136696607Y-102359504D01*
X136656901Y-102342301D01*
X136602713Y-102340489D01*
X136613619Y-102394413D01*
X136662422Y-102449295D01*
X136754072Y-102404888D01*
X136819639Y-102349621D01*
X137027628Y-102235862D01*
X137268994Y-102187769D01*
X137486962Y-102175282D01*
X137600788Y-102154100D01*
X137651251Y-102107516D01*
X137678867Y-102019825D01*
X137729612Y-101944380D01*
X137854466Y-101884651D01*
X138080308Y-101830699D01*
X138286045Y-101795280D01*
X138588662Y-101746282D01*
X138861057Y-101700604D01*
X139050480Y-101667114D01*
X139068017Y-101663780D01*
X139203953Y-101645286D01*
X139252738Y-101686499D01*
X139239986Y-101823368D01*
X139228014Y-101888325D01*
X139210806Y-102078450D01*
X139248766Y-102152997D01*
X139254140Y-102153429D01*
X139329522Y-102139790D01*
X139332532Y-102135286D01*
X139345675Y-102060630D01*
X139378396Y-101878094D01*
X139424422Y-101622618D01*
X139439961Y-101536571D01*
X139514681Y-101013895D01*
X139539112Y-100565247D01*
X139513268Y-100211456D01*
X139438857Y-99976286D01*
X139361637Y-99767276D01*
X139332572Y-99563115D01*
X139390217Y-99330580D01*
X139566668Y-99178473D01*
X139858149Y-99109504D01*
X139970180Y-99105429D01*
X140230633Y-99080683D01*
X140473594Y-99019455D01*
X140516461Y-99002124D01*
X140694872Y-98939693D01*
X140965439Y-98865704D01*
X141277368Y-98793716D01*
X141362000Y-98776399D01*
X141694606Y-98700542D01*
X142016802Y-98610522D01*
X142268324Y-98523503D01*
X142305428Y-98507708D01*
X142571663Y-98408263D01*
X142844324Y-98335708D01*
X142922051Y-98322332D01*
X143175133Y-98260939D01*
X143408526Y-98162846D01*
X143430051Y-98150314D01*
X143660232Y-98056662D01*
X143909465Y-98017133D01*
X143911257Y-98017128D01*
X144109566Y-97990666D01*
X144248268Y-97926249D01*
X144258514Y-97915643D01*
X144386402Y-97834141D01*
X144575829Y-97780358D01*
X144916946Y-97721325D01*
X145262907Y-97645951D01*
X145578981Y-97563513D01*
X145830436Y-97483287D01*
X145982541Y-97414553D01*
X146001781Y-97399457D01*
X146052290Y-97323983D01*
X146070868Y-97207924D01*
X146058398Y-97016810D01*
X146018806Y-96735659D01*
X145976153Y-96390110D01*
X145976803Y-96177489D01*
X146005453Y-96102090D01*
X146069937Y-95970004D01*
X146079143Y-95897771D01*
X146115428Y-95788014D01*
X146158119Y-95767143D01*
X146260256Y-95738386D01*
X146451378Y-95663075D01*
X146684897Y-95559876D01*
X146943664Y-95444843D01*
X147174421Y-95350393D01*
X147313492Y-95301360D01*
X147489642Y-95238430D01*
X147761644Y-95121197D01*
X148139491Y-94945116D01*
X148633177Y-94705646D01*
X148744264Y-94650944D01*
X148999319Y-94533450D01*
X149160069Y-94484062D01*
X149256194Y-94495429D01*
X149284921Y-94517035D01*
X149432105Y-94594800D01*
X149589848Y-94590585D01*
X149674339Y-94528720D01*
X149694253Y-94409993D01*
X149679112Y-94223472D01*
X149675333Y-94202148D01*
X149628346Y-94033410D01*
X149539636Y-93965088D01*
X149376058Y-93952857D01*
X149185524Y-93977220D01*
X149083655Y-94068486D01*
X149059072Y-94122447D01*
X149018804Y-94195930D01*
X148971685Y-94243143D01*
X149344857Y-94243143D01*
X149369617Y-94172458D01*
X149376860Y-94170572D01*
X149438819Y-94221425D01*
X149453714Y-94243143D01*
X149447960Y-94310016D01*
X149421711Y-94315714D01*
X149347810Y-94263034D01*
X149344857Y-94243143D01*
X148971685Y-94243143D01*
X148943925Y-94270958D01*
X148816455Y-94357886D01*
X148618412Y-94467070D01*
X148331816Y-94608867D01*
X147938684Y-94793631D01*
X147712000Y-94898256D01*
X147317048Y-95078588D01*
X147034241Y-95204182D01*
X146844785Y-95282917D01*
X146729883Y-95322674D01*
X146678039Y-95331714D01*
X146569495Y-95360861D01*
X146402860Y-95431175D01*
X146398721Y-95433161D01*
X146139989Y-95550183D01*
X145977811Y-95591822D01*
X145881325Y-95552206D01*
X145819669Y-95425463D01*
X145789618Y-95317259D01*
X145725289Y-95088321D01*
X145661873Y-94898803D01*
X145646122Y-94860000D01*
X145600862Y-94705244D01*
X145556685Y-94471915D01*
X145537406Y-94330935D01*
X145500358Y-94078470D01*
X145455761Y-93863749D01*
X145432793Y-93786650D01*
X145382363Y-93637996D01*
X145307207Y-93400705D01*
X145223362Y-93125443D01*
X145221225Y-93118286D01*
X145122966Y-92792032D01*
X145005236Y-92405568D01*
X144891906Y-92037206D01*
X144881340Y-92003110D01*
X144799644Y-91731271D01*
X144741101Y-91519953D01*
X144714324Y-91401057D01*
X144714795Y-91386253D01*
X144786762Y-91348809D01*
X144933727Y-91270157D01*
X144954286Y-91259071D01*
X145115539Y-91192456D01*
X145377330Y-91106239D01*
X145698726Y-91013257D01*
X145934000Y-90951827D01*
X146518422Y-90795599D01*
X146995705Y-90641865D01*
X147402980Y-90477213D01*
X147777376Y-90288229D01*
X147789288Y-90281597D01*
X148140018Y-90085787D01*
X148243289Y-90241322D01*
X148398466Y-90361905D01*
X148605378Y-90396014D01*
X148800526Y-90340809D01*
X148880977Y-90269857D01*
X148939688Y-90122660D01*
X148975177Y-89899738D01*
X148979692Y-89798143D01*
X148974467Y-89611320D01*
X148936672Y-89503448D01*
X148837771Y-89460370D01*
X148649225Y-89467926D01*
X148388596Y-89504896D01*
X148209658Y-89564667D01*
X148107568Y-89639165D01*
X147974492Y-89717044D01*
X147816254Y-89743714D01*
X147638104Y-89770878D01*
X147565136Y-89835983D01*
X147612477Y-89914455D01*
X147650978Y-89933469D01*
X148455380Y-89933469D01*
X148480722Y-89803726D01*
X148589845Y-89678508D01*
X148690076Y-89685629D01*
X148754219Y-89813447D01*
X148764286Y-89925143D01*
X148755745Y-90110831D01*
X148713657Y-90167041D01*
X148613319Y-90109172D01*
X148551569Y-90057726D01*
X148455380Y-89933469D01*
X147650978Y-89933469D01*
X147688152Y-89951827D01*
X147767812Y-89990767D01*
X147765103Y-90034370D01*
X147663085Y-90100655D01*
X147449954Y-90205213D01*
X147225323Y-90306444D01*
X147050841Y-90375900D01*
X146974771Y-90396857D01*
X146871635Y-90426303D01*
X146692826Y-90500629D01*
X146604279Y-90542000D01*
X146378917Y-90631969D01*
X146175482Y-90682875D01*
X146123217Y-90687143D01*
X145970434Y-90710211D01*
X145902956Y-90751233D01*
X145814141Y-90795244D01*
X145628109Y-90839959D01*
X145471361Y-90864298D01*
X145223351Y-90910669D01*
X145019247Y-90975502D01*
X144944259Y-91015614D01*
X144771068Y-91110148D01*
X144641192Y-91083307D01*
X144536641Y-90925813D01*
X144482571Y-90777476D01*
X144373714Y-90433143D01*
X143865714Y-90440310D01*
X143399668Y-90483980D01*
X142848730Y-90605766D01*
X142595714Y-90678429D01*
X142190260Y-90800443D01*
X141747439Y-90932319D01*
X141338737Y-91052813D01*
X141180571Y-91098948D01*
X140862655Y-91194660D01*
X140572033Y-91288201D01*
X140355389Y-91364320D01*
X140298747Y-91386972D01*
X140089917Y-91444727D01*
X139817927Y-91480149D01*
X139679894Y-91485429D01*
X139423191Y-91504533D01*
X139213642Y-91553731D01*
X139143549Y-91587813D01*
X138990246Y-91659953D01*
X138757101Y-91733044D01*
X138601258Y-91769321D01*
X138178781Y-91854318D01*
X137875247Y-91917383D01*
X137667095Y-91964142D01*
X137530766Y-92000216D01*
X137442699Y-92031230D01*
X137384921Y-92059636D01*
X137310090Y-92127804D01*
X137356088Y-92169521D01*
X137500394Y-92181055D01*
X137720482Y-92158675D01*
X137842978Y-92135533D01*
X138140082Y-92074460D01*
X138471853Y-92010082D01*
X138604286Y-91985592D01*
X138867899Y-91925152D01*
X139101645Y-91850278D01*
X139196054Y-91808271D01*
X139382954Y-91746210D01*
X139637749Y-91708464D01*
X139765658Y-91703143D01*
X140035931Y-91683559D01*
X140285727Y-91634010D01*
X140371318Y-91604563D01*
X140586566Y-91522348D01*
X140905187Y-91413670D01*
X141290404Y-91289811D01*
X141705440Y-91162050D01*
X142113520Y-91041670D01*
X142477866Y-90939950D01*
X142761702Y-90868173D01*
X142799701Y-90859673D01*
X143061783Y-90796151D01*
X143281219Y-90731444D01*
X143393644Y-90687333D01*
X143545041Y-90644220D01*
X143773309Y-90618127D01*
X143891463Y-90614572D01*
X144107464Y-90620314D01*
X144221013Y-90653927D01*
X144274765Y-90739983D01*
X144300831Y-90850429D01*
X144344076Y-91018287D01*
X144422568Y-91281737D01*
X144523654Y-91599363D01*
X144596883Y-91819386D01*
X144700010Y-92135929D01*
X144782333Y-92412134D01*
X144833720Y-92612563D01*
X144845876Y-92690243D01*
X144879116Y-92853018D01*
X144952019Y-93030637D01*
X145038941Y-93246807D01*
X145104247Y-93491877D01*
X145106184Y-93502351D01*
X145171657Y-93749999D01*
X145270608Y-94013987D01*
X145290326Y-94057203D01*
X145377826Y-94293352D01*
X145424665Y-94520556D01*
X145427073Y-94565203D01*
X145444371Y-94758586D01*
X145487865Y-95024091D01*
X145529716Y-95222857D01*
X145598687Y-95545826D01*
X145666063Y-95908903D01*
X145727560Y-96282296D01*
X145778898Y-96636214D01*
X145815792Y-96940862D01*
X145833963Y-97166449D01*
X145829127Y-97283181D01*
X145826636Y-97288726D01*
X145729034Y-97339463D01*
X145552547Y-97363429D01*
X145530574Y-97363714D01*
X145364361Y-97379683D01*
X145282609Y-97418861D01*
X145280857Y-97426264D01*
X145214701Y-97464384D01*
X145041103Y-97504612D01*
X144797368Y-97538346D01*
X144792609Y-97538836D01*
X144526514Y-97578148D01*
X144309292Y-97631890D01*
X144193895Y-97684775D01*
X144057968Y-97749644D01*
X143842240Y-97802619D01*
X143735769Y-97817620D01*
X143501533Y-97861633D01*
X143314187Y-97929835D01*
X143264055Y-97962216D01*
X143117502Y-98037416D01*
X142896948Y-98098260D01*
X142808013Y-98112808D01*
X142525427Y-98174694D01*
X142244684Y-98273743D01*
X142191156Y-98298808D01*
X141803165Y-98467012D01*
X141407289Y-98593179D01*
X141056065Y-98661911D01*
X140924793Y-98670000D01*
X140670759Y-98703247D01*
X140431521Y-98783278D01*
X140429903Y-98784082D01*
X140225516Y-98856622D01*
X139952408Y-98917586D01*
X139784825Y-98941140D01*
X139508759Y-98985723D01*
X139333117Y-99060460D01*
X139235091Y-99153629D01*
X139080441Y-99280501D01*
X138857010Y-99322668D01*
X138821016Y-99323143D01*
X138629549Y-99305968D01*
X138507787Y-99263406D01*
X138495428Y-99250572D01*
X138407301Y-99218216D01*
X138209726Y-99193290D01*
X137938352Y-99179542D01*
X137805132Y-99178000D01*
X137345233Y-99160800D01*
X137016625Y-99101666D01*
X136808722Y-98989298D01*
X136710941Y-98812395D01*
X136712699Y-98559656D01*
X136803411Y-98219781D01*
X136831859Y-98138798D01*
X136953695Y-97800345D01*
X137083295Y-97437768D01*
X137180056Y-97165038D01*
X137275454Y-96918060D01*
X137366483Y-96721177D01*
X137427733Y-96624381D01*
X137506348Y-96479627D01*
X137515714Y-96416660D01*
X137556279Y-96290144D01*
X137659228Y-96105000D01*
X137725780Y-96006933D01*
X137955928Y-95663522D01*
X138099440Y-95373328D01*
X138174337Y-95089005D01*
X138198622Y-94764708D01*
X138205143Y-94306559D01*
X137798386Y-93930137D01*
X137566122Y-93702654D01*
X137349324Y-93469162D01*
X137195979Y-93281572D01*
X137068740Y-93120921D01*
X136950003Y-93040262D01*
X136781855Y-93012290D01*
X136618749Y-93009429D01*
X136349107Y-93031113D01*
X136144062Y-93088293D01*
X136096299Y-93115978D01*
X135914712Y-93199009D01*
X135755857Y-93224835D01*
X135615408Y-93246205D01*
X135562597Y-93336122D01*
X135556286Y-93451803D01*
X135589441Y-93626286D01*
X135774000Y-93626286D01*
X135810286Y-93590000D01*
X135846571Y-93626286D01*
X135829405Y-93643453D01*
X136013002Y-93643453D01*
X136028000Y-93590000D01*
X136131567Y-93526855D01*
X136195569Y-93518540D01*
X136276785Y-93530284D01*
X136224032Y-93580454D01*
X136209429Y-93590000D01*
X136076465Y-93654108D01*
X136013002Y-93643453D01*
X135829405Y-93643453D01*
X135810286Y-93662572D01*
X135774000Y-93626286D01*
X135589441Y-93626286D01*
X135607326Y-93720401D01*
X135738921Y-93969037D01*
X135918780Y-94139866D01*
X135949280Y-94155836D01*
X136059350Y-94251712D01*
X136207858Y-94436692D01*
X136367371Y-94670544D01*
X136510454Y-94913038D01*
X136609674Y-95123944D01*
X136609956Y-95124698D01*
X136595680Y-95266530D01*
X136534072Y-95342412D01*
X136298187Y-95573184D01*
X136072770Y-95860354D01*
X135882032Y-96165260D01*
X135750182Y-96449236D01*
X135701429Y-96672141D01*
X135670559Y-96768308D01*
X135585938Y-96967746D01*
X135459550Y-97245900D01*
X135303377Y-97578214D01*
X135129402Y-97940131D01*
X134949608Y-98307095D01*
X134775978Y-98654551D01*
X134620495Y-98957942D01*
X134495142Y-99192713D01*
X134411902Y-99334306D01*
X134387886Y-99363913D01*
X134337347Y-99464783D01*
X134324786Y-99632152D01*
X134349146Y-99792723D01*
X134395143Y-99867429D01*
X134443186Y-99961492D01*
X134466402Y-100134561D01*
X134466001Y-100335792D01*
X134443195Y-100514342D01*
X134399193Y-100619369D01*
X134377000Y-100629427D01*
X134275149Y-100572667D01*
X134128800Y-100425737D01*
X133966899Y-100223655D01*
X133818392Y-100001440D01*
X133742000Y-99861224D01*
X133550001Y-99577525D01*
X133281255Y-99324691D01*
X132980545Y-99137628D01*
X132704409Y-99052447D01*
X132469302Y-99046859D01*
X132328581Y-99102249D01*
X132296974Y-99134000D01*
X132240136Y-99226021D01*
X132250583Y-99250572D01*
X132246884Y-99292539D01*
X132181649Y-99369861D01*
X132096448Y-99549302D01*
X132107019Y-99667089D01*
X132108111Y-99849758D01*
X132100231Y-99867429D01*
X132363143Y-99867429D01*
X132399428Y-99831143D01*
X132435714Y-99867429D01*
X132399428Y-99903714D01*
X132363143Y-99867429D01*
X132100231Y-99867429D01*
X132062071Y-99952996D01*
X132000935Y-100075973D01*
X132925444Y-100075973D01*
X133050551Y-100014038D01*
X133256919Y-99997823D01*
X133376914Y-100005321D01*
X133376275Y-100024160D01*
X133360111Y-100028693D01*
X133274717Y-100091236D01*
X133283328Y-100145064D01*
X133280773Y-100176353D01*
X133212504Y-100131398D01*
X133111406Y-100071762D01*
X133055123Y-100126923D01*
X133043331Y-100155626D01*
X132992102Y-100233772D01*
X132937446Y-100183857D01*
X132925444Y-100075973D01*
X132000935Y-100075973D01*
X131980234Y-100117613D01*
X131970333Y-100226762D01*
X132611031Y-100226762D01*
X132617657Y-100193169D01*
X132695276Y-100133010D01*
X132778458Y-100122914D01*
X132798571Y-100149950D01*
X132741646Y-100196559D01*
X132685945Y-100221690D01*
X132611031Y-100226762D01*
X131970333Y-100226762D01*
X131964109Y-100295362D01*
X132018308Y-100421131D01*
X132028380Y-100428746D01*
X132162552Y-100472562D01*
X132272428Y-100483175D01*
X132405399Y-100516794D01*
X132429057Y-100589041D01*
X132345000Y-100653937D01*
X132345773Y-100678944D01*
X132462009Y-100694736D01*
X132503608Y-100696271D01*
X132794838Y-100634064D01*
X132939037Y-100538714D01*
X133125143Y-100375429D01*
X132961857Y-100561535D01*
X132849100Y-100724104D01*
X132798750Y-100864026D01*
X132798571Y-100869963D01*
X132779137Y-100931462D01*
X132702271Y-100968455D01*
X132540132Y-100986766D01*
X132264877Y-100992217D01*
X132213717Y-100992286D01*
X131904586Y-101000602D01*
X131721277Y-101024722D01*
X131672948Y-101063407D01*
X131674055Y-101065408D01*
X131654149Y-101093871D01*
X131534725Y-101054455D01*
X131533236Y-101053778D01*
X131384715Y-101011899D01*
X131184574Y-101010706D01*
X130892035Y-101050552D01*
X130839420Y-101059776D01*
X130582957Y-101113342D01*
X130387291Y-101168649D01*
X130292493Y-101214247D01*
X130290810Y-101216549D01*
X130195897Y-101264046D01*
X130036574Y-101282571D01*
X129866887Y-101315571D01*
X129823143Y-101391429D01*
X129881569Y-101486621D01*
X129936283Y-101500286D01*
X130013912Y-101468664D01*
X130009489Y-101435672D01*
X130046080Y-101383960D01*
X130186418Y-101334877D01*
X130241064Y-101323867D01*
X130478959Y-101271267D01*
X130689135Y-101207406D01*
X130700938Y-101202889D01*
X130857489Y-101169839D01*
X131021699Y-101214278D01*
X131154402Y-101285513D01*
X131306375Y-101397107D01*
X131375198Y-101492859D01*
X131372108Y-101518603D01*
X131367854Y-101563663D01*
X131393388Y-101552842D01*
X131466606Y-101586005D01*
X131619098Y-101706586D01*
X131830241Y-101896708D01*
X132079412Y-102138494D01*
X132143235Y-102202889D01*
X132505472Y-102553827D01*
X132818003Y-102821605D01*
X133064638Y-102992766D01*
X133138063Y-103029824D01*
X133323396Y-103125861D01*
X133435978Y-103216198D01*
X133451714Y-103249563D01*
X133505829Y-103355067D01*
X133625647Y-103467669D01*
X133747379Y-103528907D01*
X133757687Y-103529978D01*
X133763712Y-103483491D01*
X133695366Y-103359826D01*
X133575633Y-103189452D01*
X133427502Y-103002839D01*
X133273956Y-102830454D01*
X133137983Y-102702769D01*
X133127443Y-102694549D01*
X132965202Y-102544407D01*
X132861161Y-102399459D01*
X132849411Y-102368448D01*
X132841380Y-102303333D01*
X132875128Y-102261805D01*
X132975702Y-102238590D01*
X133168148Y-102228418D01*
X133477514Y-102226016D01*
X133526189Y-102226000D01*
X133859876Y-102229260D01*
X134075887Y-102242104D01*
X134201601Y-102269124D01*
X134264399Y-102314914D01*
X134283164Y-102353000D01*
X134353196Y-102473879D01*
X134489860Y-102655026D01*
X134618916Y-102806571D01*
X134911723Y-103133143D01*
X134625806Y-102697714D01*
X134475076Y-102456208D01*
X134354499Y-102241228D01*
X134290123Y-102099225D01*
X134290054Y-102099000D01*
X134229652Y-101972447D01*
X134181342Y-101935714D01*
X134115223Y-101876057D01*
X134038254Y-101732404D01*
X134037496Y-101730579D01*
X133931018Y-101552872D01*
X133765937Y-101353253D01*
X133702120Y-101289255D01*
X133557321Y-101122333D01*
X133469641Y-100963421D01*
X133447497Y-100842687D01*
X133499302Y-100790295D01*
X133566507Y-100803093D01*
X133684733Y-100841603D01*
X133715933Y-100847143D01*
X133720178Y-100893512D01*
X133708943Y-100914489D01*
X133732868Y-100985713D01*
X133813518Y-101028237D01*
X133931755Y-101108768D01*
X133959714Y-101178605D01*
X134011743Y-101271806D01*
X134052924Y-101282571D01*
X134147405Y-101339850D01*
X134262114Y-101481320D01*
X134285147Y-101518429D01*
X134416145Y-101718550D01*
X134546425Y-101885793D01*
X134554794Y-101894970D01*
X134652903Y-102020737D01*
X134685429Y-102094541D01*
X134744401Y-102146839D01*
X134794286Y-102153429D01*
X134891115Y-102182953D01*
X134903351Y-102207857D01*
X134943022Y-102260715D01*
X135352582Y-102260715D01*
X135376799Y-102178220D01*
X135527701Y-102134451D01*
X135538143Y-102132837D01*
X135793155Y-102100472D01*
X135940181Y-102103933D01*
X136013123Y-102148490D01*
X136030439Y-102189714D01*
X136282000Y-102189714D01*
X136318286Y-102153429D01*
X136354571Y-102189714D01*
X136318286Y-102226000D01*
X136282000Y-102189714D01*
X136030439Y-102189714D01*
X136039261Y-102210715D01*
X136128620Y-102342077D01*
X136229451Y-102410286D01*
X136351162Y-102534073D01*
X136413261Y-102730819D01*
X136407232Y-102937629D01*
X136324559Y-103091612D01*
X136322007Y-103093769D01*
X136231148Y-103146704D01*
X136209429Y-103101460D01*
X136164873Y-103051332D01*
X136132284Y-103063398D01*
X136022843Y-103059935D01*
X135932713Y-103006140D01*
X135772737Y-102897958D01*
X135683286Y-102856166D01*
X135574370Y-102756746D01*
X135553978Y-102681849D01*
X135509702Y-102522665D01*
X135445120Y-102411701D01*
X135352582Y-102260715D01*
X134943022Y-102260715D01*
X134957925Y-102280571D01*
X135091533Y-102387848D01*
X135116578Y-102405004D01*
X135322151Y-102594569D01*
X135441063Y-102811781D01*
X135450495Y-103014403D01*
X135448816Y-103019913D01*
X135476798Y-103159041D01*
X135612803Y-103350857D01*
X135774000Y-103350857D01*
X135810286Y-103314571D01*
X135846571Y-103350857D01*
X135810286Y-103387143D01*
X135774000Y-103350857D01*
X135612803Y-103350857D01*
X135621629Y-103363304D01*
X135697666Y-103447002D01*
X135887119Y-103635666D01*
X136009302Y-103735327D01*
X136053980Y-103739279D01*
X136021636Y-103659286D01*
X136004879Y-103607683D01*
X136049298Y-103641143D01*
X136118219Y-103761116D01*
X136166665Y-103931429D01*
X136248714Y-104136759D01*
X136366342Y-104280894D01*
X136569656Y-104476271D01*
X136720065Y-104676081D01*
X136797196Y-104847611D01*
X136785125Y-104953303D01*
X136768074Y-105006235D01*
X136853996Y-105019733D01*
X137022307Y-105003716D01*
G37*
X137022307Y-105003716D02*
X137343471Y-104940190D01*
X137529560Y-104846668D01*
X137588286Y-104722271D01*
X137540933Y-104643736D01*
X137458556Y-104652251D01*
X137335677Y-104623654D01*
X137158948Y-104499658D01*
X136954365Y-104306070D01*
X136747927Y-104068697D01*
X136565630Y-103813346D01*
X136498039Y-103698788D01*
X136401285Y-103504430D01*
X136376365Y-103384733D01*
X136416202Y-103292542D01*
X136433730Y-103270331D01*
X136501542Y-103095552D01*
X136526840Y-102790963D01*
X136526164Y-102686543D01*
X136532977Y-102397556D01*
X136568417Y-102248226D01*
X136632016Y-102239640D01*
X136688073Y-102309784D01*
X136696607Y-102359504D01*
X136656901Y-102342301D01*
X136602713Y-102340489D01*
X136613619Y-102394413D01*
X136662422Y-102449295D01*
X136754072Y-102404888D01*
X136819639Y-102349621D01*
X137027628Y-102235862D01*
X137268994Y-102187769D01*
X137486962Y-102175282D01*
X137600788Y-102154100D01*
X137651251Y-102107516D01*
X137678867Y-102019825D01*
X137729612Y-101944380D01*
X137854466Y-101884651D01*
X138080308Y-101830699D01*
X138286045Y-101795280D01*
X138588662Y-101746282D01*
X138861057Y-101700604D01*
X139050480Y-101667114D01*
X139068017Y-101663780D01*
X139203953Y-101645286D01*
X139252738Y-101686499D01*
X139239986Y-101823368D01*
X139228014Y-101888325D01*
X139210806Y-102078450D01*
X139248766Y-102152997D01*
X139254140Y-102153429D01*
X139329522Y-102139790D01*
X139332532Y-102135286D01*
X139345675Y-102060630D01*
X139378396Y-101878094D01*
X139424422Y-101622618D01*
X139439961Y-101536571D01*
X139514681Y-101013895D01*
X139539112Y-100565247D01*
X139513268Y-100211456D01*
X139438857Y-99976286D01*
X139361637Y-99767276D01*
X139332572Y-99563115D01*
X139390217Y-99330580D01*
X139566668Y-99178473D01*
X139858149Y-99109504D01*
X139970180Y-99105429D01*
X140230633Y-99080683D01*
X140473594Y-99019455D01*
X140516461Y-99002124D01*
X140694872Y-98939693D01*
X140965439Y-98865704D01*
X141277368Y-98793716D01*
X141362000Y-98776399D01*
X141694606Y-98700542D01*
X142016802Y-98610522D01*
X142268324Y-98523503D01*
X142305428Y-98507708D01*
X142571663Y-98408263D01*
X142844324Y-98335708D01*
X142922051Y-98322332D01*
X143175133Y-98260939D01*
X143408526Y-98162846D01*
X143430051Y-98150314D01*
X143660232Y-98056662D01*
X143909465Y-98017133D01*
X143911257Y-98017128D01*
X144109566Y-97990666D01*
X144248268Y-97926249D01*
X144258514Y-97915643D01*
X144386402Y-97834141D01*
X144575829Y-97780358D01*
X144916946Y-97721325D01*
X145262907Y-97645951D01*
X145578981Y-97563513D01*
X145830436Y-97483287D01*
X145982541Y-97414553D01*
X146001781Y-97399457D01*
X146052290Y-97323983D01*
X146070868Y-97207924D01*
X146058398Y-97016810D01*
X146018806Y-96735659D01*
X145976153Y-96390110D01*
X145976803Y-96177489D01*
X146005453Y-96102090D01*
X146069937Y-95970004D01*
X146079143Y-95897771D01*
X146115428Y-95788014D01*
X146158119Y-95767143D01*
X146260256Y-95738386D01*
X146451378Y-95663075D01*
X146684897Y-95559876D01*
X146943664Y-95444843D01*
X147174421Y-95350393D01*
X147313492Y-95301360D01*
X147489642Y-95238430D01*
X147761644Y-95121197D01*
X148139491Y-94945116D01*
X148633177Y-94705646D01*
X148744264Y-94650944D01*
X148999319Y-94533450D01*
X149160069Y-94484062D01*
X149256194Y-94495429D01*
X149284921Y-94517035D01*
X149432105Y-94594800D01*
X149589848Y-94590585D01*
X149674339Y-94528720D01*
X149694253Y-94409993D01*
X149679112Y-94223472D01*
X149675333Y-94202148D01*
X149628346Y-94033410D01*
X149539636Y-93965088D01*
X149376058Y-93952857D01*
X149185524Y-93977220D01*
X149083655Y-94068486D01*
X149059072Y-94122447D01*
X149018804Y-94195930D01*
X148971685Y-94243143D01*
X149344857Y-94243143D01*
X149369617Y-94172458D01*
X149376860Y-94170572D01*
X149438819Y-94221425D01*
X149453714Y-94243143D01*
X149447960Y-94310016D01*
X149421711Y-94315714D01*
X149347810Y-94263034D01*
X149344857Y-94243143D01*
X148971685Y-94243143D01*
X148943925Y-94270958D01*
X148816455Y-94357886D01*
X148618412Y-94467070D01*
X148331816Y-94608867D01*
X147938684Y-94793631D01*
X147712000Y-94898256D01*
X147317048Y-95078588D01*
X147034241Y-95204182D01*
X146844785Y-95282917D01*
X146729883Y-95322674D01*
X146678039Y-95331714D01*
X146569495Y-95360861D01*
X146402860Y-95431175D01*
X146398721Y-95433161D01*
X146139989Y-95550183D01*
X145977811Y-95591822D01*
X145881325Y-95552206D01*
X145819669Y-95425463D01*
X145789618Y-95317259D01*
X145725289Y-95088321D01*
X145661873Y-94898803D01*
X145646122Y-94860000D01*
X145600862Y-94705244D01*
X145556685Y-94471915D01*
X145537406Y-94330935D01*
X145500358Y-94078470D01*
X145455761Y-93863749D01*
X145432793Y-93786650D01*
X145382363Y-93637996D01*
X145307207Y-93400705D01*
X145223362Y-93125443D01*
X145221225Y-93118286D01*
X145122966Y-92792032D01*
X145005236Y-92405568D01*
X144891906Y-92037206D01*
X144881340Y-92003110D01*
X144799644Y-91731271D01*
X144741101Y-91519953D01*
X144714324Y-91401057D01*
X144714795Y-91386253D01*
X144786762Y-91348809D01*
X144933727Y-91270157D01*
X144954286Y-91259071D01*
X145115539Y-91192456D01*
X145377330Y-91106239D01*
X145698726Y-91013257D01*
X145934000Y-90951827D01*
X146518422Y-90795599D01*
X146995705Y-90641865D01*
X147402980Y-90477213D01*
X147777376Y-90288229D01*
X147789288Y-90281597D01*
X148140018Y-90085787D01*
X148243289Y-90241322D01*
X148398466Y-90361905D01*
X148605378Y-90396014D01*
X148800526Y-90340809D01*
X148880977Y-90269857D01*
X148939688Y-90122660D01*
X148975177Y-89899738D01*
X148979692Y-89798143D01*
X148974467Y-89611320D01*
X148936672Y-89503448D01*
X148837771Y-89460370D01*
X148649225Y-89467926D01*
X148388596Y-89504896D01*
X148209658Y-89564667D01*
X148107568Y-89639165D01*
X147974492Y-89717044D01*
X147816254Y-89743714D01*
X147638104Y-89770878D01*
X147565136Y-89835983D01*
X147612477Y-89914455D01*
X147650978Y-89933469D01*
X148455380Y-89933469D01*
X148480722Y-89803726D01*
X148589845Y-89678508D01*
X148690076Y-89685629D01*
X148754219Y-89813447D01*
X148764286Y-89925143D01*
X148755745Y-90110831D01*
X148713657Y-90167041D01*
X148613319Y-90109172D01*
X148551569Y-90057726D01*
X148455380Y-89933469D01*
X147650978Y-89933469D01*
X147688152Y-89951827D01*
X147767812Y-89990767D01*
X147765103Y-90034370D01*
X147663085Y-90100655D01*
X147449954Y-90205213D01*
X147225323Y-90306444D01*
X147050841Y-90375900D01*
X146974771Y-90396857D01*
X146871635Y-90426303D01*
X146692826Y-90500629D01*
X146604279Y-90542000D01*
X146378917Y-90631969D01*
X146175482Y-90682875D01*
X146123217Y-90687143D01*
X145970434Y-90710211D01*
X145902956Y-90751233D01*
X145814141Y-90795244D01*
X145628109Y-90839959D01*
X145471361Y-90864298D01*
X145223351Y-90910669D01*
X145019247Y-90975502D01*
X144944259Y-91015614D01*
X144771068Y-91110148D01*
X144641192Y-91083307D01*
X144536641Y-90925813D01*
X144482571Y-90777476D01*
X144373714Y-90433143D01*
X143865714Y-90440310D01*
X143399668Y-90483980D01*
X142848730Y-90605766D01*
X142595714Y-90678429D01*
X142190260Y-90800443D01*
X141747439Y-90932319D01*
X141338737Y-91052813D01*
X141180571Y-91098948D01*
X140862655Y-91194660D01*
X140572033Y-91288201D01*
X140355389Y-91364320D01*
X140298747Y-91386972D01*
X140089917Y-91444727D01*
X139817927Y-91480149D01*
X139679894Y-91485429D01*
X139423191Y-91504533D01*
X139213642Y-91553731D01*
X139143549Y-91587813D01*
X138990246Y-91659953D01*
X138757101Y-91733044D01*
X138601258Y-91769321D01*
X138178781Y-91854318D01*
X137875247Y-91917383D01*
X137667095Y-91964142D01*
X137530766Y-92000216D01*
X137442699Y-92031230D01*
X137384921Y-92059636D01*
X137310090Y-92127804D01*
X137356088Y-92169521D01*
X137500394Y-92181055D01*
X137720482Y-92158675D01*
X137842978Y-92135533D01*
X138140082Y-92074460D01*
X138471853Y-92010082D01*
X138604286Y-91985592D01*
X138867899Y-91925152D01*
X139101645Y-91850278D01*
X139196054Y-91808271D01*
X139382954Y-91746210D01*
X139637749Y-91708464D01*
X139765658Y-91703143D01*
X140035931Y-91683559D01*
X140285727Y-91634010D01*
X140371318Y-91604563D01*
X140586566Y-91522348D01*
X140905187Y-91413670D01*
X141290404Y-91289811D01*
X141705440Y-91162050D01*
X142113520Y-91041670D01*
X142477866Y-90939950D01*
X142761702Y-90868173D01*
X142799701Y-90859673D01*
X143061783Y-90796151D01*
X143281219Y-90731444D01*
X143393644Y-90687333D01*
X143545041Y-90644220D01*
X143773309Y-90618127D01*
X143891463Y-90614572D01*
X144107464Y-90620314D01*
X144221013Y-90653927D01*
X144274765Y-90739983D01*
X144300831Y-90850429D01*
X144344076Y-91018287D01*
X144422568Y-91281737D01*
X144523654Y-91599363D01*
X144596883Y-91819386D01*
X144700010Y-92135929D01*
X144782333Y-92412134D01*
X144833720Y-92612563D01*
X144845876Y-92690243D01*
X144879116Y-92853018D01*
X144952019Y-93030637D01*
X145038941Y-93246807D01*
X145104247Y-93491877D01*
X145106184Y-93502351D01*
X145171657Y-93749999D01*
X145270608Y-94013987D01*
X145290326Y-94057203D01*
X145377826Y-94293352D01*
X145424665Y-94520556D01*
X145427073Y-94565203D01*
X145444371Y-94758586D01*
X145487865Y-95024091D01*
X145529716Y-95222857D01*
X145598687Y-95545826D01*
X145666063Y-95908903D01*
X145727560Y-96282296D01*
X145778898Y-96636214D01*
X145815792Y-96940862D01*
X145833963Y-97166449D01*
X145829127Y-97283181D01*
X145826636Y-97288726D01*
X145729034Y-97339463D01*
X145552547Y-97363429D01*
X145530574Y-97363714D01*
X145364361Y-97379683D01*
X145282609Y-97418861D01*
X145280857Y-97426264D01*
X145214701Y-97464384D01*
X145041103Y-97504612D01*
X144797368Y-97538346D01*
X144792609Y-97538836D01*
X144526514Y-97578148D01*
X144309292Y-97631890D01*
X144193895Y-97684775D01*
X144057968Y-97749644D01*
X143842240Y-97802619D01*
X143735769Y-97817620D01*
X143501533Y-97861633D01*
X143314187Y-97929835D01*
X143264055Y-97962216D01*
X143117502Y-98037416D01*
X142896948Y-98098260D01*
X142808013Y-98112808D01*
X142525427Y-98174694D01*
X142244684Y-98273743D01*
X142191156Y-98298808D01*
X141803165Y-98467012D01*
X141407289Y-98593179D01*
X141056065Y-98661911D01*
X140924793Y-98670000D01*
X140670759Y-98703247D01*
X140431521Y-98783278D01*
X140429903Y-98784082D01*
X140225516Y-98856622D01*
X139952408Y-98917586D01*
X139784825Y-98941140D01*
X139508759Y-98985723D01*
X139333117Y-99060460D01*
X139235091Y-99153629D01*
X139080441Y-99280501D01*
X138857010Y-99322668D01*
X138821016Y-99323143D01*
X138629549Y-99305968D01*
X138507787Y-99263406D01*
X138495428Y-99250572D01*
X138407301Y-99218216D01*
X138209726Y-99193290D01*
X137938352Y-99179542D01*
X137805132Y-99178000D01*
X137345233Y-99160800D01*
X137016625Y-99101666D01*
X136808722Y-98989298D01*
X136710941Y-98812395D01*
X136712699Y-98559656D01*
X136803411Y-98219781D01*
X136831859Y-98138798D01*
X136953695Y-97800345D01*
X137083295Y-97437768D01*
X137180056Y-97165038D01*
X137275454Y-96918060D01*
X137366483Y-96721177D01*
X137427733Y-96624381D01*
X137506348Y-96479627D01*
X137515714Y-96416660D01*
X137556279Y-96290144D01*
X137659228Y-96105000D01*
X137725780Y-96006933D01*
X137955928Y-95663522D01*
X138099440Y-95373328D01*
X138174337Y-95089005D01*
X138198622Y-94764708D01*
X138205143Y-94306559D01*
X137798386Y-93930137D01*
X137566122Y-93702654D01*
X137349324Y-93469162D01*
X137195979Y-93281572D01*
X137068740Y-93120921D01*
X136950003Y-93040262D01*
X136781855Y-93012290D01*
X136618749Y-93009429D01*
X136349107Y-93031113D01*
X136144062Y-93088293D01*
X136096299Y-93115978D01*
X135914712Y-93199009D01*
X135755857Y-93224835D01*
X135615408Y-93246205D01*
X135562597Y-93336122D01*
X135556286Y-93451803D01*
X135589441Y-93626286D01*
X135774000Y-93626286D01*
X135810286Y-93590000D01*
X135846571Y-93626286D01*
X135829405Y-93643453D01*
X136013002Y-93643453D01*
X136028000Y-93590000D01*
X136131567Y-93526855D01*
X136195569Y-93518540D01*
X136276785Y-93530284D01*
X136224032Y-93580454D01*
X136209429Y-93590000D01*
X136076465Y-93654108D01*
X136013002Y-93643453D01*
X135829405Y-93643453D01*
X135810286Y-93662572D01*
X135774000Y-93626286D01*
X135589441Y-93626286D01*
X135607326Y-93720401D01*
X135738921Y-93969037D01*
X135918780Y-94139866D01*
X135949280Y-94155836D01*
X136059350Y-94251712D01*
X136207858Y-94436692D01*
X136367371Y-94670544D01*
X136510454Y-94913038D01*
X136609674Y-95123944D01*
X136609956Y-95124698D01*
X136595680Y-95266530D01*
X136534072Y-95342412D01*
X136298187Y-95573184D01*
X136072770Y-95860354D01*
X135882032Y-96165260D01*
X135750182Y-96449236D01*
X135701429Y-96672141D01*
X135670559Y-96768308D01*
X135585938Y-96967746D01*
X135459550Y-97245900D01*
X135303377Y-97578214D01*
X135129402Y-97940131D01*
X134949608Y-98307095D01*
X134775978Y-98654551D01*
X134620495Y-98957942D01*
X134495142Y-99192713D01*
X134411902Y-99334306D01*
X134387886Y-99363913D01*
X134337347Y-99464783D01*
X134324786Y-99632152D01*
X134349146Y-99792723D01*
X134395143Y-99867429D01*
X134443186Y-99961492D01*
X134466402Y-100134561D01*
X134466001Y-100335792D01*
X134443195Y-100514342D01*
X134399193Y-100619369D01*
X134377000Y-100629427D01*
X134275149Y-100572667D01*
X134128800Y-100425737D01*
X133966899Y-100223655D01*
X133818392Y-100001440D01*
X133742000Y-99861224D01*
X133550001Y-99577525D01*
X133281255Y-99324691D01*
X132980545Y-99137628D01*
X132704409Y-99052447D01*
X132469302Y-99046859D01*
X132328581Y-99102249D01*
X132296974Y-99134000D01*
X132240136Y-99226021D01*
X132250583Y-99250572D01*
X132246884Y-99292539D01*
X132181649Y-99369861D01*
X132096448Y-99549302D01*
X132107019Y-99667089D01*
X132108111Y-99849758D01*
X132100231Y-99867429D01*
X132363143Y-99867429D01*
X132399428Y-99831143D01*
X132435714Y-99867429D01*
X132399428Y-99903714D01*
X132363143Y-99867429D01*
X132100231Y-99867429D01*
X132062071Y-99952996D01*
X132000935Y-100075973D01*
X132925444Y-100075973D01*
X133050551Y-100014038D01*
X133256919Y-99997823D01*
X133376914Y-100005321D01*
X133376275Y-100024160D01*
X133360111Y-100028693D01*
X133274717Y-100091236D01*
X133283328Y-100145064D01*
X133280773Y-100176353D01*
X133212504Y-100131398D01*
X133111406Y-100071762D01*
X133055123Y-100126923D01*
X133043331Y-100155626D01*
X132992102Y-100233772D01*
X132937446Y-100183857D01*
X132925444Y-100075973D01*
X132000935Y-100075973D01*
X131980234Y-100117613D01*
X131970333Y-100226762D01*
X132611031Y-100226762D01*
X132617657Y-100193169D01*
X132695276Y-100133010D01*
X132778458Y-100122914D01*
X132798571Y-100149950D01*
X132741646Y-100196559D01*
X132685945Y-100221690D01*
X132611031Y-100226762D01*
X131970333Y-100226762D01*
X131964109Y-100295362D01*
X132018308Y-100421131D01*
X132028380Y-100428746D01*
X132162552Y-100472562D01*
X132272428Y-100483175D01*
X132405399Y-100516794D01*
X132429057Y-100589041D01*
X132345000Y-100653937D01*
X132345773Y-100678944D01*
X132462009Y-100694736D01*
X132503608Y-100696271D01*
X132794838Y-100634064D01*
X132939037Y-100538714D01*
X133125143Y-100375429D01*
X132961857Y-100561535D01*
X132849100Y-100724104D01*
X132798750Y-100864026D01*
X132798571Y-100869963D01*
X132779137Y-100931462D01*
X132702271Y-100968455D01*
X132540132Y-100986766D01*
X132264877Y-100992217D01*
X132213717Y-100992286D01*
X131904586Y-101000602D01*
X131721277Y-101024722D01*
X131672948Y-101063407D01*
X131674055Y-101065408D01*
X131654149Y-101093871D01*
X131534725Y-101054455D01*
X131533236Y-101053778D01*
X131384715Y-101011899D01*
X131184574Y-101010706D01*
X130892035Y-101050552D01*
X130839420Y-101059776D01*
X130582957Y-101113342D01*
X130387291Y-101168649D01*
X130292493Y-101214247D01*
X130290810Y-101216549D01*
X130195897Y-101264046D01*
X130036574Y-101282571D01*
X129866887Y-101315571D01*
X129823143Y-101391429D01*
X129881569Y-101486621D01*
X129936283Y-101500286D01*
X130013912Y-101468664D01*
X130009489Y-101435672D01*
X130046080Y-101383960D01*
X130186418Y-101334877D01*
X130241064Y-101323867D01*
X130478959Y-101271267D01*
X130689135Y-101207406D01*
X130700938Y-101202889D01*
X130857489Y-101169839D01*
X131021699Y-101214278D01*
X131154402Y-101285513D01*
X131306375Y-101397107D01*
X131375198Y-101492859D01*
X131372108Y-101518603D01*
X131367854Y-101563663D01*
X131393388Y-101552842D01*
X131466606Y-101586005D01*
X131619098Y-101706586D01*
X131830241Y-101896708D01*
X132079412Y-102138494D01*
X132143235Y-102202889D01*
X132505472Y-102553827D01*
X132818003Y-102821605D01*
X133064638Y-102992766D01*
X133138063Y-103029824D01*
X133323396Y-103125861D01*
X133435978Y-103216198D01*
X133451714Y-103249563D01*
X133505829Y-103355067D01*
X133625647Y-103467669D01*
X133747379Y-103528907D01*
X133757687Y-103529978D01*
X133763712Y-103483491D01*
X133695366Y-103359826D01*
X133575633Y-103189452D01*
X133427502Y-103002839D01*
X133273956Y-102830454D01*
X133137983Y-102702769D01*
X133127443Y-102694549D01*
X132965202Y-102544407D01*
X132861161Y-102399459D01*
X132849411Y-102368448D01*
X132841380Y-102303333D01*
X132875128Y-102261805D01*
X132975702Y-102238590D01*
X133168148Y-102228418D01*
X133477514Y-102226016D01*
X133526189Y-102226000D01*
X133859876Y-102229260D01*
X134075887Y-102242104D01*
X134201601Y-102269124D01*
X134264399Y-102314914D01*
X134283164Y-102353000D01*
X134353196Y-102473879D01*
X134489860Y-102655026D01*
X134618916Y-102806571D01*
X134911723Y-103133143D01*
X134625806Y-102697714D01*
X134475076Y-102456208D01*
X134354499Y-102241228D01*
X134290123Y-102099225D01*
X134290054Y-102099000D01*
X134229652Y-101972447D01*
X134181342Y-101935714D01*
X134115223Y-101876057D01*
X134038254Y-101732404D01*
X134037496Y-101730579D01*
X133931018Y-101552872D01*
X133765937Y-101353253D01*
X133702120Y-101289255D01*
X133557321Y-101122333D01*
X133469641Y-100963421D01*
X133447497Y-100842687D01*
X133499302Y-100790295D01*
X133566507Y-100803093D01*
X133684733Y-100841603D01*
X133715933Y-100847143D01*
X133720178Y-100893512D01*
X133708943Y-100914489D01*
X133732868Y-100985713D01*
X133813518Y-101028237D01*
X133931755Y-101108768D01*
X133959714Y-101178605D01*
X134011743Y-101271806D01*
X134052924Y-101282571D01*
X134147405Y-101339850D01*
X134262114Y-101481320D01*
X134285147Y-101518429D01*
X134416145Y-101718550D01*
X134546425Y-101885793D01*
X134554794Y-101894970D01*
X134652903Y-102020737D01*
X134685429Y-102094541D01*
X134744401Y-102146839D01*
X134794286Y-102153429D01*
X134891115Y-102182953D01*
X134903351Y-102207857D01*
X134943022Y-102260715D01*
X135352582Y-102260715D01*
X135376799Y-102178220D01*
X135527701Y-102134451D01*
X135538143Y-102132837D01*
X135793155Y-102100472D01*
X135940181Y-102103933D01*
X136013123Y-102148490D01*
X136030439Y-102189714D01*
X136282000Y-102189714D01*
X136318286Y-102153429D01*
X136354571Y-102189714D01*
X136318286Y-102226000D01*
X136282000Y-102189714D01*
X136030439Y-102189714D01*
X136039261Y-102210715D01*
X136128620Y-102342077D01*
X136229451Y-102410286D01*
X136351162Y-102534073D01*
X136413261Y-102730819D01*
X136407232Y-102937629D01*
X136324559Y-103091612D01*
X136322007Y-103093769D01*
X136231148Y-103146704D01*
X136209429Y-103101460D01*
X136164873Y-103051332D01*
X136132284Y-103063398D01*
X136022843Y-103059935D01*
X135932713Y-103006140D01*
X135772737Y-102897958D01*
X135683286Y-102856166D01*
X135574370Y-102756746D01*
X135553978Y-102681849D01*
X135509702Y-102522665D01*
X135445120Y-102411701D01*
X135352582Y-102260715D01*
X134943022Y-102260715D01*
X134957925Y-102280571D01*
X135091533Y-102387848D01*
X135116578Y-102405004D01*
X135322151Y-102594569D01*
X135441063Y-102811781D01*
X135450495Y-103014403D01*
X135448816Y-103019913D01*
X135476798Y-103159041D01*
X135612803Y-103350857D01*
X135774000Y-103350857D01*
X135810286Y-103314571D01*
X135846571Y-103350857D01*
X135810286Y-103387143D01*
X135774000Y-103350857D01*
X135612803Y-103350857D01*
X135621629Y-103363304D01*
X135697666Y-103447002D01*
X135887119Y-103635666D01*
X136009302Y-103735327D01*
X136053980Y-103739279D01*
X136021636Y-103659286D01*
X136004879Y-103607683D01*
X136049298Y-103641143D01*
X136118219Y-103761116D01*
X136166665Y-103931429D01*
X136248714Y-104136759D01*
X136366342Y-104280894D01*
X136569656Y-104476271D01*
X136720065Y-104676081D01*
X136797196Y-104847611D01*
X136785125Y-104953303D01*
X136768074Y-105006235D01*
X136853996Y-105019733D01*
X137022307Y-105003716D01*
G36*
X135946261Y-92879119D02*
G01*
X136032878Y-92830399D01*
X136217663Y-92768328D01*
X136405618Y-92719566D01*
X136656625Y-92656113D01*
X136863557Y-92593964D01*
X136954327Y-92558911D01*
X137037632Y-92504807D01*
X137031909Y-92434589D01*
X136954327Y-92319170D01*
X136825398Y-92197295D01*
X136654531Y-92152435D01*
X136415412Y-92184275D01*
X136081723Y-92292498D01*
X136040342Y-92308198D01*
X135820592Y-92400551D01*
X135668559Y-92480023D01*
X135619802Y-92524728D01*
X135662246Y-92625697D01*
X135755782Y-92748672D01*
X135860321Y-92850133D01*
X135935771Y-92886560D01*
X135946261Y-92879119D01*
G37*
X135946261Y-92879119D02*
X136032878Y-92830399D01*
X136217663Y-92768328D01*
X136405618Y-92719566D01*
X136656625Y-92656113D01*
X136863557Y-92593964D01*
X136954327Y-92558911D01*
X137037632Y-92504807D01*
X137031909Y-92434589D01*
X136954327Y-92319170D01*
X136825398Y-92197295D01*
X136654531Y-92152435D01*
X136415412Y-92184275D01*
X136081723Y-92292498D01*
X136040342Y-92308198D01*
X135820592Y-92400551D01*
X135668559Y-92480023D01*
X135619802Y-92524728D01*
X135662246Y-92625697D01*
X135755782Y-92748672D01*
X135860321Y-92850133D01*
X135935771Y-92886560D01*
X135946261Y-92879119D01*
G36*
X126109557Y-102402216D02*
G01*
X126634162Y-102386358D01*
X127071424Y-102357957D01*
X127450100Y-102315343D01*
X127682286Y-102278550D01*
X128092747Y-102205241D01*
X128380361Y-102151201D01*
X128565337Y-102111165D01*
X128667883Y-102079869D01*
X128708205Y-102052046D01*
X128706513Y-102022432D01*
X128701240Y-102013066D01*
X128671364Y-101988380D01*
X128606637Y-101975357D01*
X128488673Y-101975359D01*
X128299085Y-101989748D01*
X128019485Y-102019886D01*
X127631487Y-102067137D01*
X127160054Y-102127270D01*
X126503769Y-102190947D01*
X125801981Y-102215553D01*
X125128054Y-102207161D01*
X124589393Y-102185392D01*
X124165495Y-102149882D01*
X123826041Y-102091075D01*
X123540712Y-101999416D01*
X123279189Y-101865348D01*
X123011153Y-101679316D01*
X122729213Y-101451086D01*
X122626189Y-101334000D01*
X122548387Y-101166394D01*
X122492638Y-100929268D01*
X122455774Y-100603620D01*
X122434626Y-100170450D01*
X122426155Y-99633641D01*
X122426984Y-99241316D01*
X122438201Y-98956934D01*
X122464678Y-98743397D01*
X122511291Y-98563611D01*
X122582913Y-98380478D01*
X122594183Y-98354788D01*
X122702154Y-98133807D01*
X122801537Y-97968961D01*
X122855350Y-97908578D01*
X122943062Y-97807614D01*
X123033906Y-97638471D01*
X123036780Y-97631704D01*
X123152543Y-97430038D01*
X123340252Y-97177560D01*
X123567535Y-96910753D01*
X123802018Y-96666098D01*
X124011330Y-96480077D01*
X124126286Y-96403910D01*
X124359011Y-96291224D01*
X124561714Y-96196822D01*
X124757078Y-96094935D01*
X124992799Y-95954503D01*
X125082790Y-95896362D01*
X125269880Y-95779789D01*
X125409641Y-95706903D01*
X125450159Y-95694572D01*
X125550114Y-95665261D01*
X125725065Y-95591646D01*
X125800381Y-95556288D01*
X126084808Y-95430735D01*
X126434350Y-95293051D01*
X126790201Y-95165036D01*
X127093553Y-95068495D01*
X127175993Y-95046287D01*
X127395404Y-94975642D01*
X127561217Y-94902821D01*
X127711951Y-94850097D01*
X127970579Y-94786827D01*
X128300844Y-94719374D01*
X128666484Y-94654100D01*
X129031242Y-94597369D01*
X129358858Y-94555544D01*
X129613072Y-94534987D01*
X129663461Y-94533910D01*
X129920320Y-94505851D01*
X130157763Y-94437155D01*
X130196594Y-94419093D01*
X130409879Y-94333780D01*
X130673932Y-94259641D01*
X130755418Y-94242805D01*
X131160977Y-94160340D01*
X131493755Y-94076675D01*
X131728107Y-93998893D01*
X131825758Y-93947130D01*
X131942332Y-93887389D01*
X132143034Y-93814938D01*
X132264044Y-93778857D01*
X132464227Y-93722559D01*
X132766623Y-93636308D01*
X133134099Y-93530746D01*
X133529519Y-93416517D01*
X133633143Y-93386473D01*
X134010086Y-93279071D01*
X134350102Y-93185833D01*
X134622695Y-93114858D01*
X134797365Y-93074245D01*
X134829830Y-93068688D01*
X134979538Y-93004727D01*
X135034723Y-92918714D01*
X135032574Y-92835386D01*
X134969681Y-92804341D01*
X134823825Y-92826306D01*
X134572788Y-92902013D01*
X134467714Y-92937333D01*
X134211643Y-93015956D01*
X133872763Y-93108402D01*
X133510334Y-93198783D01*
X133379143Y-93229195D01*
X133051794Y-93308427D01*
X132753261Y-93389919D01*
X132529156Y-93460838D01*
X132461032Y-93487526D01*
X132270497Y-93558363D01*
X132121490Y-93589898D01*
X132116055Y-93590000D01*
X131981358Y-93622826D01*
X131788478Y-93704635D01*
X131728954Y-93735143D01*
X131510551Y-93828610D01*
X131309355Y-93877980D01*
X131272018Y-93880286D01*
X131094155Y-93913869D01*
X130995253Y-93971000D01*
X130872569Y-94035152D01*
X130642126Y-94108146D01*
X130340217Y-94181063D01*
X130003135Y-94244986D01*
X129714286Y-94285791D01*
X129203282Y-94351765D01*
X128702972Y-94429135D01*
X128245003Y-94512066D01*
X127861026Y-94594719D01*
X127582688Y-94671259D01*
X127537143Y-94687309D01*
X127314706Y-94764635D01*
X127140594Y-94814057D01*
X127080545Y-94823678D01*
X126970505Y-94852543D01*
X126772998Y-94928099D01*
X126536259Y-95031525D01*
X126216526Y-95167621D01*
X125866942Y-95299532D01*
X125650286Y-95371484D01*
X125368123Y-95475744D01*
X125103089Y-95604136D01*
X124967306Y-95689817D01*
X124747080Y-95831904D01*
X124476731Y-95975724D01*
X124360683Y-96028609D01*
X124170193Y-96130697D01*
X123936454Y-96285920D01*
X123689200Y-96470388D01*
X123458166Y-96660210D01*
X123273088Y-96831496D01*
X123163701Y-96960356D01*
X123146571Y-97004070D01*
X123107583Y-97095460D01*
X123007731Y-97259669D01*
X122926226Y-97379287D01*
X122670904Y-97746215D01*
X122495964Y-98014339D01*
X122392150Y-98199010D01*
X122350205Y-98315578D01*
X122348286Y-98337704D01*
X122304626Y-98461876D01*
X122275714Y-98488572D01*
X122245634Y-98576617D01*
X122221618Y-98782760D01*
X122205928Y-99080005D01*
X122200835Y-99381854D01*
X122191049Y-99829816D01*
X122164825Y-100145820D01*
X122122683Y-100324386D01*
X122109225Y-100347569D01*
X121956531Y-100475150D01*
X121690676Y-100623338D01*
X121340234Y-100781465D01*
X120933778Y-100938862D01*
X120499881Y-101084861D01*
X120067116Y-101208793D01*
X119664056Y-101299991D01*
X119475323Y-101330986D01*
X119271612Y-101370592D01*
X119136395Y-101418593D01*
X119112593Y-101437850D01*
X119011431Y-101500459D01*
X118899764Y-101454085D01*
X118843830Y-101355143D01*
X118752045Y-101244350D01*
X118593773Y-101209410D01*
X118429337Y-101255568D01*
X118361537Y-101313219D01*
X118303916Y-101466688D01*
X118292771Y-101689197D01*
X118296418Y-101718000D01*
X118502000Y-101718000D01*
X118519975Y-101516156D01*
X118579561Y-101432983D01*
X118610857Y-101427714D01*
X118698606Y-101490472D01*
X118719714Y-101603207D01*
X118701743Y-101791244D01*
X118675664Y-101893493D01*
X118606753Y-102001841D01*
X118546320Y-101979233D01*
X118508304Y-101839755D01*
X118502000Y-101718000D01*
X118296418Y-101718000D01*
X118322390Y-101923067D01*
X118387059Y-102110618D01*
X118447571Y-102181909D01*
X118613856Y-102216567D01*
X118759708Y-102132906D01*
X118845154Y-101956429D01*
X118850102Y-101925095D01*
X118889085Y-101820397D01*
X118992453Y-101734626D01*
X119182669Y-101657343D01*
X119482197Y-101578108D01*
X119699428Y-101530386D01*
X120089156Y-101432983D01*
X120551653Y-101294294D01*
X121027872Y-101133788D01*
X121458770Y-100970935D01*
X121670369Y-100880479D01*
X121919827Y-100773933D01*
X122115989Y-100703473D01*
X122224484Y-100681057D01*
X122233956Y-100684432D01*
X122262716Y-100779171D01*
X122275658Y-100952173D01*
X122275714Y-100964681D01*
X122300018Y-101188952D01*
X122353877Y-101369871D01*
X122498194Y-101557735D01*
X122754541Y-101769777D01*
X123096372Y-101987019D01*
X123497140Y-102190480D01*
X123509428Y-102196008D01*
X123670975Y-102267015D01*
X123810938Y-102320021D01*
X123953700Y-102357653D01*
X124123642Y-102382540D01*
X124345145Y-102397309D01*
X124642591Y-102404588D01*
X125040361Y-102407006D01*
X125468857Y-102407202D01*
X126109557Y-102402216D01*
G37*
X126109557Y-102402216D02*
X126634162Y-102386358D01*
X127071424Y-102357957D01*
X127450100Y-102315343D01*
X127682286Y-102278550D01*
X128092747Y-102205241D01*
X128380361Y-102151201D01*
X128565337Y-102111165D01*
X128667883Y-102079869D01*
X128708205Y-102052046D01*
X128706513Y-102022432D01*
X128701240Y-102013066D01*
X128671364Y-101988380D01*
X128606637Y-101975357D01*
X128488673Y-101975359D01*
X128299085Y-101989748D01*
X128019485Y-102019886D01*
X127631487Y-102067137D01*
X127160054Y-102127270D01*
X126503769Y-102190947D01*
X125801981Y-102215553D01*
X125128054Y-102207161D01*
X124589393Y-102185392D01*
X124165495Y-102149882D01*
X123826041Y-102091075D01*
X123540712Y-101999416D01*
X123279189Y-101865348D01*
X123011153Y-101679316D01*
X122729213Y-101451086D01*
X122626189Y-101334000D01*
X122548387Y-101166394D01*
X122492638Y-100929268D01*
X122455774Y-100603620D01*
X122434626Y-100170450D01*
X122426155Y-99633641D01*
X122426984Y-99241316D01*
X122438201Y-98956934D01*
X122464678Y-98743397D01*
X122511291Y-98563611D01*
X122582913Y-98380478D01*
X122594183Y-98354788D01*
X122702154Y-98133807D01*
X122801537Y-97968961D01*
X122855350Y-97908578D01*
X122943062Y-97807614D01*
X123033906Y-97638471D01*
X123036780Y-97631704D01*
X123152543Y-97430038D01*
X123340252Y-97177560D01*
X123567535Y-96910753D01*
X123802018Y-96666098D01*
X124011330Y-96480077D01*
X124126286Y-96403910D01*
X124359011Y-96291224D01*
X124561714Y-96196822D01*
X124757078Y-96094935D01*
X124992799Y-95954503D01*
X125082790Y-95896362D01*
X125269880Y-95779789D01*
X125409641Y-95706903D01*
X125450159Y-95694572D01*
X125550114Y-95665261D01*
X125725065Y-95591646D01*
X125800381Y-95556288D01*
X126084808Y-95430735D01*
X126434350Y-95293051D01*
X126790201Y-95165036D01*
X127093553Y-95068495D01*
X127175993Y-95046287D01*
X127395404Y-94975642D01*
X127561217Y-94902821D01*
X127711951Y-94850097D01*
X127970579Y-94786827D01*
X128300844Y-94719374D01*
X128666484Y-94654100D01*
X129031242Y-94597369D01*
X129358858Y-94555544D01*
X129613072Y-94534987D01*
X129663461Y-94533910D01*
X129920320Y-94505851D01*
X130157763Y-94437155D01*
X130196594Y-94419093D01*
X130409879Y-94333780D01*
X130673932Y-94259641D01*
X130755418Y-94242805D01*
X131160977Y-94160340D01*
X131493755Y-94076675D01*
X131728107Y-93998893D01*
X131825758Y-93947130D01*
X131942332Y-93887389D01*
X132143034Y-93814938D01*
X132264044Y-93778857D01*
X132464227Y-93722559D01*
X132766623Y-93636308D01*
X133134099Y-93530746D01*
X133529519Y-93416517D01*
X133633143Y-93386473D01*
X134010086Y-93279071D01*
X134350102Y-93185833D01*
X134622695Y-93114858D01*
X134797365Y-93074245D01*
X134829830Y-93068688D01*
X134979538Y-93004727D01*
X135034723Y-92918714D01*
X135032574Y-92835386D01*
X134969681Y-92804341D01*
X134823825Y-92826306D01*
X134572788Y-92902013D01*
X134467714Y-92937333D01*
X134211643Y-93015956D01*
X133872763Y-93108402D01*
X133510334Y-93198783D01*
X133379143Y-93229195D01*
X133051794Y-93308427D01*
X132753261Y-93389919D01*
X132529156Y-93460838D01*
X132461032Y-93487526D01*
X132270497Y-93558363D01*
X132121490Y-93589898D01*
X132116055Y-93590000D01*
X131981358Y-93622826D01*
X131788478Y-93704635D01*
X131728954Y-93735143D01*
X131510551Y-93828610D01*
X131309355Y-93877980D01*
X131272018Y-93880286D01*
X131094155Y-93913869D01*
X130995253Y-93971000D01*
X130872569Y-94035152D01*
X130642126Y-94108146D01*
X130340217Y-94181063D01*
X130003135Y-94244986D01*
X129714286Y-94285791D01*
X129203282Y-94351765D01*
X128702972Y-94429135D01*
X128245003Y-94512066D01*
X127861026Y-94594719D01*
X127582688Y-94671259D01*
X127537143Y-94687309D01*
X127314706Y-94764635D01*
X127140594Y-94814057D01*
X127080545Y-94823678D01*
X126970505Y-94852543D01*
X126772998Y-94928099D01*
X126536259Y-95031525D01*
X126216526Y-95167621D01*
X125866942Y-95299532D01*
X125650286Y-95371484D01*
X125368123Y-95475744D01*
X125103089Y-95604136D01*
X124967306Y-95689817D01*
X124747080Y-95831904D01*
X124476731Y-95975724D01*
X124360683Y-96028609D01*
X124170193Y-96130697D01*
X123936454Y-96285920D01*
X123689200Y-96470388D01*
X123458166Y-96660210D01*
X123273088Y-96831496D01*
X123163701Y-96960356D01*
X123146571Y-97004070D01*
X123107583Y-97095460D01*
X123007731Y-97259669D01*
X122926226Y-97379287D01*
X122670904Y-97746215D01*
X122495964Y-98014339D01*
X122392150Y-98199010D01*
X122350205Y-98315578D01*
X122348286Y-98337704D01*
X122304626Y-98461876D01*
X122275714Y-98488572D01*
X122245634Y-98576617D01*
X122221618Y-98782760D01*
X122205928Y-99080005D01*
X122200835Y-99381854D01*
X122191049Y-99829816D01*
X122164825Y-100145820D01*
X122122683Y-100324386D01*
X122109225Y-100347569D01*
X121956531Y-100475150D01*
X121690676Y-100623338D01*
X121340234Y-100781465D01*
X120933778Y-100938862D01*
X120499881Y-101084861D01*
X120067116Y-101208793D01*
X119664056Y-101299991D01*
X119475323Y-101330986D01*
X119271612Y-101370592D01*
X119136395Y-101418593D01*
X119112593Y-101437850D01*
X119011431Y-101500459D01*
X118899764Y-101454085D01*
X118843830Y-101355143D01*
X118752045Y-101244350D01*
X118593773Y-101209410D01*
X118429337Y-101255568D01*
X118361537Y-101313219D01*
X118303916Y-101466688D01*
X118292771Y-101689197D01*
X118296418Y-101718000D01*
X118502000Y-101718000D01*
X118519975Y-101516156D01*
X118579561Y-101432983D01*
X118610857Y-101427714D01*
X118698606Y-101490472D01*
X118719714Y-101603207D01*
X118701743Y-101791244D01*
X118675664Y-101893493D01*
X118606753Y-102001841D01*
X118546320Y-101979233D01*
X118508304Y-101839755D01*
X118502000Y-101718000D01*
X118296418Y-101718000D01*
X118322390Y-101923067D01*
X118387059Y-102110618D01*
X118447571Y-102181909D01*
X118613856Y-102216567D01*
X118759708Y-102132906D01*
X118845154Y-101956429D01*
X118850102Y-101925095D01*
X118889085Y-101820397D01*
X118992453Y-101734626D01*
X119182669Y-101657343D01*
X119482197Y-101578108D01*
X119699428Y-101530386D01*
X120089156Y-101432983D01*
X120551653Y-101294294D01*
X121027872Y-101133788D01*
X121458770Y-100970935D01*
X121670369Y-100880479D01*
X121919827Y-100773933D01*
X122115989Y-100703473D01*
X122224484Y-100681057D01*
X122233956Y-100684432D01*
X122262716Y-100779171D01*
X122275658Y-100952173D01*
X122275714Y-100964681D01*
X122300018Y-101188952D01*
X122353877Y-101369871D01*
X122498194Y-101557735D01*
X122754541Y-101769777D01*
X123096372Y-101987019D01*
X123497140Y-102190480D01*
X123509428Y-102196008D01*
X123670975Y-102267015D01*
X123810938Y-102320021D01*
X123953700Y-102357653D01*
X124123642Y-102382540D01*
X124345145Y-102397309D01*
X124642591Y-102404588D01*
X125040361Y-102407006D01*
X125468857Y-102407202D01*
X126109557Y-102402216D01*
G36*
X131094509Y-101519662D02*
G01*
X131083101Y-101464000D01*
X131031591Y-101368513D01*
X131012807Y-101355143D01*
X130987438Y-101414403D01*
X130984286Y-101464000D01*
X131022265Y-101560594D01*
X131054579Y-101572857D01*
X131094509Y-101519662D01*
G37*
X131094509Y-101519662D02*
X131083101Y-101464000D01*
X131031591Y-101368513D01*
X131012807Y-101355143D01*
X130987438Y-101414403D01*
X130984286Y-101464000D01*
X131022265Y-101560594D01*
X131054579Y-101572857D01*
X131094509Y-101519662D01*
G36*
X130331143Y-101464000D02*
G01*
X130294857Y-101427714D01*
X130258571Y-101464000D01*
X130294857Y-101500286D01*
X130331143Y-101464000D01*
G37*
X130331143Y-101464000D02*
X130294857Y-101427714D01*
X130258571Y-101464000D01*
X130294857Y-101500286D01*
X130331143Y-101464000D01*
G36*
X131274571Y-101609143D02*
G01*
X131238286Y-101572857D01*
X131202000Y-101609143D01*
X131238286Y-101645429D01*
X131274571Y-101609143D01*
G37*
X131274571Y-101609143D02*
X131238286Y-101572857D01*
X131202000Y-101609143D01*
X131238286Y-101645429D01*
X131274571Y-101609143D01*
G36*
X138947488Y-102197274D02*
G01*
X138925844Y-102164289D01*
X138852238Y-102159158D01*
X138774802Y-102176881D01*
X138808393Y-102203003D01*
X138921813Y-102211655D01*
X138947488Y-102197274D01*
G37*
X138947488Y-102197274D02*
X138925844Y-102164289D01*
X138852238Y-102159158D01*
X138774802Y-102176881D01*
X138808393Y-102203003D01*
X138921813Y-102211655D01*
X138947488Y-102197274D01*
G36*
X137298000Y-102334857D02*
G01*
X137261714Y-102298571D01*
X137225429Y-102334857D01*
X137261714Y-102371143D01*
X137298000Y-102334857D01*
G37*
X137298000Y-102334857D02*
X137261714Y-102298571D01*
X137225429Y-102334857D01*
X137261714Y-102371143D01*
X137298000Y-102334857D01*
G36*
X136765809Y-102709810D02*
G01*
X136774495Y-102623684D01*
X136765809Y-102613048D01*
X136722666Y-102623010D01*
X136717429Y-102661429D01*
X136743981Y-102721163D01*
X136765809Y-102709810D01*
G37*
X136765809Y-102709810D02*
X136774495Y-102623684D01*
X136765809Y-102613048D01*
X136722666Y-102623010D01*
X136717429Y-102661429D01*
X136743981Y-102721163D01*
X136765809Y-102709810D01*
G36*
X139184250Y-102881054D02*
G01*
X139251417Y-102800537D01*
X139209116Y-102729231D01*
X139127403Y-102696722D01*
X139047066Y-102792889D01*
X139043884Y-102798780D01*
X139002755Y-102921901D01*
X139062599Y-102942422D01*
X139184250Y-102881054D01*
G37*
X139184250Y-102881054D02*
X139251417Y-102800537D01*
X139209116Y-102729231D01*
X139127403Y-102696722D01*
X139047066Y-102792889D01*
X139043884Y-102798780D01*
X139002755Y-102921901D01*
X139062599Y-102942422D01*
X139184250Y-102881054D01*
G36*
X138652667Y-102782381D02*
G01*
X138642705Y-102739237D01*
X138604286Y-102734000D01*
X138544551Y-102760553D01*
X138555905Y-102782381D01*
X138642030Y-102791066D01*
X138652667Y-102782381D01*
G37*
X138652667Y-102782381D02*
X138642705Y-102739237D01*
X138604286Y-102734000D01*
X138544551Y-102760553D01*
X138555905Y-102782381D01*
X138642030Y-102791066D01*
X138652667Y-102782381D01*
G36*
X138294345Y-102850417D02*
G01*
X138272702Y-102817432D01*
X138199095Y-102812301D01*
X138121659Y-102830024D01*
X138155250Y-102856146D01*
X138268670Y-102864798D01*
X138294345Y-102850417D01*
G37*
X138294345Y-102850417D02*
X138272702Y-102817432D01*
X138199095Y-102812301D01*
X138121659Y-102830024D01*
X138155250Y-102856146D01*
X138268670Y-102864798D01*
X138294345Y-102850417D01*
G36*
X137197718Y-103065469D02*
G01*
X137222251Y-103063383D01*
X137473856Y-103033496D01*
X137667120Y-102995065D01*
X137754082Y-102960089D01*
X137741492Y-102920620D01*
X137625675Y-102904967D01*
X137446149Y-102910670D01*
X137242431Y-102935272D01*
X137054041Y-102976316D01*
X136961238Y-103009406D01*
X136863931Y-103058190D01*
X136859834Y-103081504D01*
X136965558Y-103082785D01*
X137197718Y-103065469D01*
G37*
X137197718Y-103065469D02*
X137222251Y-103063383D01*
X137473856Y-103033496D01*
X137667120Y-102995065D01*
X137754082Y-102960089D01*
X137741492Y-102920620D01*
X137625675Y-102904967D01*
X137446149Y-102910670D01*
X137242431Y-102935272D01*
X137054041Y-102976316D01*
X136961238Y-103009406D01*
X136863931Y-103058190D01*
X136859834Y-103081504D01*
X136965558Y-103082785D01*
X137197718Y-103065469D01*
G36*
X136710884Y-103081744D02*
G01*
X136701989Y-103014253D01*
X136662019Y-102959624D01*
X136614591Y-103014546D01*
X136587962Y-103121384D01*
X136601304Y-103150066D01*
X136673047Y-103161984D01*
X136710884Y-103081744D01*
G37*
X136710884Y-103081744D02*
X136701989Y-103014253D01*
X136662019Y-102959624D01*
X136614591Y-103014546D01*
X136587962Y-103121384D01*
X136601304Y-103150066D01*
X136673047Y-103161984D01*
X136710884Y-103081744D01*
G36*
X138386571Y-103350857D02*
G01*
X138350286Y-103314571D01*
X138314000Y-103350857D01*
X138350286Y-103387143D01*
X138386571Y-103350857D01*
G37*
X138386571Y-103350857D02*
X138350286Y-103314571D01*
X138314000Y-103350857D01*
X138350286Y-103387143D01*
X138386571Y-103350857D01*
G36*
X138164239Y-106982283D02*
G01*
X138216743Y-106883213D01*
X138221860Y-106803113D01*
X138245424Y-106647138D01*
X138316704Y-106447524D01*
X138327861Y-106423542D01*
X138507223Y-106041683D01*
X138628182Y-105755913D01*
X138699622Y-105533712D01*
X138730423Y-105342565D01*
X138729468Y-105149953D01*
X138715529Y-105004270D01*
X138697432Y-104675284D01*
X138736648Y-104418731D01*
X138779926Y-104296945D01*
X138855853Y-104032223D01*
X138888747Y-103750852D01*
X138888677Y-103722995D01*
X138882783Y-103423429D01*
X138685461Y-103858857D01*
X138632853Y-103608254D01*
X138593754Y-103455088D01*
X138560019Y-103430731D01*
X138524794Y-103499397D01*
X138480363Y-103573932D01*
X138464243Y-103546146D01*
X138414958Y-103488810D01*
X138378458Y-103501015D01*
X138277009Y-103494167D01*
X138234426Y-103450869D01*
X138179324Y-103400177D01*
X138166978Y-103423429D01*
X138158227Y-103530678D01*
X138139835Y-103733031D01*
X138121936Y-103922294D01*
X138109745Y-104140768D01*
X138119219Y-104280166D01*
X138143069Y-104310224D01*
X138183710Y-104347800D01*
X138206914Y-104489003D01*
X138208608Y-104537073D01*
X138217283Y-104744146D01*
X138236722Y-105033427D01*
X138262741Y-105342755D01*
X138263098Y-105346572D01*
X138286305Y-105614586D01*
X138291101Y-105755403D01*
X138275109Y-105786076D01*
X138235950Y-105723662D01*
X138216234Y-105682775D01*
X138144179Y-105552529D01*
X138097493Y-105545700D01*
X138071030Y-105597996D01*
X138043976Y-105738737D01*
X138026851Y-105962862D01*
X138023714Y-106109783D01*
X138010440Y-106370516D01*
X137976646Y-106599515D01*
X137952939Y-106684419D01*
X137916945Y-106821456D01*
X137960960Y-106868627D01*
X137989225Y-106870572D01*
X138084606Y-106912625D01*
X138096286Y-106947426D01*
X138140083Y-106992166D01*
X138164239Y-106982283D01*
G37*
X138164239Y-106982283D02*
X138216743Y-106883213D01*
X138221860Y-106803113D01*
X138245424Y-106647138D01*
X138316704Y-106447524D01*
X138327861Y-106423542D01*
X138507223Y-106041683D01*
X138628182Y-105755913D01*
X138699622Y-105533712D01*
X138730423Y-105342565D01*
X138729468Y-105149953D01*
X138715529Y-105004270D01*
X138697432Y-104675284D01*
X138736648Y-104418731D01*
X138779926Y-104296945D01*
X138855853Y-104032223D01*
X138888747Y-103750852D01*
X138888677Y-103722995D01*
X138882783Y-103423429D01*
X138685461Y-103858857D01*
X138632853Y-103608254D01*
X138593754Y-103455088D01*
X138560019Y-103430731D01*
X138524794Y-103499397D01*
X138480363Y-103573932D01*
X138464243Y-103546146D01*
X138414958Y-103488810D01*
X138378458Y-103501015D01*
X138277009Y-103494167D01*
X138234426Y-103450869D01*
X138179324Y-103400177D01*
X138166978Y-103423429D01*
X138158227Y-103530678D01*
X138139835Y-103733031D01*
X138121936Y-103922294D01*
X138109745Y-104140768D01*
X138119219Y-104280166D01*
X138143069Y-104310224D01*
X138183710Y-104347800D01*
X138206914Y-104489003D01*
X138208608Y-104537073D01*
X138217283Y-104744146D01*
X138236722Y-105033427D01*
X138262741Y-105342755D01*
X138263098Y-105346572D01*
X138286305Y-105614586D01*
X138291101Y-105755403D01*
X138275109Y-105786076D01*
X138235950Y-105723662D01*
X138216234Y-105682775D01*
X138144179Y-105552529D01*
X138097493Y-105545700D01*
X138071030Y-105597996D01*
X138043976Y-105738737D01*
X138026851Y-105962862D01*
X138023714Y-106109783D01*
X138010440Y-106370516D01*
X137976646Y-106599515D01*
X137952939Y-106684419D01*
X137916945Y-106821456D01*
X137960960Y-106868627D01*
X137989225Y-106870572D01*
X138084606Y-106912625D01*
X138096286Y-106947426D01*
X138140083Y-106992166D01*
X138164239Y-106982283D01*
G36*
X136717429Y-103713714D02*
G01*
X136681143Y-103677429D01*
X136644857Y-103713714D01*
X136681143Y-103750000D01*
X136717429Y-103713714D01*
G37*
X136717429Y-103713714D02*
X136681143Y-103677429D01*
X136644857Y-103713714D01*
X136681143Y-103750000D01*
X136717429Y-103713714D01*
G36*
X136349435Y-105104915D02*
G01*
X136379123Y-105099561D01*
X136561611Y-105038160D01*
X136618821Y-104939620D01*
X136618364Y-104927564D01*
X136556912Y-104759757D01*
X136433688Y-104642364D01*
X136355472Y-104620857D01*
X136307312Y-104576703D01*
X136318286Y-104548286D01*
X136299144Y-104488426D01*
X136234489Y-104475714D01*
X136123891Y-104424871D01*
X135955668Y-104291321D01*
X135765503Y-104103538D01*
X135758492Y-104095899D01*
X135590675Y-103925087D01*
X135467398Y-103823796D01*
X135412121Y-103810837D01*
X135411143Y-103817378D01*
X135444402Y-103907929D01*
X135531710Y-104089226D01*
X135654360Y-104326424D01*
X135793647Y-104584677D01*
X135930866Y-104829139D01*
X136047310Y-105024966D01*
X136110105Y-105119426D01*
X136186957Y-105125375D01*
X136349435Y-105104915D01*
G37*
X136349435Y-105104915D02*
X136379123Y-105099561D01*
X136561611Y-105038160D01*
X136618821Y-104939620D01*
X136618364Y-104927564D01*
X136556912Y-104759757D01*
X136433688Y-104642364D01*
X136355472Y-104620857D01*
X136307312Y-104576703D01*
X136318286Y-104548286D01*
X136299144Y-104488426D01*
X136234489Y-104475714D01*
X136123891Y-104424871D01*
X135955668Y-104291321D01*
X135765503Y-104103538D01*
X135758492Y-104095899D01*
X135590675Y-103925087D01*
X135467398Y-103823796D01*
X135412121Y-103810837D01*
X135411143Y-103817378D01*
X135444402Y-103907929D01*
X135531710Y-104089226D01*
X135654360Y-104326424D01*
X135793647Y-104584677D01*
X135930866Y-104829139D01*
X136047310Y-105024966D01*
X136110105Y-105119426D01*
X136186957Y-105125375D01*
X136349435Y-105104915D01*
G36*
X134363898Y-105766132D02*
G01*
X134493293Y-105699799D01*
X134638499Y-105600999D01*
X134752142Y-105500518D01*
X134785491Y-105452177D01*
X134829978Y-105254824D01*
X134824650Y-105067422D01*
X134775320Y-104939289D01*
X134721714Y-104911143D01*
X134633061Y-104850640D01*
X134612857Y-104766000D01*
X134582521Y-104648073D01*
X134540419Y-104620857D01*
X134465068Y-104564088D01*
X134346812Y-104417671D01*
X134251512Y-104276143D01*
X134135417Y-104103274D01*
X134056302Y-104008403D01*
X134033665Y-104005995D01*
X134070545Y-104119494D01*
X134131286Y-104223710D01*
X134232761Y-104409686D01*
X134313425Y-104629155D01*
X134370020Y-104855024D01*
X134399286Y-105060203D01*
X134397967Y-105217599D01*
X134362802Y-105300122D01*
X134290533Y-105280678D01*
X134253806Y-105242300D01*
X134128919Y-105147501D01*
X134057518Y-105128857D01*
X134010647Y-105159775D01*
X134037184Y-105267856D01*
X134120833Y-105437286D01*
X134219550Y-105621734D01*
X134284648Y-105744167D01*
X134297684Y-105769208D01*
X134363898Y-105766132D01*
G37*
X134363898Y-105766132D02*
X134493293Y-105699799D01*
X134638499Y-105600999D01*
X134752142Y-105500518D01*
X134785491Y-105452177D01*
X134829978Y-105254824D01*
X134824650Y-105067422D01*
X134775320Y-104939289D01*
X134721714Y-104911143D01*
X134633061Y-104850640D01*
X134612857Y-104766000D01*
X134582521Y-104648073D01*
X134540419Y-104620857D01*
X134465068Y-104564088D01*
X134346812Y-104417671D01*
X134251512Y-104276143D01*
X134135417Y-104103274D01*
X134056302Y-104008403D01*
X134033665Y-104005995D01*
X134070545Y-104119494D01*
X134131286Y-104223710D01*
X134232761Y-104409686D01*
X134313425Y-104629155D01*
X134370020Y-104855024D01*
X134399286Y-105060203D01*
X134397967Y-105217599D01*
X134362802Y-105300122D01*
X134290533Y-105280678D01*
X134253806Y-105242300D01*
X134128919Y-105147501D01*
X134057518Y-105128857D01*
X134010647Y-105159775D01*
X134037184Y-105267856D01*
X134120833Y-105437286D01*
X134219550Y-105621734D01*
X134284648Y-105744167D01*
X134297684Y-105769208D01*
X134363898Y-105766132D01*
G36*
X136935143Y-104076571D02*
G01*
X136898857Y-104040286D01*
X136862571Y-104076571D01*
X136898857Y-104112857D01*
X136935143Y-104076571D01*
G37*
X136935143Y-104076571D02*
X136898857Y-104040286D01*
X136862571Y-104076571D01*
X136898857Y-104112857D01*
X136935143Y-104076571D01*
G36*
X136136857Y-104149143D02*
G01*
X136100571Y-104112857D01*
X136064286Y-104149143D01*
X136100571Y-104185429D01*
X136136857Y-104149143D01*
G37*
X136136857Y-104149143D02*
X136100571Y-104112857D01*
X136064286Y-104149143D01*
X136100571Y-104185429D01*
X136136857Y-104149143D01*
G36*
X133959714Y-105020000D02*
G01*
X133923429Y-104983714D01*
X133887143Y-105020000D01*
X133923429Y-105056286D01*
X133959714Y-105020000D01*
G37*
X133959714Y-105020000D02*
X133923429Y-104983714D01*
X133887143Y-105020000D01*
X133923429Y-105056286D01*
X133959714Y-105020000D01*
G36*
X136810621Y-116878030D02*
G01*
X137095362Y-116844502D01*
X137342704Y-116790317D01*
X137462077Y-116747175D01*
X137700088Y-116650478D01*
X137921191Y-116576766D01*
X137975673Y-116562761D01*
X138173677Y-116479979D01*
X138368162Y-116343574D01*
X138374074Y-116338157D01*
X138521338Y-116219443D01*
X138631585Y-116160985D01*
X138641952Y-116159714D01*
X138738353Y-116106690D01*
X138822000Y-116014571D01*
X138960169Y-115900695D01*
X139073878Y-115869258D01*
X139216678Y-115823783D01*
X139402225Y-115709565D01*
X139475143Y-115651714D01*
X139634985Y-115522082D01*
X139747134Y-115444225D01*
X139771499Y-115434170D01*
X139840144Y-115370417D01*
X139935766Y-115203181D01*
X140043279Y-114967894D01*
X140147596Y-114699987D01*
X140233632Y-114434891D01*
X140281426Y-114236572D01*
X140329108Y-113918502D01*
X140359067Y-113600877D01*
X140370623Y-113314833D01*
X140363095Y-113091507D01*
X140335803Y-112962035D01*
X140309714Y-112942346D01*
X140271367Y-112881620D01*
X140244260Y-112704101D01*
X140232762Y-112442026D01*
X140236978Y-112158258D01*
X140262583Y-111975555D01*
X140320063Y-111850249D01*
X140396047Y-111761979D01*
X140520406Y-111541640D01*
X140559563Y-111238476D01*
X140518587Y-110883317D01*
X140402546Y-110506994D01*
X140216509Y-110140338D01*
X140102227Y-109974716D01*
X139982401Y-109786613D01*
X139915572Y-109621514D01*
X139910571Y-109583155D01*
X139848573Y-109355267D01*
X139689259Y-109186976D01*
X139472655Y-109120298D01*
X139469645Y-109120286D01*
X139321497Y-109106923D01*
X139282115Y-109038168D01*
X139303283Y-108920714D01*
X139371825Y-108753364D01*
X139449808Y-108663108D01*
X139537238Y-108577496D01*
X139547714Y-108543783D01*
X139505313Y-108452096D01*
X139402661Y-108326219D01*
X139276588Y-108202052D01*
X139163923Y-108115492D01*
X139101495Y-108102440D01*
X139099366Y-108106760D01*
X139052679Y-108092740D01*
X138957576Y-107978213D01*
X138859243Y-107827650D01*
X138719979Y-107619726D01*
X138589283Y-107462432D01*
X138522868Y-107407006D01*
X138168650Y-107222792D01*
X137799354Y-107037411D01*
X137440270Y-106862803D01*
X137116685Y-106710911D01*
X136853887Y-106593676D01*
X136677164Y-106523040D01*
X136618555Y-106507714D01*
X136518863Y-106447791D01*
X136499714Y-106371399D01*
X136436042Y-106269508D01*
X136280586Y-106182994D01*
X136086689Y-106129446D01*
X135907695Y-106126452D01*
X135835475Y-106152382D01*
X135768145Y-106157344D01*
X135724312Y-106053991D01*
X135701429Y-105907020D01*
X135666573Y-105723507D01*
X135623065Y-105675119D01*
X135605337Y-105693056D01*
X135576876Y-105826040D01*
X135592960Y-106001485D01*
X135606643Y-106167727D01*
X135551546Y-106217429D01*
X135438183Y-106263805D01*
X135309923Y-106363364D01*
X134993153Y-106667025D01*
X134768408Y-106886703D01*
X134622116Y-107037995D01*
X134540706Y-107136496D01*
X134510608Y-107197801D01*
X134518248Y-107237508D01*
X134533472Y-107255644D01*
X134566931Y-107363070D01*
X134526650Y-107431287D01*
X134487584Y-107537511D01*
X134564663Y-107651765D01*
X134655369Y-107732331D01*
X134683531Y-107705306D01*
X134685429Y-107648123D01*
X134714755Y-107541876D01*
X134746351Y-107523714D01*
X134818615Y-107465331D01*
X134885557Y-107351900D01*
X134924781Y-107195325D01*
X134856003Y-107072380D01*
X134848352Y-107064597D01*
X134780295Y-106977255D01*
X134821213Y-106920514D01*
X134926930Y-106875323D01*
X135097334Y-106841931D01*
X135355550Y-106825958D01*
X135637958Y-106830572D01*
X135921200Y-106852923D01*
X136108777Y-106892454D01*
X136250168Y-106966441D01*
X136394851Y-107092163D01*
X136399213Y-107096384D01*
X136643507Y-107333164D01*
X136550463Y-107011799D01*
X136426560Y-106735346D01*
X136278995Y-106600144D01*
X136172539Y-106535560D01*
X136196329Y-106510303D01*
X136228232Y-106508784D01*
X136356259Y-106555729D01*
X136526288Y-106674934D01*
X136591089Y-106732787D01*
X136804000Y-106910152D01*
X137060157Y-107088985D01*
X137152857Y-107145272D01*
X137388130Y-107290199D01*
X137633069Y-107456795D01*
X137853661Y-107619993D01*
X138015893Y-107754729D01*
X138084190Y-107831603D01*
X138167726Y-107881889D01*
X138211190Y-107886572D01*
X138303783Y-107930123D01*
X138314000Y-107963426D01*
X138358460Y-108006768D01*
X138386571Y-107995429D01*
X138449638Y-108010721D01*
X138459143Y-108057670D01*
X138501649Y-108168612D01*
X138533328Y-108189490D01*
X138598255Y-108271536D01*
X138645640Y-108424479D01*
X138696751Y-108624074D01*
X138750330Y-108759114D01*
X138785234Y-108882435D01*
X138771066Y-108929315D01*
X138776580Y-108973220D01*
X138794461Y-108975143D01*
X138855413Y-109036238D01*
X138874618Y-109120286D01*
X138852361Y-109237750D01*
X138810486Y-109265429D01*
X138768729Y-109332111D01*
X138755700Y-109512847D01*
X138760567Y-109628000D01*
X138772840Y-109838547D01*
X138764056Y-109924661D01*
X138723973Y-109906647D01*
X138659913Y-109827572D01*
X138549075Y-109657826D01*
X138490469Y-109533577D01*
X138420836Y-109432901D01*
X138344049Y-109451575D01*
X138291117Y-109568914D01*
X138283494Y-109671656D01*
X138263096Y-109841277D01*
X138210923Y-109935603D01*
X138186033Y-109981610D01*
X138237156Y-109990032D01*
X138284955Y-110014177D01*
X138206092Y-110091240D01*
X138200870Y-110095115D01*
X138107744Y-110188654D01*
X138134116Y-110272250D01*
X138155014Y-110294686D01*
X138221256Y-110348539D01*
X138208748Y-110282204D01*
X138201678Y-110263286D01*
X138195424Y-110157550D01*
X138233664Y-110136286D01*
X138258776Y-110153885D01*
X138842883Y-110153885D01*
X138869633Y-110136286D01*
X138920011Y-110200556D01*
X138982202Y-110365822D01*
X139022386Y-110513592D01*
X139220033Y-110513592D01*
X139224674Y-110280074D01*
X139232955Y-110136286D01*
X139260734Y-109748875D01*
X139294388Y-109487496D01*
X139343544Y-109333088D01*
X139417834Y-109266586D01*
X139526887Y-109268930D01*
X139650636Y-109309479D01*
X139738616Y-109410520D01*
X139765428Y-109549795D01*
X139812621Y-109755930D01*
X139892428Y-109890706D01*
X140128230Y-110212160D01*
X140306669Y-110559234D01*
X140405706Y-110884587D01*
X140418571Y-111020896D01*
X140404550Y-111167583D01*
X140339965Y-111203985D01*
X140255286Y-111184683D01*
X140078308Y-111119786D01*
X139960276Y-111057449D01*
X139932268Y-111016235D01*
X139961711Y-111009350D01*
X140036328Y-110944130D01*
X140087676Y-110789052D01*
X140106920Y-110598684D01*
X140085227Y-110427592D01*
X140063912Y-110378126D01*
X140014439Y-110309124D01*
X140008517Y-110359699D01*
X140025178Y-110462857D01*
X140019981Y-110688020D01*
X139964603Y-110815609D01*
X139905450Y-110880925D01*
X139876550Y-110853942D01*
X139868548Y-110713418D01*
X139869382Y-110599434D01*
X139862884Y-110380167D01*
X139821059Y-110255671D01*
X139722273Y-110176224D01*
X139674714Y-110152008D01*
X139533854Y-110063974D01*
X139475143Y-109987273D01*
X139475143Y-109987183D01*
X139419462Y-109920917D01*
X139400018Y-109918572D01*
X139358080Y-109959560D01*
X139396745Y-110054555D01*
X139487724Y-110161603D01*
X139602724Y-110238747D01*
X139620209Y-110245118D01*
X139730150Y-110308744D01*
X139765283Y-110379443D01*
X139710687Y-110412506D01*
X139674714Y-110408429D01*
X139611185Y-110451119D01*
X139603951Y-110597380D01*
X139649107Y-110818712D01*
X139742750Y-111086617D01*
X139779088Y-111170429D01*
X139897469Y-111392071D01*
X140020708Y-111502963D01*
X140191114Y-111532585D01*
X140291571Y-111527497D01*
X140398915Y-111547858D01*
X140418571Y-111579684D01*
X140357817Y-111692860D01*
X140217093Y-111748195D01*
X140092000Y-111732486D01*
X139956973Y-111646593D01*
X139803998Y-111505888D01*
X139677146Y-111356412D01*
X139620490Y-111244206D01*
X139620286Y-111239707D01*
X139577413Y-111154349D01*
X139469249Y-111005011D01*
X139409907Y-110931830D01*
X139302411Y-110793440D01*
X139242533Y-110669370D01*
X139220033Y-110513592D01*
X139022386Y-110513592D01*
X139022655Y-110514579D01*
X139070158Y-110746365D01*
X139072090Y-110885277D01*
X139026667Y-110976820D01*
X139003544Y-111001844D01*
X138940024Y-111049840D01*
X138907356Y-111013413D01*
X138895654Y-110868658D01*
X138894571Y-110738344D01*
X138886301Y-110500182D01*
X138865249Y-110310996D01*
X138850521Y-110251078D01*
X138842883Y-110153885D01*
X138258776Y-110153885D01*
X138310240Y-110189951D01*
X138314000Y-110213140D01*
X138362786Y-110256445D01*
X138404714Y-110243897D01*
X138422482Y-110251112D01*
X138345512Y-110329907D01*
X138330583Y-110343224D01*
X138232221Y-110461273D01*
X138239869Y-110534465D01*
X138308054Y-110534552D01*
X138314000Y-110511190D01*
X138370242Y-110426656D01*
X138483999Y-110392586D01*
X138571070Y-110431539D01*
X138574442Y-110491026D01*
X138555251Y-110492347D01*
X138437014Y-110494352D01*
X138447340Y-110563713D01*
X138495607Y-110618546D01*
X138571577Y-110721068D01*
X138533109Y-110789371D01*
X138518934Y-110798863D01*
X138463834Y-110849963D01*
X138513571Y-110860889D01*
X138588608Y-110916332D01*
X138600031Y-111025103D01*
X138549857Y-111098058D01*
X138551470Y-111113027D01*
X138586143Y-111106384D01*
X138652670Y-111145274D01*
X138660813Y-111188571D01*
X138749428Y-111188571D01*
X138785714Y-111152286D01*
X138822000Y-111188571D01*
X138785714Y-111224857D01*
X138749428Y-111188571D01*
X138660813Y-111188571D01*
X138676247Y-111270627D01*
X138658381Y-111430738D01*
X138653604Y-111442571D01*
X139039714Y-111442571D01*
X139066267Y-111382837D01*
X139088095Y-111394191D01*
X139096781Y-111480316D01*
X139088095Y-111490952D01*
X139044952Y-111480991D01*
X139039714Y-111442571D01*
X138653604Y-111442571D01*
X138600579Y-111573903D01*
X138571456Y-111610177D01*
X138502369Y-111710992D01*
X138504764Y-111754288D01*
X138505372Y-111844252D01*
X138435499Y-111989505D01*
X138324346Y-112139840D01*
X138229911Y-112226829D01*
X138178994Y-112277143D01*
X138241428Y-112277143D01*
X138277714Y-112240857D01*
X138314000Y-112277143D01*
X138277714Y-112313429D01*
X138241428Y-112277143D01*
X138178994Y-112277143D01*
X138135039Y-112320577D01*
X138096384Y-112404783D01*
X138124670Y-112438102D01*
X138181190Y-112414664D01*
X138235126Y-112412105D01*
X138217297Y-112501095D01*
X138189706Y-112592475D01*
X138221809Y-112572160D01*
X138285864Y-112494857D01*
X138385451Y-112405487D01*
X138410345Y-112422286D01*
X139039714Y-112422286D01*
X139076000Y-112386000D01*
X139112286Y-112422286D01*
X139083359Y-112451213D01*
X139277987Y-112451213D01*
X139293214Y-112378495D01*
X139298380Y-112364727D01*
X139355871Y-112275861D01*
X139388556Y-112275223D01*
X139380415Y-112351993D01*
X139339005Y-112405352D01*
X139277987Y-112451213D01*
X139083359Y-112451213D01*
X139076000Y-112458571D01*
X139039714Y-112422286D01*
X138410345Y-112422286D01*
X138437232Y-112440429D01*
X138529207Y-112524842D01*
X138566283Y-112531143D01*
X138671898Y-112589754D01*
X138680289Y-112603714D01*
X139112286Y-112603714D01*
X139138838Y-112543980D01*
X139160667Y-112555333D01*
X139169352Y-112641459D01*
X139160667Y-112652095D01*
X139117523Y-112642133D01*
X139112286Y-112603714D01*
X138680289Y-112603714D01*
X138704866Y-112644600D01*
X138776773Y-112719639D01*
X138821487Y-112712888D01*
X138878093Y-112735771D01*
X138894571Y-112826032D01*
X138908815Y-112934602D01*
X138974243Y-112916767D01*
X139011799Y-112887053D01*
X139098268Y-112829215D01*
X139109075Y-112883220D01*
X139102513Y-112918286D01*
X139052533Y-113022489D01*
X139016075Y-113038209D01*
X138929643Y-113080966D01*
X138823546Y-113182503D01*
X138716210Y-113277893D01*
X138655293Y-113251772D01*
X138650494Y-113241699D01*
X138634797Y-113234432D01*
X138650714Y-113342205D01*
X138654035Y-113358396D01*
X138671405Y-113499289D01*
X138632624Y-113525094D01*
X138602537Y-113509776D01*
X138538041Y-113494166D01*
X138553390Y-113571524D01*
X138560509Y-113672039D01*
X138529437Y-113692286D01*
X138467062Y-113751100D01*
X138459143Y-113801143D01*
X138498329Y-113897719D01*
X138531714Y-113910000D01*
X138597100Y-113968336D01*
X138604286Y-114012810D01*
X138658704Y-114126416D01*
X138695000Y-114148017D01*
X138761319Y-114196925D01*
X138697177Y-114241939D01*
X138517233Y-114276675D01*
X138370481Y-114289311D01*
X138176000Y-114315021D01*
X138061773Y-114357741D01*
X138048267Y-114381714D01*
X137992709Y-114435327D01*
X137840817Y-114473708D01*
X137806000Y-114477603D01*
X137615437Y-114511371D01*
X137489701Y-114562606D01*
X137483057Y-114568317D01*
X137360046Y-114622822D01*
X137251483Y-114635714D01*
X137104832Y-114663020D01*
X137046567Y-114704133D01*
X136954787Y-114744569D01*
X136770271Y-114769108D01*
X136661284Y-114772519D01*
X136342014Y-114782345D01*
X136139484Y-114815665D01*
X136136809Y-114817143D01*
X139330000Y-114817143D01*
X139366286Y-114780857D01*
X139402571Y-114817143D01*
X139366286Y-114853429D01*
X139330000Y-114817143D01*
X136136809Y-114817143D01*
X136026392Y-114878134D01*
X136002221Y-114909000D01*
X135898633Y-114955303D01*
X135681500Y-114929668D01*
X135672647Y-114927693D01*
X135467526Y-114896090D01*
X135313783Y-114897669D01*
X135293480Y-114903135D01*
X135206142Y-114887930D01*
X135193429Y-114846679D01*
X135172402Y-114789740D01*
X135106343Y-114838914D01*
X134988972Y-114915194D01*
X134943057Y-114924889D01*
X134927024Y-114894145D01*
X134975714Y-114853429D01*
X135001429Y-114810248D01*
X134902580Y-114787539D01*
X134728564Y-114781968D01*
X134436644Y-114752025D01*
X134204196Y-114648366D01*
X134128490Y-114594698D01*
X133987901Y-114465786D01*
X133924623Y-114363061D01*
X133927463Y-114338900D01*
X133929476Y-114280669D01*
X133910680Y-114279653D01*
X133785804Y-114282833D01*
X133770248Y-114281451D01*
X133707923Y-114211303D01*
X133627850Y-114036124D01*
X133541866Y-113792980D01*
X133461808Y-113518937D01*
X133399512Y-113251059D01*
X133366815Y-113026412D01*
X133366102Y-113015904D01*
X133341248Y-112828358D01*
X133301528Y-112713430D01*
X133291395Y-112703192D01*
X133248374Y-112611685D01*
X133234000Y-112476704D01*
X133240661Y-112347578D01*
X133277073Y-112349638D01*
X133332957Y-112421020D01*
X133440206Y-112508659D01*
X133619331Y-112545653D01*
X133793036Y-112548126D01*
X134045869Y-112524096D01*
X134232549Y-112445538D01*
X134410835Y-112299665D01*
X134650432Y-112080968D01*
X134811531Y-111949508D01*
X134916595Y-111888250D01*
X134966885Y-111878000D01*
X135056050Y-111815095D01*
X135085724Y-111638676D01*
X135056859Y-111367187D01*
X134970409Y-111019072D01*
X134913416Y-110843612D01*
X134808235Y-110548594D01*
X134711744Y-110292909D01*
X134639631Y-110117594D01*
X134621350Y-110079583D01*
X134586819Y-109971752D01*
X134648953Y-109897869D01*
X134763544Y-109843704D01*
X134948115Y-109791715D01*
X135137462Y-109808819D01*
X135275327Y-109849078D01*
X135469238Y-109903592D01*
X135573941Y-109900040D01*
X135627082Y-109848872D01*
X135735982Y-109786343D01*
X135797328Y-109794700D01*
X135874757Y-109881985D01*
X135858638Y-110007797D01*
X135767167Y-110118038D01*
X135675888Y-110155725D01*
X135571453Y-110182906D01*
X135602510Y-110219209D01*
X135646509Y-110239951D01*
X135809745Y-110238793D01*
X135999488Y-110120371D01*
X136197383Y-109905454D01*
X136385073Y-109614814D01*
X136544205Y-109269221D01*
X136571846Y-109192857D01*
X136653751Y-108972512D01*
X136732949Y-108784212D01*
X136736957Y-108775681D01*
X136780267Y-108635996D01*
X136770170Y-108568265D01*
X136722702Y-108601910D01*
X136648964Y-108724188D01*
X136572105Y-108887261D01*
X136515272Y-109043291D01*
X136499714Y-109127201D01*
X136465177Y-109235438D01*
X136379951Y-109403105D01*
X136271616Y-109584502D01*
X136167749Y-109733928D01*
X136095929Y-109805684D01*
X136089523Y-109806920D01*
X135939399Y-109776642D01*
X135726011Y-109708863D01*
X135506202Y-109624606D01*
X135336814Y-109544889D01*
X135284143Y-109509087D01*
X135203723Y-109369507D01*
X135193429Y-109306898D01*
X135161954Y-109204252D01*
X135094019Y-109215558D01*
X135029355Y-109331233D01*
X135024752Y-109347585D01*
X134954003Y-109462086D01*
X134834859Y-109463237D01*
X134712066Y-109466190D01*
X134685429Y-109534683D01*
X134639942Y-109612688D01*
X134504000Y-109610524D01*
X134368450Y-109607118D01*
X134324919Y-109689308D01*
X134323664Y-109729064D01*
X134348381Y-109888333D01*
X134400872Y-109888333D01*
X134414215Y-109794207D01*
X134438988Y-109793083D01*
X134456312Y-109890212D01*
X134444717Y-109932179D01*
X134412493Y-109959667D01*
X134400872Y-109888333D01*
X134348381Y-109888333D01*
X134354897Y-109930320D01*
X134430168Y-110180209D01*
X134525102Y-110406622D01*
X134587236Y-110508855D01*
X134660439Y-110654996D01*
X134700304Y-110799158D01*
X134713284Y-110927211D01*
X134661694Y-110961066D01*
X134510950Y-110926158D01*
X134172209Y-110866336D01*
X133896139Y-110891765D01*
X133716962Y-110994714D01*
X133622109Y-111116855D01*
X133621745Y-111181346D01*
X133728576Y-111192305D01*
X133955307Y-111153846D01*
X134104857Y-111120346D01*
X134201670Y-111104860D01*
X134178724Y-111126859D01*
X134032932Y-111220907D01*
X133975173Y-111271747D01*
X134345271Y-111271747D01*
X134354887Y-111229042D01*
X134387330Y-111224857D01*
X134439922Y-111180297D01*
X134427724Y-111146292D01*
X134449770Y-111123289D01*
X134565355Y-111164866D01*
X134604870Y-111184441D01*
X134754765Y-111268554D01*
X134828876Y-111323081D01*
X134830571Y-111327140D01*
X134770018Y-111343867D01*
X134629922Y-111337152D01*
X134472632Y-111314110D01*
X134360495Y-111281859D01*
X134345271Y-111271747D01*
X133975173Y-111271747D01*
X133973969Y-111272806D01*
X133835982Y-111341601D01*
X133642473Y-111370000D01*
X133449418Y-111396703D01*
X133354801Y-111441751D01*
X133848815Y-111441751D01*
X133864925Y-111416408D01*
X133961910Y-111373651D01*
X134007538Y-111461104D01*
X134008095Y-111478857D01*
X134104857Y-111478857D01*
X134141143Y-111442571D01*
X134177429Y-111478857D01*
X134612857Y-111478857D01*
X134649143Y-111442571D01*
X134685429Y-111478857D01*
X134649143Y-111515143D01*
X134612857Y-111478857D01*
X134177429Y-111478857D01*
X134141143Y-111515143D01*
X134104857Y-111478857D01*
X134008095Y-111478857D01*
X133977636Y-111575551D01*
X133951902Y-111587714D01*
X133865877Y-111536760D01*
X133848815Y-111441751D01*
X133354801Y-111441751D01*
X133314971Y-111460714D01*
X133264952Y-111486323D01*
X133243237Y-111421388D01*
X133246057Y-111244316D01*
X133254803Y-111116000D01*
X133317196Y-110622665D01*
X133434380Y-110187670D01*
X133556490Y-109881162D01*
X133680181Y-109597288D01*
X133758977Y-109402717D01*
X133808646Y-109254893D01*
X133844950Y-109111260D01*
X133849775Y-109089470D01*
X133872154Y-108950375D01*
X133842265Y-108928098D01*
X133789534Y-108965808D01*
X133688815Y-109088196D01*
X133578671Y-109275097D01*
X133561055Y-109310946D01*
X133477579Y-109465503D01*
X133418181Y-109537396D01*
X133408662Y-109536852D01*
X133402175Y-109454780D01*
X133415263Y-109270378D01*
X133442794Y-109041102D01*
X133473839Y-108800539D01*
X133491654Y-108626433D01*
X133492633Y-108558749D01*
X133453370Y-108605684D01*
X133370652Y-108744392D01*
X133319559Y-108837750D01*
X133279475Y-108916770D01*
X133246808Y-108998741D01*
X133220798Y-109098578D01*
X133200689Y-109231196D01*
X133185722Y-109411510D01*
X133175138Y-109654433D01*
X133168179Y-109974883D01*
X133164088Y-110387772D01*
X133162106Y-110908016D01*
X133161474Y-111550529D01*
X133161437Y-111886210D01*
X133234964Y-111886210D01*
X133308602Y-111618660D01*
X133377154Y-111482154D01*
X133432006Y-111483473D01*
X133460223Y-111567018D01*
X133597968Y-111567018D01*
X133619629Y-111520948D01*
X133652397Y-111557794D01*
X133759382Y-111635859D01*
X133880435Y-111680990D01*
X134063302Y-111683515D01*
X134283814Y-111631917D01*
X134315863Y-111619754D01*
X134576571Y-111514258D01*
X134395143Y-111658229D01*
X134200167Y-111757485D01*
X133981089Y-111790426D01*
X133780028Y-111761873D01*
X133639103Y-111676644D01*
X133597968Y-111567018D01*
X133460223Y-111567018D01*
X133480061Y-111625753D01*
X133495492Y-111703556D01*
X133564554Y-111931607D01*
X133685241Y-112039499D01*
X133888820Y-112050779D01*
X133946065Y-112042915D01*
X134135562Y-111995332D01*
X134257091Y-111932603D01*
X134267032Y-111921207D01*
X134313508Y-111889144D01*
X134321460Y-111936132D01*
X134258938Y-112024994D01*
X134101076Y-112119207D01*
X133895224Y-112197555D01*
X133688734Y-112238820D01*
X133641409Y-112240857D01*
X133391508Y-112204065D01*
X133257424Y-112088462D01*
X133234964Y-111886210D01*
X133161437Y-111886210D01*
X133161429Y-111948544D01*
X133162075Y-112674572D01*
X133164345Y-113268739D01*
X133168738Y-113744320D01*
X133175749Y-114114593D01*
X133185878Y-114392833D01*
X133199620Y-114592318D01*
X133217475Y-114726323D01*
X133239939Y-114808126D01*
X133267510Y-114851003D01*
X133270286Y-114853429D01*
X133358443Y-114962286D01*
X134758000Y-114962286D01*
X134794286Y-114926000D01*
X134830571Y-114962286D01*
X134794286Y-114998572D01*
X134758000Y-114962286D01*
X133358443Y-114962286D01*
X133361973Y-114966644D01*
X133372810Y-115002854D01*
X135338571Y-115002854D01*
X135391252Y-114928953D01*
X135411143Y-114926000D01*
X135481827Y-114950760D01*
X135483714Y-114958003D01*
X135432861Y-115019962D01*
X135411143Y-115034857D01*
X135344269Y-115029103D01*
X135338571Y-115002854D01*
X133372810Y-115002854D01*
X133379143Y-115024012D01*
X133434507Y-115128548D01*
X133464813Y-115161065D01*
X138708333Y-115161065D01*
X138779667Y-115149444D01*
X138873793Y-115162786D01*
X138874917Y-115187560D01*
X138777788Y-115204884D01*
X138735821Y-115193289D01*
X138708333Y-115161065D01*
X133464813Y-115161065D01*
X133550099Y-115252572D01*
X135701429Y-115252572D01*
X135737714Y-115216286D01*
X135774000Y-115252572D01*
X135737714Y-115288857D01*
X135701429Y-115252572D01*
X133550099Y-115252572D01*
X133578493Y-115283036D01*
X133777938Y-115458464D01*
X133999681Y-115625822D01*
X134002436Y-115627524D01*
X138555905Y-115627524D01*
X138565867Y-115584380D01*
X138604286Y-115579143D01*
X138664020Y-115605696D01*
X138652667Y-115627524D01*
X138566541Y-115636209D01*
X138555905Y-115627524D01*
X134002436Y-115627524D01*
X134210559Y-115756096D01*
X134223751Y-115762921D01*
X134403834Y-115858466D01*
X134488136Y-115908206D01*
X137806867Y-115908206D01*
X137877515Y-115837159D01*
X138030552Y-115759654D01*
X138053208Y-115751087D01*
X138211398Y-115692720D01*
X138294048Y-115661175D01*
X138295857Y-115660373D01*
X138313309Y-115707559D01*
X138314000Y-115728061D01*
X138254287Y-115793816D01*
X138115368Y-115871214D01*
X137957576Y-115931950D01*
X137844492Y-115948330D01*
X137806867Y-115908206D01*
X134488136Y-115908206D01*
X134521995Y-115928183D01*
X134540286Y-115942000D01*
X134655895Y-116023050D01*
X134818703Y-116106902D01*
X134954891Y-116156820D01*
X134977764Y-116159714D01*
X135080921Y-116205518D01*
X135114753Y-116232286D01*
X137007714Y-116232286D01*
X137032474Y-116161601D01*
X137039717Y-116159714D01*
X137079633Y-116192476D01*
X137255603Y-116192476D01*
X137262228Y-116158883D01*
X137339848Y-116098724D01*
X137423029Y-116088628D01*
X137443143Y-116115664D01*
X137386217Y-116162273D01*
X137330516Y-116187404D01*
X137255603Y-116192476D01*
X137079633Y-116192476D01*
X137101676Y-116210568D01*
X137116571Y-116232286D01*
X137110817Y-116299159D01*
X137084569Y-116304857D01*
X137010668Y-116252177D01*
X137007714Y-116232286D01*
X135114753Y-116232286D01*
X135214606Y-116311289D01*
X135233896Y-116325416D01*
X136289358Y-116325416D01*
X136362076Y-116340642D01*
X136375844Y-116345809D01*
X136464711Y-116403299D01*
X136465349Y-116435984D01*
X136388579Y-116427844D01*
X136335219Y-116386434D01*
X136289358Y-116325416D01*
X135233896Y-116325416D01*
X135391477Y-116440818D01*
X135461622Y-116478112D01*
X135871518Y-116478112D01*
X135882857Y-116450000D01*
X135948070Y-116380768D01*
X135959711Y-116377429D01*
X135990882Y-116433577D01*
X135991714Y-116450000D01*
X135935925Y-116519783D01*
X135914860Y-116522571D01*
X135871518Y-116478112D01*
X135461622Y-116478112D01*
X135613494Y-116558857D01*
X136064286Y-116558857D01*
X136100571Y-116522571D01*
X136136857Y-116558857D01*
X136100571Y-116595143D01*
X136064286Y-116558857D01*
X135613494Y-116558857D01*
X135614967Y-116559640D01*
X135646529Y-116572981D01*
X135807674Y-116653917D01*
X135883463Y-116723734D01*
X135882803Y-116740373D01*
X135887588Y-116757636D01*
X136023190Y-116757636D01*
X136094524Y-116746015D01*
X136188650Y-116759358D01*
X136189774Y-116784131D01*
X136092645Y-116801455D01*
X136050679Y-116789860D01*
X136023190Y-116757636D01*
X135887588Y-116757636D01*
X135901598Y-116808177D01*
X136033972Y-116855975D01*
X136249731Y-116883636D01*
X136518680Y-116891031D01*
X136810621Y-116878030D01*
G37*
X136810621Y-116878030D02*
X137095362Y-116844502D01*
X137342704Y-116790317D01*
X137462077Y-116747175D01*
X137700088Y-116650478D01*
X137921191Y-116576766D01*
X137975673Y-116562761D01*
X138173677Y-116479979D01*
X138368162Y-116343574D01*
X138374074Y-116338157D01*
X138521338Y-116219443D01*
X138631585Y-116160985D01*
X138641952Y-116159714D01*
X138738353Y-116106690D01*
X138822000Y-116014571D01*
X138960169Y-115900695D01*
X139073878Y-115869258D01*
X139216678Y-115823783D01*
X139402225Y-115709565D01*
X139475143Y-115651714D01*
X139634985Y-115522082D01*
X139747134Y-115444225D01*
X139771499Y-115434170D01*
X139840144Y-115370417D01*
X139935766Y-115203181D01*
X140043279Y-114967894D01*
X140147596Y-114699987D01*
X140233632Y-114434891D01*
X140281426Y-114236572D01*
X140329108Y-113918502D01*
X140359067Y-113600877D01*
X140370623Y-113314833D01*
X140363095Y-113091507D01*
X140335803Y-112962035D01*
X140309714Y-112942346D01*
X140271367Y-112881620D01*
X140244260Y-112704101D01*
X140232762Y-112442026D01*
X140236978Y-112158258D01*
X140262583Y-111975555D01*
X140320063Y-111850249D01*
X140396047Y-111761979D01*
X140520406Y-111541640D01*
X140559563Y-111238476D01*
X140518587Y-110883317D01*
X140402546Y-110506994D01*
X140216509Y-110140338D01*
X140102227Y-109974716D01*
X139982401Y-109786613D01*
X139915572Y-109621514D01*
X139910571Y-109583155D01*
X139848573Y-109355267D01*
X139689259Y-109186976D01*
X139472655Y-109120298D01*
X139469645Y-109120286D01*
X139321497Y-109106923D01*
X139282115Y-109038168D01*
X139303283Y-108920714D01*
X139371825Y-108753364D01*
X139449808Y-108663108D01*
X139537238Y-108577496D01*
X139547714Y-108543783D01*
X139505313Y-108452096D01*
X139402661Y-108326219D01*
X139276588Y-108202052D01*
X139163923Y-108115492D01*
X139101495Y-108102440D01*
X139099366Y-108106760D01*
X139052679Y-108092740D01*
X138957576Y-107978213D01*
X138859243Y-107827650D01*
X138719979Y-107619726D01*
X138589283Y-107462432D01*
X138522868Y-107407006D01*
X138168650Y-107222792D01*
X137799354Y-107037411D01*
X137440270Y-106862803D01*
X137116685Y-106710911D01*
X136853887Y-106593676D01*
X136677164Y-106523040D01*
X136618555Y-106507714D01*
X136518863Y-106447791D01*
X136499714Y-106371399D01*
X136436042Y-106269508D01*
X136280586Y-106182994D01*
X136086689Y-106129446D01*
X135907695Y-106126452D01*
X135835475Y-106152382D01*
X135768145Y-106157344D01*
X135724312Y-106053991D01*
X135701429Y-105907020D01*
X135666573Y-105723507D01*
X135623065Y-105675119D01*
X135605337Y-105693056D01*
X135576876Y-105826040D01*
X135592960Y-106001485D01*
X135606643Y-106167727D01*
X135551546Y-106217429D01*
X135438183Y-106263805D01*
X135309923Y-106363364D01*
X134993153Y-106667025D01*
X134768408Y-106886703D01*
X134622116Y-107037995D01*
X134540706Y-107136496D01*
X134510608Y-107197801D01*
X134518248Y-107237508D01*
X134533472Y-107255644D01*
X134566931Y-107363070D01*
X134526650Y-107431287D01*
X134487584Y-107537511D01*
X134564663Y-107651765D01*
X134655369Y-107732331D01*
X134683531Y-107705306D01*
X134685429Y-107648123D01*
X134714755Y-107541876D01*
X134746351Y-107523714D01*
X134818615Y-107465331D01*
X134885557Y-107351900D01*
X134924781Y-107195325D01*
X134856003Y-107072380D01*
X134848352Y-107064597D01*
X134780295Y-106977255D01*
X134821213Y-106920514D01*
X134926930Y-106875323D01*
X135097334Y-106841931D01*
X135355550Y-106825958D01*
X135637958Y-106830572D01*
X135921200Y-106852923D01*
X136108777Y-106892454D01*
X136250168Y-106966441D01*
X136394851Y-107092163D01*
X136399213Y-107096384D01*
X136643507Y-107333164D01*
X136550463Y-107011799D01*
X136426560Y-106735346D01*
X136278995Y-106600144D01*
X136172539Y-106535560D01*
X136196329Y-106510303D01*
X136228232Y-106508784D01*
X136356259Y-106555729D01*
X136526288Y-106674934D01*
X136591089Y-106732787D01*
X136804000Y-106910152D01*
X137060157Y-107088985D01*
X137152857Y-107145272D01*
X137388130Y-107290199D01*
X137633069Y-107456795D01*
X137853661Y-107619993D01*
X138015893Y-107754729D01*
X138084190Y-107831603D01*
X138167726Y-107881889D01*
X138211190Y-107886572D01*
X138303783Y-107930123D01*
X138314000Y-107963426D01*
X138358460Y-108006768D01*
X138386571Y-107995429D01*
X138449638Y-108010721D01*
X138459143Y-108057670D01*
X138501649Y-108168612D01*
X138533328Y-108189490D01*
X138598255Y-108271536D01*
X138645640Y-108424479D01*
X138696751Y-108624074D01*
X138750330Y-108759114D01*
X138785234Y-108882435D01*
X138771066Y-108929315D01*
X138776580Y-108973220D01*
X138794461Y-108975143D01*
X138855413Y-109036238D01*
X138874618Y-109120286D01*
X138852361Y-109237750D01*
X138810486Y-109265429D01*
X138768729Y-109332111D01*
X138755700Y-109512847D01*
X138760567Y-109628000D01*
X138772840Y-109838547D01*
X138764056Y-109924661D01*
X138723973Y-109906647D01*
X138659913Y-109827572D01*
X138549075Y-109657826D01*
X138490469Y-109533577D01*
X138420836Y-109432901D01*
X138344049Y-109451575D01*
X138291117Y-109568914D01*
X138283494Y-109671656D01*
X138263096Y-109841277D01*
X138210923Y-109935603D01*
X138186033Y-109981610D01*
X138237156Y-109990032D01*
X138284955Y-110014177D01*
X138206092Y-110091240D01*
X138200870Y-110095115D01*
X138107744Y-110188654D01*
X138134116Y-110272250D01*
X138155014Y-110294686D01*
X138221256Y-110348539D01*
X138208748Y-110282204D01*
X138201678Y-110263286D01*
X138195424Y-110157550D01*
X138233664Y-110136286D01*
X138258776Y-110153885D01*
X138842883Y-110153885D01*
X138869633Y-110136286D01*
X138920011Y-110200556D01*
X138982202Y-110365822D01*
X139022386Y-110513592D01*
X139220033Y-110513592D01*
X139224674Y-110280074D01*
X139232955Y-110136286D01*
X139260734Y-109748875D01*
X139294388Y-109487496D01*
X139343544Y-109333088D01*
X139417834Y-109266586D01*
X139526887Y-109268930D01*
X139650636Y-109309479D01*
X139738616Y-109410520D01*
X139765428Y-109549795D01*
X139812621Y-109755930D01*
X139892428Y-109890706D01*
X140128230Y-110212160D01*
X140306669Y-110559234D01*
X140405706Y-110884587D01*
X140418571Y-111020896D01*
X140404550Y-111167583D01*
X140339965Y-111203985D01*
X140255286Y-111184683D01*
X140078308Y-111119786D01*
X139960276Y-111057449D01*
X139932268Y-111016235D01*
X139961711Y-111009350D01*
X140036328Y-110944130D01*
X140087676Y-110789052D01*
X140106920Y-110598684D01*
X140085227Y-110427592D01*
X140063912Y-110378126D01*
X140014439Y-110309124D01*
X140008517Y-110359699D01*
X140025178Y-110462857D01*
X140019981Y-110688020D01*
X139964603Y-110815609D01*
X139905450Y-110880925D01*
X139876550Y-110853942D01*
X139868548Y-110713418D01*
X139869382Y-110599434D01*
X139862884Y-110380167D01*
X139821059Y-110255671D01*
X139722273Y-110176224D01*
X139674714Y-110152008D01*
X139533854Y-110063974D01*
X139475143Y-109987273D01*
X139475143Y-109987183D01*
X139419462Y-109920917D01*
X139400018Y-109918572D01*
X139358080Y-109959560D01*
X139396745Y-110054555D01*
X139487724Y-110161603D01*
X139602724Y-110238747D01*
X139620209Y-110245118D01*
X139730150Y-110308744D01*
X139765283Y-110379443D01*
X139710687Y-110412506D01*
X139674714Y-110408429D01*
X139611185Y-110451119D01*
X139603951Y-110597380D01*
X139649107Y-110818712D01*
X139742750Y-111086617D01*
X139779088Y-111170429D01*
X139897469Y-111392071D01*
X140020708Y-111502963D01*
X140191114Y-111532585D01*
X140291571Y-111527497D01*
X140398915Y-111547858D01*
X140418571Y-111579684D01*
X140357817Y-111692860D01*
X140217093Y-111748195D01*
X140092000Y-111732486D01*
X139956973Y-111646593D01*
X139803998Y-111505888D01*
X139677146Y-111356412D01*
X139620490Y-111244206D01*
X139620286Y-111239707D01*
X139577413Y-111154349D01*
X139469249Y-111005011D01*
X139409907Y-110931830D01*
X139302411Y-110793440D01*
X139242533Y-110669370D01*
X139220033Y-110513592D01*
X139022386Y-110513592D01*
X139022655Y-110514579D01*
X139070158Y-110746365D01*
X139072090Y-110885277D01*
X139026667Y-110976820D01*
X139003544Y-111001844D01*
X138940024Y-111049840D01*
X138907356Y-111013413D01*
X138895654Y-110868658D01*
X138894571Y-110738344D01*
X138886301Y-110500182D01*
X138865249Y-110310996D01*
X138850521Y-110251078D01*
X138842883Y-110153885D01*
X138258776Y-110153885D01*
X138310240Y-110189951D01*
X138314000Y-110213140D01*
X138362786Y-110256445D01*
X138404714Y-110243897D01*
X138422482Y-110251112D01*
X138345512Y-110329907D01*
X138330583Y-110343224D01*
X138232221Y-110461273D01*
X138239869Y-110534465D01*
X138308054Y-110534552D01*
X138314000Y-110511190D01*
X138370242Y-110426656D01*
X138483999Y-110392586D01*
X138571070Y-110431539D01*
X138574442Y-110491026D01*
X138555251Y-110492347D01*
X138437014Y-110494352D01*
X138447340Y-110563713D01*
X138495607Y-110618546D01*
X138571577Y-110721068D01*
X138533109Y-110789371D01*
X138518934Y-110798863D01*
X138463834Y-110849963D01*
X138513571Y-110860889D01*
X138588608Y-110916332D01*
X138600031Y-111025103D01*
X138549857Y-111098058D01*
X138551470Y-111113027D01*
X138586143Y-111106384D01*
X138652670Y-111145274D01*
X138660813Y-111188571D01*
X138749428Y-111188571D01*
X138785714Y-111152286D01*
X138822000Y-111188571D01*
X138785714Y-111224857D01*
X138749428Y-111188571D01*
X138660813Y-111188571D01*
X138676247Y-111270627D01*
X138658381Y-111430738D01*
X138653604Y-111442571D01*
X139039714Y-111442571D01*
X139066267Y-111382837D01*
X139088095Y-111394191D01*
X139096781Y-111480316D01*
X139088095Y-111490952D01*
X139044952Y-111480991D01*
X139039714Y-111442571D01*
X138653604Y-111442571D01*
X138600579Y-111573903D01*
X138571456Y-111610177D01*
X138502369Y-111710992D01*
X138504764Y-111754288D01*
X138505372Y-111844252D01*
X138435499Y-111989505D01*
X138324346Y-112139840D01*
X138229911Y-112226829D01*
X138178994Y-112277143D01*
X138241428Y-112277143D01*
X138277714Y-112240857D01*
X138314000Y-112277143D01*
X138277714Y-112313429D01*
X138241428Y-112277143D01*
X138178994Y-112277143D01*
X138135039Y-112320577D01*
X138096384Y-112404783D01*
X138124670Y-112438102D01*
X138181190Y-112414664D01*
X138235126Y-112412105D01*
X138217297Y-112501095D01*
X138189706Y-112592475D01*
X138221809Y-112572160D01*
X138285864Y-112494857D01*
X138385451Y-112405487D01*
X138410345Y-112422286D01*
X139039714Y-112422286D01*
X139076000Y-112386000D01*
X139112286Y-112422286D01*
X139083359Y-112451213D01*
X139277987Y-112451213D01*
X139293214Y-112378495D01*
X139298380Y-112364727D01*
X139355871Y-112275861D01*
X139388556Y-112275223D01*
X139380415Y-112351993D01*
X139339005Y-112405352D01*
X139277987Y-112451213D01*
X139083359Y-112451213D01*
X139076000Y-112458571D01*
X139039714Y-112422286D01*
X138410345Y-112422286D01*
X138437232Y-112440429D01*
X138529207Y-112524842D01*
X138566283Y-112531143D01*
X138671898Y-112589754D01*
X138680289Y-112603714D01*
X139112286Y-112603714D01*
X139138838Y-112543980D01*
X139160667Y-112555333D01*
X139169352Y-112641459D01*
X139160667Y-112652095D01*
X139117523Y-112642133D01*
X139112286Y-112603714D01*
X138680289Y-112603714D01*
X138704866Y-112644600D01*
X138776773Y-112719639D01*
X138821487Y-112712888D01*
X138878093Y-112735771D01*
X138894571Y-112826032D01*
X138908815Y-112934602D01*
X138974243Y-112916767D01*
X139011799Y-112887053D01*
X139098268Y-112829215D01*
X139109075Y-112883220D01*
X139102513Y-112918286D01*
X139052533Y-113022489D01*
X139016075Y-113038209D01*
X138929643Y-113080966D01*
X138823546Y-113182503D01*
X138716210Y-113277893D01*
X138655293Y-113251772D01*
X138650494Y-113241699D01*
X138634797Y-113234432D01*
X138650714Y-113342205D01*
X138654035Y-113358396D01*
X138671405Y-113499289D01*
X138632624Y-113525094D01*
X138602537Y-113509776D01*
X138538041Y-113494166D01*
X138553390Y-113571524D01*
X138560509Y-113672039D01*
X138529437Y-113692286D01*
X138467062Y-113751100D01*
X138459143Y-113801143D01*
X138498329Y-113897719D01*
X138531714Y-113910000D01*
X138597100Y-113968336D01*
X138604286Y-114012810D01*
X138658704Y-114126416D01*
X138695000Y-114148017D01*
X138761319Y-114196925D01*
X138697177Y-114241939D01*
X138517233Y-114276675D01*
X138370481Y-114289311D01*
X138176000Y-114315021D01*
X138061773Y-114357741D01*
X138048267Y-114381714D01*
X137992709Y-114435327D01*
X137840817Y-114473708D01*
X137806000Y-114477603D01*
X137615437Y-114511371D01*
X137489701Y-114562606D01*
X137483057Y-114568317D01*
X137360046Y-114622822D01*
X137251483Y-114635714D01*
X137104832Y-114663020D01*
X137046567Y-114704133D01*
X136954787Y-114744569D01*
X136770271Y-114769108D01*
X136661284Y-114772519D01*
X136342014Y-114782345D01*
X136139484Y-114815665D01*
X136136809Y-114817143D01*
X139330000Y-114817143D01*
X139366286Y-114780857D01*
X139402571Y-114817143D01*
X139366286Y-114853429D01*
X139330000Y-114817143D01*
X136136809Y-114817143D01*
X136026392Y-114878134D01*
X136002221Y-114909000D01*
X135898633Y-114955303D01*
X135681500Y-114929668D01*
X135672647Y-114927693D01*
X135467526Y-114896090D01*
X135313783Y-114897669D01*
X135293480Y-114903135D01*
X135206142Y-114887930D01*
X135193429Y-114846679D01*
X135172402Y-114789740D01*
X135106343Y-114838914D01*
X134988972Y-114915194D01*
X134943057Y-114924889D01*
X134927024Y-114894145D01*
X134975714Y-114853429D01*
X135001429Y-114810248D01*
X134902580Y-114787539D01*
X134728564Y-114781968D01*
X134436644Y-114752025D01*
X134204196Y-114648366D01*
X134128490Y-114594698D01*
X133987901Y-114465786D01*
X133924623Y-114363061D01*
X133927463Y-114338900D01*
X133929476Y-114280669D01*
X133910680Y-114279653D01*
X133785804Y-114282833D01*
X133770248Y-114281451D01*
X133707923Y-114211303D01*
X133627850Y-114036124D01*
X133541866Y-113792980D01*
X133461808Y-113518937D01*
X133399512Y-113251059D01*
X133366815Y-113026412D01*
X133366102Y-113015904D01*
X133341248Y-112828358D01*
X133301528Y-112713430D01*
X133291395Y-112703192D01*
X133248374Y-112611685D01*
X133234000Y-112476704D01*
X133240661Y-112347578D01*
X133277073Y-112349638D01*
X133332957Y-112421020D01*
X133440206Y-112508659D01*
X133619331Y-112545653D01*
X133793036Y-112548126D01*
X134045869Y-112524096D01*
X134232549Y-112445538D01*
X134410835Y-112299665D01*
X134650432Y-112080968D01*
X134811531Y-111949508D01*
X134916595Y-111888250D01*
X134966885Y-111878000D01*
X135056050Y-111815095D01*
X135085724Y-111638676D01*
X135056859Y-111367187D01*
X134970409Y-111019072D01*
X134913416Y-110843612D01*
X134808235Y-110548594D01*
X134711744Y-110292909D01*
X134639631Y-110117594D01*
X134621350Y-110079583D01*
X134586819Y-109971752D01*
X134648953Y-109897869D01*
X134763544Y-109843704D01*
X134948115Y-109791715D01*
X135137462Y-109808819D01*
X135275327Y-109849078D01*
X135469238Y-109903592D01*
X135573941Y-109900040D01*
X135627082Y-109848872D01*
X135735982Y-109786343D01*
X135797328Y-109794700D01*
X135874757Y-109881985D01*
X135858638Y-110007797D01*
X135767167Y-110118038D01*
X135675888Y-110155725D01*
X135571453Y-110182906D01*
X135602510Y-110219209D01*
X135646509Y-110239951D01*
X135809745Y-110238793D01*
X135999488Y-110120371D01*
X136197383Y-109905454D01*
X136385073Y-109614814D01*
X136544205Y-109269221D01*
X136571846Y-109192857D01*
X136653751Y-108972512D01*
X136732949Y-108784212D01*
X136736957Y-108775681D01*
X136780267Y-108635996D01*
X136770170Y-108568265D01*
X136722702Y-108601910D01*
X136648964Y-108724188D01*
X136572105Y-108887261D01*
X136515272Y-109043291D01*
X136499714Y-109127201D01*
X136465177Y-109235438D01*
X136379951Y-109403105D01*
X136271616Y-109584502D01*
X136167749Y-109733928D01*
X136095929Y-109805684D01*
X136089523Y-109806920D01*
X135939399Y-109776642D01*
X135726011Y-109708863D01*
X135506202Y-109624606D01*
X135336814Y-109544889D01*
X135284143Y-109509087D01*
X135203723Y-109369507D01*
X135193429Y-109306898D01*
X135161954Y-109204252D01*
X135094019Y-109215558D01*
X135029355Y-109331233D01*
X135024752Y-109347585D01*
X134954003Y-109462086D01*
X134834859Y-109463237D01*
X134712066Y-109466190D01*
X134685429Y-109534683D01*
X134639942Y-109612688D01*
X134504000Y-109610524D01*
X134368450Y-109607118D01*
X134324919Y-109689308D01*
X134323664Y-109729064D01*
X134348381Y-109888333D01*
X134400872Y-109888333D01*
X134414215Y-109794207D01*
X134438988Y-109793083D01*
X134456312Y-109890212D01*
X134444717Y-109932179D01*
X134412493Y-109959667D01*
X134400872Y-109888333D01*
X134348381Y-109888333D01*
X134354897Y-109930320D01*
X134430168Y-110180209D01*
X134525102Y-110406622D01*
X134587236Y-110508855D01*
X134660439Y-110654996D01*
X134700304Y-110799158D01*
X134713284Y-110927211D01*
X134661694Y-110961066D01*
X134510950Y-110926158D01*
X134172209Y-110866336D01*
X133896139Y-110891765D01*
X133716962Y-110994714D01*
X133622109Y-111116855D01*
X133621745Y-111181346D01*
X133728576Y-111192305D01*
X133955307Y-111153846D01*
X134104857Y-111120346D01*
X134201670Y-111104860D01*
X134178724Y-111126859D01*
X134032932Y-111220907D01*
X133975173Y-111271747D01*
X134345271Y-111271747D01*
X134354887Y-111229042D01*
X134387330Y-111224857D01*
X134439922Y-111180297D01*
X134427724Y-111146292D01*
X134449770Y-111123289D01*
X134565355Y-111164866D01*
X134604870Y-111184441D01*
X134754765Y-111268554D01*
X134828876Y-111323081D01*
X134830571Y-111327140D01*
X134770018Y-111343867D01*
X134629922Y-111337152D01*
X134472632Y-111314110D01*
X134360495Y-111281859D01*
X134345271Y-111271747D01*
X133975173Y-111271747D01*
X133973969Y-111272806D01*
X133835982Y-111341601D01*
X133642473Y-111370000D01*
X133449418Y-111396703D01*
X133354801Y-111441751D01*
X133848815Y-111441751D01*
X133864925Y-111416408D01*
X133961910Y-111373651D01*
X134007538Y-111461104D01*
X134008095Y-111478857D01*
X134104857Y-111478857D01*
X134141143Y-111442571D01*
X134177429Y-111478857D01*
X134612857Y-111478857D01*
X134649143Y-111442571D01*
X134685429Y-111478857D01*
X134649143Y-111515143D01*
X134612857Y-111478857D01*
X134177429Y-111478857D01*
X134141143Y-111515143D01*
X134104857Y-111478857D01*
X134008095Y-111478857D01*
X133977636Y-111575551D01*
X133951902Y-111587714D01*
X133865877Y-111536760D01*
X133848815Y-111441751D01*
X133354801Y-111441751D01*
X133314971Y-111460714D01*
X133264952Y-111486323D01*
X133243237Y-111421388D01*
X133246057Y-111244316D01*
X133254803Y-111116000D01*
X133317196Y-110622665D01*
X133434380Y-110187670D01*
X133556490Y-109881162D01*
X133680181Y-109597288D01*
X133758977Y-109402717D01*
X133808646Y-109254893D01*
X133844950Y-109111260D01*
X133849775Y-109089470D01*
X133872154Y-108950375D01*
X133842265Y-108928098D01*
X133789534Y-108965808D01*
X133688815Y-109088196D01*
X133578671Y-109275097D01*
X133561055Y-109310946D01*
X133477579Y-109465503D01*
X133418181Y-109537396D01*
X133408662Y-109536852D01*
X133402175Y-109454780D01*
X133415263Y-109270378D01*
X133442794Y-109041102D01*
X133473839Y-108800539D01*
X133491654Y-108626433D01*
X133492633Y-108558749D01*
X133453370Y-108605684D01*
X133370652Y-108744392D01*
X133319559Y-108837750D01*
X133279475Y-108916770D01*
X133246808Y-108998741D01*
X133220798Y-109098578D01*
X133200689Y-109231196D01*
X133185722Y-109411510D01*
X133175138Y-109654433D01*
X133168179Y-109974883D01*
X133164088Y-110387772D01*
X133162106Y-110908016D01*
X133161474Y-111550529D01*
X133161437Y-111886210D01*
X133234964Y-111886210D01*
X133308602Y-111618660D01*
X133377154Y-111482154D01*
X133432006Y-111483473D01*
X133460223Y-111567018D01*
X133597968Y-111567018D01*
X133619629Y-111520948D01*
X133652397Y-111557794D01*
X133759382Y-111635859D01*
X133880435Y-111680990D01*
X134063302Y-111683515D01*
X134283814Y-111631917D01*
X134315863Y-111619754D01*
X134576571Y-111514258D01*
X134395143Y-111658229D01*
X134200167Y-111757485D01*
X133981089Y-111790426D01*
X133780028Y-111761873D01*
X133639103Y-111676644D01*
X133597968Y-111567018D01*
X133460223Y-111567018D01*
X133480061Y-111625753D01*
X133495492Y-111703556D01*
X133564554Y-111931607D01*
X133685241Y-112039499D01*
X133888820Y-112050779D01*
X133946065Y-112042915D01*
X134135562Y-111995332D01*
X134257091Y-111932603D01*
X134267032Y-111921207D01*
X134313508Y-111889144D01*
X134321460Y-111936132D01*
X134258938Y-112024994D01*
X134101076Y-112119207D01*
X133895224Y-112197555D01*
X133688734Y-112238820D01*
X133641409Y-112240857D01*
X133391508Y-112204065D01*
X133257424Y-112088462D01*
X133234964Y-111886210D01*
X133161437Y-111886210D01*
X133161429Y-111948544D01*
X133162075Y-112674572D01*
X133164345Y-113268739D01*
X133168738Y-113744320D01*
X133175749Y-114114593D01*
X133185878Y-114392833D01*
X133199620Y-114592318D01*
X133217475Y-114726323D01*
X133239939Y-114808126D01*
X133267510Y-114851003D01*
X133270286Y-114853429D01*
X133358443Y-114962286D01*
X134758000Y-114962286D01*
X134794286Y-114926000D01*
X134830571Y-114962286D01*
X134794286Y-114998572D01*
X134758000Y-114962286D01*
X133358443Y-114962286D01*
X133361973Y-114966644D01*
X133372810Y-115002854D01*
X135338571Y-115002854D01*
X135391252Y-114928953D01*
X135411143Y-114926000D01*
X135481827Y-114950760D01*
X135483714Y-114958003D01*
X135432861Y-115019962D01*
X135411143Y-115034857D01*
X135344269Y-115029103D01*
X135338571Y-115002854D01*
X133372810Y-115002854D01*
X133379143Y-115024012D01*
X133434507Y-115128548D01*
X133464813Y-115161065D01*
X138708333Y-115161065D01*
X138779667Y-115149444D01*
X138873793Y-115162786D01*
X138874917Y-115187560D01*
X138777788Y-115204884D01*
X138735821Y-115193289D01*
X138708333Y-115161065D01*
X133464813Y-115161065D01*
X133550099Y-115252572D01*
X135701429Y-115252572D01*
X135737714Y-115216286D01*
X135774000Y-115252572D01*
X135737714Y-115288857D01*
X135701429Y-115252572D01*
X133550099Y-115252572D01*
X133578493Y-115283036D01*
X133777938Y-115458464D01*
X133999681Y-115625822D01*
X134002436Y-115627524D01*
X138555905Y-115627524D01*
X138565867Y-115584380D01*
X138604286Y-115579143D01*
X138664020Y-115605696D01*
X138652667Y-115627524D01*
X138566541Y-115636209D01*
X138555905Y-115627524D01*
X134002436Y-115627524D01*
X134210559Y-115756096D01*
X134223751Y-115762921D01*
X134403834Y-115858466D01*
X134488136Y-115908206D01*
X137806867Y-115908206D01*
X137877515Y-115837159D01*
X138030552Y-115759654D01*
X138053208Y-115751087D01*
X138211398Y-115692720D01*
X138294048Y-115661175D01*
X138295857Y-115660373D01*
X138313309Y-115707559D01*
X138314000Y-115728061D01*
X138254287Y-115793816D01*
X138115368Y-115871214D01*
X137957576Y-115931950D01*
X137844492Y-115948330D01*
X137806867Y-115908206D01*
X134488136Y-115908206D01*
X134521995Y-115928183D01*
X134540286Y-115942000D01*
X134655895Y-116023050D01*
X134818703Y-116106902D01*
X134954891Y-116156820D01*
X134977764Y-116159714D01*
X135080921Y-116205518D01*
X135114753Y-116232286D01*
X137007714Y-116232286D01*
X137032474Y-116161601D01*
X137039717Y-116159714D01*
X137079633Y-116192476D01*
X137255603Y-116192476D01*
X137262228Y-116158883D01*
X137339848Y-116098724D01*
X137423029Y-116088628D01*
X137443143Y-116115664D01*
X137386217Y-116162273D01*
X137330516Y-116187404D01*
X137255603Y-116192476D01*
X137079633Y-116192476D01*
X137101676Y-116210568D01*
X137116571Y-116232286D01*
X137110817Y-116299159D01*
X137084569Y-116304857D01*
X137010668Y-116252177D01*
X137007714Y-116232286D01*
X135114753Y-116232286D01*
X135214606Y-116311289D01*
X135233896Y-116325416D01*
X136289358Y-116325416D01*
X136362076Y-116340642D01*
X136375844Y-116345809D01*
X136464711Y-116403299D01*
X136465349Y-116435984D01*
X136388579Y-116427844D01*
X136335219Y-116386434D01*
X136289358Y-116325416D01*
X135233896Y-116325416D01*
X135391477Y-116440818D01*
X135461622Y-116478112D01*
X135871518Y-116478112D01*
X135882857Y-116450000D01*
X135948070Y-116380768D01*
X135959711Y-116377429D01*
X135990882Y-116433577D01*
X135991714Y-116450000D01*
X135935925Y-116519783D01*
X135914860Y-116522571D01*
X135871518Y-116478112D01*
X135461622Y-116478112D01*
X135613494Y-116558857D01*
X136064286Y-116558857D01*
X136100571Y-116522571D01*
X136136857Y-116558857D01*
X136100571Y-116595143D01*
X136064286Y-116558857D01*
X135613494Y-116558857D01*
X135614967Y-116559640D01*
X135646529Y-116572981D01*
X135807674Y-116653917D01*
X135883463Y-116723734D01*
X135882803Y-116740373D01*
X135887588Y-116757636D01*
X136023190Y-116757636D01*
X136094524Y-116746015D01*
X136188650Y-116759358D01*
X136189774Y-116784131D01*
X136092645Y-116801455D01*
X136050679Y-116789860D01*
X136023190Y-116757636D01*
X135887588Y-116757636D01*
X135901598Y-116808177D01*
X136033972Y-116855975D01*
X136249731Y-116883636D01*
X136518680Y-116891031D01*
X136810621Y-116878030D01*
G36*
X135439413Y-107409576D02*
G01*
X135482887Y-107195553D01*
X135455467Y-107012616D01*
X135368922Y-106914622D01*
X135209817Y-106873015D01*
X135142277Y-106897027D01*
X135153748Y-106937651D01*
X135134933Y-107008190D01*
X135087702Y-107028365D01*
X135041948Y-107070211D01*
X135091106Y-107170509D01*
X135187656Y-107288511D01*
X135322194Y-107427942D01*
X135398415Y-107461612D01*
X135439413Y-107409576D01*
G37*
X135439413Y-107409576D02*
X135482887Y-107195553D01*
X135455467Y-107012616D01*
X135368922Y-106914622D01*
X135209817Y-106873015D01*
X135142277Y-106897027D01*
X135153748Y-106937651D01*
X135134933Y-107008190D01*
X135087702Y-107028365D01*
X135041948Y-107070211D01*
X135091106Y-107170509D01*
X135187656Y-107288511D01*
X135322194Y-107427942D01*
X135398415Y-107461612D01*
X135439413Y-107409576D01*
G36*
X134008095Y-107499524D02*
G01*
X133998133Y-107456380D01*
X133959714Y-107451143D01*
X133899980Y-107477696D01*
X133911333Y-107499524D01*
X133997459Y-107508209D01*
X134008095Y-107499524D01*
G37*
X134008095Y-107499524D02*
X133998133Y-107456380D01*
X133959714Y-107451143D01*
X133899980Y-107477696D01*
X133911333Y-107499524D01*
X133997459Y-107508209D01*
X134008095Y-107499524D01*
G36*
X135394855Y-108977819D02*
G01*
X135503686Y-108919397D01*
X135629133Y-108851240D01*
X135821594Y-108775539D01*
X135854825Y-108764522D01*
X136021841Y-108683133D01*
X136200754Y-108555754D01*
X136358271Y-108412789D01*
X136461098Y-108284642D01*
X136475942Y-108201715D01*
X136473774Y-108199298D01*
X136403630Y-108220956D01*
X136270108Y-108319526D01*
X136198587Y-108383105D01*
X136019101Y-108523830D01*
X135901313Y-108548187D01*
X135875157Y-108533324D01*
X135813162Y-108410896D01*
X135866009Y-108268503D01*
X136008832Y-108125525D01*
X136216764Y-108001340D01*
X136464938Y-107915330D01*
X136705018Y-107886572D01*
X136998193Y-107932637D01*
X137262186Y-108041609D01*
X137450662Y-108124272D01*
X137585323Y-108134301D01*
X137639948Y-108080519D01*
X137588317Y-107971750D01*
X137560121Y-107941346D01*
X137484396Y-107842171D01*
X137479771Y-107801563D01*
X137448279Y-107766154D01*
X137288586Y-107737716D01*
X137017545Y-107718241D01*
X136707374Y-107710174D01*
X136432621Y-107714858D01*
X136259849Y-107742961D01*
X136146481Y-107804906D01*
X136090517Y-107861200D01*
X136009243Y-107934880D01*
X135896765Y-107984490D01*
X135721470Y-108016999D01*
X135451746Y-108039371D01*
X135229714Y-108050907D01*
X134848696Y-108065353D01*
X134589939Y-108064971D01*
X134431041Y-108046726D01*
X134349600Y-108007586D01*
X134323214Y-107944517D01*
X134322571Y-107928057D01*
X134272791Y-107811292D01*
X134195571Y-107723735D01*
X134116819Y-107670094D01*
X134043461Y-107684229D01*
X133944791Y-107784514D01*
X133820197Y-107948344D01*
X133713232Y-108103720D01*
X133678013Y-108177894D01*
X133717054Y-108158714D01*
X133882683Y-108066856D01*
X134067401Y-108034564D01*
X134216106Y-108065466D01*
X134267831Y-108122429D01*
X134279494Y-108268581D01*
X134212581Y-108350645D01*
X134138543Y-108347246D01*
X134078350Y-108339579D01*
X134085672Y-108382476D01*
X134322571Y-108382476D01*
X134381815Y-108336748D01*
X134513606Y-108323519D01*
X134649034Y-108342790D01*
X134714239Y-108382476D01*
X134687463Y-108414821D01*
X135102914Y-108414821D01*
X135126359Y-108389635D01*
X135336967Y-108331172D01*
X135592571Y-108391372D01*
X135640087Y-108427163D01*
X135558213Y-108446883D01*
X135380359Y-108452796D01*
X135170300Y-108444231D01*
X135102914Y-108414821D01*
X134687463Y-108414821D01*
X134679389Y-108424573D01*
X134543620Y-108442924D01*
X134537093Y-108442952D01*
X134385564Y-108425181D01*
X134322571Y-108382476D01*
X134085672Y-108382476D01*
X134090233Y-108409189D01*
X134141764Y-108519155D01*
X134247976Y-108645962D01*
X134583239Y-108645962D01*
X134679626Y-108635946D01*
X134710538Y-108637413D01*
X134771567Y-108648572D01*
X135048286Y-108648572D01*
X135084571Y-108612286D01*
X135120857Y-108648572D01*
X135084571Y-108684857D01*
X135048286Y-108648572D01*
X134771567Y-108648572D01*
X134852336Y-108663340D01*
X134881642Y-108686240D01*
X135193429Y-108686240D01*
X135256750Y-108635392D01*
X135410454Y-108612400D01*
X135423238Y-108612286D01*
X135571477Y-108619296D01*
X135624450Y-108636372D01*
X135622809Y-108638362D01*
X135513817Y-108688081D01*
X135364123Y-108715944D01*
X135236846Y-108714915D01*
X135193429Y-108686240D01*
X134881642Y-108686240D01*
X134903092Y-108703000D01*
X134848115Y-108752102D01*
X134721551Y-108737899D01*
X134619875Y-108690730D01*
X134583239Y-108645962D01*
X134247976Y-108645962D01*
X134303585Y-108712353D01*
X134552815Y-108867458D01*
X134846444Y-108971831D01*
X135141460Y-109012831D01*
X135394855Y-108977819D01*
G37*
X135394855Y-108977819D02*
X135503686Y-108919397D01*
X135629133Y-108851240D01*
X135821594Y-108775539D01*
X135854825Y-108764522D01*
X136021841Y-108683133D01*
X136200754Y-108555754D01*
X136358271Y-108412789D01*
X136461098Y-108284642D01*
X136475942Y-108201715D01*
X136473774Y-108199298D01*
X136403630Y-108220956D01*
X136270108Y-108319526D01*
X136198587Y-108383105D01*
X136019101Y-108523830D01*
X135901313Y-108548187D01*
X135875157Y-108533324D01*
X135813162Y-108410896D01*
X135866009Y-108268503D01*
X136008832Y-108125525D01*
X136216764Y-108001340D01*
X136464938Y-107915330D01*
X136705018Y-107886572D01*
X136998193Y-107932637D01*
X137262186Y-108041609D01*
X137450662Y-108124272D01*
X137585323Y-108134301D01*
X137639948Y-108080519D01*
X137588317Y-107971750D01*
X137560121Y-107941346D01*
X137484396Y-107842171D01*
X137479771Y-107801563D01*
X137448279Y-107766154D01*
X137288586Y-107737716D01*
X137017545Y-107718241D01*
X136707374Y-107710174D01*
X136432621Y-107714858D01*
X136259849Y-107742961D01*
X136146481Y-107804906D01*
X136090517Y-107861200D01*
X136009243Y-107934880D01*
X135896765Y-107984490D01*
X135721470Y-108016999D01*
X135451746Y-108039371D01*
X135229714Y-108050907D01*
X134848696Y-108065353D01*
X134589939Y-108064971D01*
X134431041Y-108046726D01*
X134349600Y-108007586D01*
X134323214Y-107944517D01*
X134322571Y-107928057D01*
X134272791Y-107811292D01*
X134195571Y-107723735D01*
X134116819Y-107670094D01*
X134043461Y-107684229D01*
X133944791Y-107784514D01*
X133820197Y-107948344D01*
X133713232Y-108103720D01*
X133678013Y-108177894D01*
X133717054Y-108158714D01*
X133882683Y-108066856D01*
X134067401Y-108034564D01*
X134216106Y-108065466D01*
X134267831Y-108122429D01*
X134279494Y-108268581D01*
X134212581Y-108350645D01*
X134138543Y-108347246D01*
X134078350Y-108339579D01*
X134085672Y-108382476D01*
X134322571Y-108382476D01*
X134381815Y-108336748D01*
X134513606Y-108323519D01*
X134649034Y-108342790D01*
X134714239Y-108382476D01*
X134687463Y-108414821D01*
X135102914Y-108414821D01*
X135126359Y-108389635D01*
X135336967Y-108331172D01*
X135592571Y-108391372D01*
X135640087Y-108427163D01*
X135558213Y-108446883D01*
X135380359Y-108452796D01*
X135170300Y-108444231D01*
X135102914Y-108414821D01*
X134687463Y-108414821D01*
X134679389Y-108424573D01*
X134543620Y-108442924D01*
X134537093Y-108442952D01*
X134385564Y-108425181D01*
X134322571Y-108382476D01*
X134085672Y-108382476D01*
X134090233Y-108409189D01*
X134141764Y-108519155D01*
X134247976Y-108645962D01*
X134583239Y-108645962D01*
X134679626Y-108635946D01*
X134710538Y-108637413D01*
X134771567Y-108648572D01*
X135048286Y-108648572D01*
X135084571Y-108612286D01*
X135120857Y-108648572D01*
X135084571Y-108684857D01*
X135048286Y-108648572D01*
X134771567Y-108648572D01*
X134852336Y-108663340D01*
X134881642Y-108686240D01*
X135193429Y-108686240D01*
X135256750Y-108635392D01*
X135410454Y-108612400D01*
X135423238Y-108612286D01*
X135571477Y-108619296D01*
X135624450Y-108636372D01*
X135622809Y-108638362D01*
X135513817Y-108688081D01*
X135364123Y-108715944D01*
X135236846Y-108714915D01*
X135193429Y-108686240D01*
X134881642Y-108686240D01*
X134903092Y-108703000D01*
X134848115Y-108752102D01*
X134721551Y-108737899D01*
X134619875Y-108690730D01*
X134583239Y-108645962D01*
X134247976Y-108645962D01*
X134303585Y-108712353D01*
X134552815Y-108867458D01*
X134846444Y-108971831D01*
X135141460Y-109012831D01*
X135394855Y-108977819D01*
G36*
X133977857Y-108340630D02*
G01*
X134131054Y-108248466D01*
X134177429Y-108228617D01*
X134199018Y-108198752D01*
X134094018Y-108182822D01*
X134086714Y-108182587D01*
X133929222Y-108210131D01*
X133887143Y-108294600D01*
X133914422Y-108370387D01*
X133977857Y-108340630D01*
G37*
X133977857Y-108340630D02*
X134131054Y-108248466D01*
X134177429Y-108228617D01*
X134199018Y-108198752D01*
X134094018Y-108182822D01*
X134086714Y-108182587D01*
X133929222Y-108210131D01*
X133887143Y-108294600D01*
X133914422Y-108370387D01*
X133977857Y-108340630D01*
G36*
X133596857Y-108430857D02*
G01*
X133560571Y-108394572D01*
X133524286Y-108430857D01*
X133560571Y-108467143D01*
X133596857Y-108430857D01*
G37*
X133596857Y-108430857D02*
X133560571Y-108394572D01*
X133524286Y-108430857D01*
X133560571Y-108467143D01*
X133596857Y-108430857D01*
G36*
X134288317Y-109313777D02*
G01*
X134275150Y-109172247D01*
X134318831Y-109154260D01*
X134363280Y-109145991D01*
X134350261Y-109087769D01*
X134285095Y-108989578D01*
X134253326Y-108975143D01*
X134184716Y-108917589D01*
X134120859Y-108811857D01*
X134061804Y-108714758D01*
X134038222Y-108751116D01*
X134037197Y-108767646D01*
X134064080Y-108901501D01*
X134137749Y-109103086D01*
X134182369Y-109203075D01*
X134265655Y-109366766D01*
X134299083Y-109399147D01*
X134288317Y-109313777D01*
G37*
X134288317Y-109313777D02*
X134275150Y-109172247D01*
X134318831Y-109154260D01*
X134363280Y-109145991D01*
X134350261Y-109087769D01*
X134285095Y-108989578D01*
X134253326Y-108975143D01*
X134184716Y-108917589D01*
X134120859Y-108811857D01*
X134061804Y-108714758D01*
X134038222Y-108751116D01*
X134037197Y-108767646D01*
X134064080Y-108901501D01*
X134137749Y-109103086D01*
X134182369Y-109203075D01*
X134265655Y-109366766D01*
X134299083Y-109399147D01*
X134288317Y-109313777D01*
G36*
X136499714Y-109737143D02*
G01*
X136463429Y-109700857D01*
X136427143Y-109737143D01*
X136463429Y-109773429D01*
X136499714Y-109737143D01*
G37*
X136499714Y-109737143D02*
X136463429Y-109700857D01*
X136427143Y-109737143D01*
X136463429Y-109773429D01*
X136499714Y-109737143D01*
G36*
X135391800Y-110247067D02*
G01*
X135411143Y-110208857D01*
X135399996Y-110145489D01*
X135337174Y-110164335D01*
X135266000Y-110208857D01*
X135199284Y-110265097D01*
X135267873Y-110280083D01*
X135284143Y-110280317D01*
X135391800Y-110247067D01*
G37*
X135391800Y-110247067D02*
X135411143Y-110208857D01*
X135399996Y-110145489D01*
X135337174Y-110164335D01*
X135266000Y-110208857D01*
X135199284Y-110265097D01*
X135267873Y-110280083D01*
X135284143Y-110280317D01*
X135391800Y-110247067D01*
G36*
X135193429Y-110390286D02*
G01*
X135157143Y-110354000D01*
X135120857Y-110390286D01*
X135157143Y-110426572D01*
X135193429Y-110390286D01*
G37*
X135193429Y-110390286D02*
X135157143Y-110354000D01*
X135120857Y-110390286D01*
X135157143Y-110426572D01*
X135193429Y-110390286D01*
G36*
X138314000Y-110680572D02*
G01*
X138277714Y-110644286D01*
X138241428Y-110680572D01*
X138277714Y-110716857D01*
X138314000Y-110680572D01*
G37*
X138314000Y-110680572D02*
X138277714Y-110644286D01*
X138241428Y-110680572D01*
X138277714Y-110716857D01*
X138314000Y-110680572D01*
G36*
X137243602Y-112423123D02*
G01*
X137412459Y-112350209D01*
X137636923Y-112251127D01*
X137816381Y-112184590D01*
X137892220Y-112167175D01*
X137940261Y-112147352D01*
X137878571Y-112095714D01*
X137821471Y-112037782D01*
X137844600Y-112024254D01*
X137906167Y-111961012D01*
X137934501Y-111841714D01*
X137905015Y-111697834D01*
X137814431Y-111651951D01*
X137707555Y-111702808D01*
X137629191Y-111849151D01*
X137628907Y-111850278D01*
X137580829Y-111973671D01*
X137537002Y-111996050D01*
X137451718Y-111994484D01*
X137410113Y-112020441D01*
X137237582Y-112092813D01*
X136985652Y-112121186D01*
X136713779Y-112103823D01*
X136499714Y-112047041D01*
X136245714Y-111940513D01*
X136463429Y-111848649D01*
X136696297Y-111767843D01*
X136935143Y-111707144D01*
X137235696Y-111632867D01*
X137493240Y-111541038D01*
X137678035Y-111445137D01*
X137760342Y-111358648D01*
X137759552Y-111333402D01*
X137655615Y-111236805D01*
X137486282Y-111206611D01*
X137318220Y-111249007D01*
X137266321Y-111287638D01*
X137174999Y-111351135D01*
X137152857Y-111312980D01*
X137082793Y-111254126D01*
X136876971Y-111225345D01*
X136771857Y-111222650D01*
X136560188Y-111216444D01*
X136475449Y-111197072D01*
X136499604Y-111158514D01*
X136527447Y-111141106D01*
X136692195Y-111099260D01*
X136942460Y-111096641D01*
X137035447Y-111105174D01*
X137249276Y-111122048D01*
X137323092Y-111106125D01*
X137298000Y-111078973D01*
X137229514Y-111023125D01*
X137293915Y-111008495D01*
X137310095Y-111008254D01*
X137435137Y-111054450D01*
X137467652Y-111097857D01*
X137501914Y-111142189D01*
X137509985Y-111105185D01*
X137452264Y-111000093D01*
X137294614Y-110895718D01*
X137081042Y-110806607D01*
X136855556Y-110747310D01*
X136662162Y-110732376D01*
X136544866Y-110776353D01*
X136539207Y-110784240D01*
X136561086Y-110853913D01*
X136625638Y-110883306D01*
X136661604Y-110899229D01*
X136568760Y-110893165D01*
X136567938Y-110893068D01*
X136388143Y-110910381D01*
X136886762Y-110910381D01*
X136896724Y-110867237D01*
X136935143Y-110862000D01*
X136994877Y-110888553D01*
X136983524Y-110910381D01*
X136897398Y-110919066D01*
X136886762Y-110910381D01*
X136388143Y-110910381D01*
X136305385Y-110918350D01*
X136101534Y-111044291D01*
X135993962Y-111247134D01*
X135992088Y-111257113D01*
X135990728Y-111261143D01*
X136209429Y-111261143D01*
X136245714Y-111224857D01*
X136282000Y-111261143D01*
X136245714Y-111297429D01*
X136209429Y-111261143D01*
X135990728Y-111261143D01*
X135966237Y-111333714D01*
X136064286Y-111333714D01*
X136100571Y-111297429D01*
X136136857Y-111333714D01*
X136100571Y-111370000D01*
X136064286Y-111333714D01*
X135966237Y-111333714D01*
X135941745Y-111406286D01*
X136354571Y-111406286D01*
X136393758Y-111309710D01*
X136427143Y-111297429D01*
X136491527Y-111356208D01*
X136499714Y-111406286D01*
X136487737Y-111435804D01*
X137265897Y-111435804D01*
X137345288Y-111386041D01*
X137454713Y-111368023D01*
X137515333Y-111393736D01*
X137515714Y-111397822D01*
X137455873Y-111435938D01*
X137370471Y-111463625D01*
X137272254Y-111468405D01*
X137265897Y-111435804D01*
X136487737Y-111435804D01*
X136460528Y-111502862D01*
X136427143Y-111515143D01*
X136362759Y-111456363D01*
X136354571Y-111406286D01*
X135941745Y-111406286D01*
X135930265Y-111440302D01*
X135842789Y-111484045D01*
X135744434Y-111386147D01*
X135702561Y-111300164D01*
X135617902Y-111126611D01*
X135567371Y-111085709D01*
X135554256Y-111168281D01*
X135581845Y-111365149D01*
X135619053Y-111533286D01*
X135648502Y-111628117D01*
X136813304Y-111628117D01*
X136862571Y-111587714D01*
X136994870Y-111526305D01*
X137044000Y-111517365D01*
X137056981Y-111547312D01*
X137007714Y-111587714D01*
X136875415Y-111649123D01*
X136826286Y-111658063D01*
X136813304Y-111628117D01*
X135648502Y-111628117D01*
X135723255Y-111868826D01*
X135843488Y-112099738D01*
X135969500Y-112207111D01*
X135986531Y-112211132D01*
X136072475Y-112242676D01*
X136239738Y-112314289D01*
X136318286Y-112349518D01*
X136655398Y-112472893D01*
X136944445Y-112497415D01*
X137243602Y-112423123D01*
G37*
X137243602Y-112423123D02*
X137412459Y-112350209D01*
X137636923Y-112251127D01*
X137816381Y-112184590D01*
X137892220Y-112167175D01*
X137940261Y-112147352D01*
X137878571Y-112095714D01*
X137821471Y-112037782D01*
X137844600Y-112024254D01*
X137906167Y-111961012D01*
X137934501Y-111841714D01*
X137905015Y-111697834D01*
X137814431Y-111651951D01*
X137707555Y-111702808D01*
X137629191Y-111849151D01*
X137628907Y-111850278D01*
X137580829Y-111973671D01*
X137537002Y-111996050D01*
X137451718Y-111994484D01*
X137410113Y-112020441D01*
X137237582Y-112092813D01*
X136985652Y-112121186D01*
X136713779Y-112103823D01*
X136499714Y-112047041D01*
X136245714Y-111940513D01*
X136463429Y-111848649D01*
X136696297Y-111767843D01*
X136935143Y-111707144D01*
X137235696Y-111632867D01*
X137493240Y-111541038D01*
X137678035Y-111445137D01*
X137760342Y-111358648D01*
X137759552Y-111333402D01*
X137655615Y-111236805D01*
X137486282Y-111206611D01*
X137318220Y-111249007D01*
X137266321Y-111287638D01*
X137174999Y-111351135D01*
X137152857Y-111312980D01*
X137082793Y-111254126D01*
X136876971Y-111225345D01*
X136771857Y-111222650D01*
X136560188Y-111216444D01*
X136475449Y-111197072D01*
X136499604Y-111158514D01*
X136527447Y-111141106D01*
X136692195Y-111099260D01*
X136942460Y-111096641D01*
X137035447Y-111105174D01*
X137249276Y-111122048D01*
X137323092Y-111106125D01*
X137298000Y-111078973D01*
X137229514Y-111023125D01*
X137293915Y-111008495D01*
X137310095Y-111008254D01*
X137435137Y-111054450D01*
X137467652Y-111097857D01*
X137501914Y-111142189D01*
X137509985Y-111105185D01*
X137452264Y-111000093D01*
X137294614Y-110895718D01*
X137081042Y-110806607D01*
X136855556Y-110747310D01*
X136662162Y-110732376D01*
X136544866Y-110776353D01*
X136539207Y-110784240D01*
X136561086Y-110853913D01*
X136625638Y-110883306D01*
X136661604Y-110899229D01*
X136568760Y-110893165D01*
X136567938Y-110893068D01*
X136388143Y-110910381D01*
X136886762Y-110910381D01*
X136896724Y-110867237D01*
X136935143Y-110862000D01*
X136994877Y-110888553D01*
X136983524Y-110910381D01*
X136897398Y-110919066D01*
X136886762Y-110910381D01*
X136388143Y-110910381D01*
X136305385Y-110918350D01*
X136101534Y-111044291D01*
X135993962Y-111247134D01*
X135992088Y-111257113D01*
X135990728Y-111261143D01*
X136209429Y-111261143D01*
X136245714Y-111224857D01*
X136282000Y-111261143D01*
X136245714Y-111297429D01*
X136209429Y-111261143D01*
X135990728Y-111261143D01*
X135966237Y-111333714D01*
X136064286Y-111333714D01*
X136100571Y-111297429D01*
X136136857Y-111333714D01*
X136100571Y-111370000D01*
X136064286Y-111333714D01*
X135966237Y-111333714D01*
X135941745Y-111406286D01*
X136354571Y-111406286D01*
X136393758Y-111309710D01*
X136427143Y-111297429D01*
X136491527Y-111356208D01*
X136499714Y-111406286D01*
X136487737Y-111435804D01*
X137265897Y-111435804D01*
X137345288Y-111386041D01*
X137454713Y-111368023D01*
X137515333Y-111393736D01*
X137515714Y-111397822D01*
X137455873Y-111435938D01*
X137370471Y-111463625D01*
X137272254Y-111468405D01*
X137265897Y-111435804D01*
X136487737Y-111435804D01*
X136460528Y-111502862D01*
X136427143Y-111515143D01*
X136362759Y-111456363D01*
X136354571Y-111406286D01*
X135941745Y-111406286D01*
X135930265Y-111440302D01*
X135842789Y-111484045D01*
X135744434Y-111386147D01*
X135702561Y-111300164D01*
X135617902Y-111126611D01*
X135567371Y-111085709D01*
X135554256Y-111168281D01*
X135581845Y-111365149D01*
X135619053Y-111533286D01*
X135648502Y-111628117D01*
X136813304Y-111628117D01*
X136862571Y-111587714D01*
X136994870Y-111526305D01*
X137044000Y-111517365D01*
X137056981Y-111547312D01*
X137007714Y-111587714D01*
X136875415Y-111649123D01*
X136826286Y-111658063D01*
X136813304Y-111628117D01*
X135648502Y-111628117D01*
X135723255Y-111868826D01*
X135843488Y-112099738D01*
X135969500Y-112207111D01*
X135986531Y-112211132D01*
X136072475Y-112242676D01*
X136239738Y-112314289D01*
X136318286Y-112349518D01*
X136655398Y-112472893D01*
X136944445Y-112497415D01*
X137243602Y-112423123D01*
G36*
X138386571Y-110825714D02*
G01*
X138350286Y-110789429D01*
X138314000Y-110825714D01*
X138350286Y-110862000D01*
X138386571Y-110825714D01*
G37*
X138386571Y-110825714D02*
X138350286Y-110789429D01*
X138314000Y-110825714D01*
X138350286Y-110862000D01*
X138386571Y-110825714D01*
G36*
X135556286Y-110970857D02*
G01*
X135520000Y-110934571D01*
X135483714Y-110970857D01*
X135520000Y-111007143D01*
X135556286Y-110970857D01*
G37*
X135556286Y-110970857D02*
X135520000Y-110934571D01*
X135483714Y-110970857D01*
X135520000Y-111007143D01*
X135556286Y-110970857D01*
G36*
X135266000Y-111914286D02*
G01*
X135229714Y-111878000D01*
X135193429Y-111914286D01*
X135229714Y-111950571D01*
X135266000Y-111914286D01*
G37*
X135266000Y-111914286D02*
X135229714Y-111878000D01*
X135193429Y-111914286D01*
X135229714Y-111950571D01*
X135266000Y-111914286D01*
G36*
X135337739Y-112112138D02*
G01*
X135338571Y-112095714D01*
X135282782Y-112025932D01*
X135261717Y-112023143D01*
X135218375Y-112067603D01*
X135229714Y-112095714D01*
X135294927Y-112164946D01*
X135306569Y-112168286D01*
X135337739Y-112112138D01*
G37*
X135337739Y-112112138D02*
X135338571Y-112095714D01*
X135282782Y-112025932D01*
X135261717Y-112023143D01*
X135218375Y-112067603D01*
X135229714Y-112095714D01*
X135294927Y-112164946D01*
X135306569Y-112168286D01*
X135337739Y-112112138D01*
G36*
X137999524Y-112506952D02*
G01*
X138008209Y-112420827D01*
X137999524Y-112410191D01*
X137956380Y-112420152D01*
X137951143Y-112458571D01*
X137977696Y-112518306D01*
X137999524Y-112506952D01*
G37*
X137999524Y-112506952D02*
X138008209Y-112420827D01*
X137999524Y-112410191D01*
X137956380Y-112420152D01*
X137951143Y-112458571D01*
X137977696Y-112518306D01*
X137999524Y-112506952D01*
G36*
X138386571Y-112640000D02*
G01*
X138350286Y-112603714D01*
X138314000Y-112640000D01*
X138350286Y-112676286D01*
X138386571Y-112640000D01*
G37*
X138386571Y-112640000D02*
X138350286Y-112603714D01*
X138314000Y-112640000D01*
X138350286Y-112676286D01*
X138386571Y-112640000D01*
G36*
X138604286Y-112640000D02*
G01*
X138568000Y-112603714D01*
X138531714Y-112640000D01*
X138568000Y-112676286D01*
X138604286Y-112640000D01*
G37*
X138604286Y-112640000D02*
X138568000Y-112603714D01*
X138531714Y-112640000D01*
X138568000Y-112676286D01*
X138604286Y-112640000D01*
G36*
X138168857Y-112712571D02*
G01*
X138132571Y-112676286D01*
X138096286Y-112712571D01*
X138132571Y-112748857D01*
X138168857Y-112712571D01*
G37*
X138168857Y-112712571D02*
X138132571Y-112676286D01*
X138096286Y-112712571D01*
X138132571Y-112748857D01*
X138168857Y-112712571D01*
G36*
X138314000Y-112785143D02*
G01*
X138277714Y-112748857D01*
X138241428Y-112785143D01*
X138277714Y-112821429D01*
X138314000Y-112785143D01*
G37*
X138314000Y-112785143D02*
X138277714Y-112748857D01*
X138241428Y-112785143D01*
X138277714Y-112821429D01*
X138314000Y-112785143D01*
G36*
X138168857Y-112857714D02*
G01*
X138132571Y-112821429D01*
X138096286Y-112857714D01*
X138132571Y-112894000D01*
X138168857Y-112857714D01*
G37*
X138168857Y-112857714D02*
X138132571Y-112821429D01*
X138096286Y-112857714D01*
X138132571Y-112894000D01*
X138168857Y-112857714D01*
G36*
X138725238Y-112869810D02*
G01*
X138715276Y-112826666D01*
X138676857Y-112821429D01*
X138617123Y-112847981D01*
X138628476Y-112869810D01*
X138714601Y-112878495D01*
X138725238Y-112869810D01*
G37*
X138725238Y-112869810D02*
X138715276Y-112826666D01*
X138676857Y-112821429D01*
X138617123Y-112847981D01*
X138628476Y-112869810D01*
X138714601Y-112878495D01*
X138725238Y-112869810D01*
G36*
X138334752Y-112986336D02*
G01*
X138350286Y-112966571D01*
X138375829Y-112901300D01*
X138307169Y-112925883D01*
X138241428Y-112966571D01*
X138185637Y-113024830D01*
X138219003Y-113038032D01*
X138334752Y-112986336D01*
G37*
X138334752Y-112986336D02*
X138350286Y-112966571D01*
X138375829Y-112901300D01*
X138307169Y-112925883D01*
X138241428Y-112966571D01*
X138185637Y-113024830D01*
X138219003Y-113038032D01*
X138334752Y-112986336D01*
G36*
X138604286Y-113075429D02*
G01*
X138568000Y-113039143D01*
X138531714Y-113075429D01*
X138568000Y-113111714D01*
X138604286Y-113075429D01*
G37*
X138604286Y-113075429D02*
X138568000Y-113039143D01*
X138531714Y-113075429D01*
X138568000Y-113111714D01*
X138604286Y-113075429D01*
G36*
X138749428Y-113075429D02*
G01*
X138713143Y-113039143D01*
X138676857Y-113075429D01*
X138713143Y-113111714D01*
X138749428Y-113075429D01*
G37*
X138749428Y-113075429D02*
X138713143Y-113039143D01*
X138676857Y-113075429D01*
X138713143Y-113111714D01*
X138749428Y-113075429D01*
G36*
X138241428Y-113220572D02*
G01*
X138310660Y-113155358D01*
X138314000Y-113143717D01*
X138257852Y-113112546D01*
X138241428Y-113111714D01*
X138171646Y-113167504D01*
X138168857Y-113188569D01*
X138213317Y-113231911D01*
X138241428Y-113220572D01*
G37*
X138241428Y-113220572D02*
X138310660Y-113155358D01*
X138314000Y-113143717D01*
X138257852Y-113112546D01*
X138241428Y-113111714D01*
X138171646Y-113167504D01*
X138168857Y-113188569D01*
X138213317Y-113231911D01*
X138241428Y-113220572D01*
G36*
X138508946Y-113209980D02*
G01*
X138495428Y-113184286D01*
X138427051Y-113114980D01*
X138414291Y-113111714D01*
X138409340Y-113158592D01*
X138422857Y-113184286D01*
X138491235Y-113253592D01*
X138503994Y-113256857D01*
X138508946Y-113209980D01*
G37*
X138508946Y-113209980D02*
X138495428Y-113184286D01*
X138427051Y-113114980D01*
X138414291Y-113111714D01*
X138409340Y-113158592D01*
X138422857Y-113184286D01*
X138491235Y-113253592D01*
X138503994Y-113256857D01*
X138508946Y-113209980D01*
G36*
X138459143Y-113365714D02*
G01*
X138422857Y-113329429D01*
X138386571Y-113365714D01*
X138422857Y-113402000D01*
X138459143Y-113365714D01*
G37*
X138459143Y-113365714D02*
X138422857Y-113329429D01*
X138386571Y-113365714D01*
X138422857Y-113402000D01*
X138459143Y-113365714D01*
G36*
X138375358Y-114098359D02*
G01*
X138453267Y-114025287D01*
X138437285Y-113983278D01*
X138427140Y-113982572D01*
X138365758Y-114034117D01*
X138343356Y-114066356D01*
X138334802Y-114116016D01*
X138375358Y-114098359D01*
G37*
X138375358Y-114098359D02*
X138453267Y-114025287D01*
X138437285Y-113983278D01*
X138427140Y-113982572D01*
X138365758Y-114034117D01*
X138343356Y-114066356D01*
X138334802Y-114116016D01*
X138375358Y-114098359D01*
G36*
X135754345Y-116711560D02*
G01*
X135732702Y-116678575D01*
X135659095Y-116673444D01*
X135581659Y-116691167D01*
X135615250Y-116717289D01*
X135728670Y-116725940D01*
X135754345Y-116711560D01*
G37*
X135754345Y-116711560D02*
X135732702Y-116678575D01*
X135659095Y-116673444D01*
X135581659Y-116691167D01*
X135615250Y-116717289D01*
X135728670Y-116725940D01*
X135754345Y-116711560D01*
G36*
X136249836Y-102612948D02*
G01*
X136237119Y-102556341D01*
X136178557Y-102454192D01*
X136140689Y-102471304D01*
X136136857Y-102512003D01*
X136189564Y-102610411D01*
X136208597Y-102624629D01*
X136249836Y-102612948D01*
G37*
X136249836Y-102612948D02*
X136237119Y-102556341D01*
X136178557Y-102454192D01*
X136140689Y-102471304D01*
X136136857Y-102512003D01*
X136189564Y-102610411D01*
X136208597Y-102624629D01*
X136249836Y-102612948D01*
G36*
X139629145Y-109967557D02*
G01*
X139677224Y-109847303D01*
X139672189Y-109801141D01*
X139622687Y-109827014D01*
X139592965Y-109885091D01*
X139551849Y-110022892D01*
X139568731Y-110050385D01*
X139629145Y-109967557D01*
G37*
X139629145Y-109967557D02*
X139677224Y-109847303D01*
X139672189Y-109801141D01*
X139622687Y-109827014D01*
X139592965Y-109885091D01*
X139551849Y-110022892D01*
X139568731Y-110050385D01*
X139629145Y-109967557D01*
%TD*%
M02*
