M48
; DRILL file {KiCad (5.1.10)-1} date 08/08/21 16:35:36
; FORMAT={-:-/ absolute / inch / decimal}
; #@! TF.CreationDate,2021-08-08T16:35:36+05:30
; #@! TF.GenerationSoftware,Kicad,Pcbnew,(5.1.10)-1
; #@! TF.FileFunction,Plated,1,2,PTH
FMAT,2
INCH
T1C0.0120
T2C0.0157
T3C0.0197
T4C0.0256
T5C0.0276
T6C0.0394
T7C0.0402
T8C0.1181
%
G90
G05
T1
X4.7343Y-3.9567
X4.7933Y-3.8484
X4.8425Y-4.0157
X4.8829Y-4.0157
X4.9213Y-4.0157
X4.9508Y-4.2028
X4.9508Y-4.2421
X4.9606Y-3.4646
X5.0098Y-3.5925
X5.0984Y-3.435
X5.1575Y-4.3898
X5.1673Y-3.563
X5.1673Y-4.3012
X5.1673Y-4.5669
X5.187Y-3.8583
X5.2067Y-3.9469
X5.2067Y-4.3406
X5.2165Y-3.5236
X5.2657Y-3.8976
X5.2785Y-2.9065
X5.3019Y-3.0906
X5.3346Y-3.3071
X5.3346Y-3.376
X5.3346Y-3.622
X5.3543Y-4.6752
X5.4528Y-3.5039
X5.4921Y-4.2717
X5.502Y-3.2283
X5.502Y-3.8484
X5.502Y-4.6358
X5.5413Y-4.5571
X5.5512Y-3.2087
X5.5859Y-4.2906
X5.5859Y-4.3406
X5.5906Y-3.8484
X5.6102Y-3.061
X5.6102Y-3.2972
X5.6171Y-3.4085
X5.6693Y-3.1102
X5.713Y-4.1906
X5.7185Y-3.7697
X5.7382Y-3.8484
X5.7677Y-3.5335
X5.7921Y-4.2913
X5.7972Y-4.3406
X5.8465Y-4.0354
X5.8563Y-4.2224
X5.8957Y-3.3573
X5.8967Y-3.4341
X5.9154Y-4.5965
X5.9449Y-3.4941
X5.9449Y-4.4291
X5.9646Y-4.0354
X5.9941Y-4.5571
X6.0531Y-3.4547
T2
X4.4291Y-3.1496
X4.4291Y-3.248
X4.4291Y-3.3465
X4.4291Y-3.4449
X4.4291Y-3.5433
X4.4291Y-3.6417
X4.4291Y-4.2323
X4.4291Y-4.3307
X4.4291Y-4.4291
X4.4291Y-4.5276
X4.4291Y-4.626
X4.4291Y-4.7244
X4.7244Y-2.8543
X4.7244Y-5.0197
X4.8228Y-2.8543
X4.8228Y-5.0197
X4.9213Y-2.8543
X4.9213Y-5.0197
X4.9803Y-3.75
X4.9803Y-3.7992
X5.0197Y-2.8543
X5.0197Y-5.0197
X5.7087Y-2.8543
X5.7283Y-4.0748
X5.8071Y-2.8543
X5.9055Y-2.8543
X5.9055Y-2.9528
X5.9055Y-3.0512
X5.9055Y-3.1496
X5.9055Y-3.248
X5.9941Y-4.2224
X6.1024Y-2.8543
X6.2008Y-2.8543
X6.2992Y-2.8543
X6.3976Y-2.8543
X6.4961Y-2.8543
X6.5945Y-2.8543
X6.5945Y-2.8543
X6.6929Y-2.8543
X6.7913Y-2.8543
X6.8898Y-2.8543
X6.9882Y-2.8543
X7.0866Y-2.8543
X7.0866Y-5.0197
X7.3819Y-3.1496
X7.3819Y-3.248
X7.3819Y-4.626
X7.3819Y-4.7244
T3
X4.3996Y-2.9134
X4.3996Y-4.9606
X4.4256Y-2.8507
X4.4256Y-2.976
X4.4256Y-4.898
X4.4256Y-5.0233
X4.4882Y-2.8248
X4.4882Y-3.002
X4.4882Y-4.872
X4.4882Y-5.0492
X4.5508Y-2.8507
X4.5508Y-2.976
X4.5508Y-4.898
X4.5508Y-5.0233
X4.5768Y-2.9134
X4.5768Y-4.9606
X7.2343Y-2.9134
X7.2343Y-4.9606
X7.2602Y-2.8507
X7.2602Y-2.976
X7.2602Y-4.898
X7.2602Y-5.0233
X7.3228Y-2.8248
X7.3228Y-3.002
X7.3228Y-4.872
X7.3228Y-5.0492
X7.3855Y-2.8507
X7.3855Y-2.976
X7.3855Y-4.898
X7.3855Y-5.0233
X7.4114Y-2.9134
X7.4114Y-4.9606
T4
X5.0689Y-4.0059
X5.0689Y-4.0559
T5
X4.9253Y-3.0749
X4.9253Y-3.1456
X4.996Y-3.0749
X4.996Y-3.1456
T6
X4.4882Y-3.7846
X4.4882Y-3.8846
X4.4882Y-3.9846
X4.4882Y-4.0846
X5.202Y-4.9016
X5.302Y-4.9016
X5.402Y-4.9016
X5.502Y-4.9016
X7.272Y-3.3858
X7.272Y-3.4858
X7.272Y-3.5858
X7.272Y-3.6858
X7.272Y-3.7858
X7.272Y-3.8858
X7.272Y-3.9858
X7.272Y-4.0858
X7.272Y-4.1858
X7.272Y-4.2858
X7.272Y-4.3858
X7.272Y-4.4858
X7.372Y-3.3858
X7.372Y-3.4858
X7.372Y-3.5858
X7.372Y-3.6858
X7.372Y-3.7858
X7.372Y-3.8858
X7.372Y-3.9858
X7.372Y-4.0858
X7.372Y-4.1858
X7.372Y-4.2858
X7.372Y-4.3858
X7.372Y-4.4858
T7
X6.2445Y-2.987
X6.2445Y-3.087
X6.2445Y-3.187
X6.2445Y-3.287
X6.2445Y-3.387
X6.2445Y-3.487
X6.2445Y-3.587
X6.2445Y-3.687
X6.2445Y-3.787
X6.2445Y-3.887
X6.2445Y-3.987
X6.2445Y-4.087
X6.2445Y-4.187
X6.2445Y-4.287
X6.2445Y-4.387
X6.2445Y-4.487
X6.2445Y-4.587
X6.2445Y-4.687
X6.2445Y-4.787
X6.2445Y-4.887
X6.4945Y-2.9961
X6.5945Y-2.9961
X6.6945Y-2.9961
X6.9445Y-2.987
X6.9445Y-3.087
X6.9445Y-3.187
X6.9445Y-3.287
X6.9445Y-3.387
X6.9445Y-3.487
X6.9445Y-3.587
X6.9445Y-3.687
X6.9445Y-3.787
X6.9445Y-3.887
X6.9445Y-3.987
X6.9445Y-4.087
X6.9445Y-4.187
X6.9445Y-4.287
X6.9445Y-4.387
X6.9445Y-4.487
X6.9445Y-4.587
X6.9445Y-4.687
X6.9445Y-4.787
X6.9445Y-4.887
T8
X4.4882Y-2.9134
X4.4882Y-4.9606
X7.3228Y-2.9134
X7.3228Y-4.9606
T0
M30
