%TF.GenerationSoftware,KiCad,Pcbnew,(5.1.10)-1*%
%TF.CreationDate,2021-08-08T16:35:40+05:30*%
%TF.ProjectId,Multislope IIA,4d756c74-6973-46c6-9f70-65204949412e,rev?*%
%TF.SameCoordinates,Original*%
%TF.FileFunction,Paste,Top*%
%TF.FilePolarity,Positive*%
%FSLAX46Y46*%
G04 Gerber Fmt 4.6, Leading zero omitted, Abs format (unit mm)*
G04 Created by KiCad (PCBNEW (5.1.10)-1) date 2021-08-08 16:35:40*
%MOMM*%
%LPD*%
G01*
G04 APERTURE LIST*
%ADD10R,0.800000X0.900000*%
%ADD11R,0.450000X0.600000*%
G04 APERTURE END LIST*
%TO.C,R22*%
G36*
G01*
X152475000Y-94425000D02*
X153025000Y-94425000D01*
G75*
G02*
X153225000Y-94625000I0J-200000D01*
G01*
X153225000Y-95025000D01*
G75*
G02*
X153025000Y-95225000I-200000J0D01*
G01*
X152475000Y-95225000D01*
G75*
G02*
X152275000Y-95025000I0J200000D01*
G01*
X152275000Y-94625000D01*
G75*
G02*
X152475000Y-94425000I200000J0D01*
G01*
G37*
G36*
G01*
X152475000Y-92775000D02*
X153025000Y-92775000D01*
G75*
G02*
X153225000Y-92975000I0J-200000D01*
G01*
X153225000Y-93375000D01*
G75*
G02*
X153025000Y-93575000I-200000J0D01*
G01*
X152475000Y-93575000D01*
G75*
G02*
X152275000Y-93375000I0J200000D01*
G01*
X152275000Y-92975000D01*
G75*
G02*
X152475000Y-92775000I200000J0D01*
G01*
G37*
%TD*%
%TO.C,R21*%
G36*
G01*
X117975000Y-96175000D02*
X118525000Y-96175000D01*
G75*
G02*
X118725000Y-96375000I0J-200000D01*
G01*
X118725000Y-96775000D01*
G75*
G02*
X118525000Y-96975000I-200000J0D01*
G01*
X117975000Y-96975000D01*
G75*
G02*
X117775000Y-96775000I0J200000D01*
G01*
X117775000Y-96375000D01*
G75*
G02*
X117975000Y-96175000I200000J0D01*
G01*
G37*
G36*
G01*
X117975000Y-94525000D02*
X118525000Y-94525000D01*
G75*
G02*
X118725000Y-94725000I0J-200000D01*
G01*
X118725000Y-95125000D01*
G75*
G02*
X118525000Y-95325000I-200000J0D01*
G01*
X117975000Y-95325000D01*
G75*
G02*
X117775000Y-95125000I0J200000D01*
G01*
X117775000Y-94725000D01*
G75*
G02*
X117975000Y-94525000I200000J0D01*
G01*
G37*
%TD*%
%TO.C,R20*%
G36*
G01*
X129225000Y-114425000D02*
X129775000Y-114425000D01*
G75*
G02*
X129975000Y-114625000I0J-200000D01*
G01*
X129975000Y-115025000D01*
G75*
G02*
X129775000Y-115225000I-200000J0D01*
G01*
X129225000Y-115225000D01*
G75*
G02*
X129025000Y-115025000I0J200000D01*
G01*
X129025000Y-114625000D01*
G75*
G02*
X129225000Y-114425000I200000J0D01*
G01*
G37*
G36*
G01*
X129225000Y-112775000D02*
X129775000Y-112775000D01*
G75*
G02*
X129975000Y-112975000I0J-200000D01*
G01*
X129975000Y-113375000D01*
G75*
G02*
X129775000Y-113575000I-200000J0D01*
G01*
X129225000Y-113575000D01*
G75*
G02*
X129025000Y-113375000I0J200000D01*
G01*
X129025000Y-112975000D01*
G75*
G02*
X129225000Y-112775000I200000J0D01*
G01*
G37*
%TD*%
%TO.C,R19*%
G36*
G01*
X151275000Y-118825000D02*
X150725000Y-118825000D01*
G75*
G02*
X150525000Y-118625000I0J200000D01*
G01*
X150525000Y-118225000D01*
G75*
G02*
X150725000Y-118025000I200000J0D01*
G01*
X151275000Y-118025000D01*
G75*
G02*
X151475000Y-118225000I0J-200000D01*
G01*
X151475000Y-118625000D01*
G75*
G02*
X151275000Y-118825000I-200000J0D01*
G01*
G37*
G36*
G01*
X151275000Y-120475000D02*
X150725000Y-120475000D01*
G75*
G02*
X150525000Y-120275000I0J200000D01*
G01*
X150525000Y-119875000D01*
G75*
G02*
X150725000Y-119675000I200000J0D01*
G01*
X151275000Y-119675000D01*
G75*
G02*
X151475000Y-119875000I0J-200000D01*
G01*
X151475000Y-120275000D01*
G75*
G02*
X151275000Y-120475000I-200000J0D01*
G01*
G37*
%TD*%
%TO.C,R18*%
G36*
G01*
X131525000Y-113575000D02*
X130975000Y-113575000D01*
G75*
G02*
X130775000Y-113375000I0J200000D01*
G01*
X130775000Y-112975000D01*
G75*
G02*
X130975000Y-112775000I200000J0D01*
G01*
X131525000Y-112775000D01*
G75*
G02*
X131725000Y-112975000I0J-200000D01*
G01*
X131725000Y-113375000D01*
G75*
G02*
X131525000Y-113575000I-200000J0D01*
G01*
G37*
G36*
G01*
X131525000Y-115225000D02*
X130975000Y-115225000D01*
G75*
G02*
X130775000Y-115025000I0J200000D01*
G01*
X130775000Y-114625000D01*
G75*
G02*
X130975000Y-114425000I200000J0D01*
G01*
X131525000Y-114425000D01*
G75*
G02*
X131725000Y-114625000I0J-200000D01*
G01*
X131725000Y-115025000D01*
G75*
G02*
X131525000Y-115225000I-200000J0D01*
G01*
G37*
%TD*%
%TO.C,R17*%
G36*
G01*
X133175000Y-122025000D02*
X133175000Y-121475000D01*
G75*
G02*
X133375000Y-121275000I200000J0D01*
G01*
X133775000Y-121275000D01*
G75*
G02*
X133975000Y-121475000I0J-200000D01*
G01*
X133975000Y-122025000D01*
G75*
G02*
X133775000Y-122225000I-200000J0D01*
G01*
X133375000Y-122225000D01*
G75*
G02*
X133175000Y-122025000I0J200000D01*
G01*
G37*
G36*
G01*
X131525000Y-122025000D02*
X131525000Y-121475000D01*
G75*
G02*
X131725000Y-121275000I200000J0D01*
G01*
X132125000Y-121275000D01*
G75*
G02*
X132325000Y-121475000I0J-200000D01*
G01*
X132325000Y-122025000D01*
G75*
G02*
X132125000Y-122225000I-200000J0D01*
G01*
X131725000Y-122225000D01*
G75*
G02*
X131525000Y-122025000I0J200000D01*
G01*
G37*
%TD*%
%TO.C,R16*%
G36*
G01*
X136425000Y-122025000D02*
X136425000Y-121475000D01*
G75*
G02*
X136625000Y-121275000I200000J0D01*
G01*
X137025000Y-121275000D01*
G75*
G02*
X137225000Y-121475000I0J-200000D01*
G01*
X137225000Y-122025000D01*
G75*
G02*
X137025000Y-122225000I-200000J0D01*
G01*
X136625000Y-122225000D01*
G75*
G02*
X136425000Y-122025000I0J200000D01*
G01*
G37*
G36*
G01*
X134775000Y-122025000D02*
X134775000Y-121475000D01*
G75*
G02*
X134975000Y-121275000I200000J0D01*
G01*
X135375000Y-121275000D01*
G75*
G02*
X135575000Y-121475000I0J-200000D01*
G01*
X135575000Y-122025000D01*
G75*
G02*
X135375000Y-122225000I-200000J0D01*
G01*
X134975000Y-122225000D01*
G75*
G02*
X134775000Y-122025000I0J200000D01*
G01*
G37*
%TD*%
%TO.C,R15*%
G36*
G01*
X139675000Y-122025000D02*
X139675000Y-121475000D01*
G75*
G02*
X139875000Y-121275000I200000J0D01*
G01*
X140275000Y-121275000D01*
G75*
G02*
X140475000Y-121475000I0J-200000D01*
G01*
X140475000Y-122025000D01*
G75*
G02*
X140275000Y-122225000I-200000J0D01*
G01*
X139875000Y-122225000D01*
G75*
G02*
X139675000Y-122025000I0J200000D01*
G01*
G37*
G36*
G01*
X138025000Y-122025000D02*
X138025000Y-121475000D01*
G75*
G02*
X138225000Y-121275000I200000J0D01*
G01*
X138625000Y-121275000D01*
G75*
G02*
X138825000Y-121475000I0J-200000D01*
G01*
X138825000Y-122025000D01*
G75*
G02*
X138625000Y-122225000I-200000J0D01*
G01*
X138225000Y-122225000D01*
G75*
G02*
X138025000Y-122025000I0J200000D01*
G01*
G37*
%TD*%
%TO.C,R14*%
G36*
G01*
X143225000Y-123425000D02*
X143775000Y-123425000D01*
G75*
G02*
X143975000Y-123625000I0J-200000D01*
G01*
X143975000Y-124025000D01*
G75*
G02*
X143775000Y-124225000I-200000J0D01*
G01*
X143225000Y-124225000D01*
G75*
G02*
X143025000Y-124025000I0J200000D01*
G01*
X143025000Y-123625000D01*
G75*
G02*
X143225000Y-123425000I200000J0D01*
G01*
G37*
G36*
G01*
X143225000Y-121775000D02*
X143775000Y-121775000D01*
G75*
G02*
X143975000Y-121975000I0J-200000D01*
G01*
X143975000Y-122375000D01*
G75*
G02*
X143775000Y-122575000I-200000J0D01*
G01*
X143225000Y-122575000D01*
G75*
G02*
X143025000Y-122375000I0J200000D01*
G01*
X143025000Y-121975000D01*
G75*
G02*
X143225000Y-121775000I200000J0D01*
G01*
G37*
%TD*%
%TO.C,R13*%
G36*
G01*
X143775000Y-118825000D02*
X143225000Y-118825000D01*
G75*
G02*
X143025000Y-118625000I0J200000D01*
G01*
X143025000Y-118225000D01*
G75*
G02*
X143225000Y-118025000I200000J0D01*
G01*
X143775000Y-118025000D01*
G75*
G02*
X143975000Y-118225000I0J-200000D01*
G01*
X143975000Y-118625000D01*
G75*
G02*
X143775000Y-118825000I-200000J0D01*
G01*
G37*
G36*
G01*
X143775000Y-120475000D02*
X143225000Y-120475000D01*
G75*
G02*
X143025000Y-120275000I0J200000D01*
G01*
X143025000Y-119875000D01*
G75*
G02*
X143225000Y-119675000I200000J0D01*
G01*
X143775000Y-119675000D01*
G75*
G02*
X143975000Y-119875000I0J-200000D01*
G01*
X143975000Y-120275000D01*
G75*
G02*
X143775000Y-120475000I-200000J0D01*
G01*
G37*
%TD*%
%TO.C,R12*%
G36*
G01*
X149275000Y-122575000D02*
X148725000Y-122575000D01*
G75*
G02*
X148525000Y-122375000I0J200000D01*
G01*
X148525000Y-121975000D01*
G75*
G02*
X148725000Y-121775000I200000J0D01*
G01*
X149275000Y-121775000D01*
G75*
G02*
X149475000Y-121975000I0J-200000D01*
G01*
X149475000Y-122375000D01*
G75*
G02*
X149275000Y-122575000I-200000J0D01*
G01*
G37*
G36*
G01*
X149275000Y-124225000D02*
X148725000Y-124225000D01*
G75*
G02*
X148525000Y-124025000I0J200000D01*
G01*
X148525000Y-123625000D01*
G75*
G02*
X148725000Y-123425000I200000J0D01*
G01*
X149275000Y-123425000D01*
G75*
G02*
X149475000Y-123625000I0J-200000D01*
G01*
X149475000Y-124025000D01*
G75*
G02*
X149275000Y-124225000I-200000J0D01*
G01*
G37*
%TD*%
%TO.C,R11*%
G36*
G01*
X126025000Y-104075000D02*
X125475000Y-104075000D01*
G75*
G02*
X125275000Y-103875000I0J200000D01*
G01*
X125275000Y-103475000D01*
G75*
G02*
X125475000Y-103275000I200000J0D01*
G01*
X126025000Y-103275000D01*
G75*
G02*
X126225000Y-103475000I0J-200000D01*
G01*
X126225000Y-103875000D01*
G75*
G02*
X126025000Y-104075000I-200000J0D01*
G01*
G37*
G36*
G01*
X126025000Y-105725000D02*
X125475000Y-105725000D01*
G75*
G02*
X125275000Y-105525000I0J200000D01*
G01*
X125275000Y-105125000D01*
G75*
G02*
X125475000Y-104925000I200000J0D01*
G01*
X126025000Y-104925000D01*
G75*
G02*
X126225000Y-105125000I0J-200000D01*
G01*
X126225000Y-105525000D01*
G75*
G02*
X126025000Y-105725000I-200000J0D01*
G01*
G37*
%TD*%
%TO.C,R10*%
G36*
G01*
X141025000Y-113575000D02*
X140475000Y-113575000D01*
G75*
G02*
X140275000Y-113375000I0J200000D01*
G01*
X140275000Y-112975000D01*
G75*
G02*
X140475000Y-112775000I200000J0D01*
G01*
X141025000Y-112775000D01*
G75*
G02*
X141225000Y-112975000I0J-200000D01*
G01*
X141225000Y-113375000D01*
G75*
G02*
X141025000Y-113575000I-200000J0D01*
G01*
G37*
G36*
G01*
X141025000Y-115225000D02*
X140475000Y-115225000D01*
G75*
G02*
X140275000Y-115025000I0J200000D01*
G01*
X140275000Y-114625000D01*
G75*
G02*
X140475000Y-114425000I200000J0D01*
G01*
X141025000Y-114425000D01*
G75*
G02*
X141225000Y-114625000I0J-200000D01*
G01*
X141225000Y-115025000D01*
G75*
G02*
X141025000Y-115225000I-200000J0D01*
G01*
G37*
%TD*%
%TO.C,R9*%
G36*
G01*
X141025000Y-105325000D02*
X140475000Y-105325000D01*
G75*
G02*
X140275000Y-105125000I0J200000D01*
G01*
X140275000Y-104725000D01*
G75*
G02*
X140475000Y-104525000I200000J0D01*
G01*
X141025000Y-104525000D01*
G75*
G02*
X141225000Y-104725000I0J-200000D01*
G01*
X141225000Y-105125000D01*
G75*
G02*
X141025000Y-105325000I-200000J0D01*
G01*
G37*
G36*
G01*
X141025000Y-106975000D02*
X140475000Y-106975000D01*
G75*
G02*
X140275000Y-106775000I0J200000D01*
G01*
X140275000Y-106375000D01*
G75*
G02*
X140475000Y-106175000I200000J0D01*
G01*
X141025000Y-106175000D01*
G75*
G02*
X141225000Y-106375000I0J-200000D01*
G01*
X141225000Y-106775000D01*
G75*
G02*
X141025000Y-106975000I-200000J0D01*
G01*
G37*
%TD*%
%TO.C,R8*%
G36*
G01*
X141025000Y-102325000D02*
X140475000Y-102325000D01*
G75*
G02*
X140275000Y-102125000I0J200000D01*
G01*
X140275000Y-101725000D01*
G75*
G02*
X140475000Y-101525000I200000J0D01*
G01*
X141025000Y-101525000D01*
G75*
G02*
X141225000Y-101725000I0J-200000D01*
G01*
X141225000Y-102125000D01*
G75*
G02*
X141025000Y-102325000I-200000J0D01*
G01*
G37*
G36*
G01*
X141025000Y-103975000D02*
X140475000Y-103975000D01*
G75*
G02*
X140275000Y-103775000I0J200000D01*
G01*
X140275000Y-103375000D01*
G75*
G02*
X140475000Y-103175000I200000J0D01*
G01*
X141025000Y-103175000D01*
G75*
G02*
X141225000Y-103375000I0J-200000D01*
G01*
X141225000Y-103775000D01*
G75*
G02*
X141025000Y-103975000I-200000J0D01*
G01*
G37*
%TD*%
%TO.C,R7*%
G36*
G01*
X136325000Y-76225000D02*
X136325000Y-76775000D01*
G75*
G02*
X136125000Y-76975000I-200000J0D01*
G01*
X135725000Y-76975000D01*
G75*
G02*
X135525000Y-76775000I0J200000D01*
G01*
X135525000Y-76225000D01*
G75*
G02*
X135725000Y-76025000I200000J0D01*
G01*
X136125000Y-76025000D01*
G75*
G02*
X136325000Y-76225000I0J-200000D01*
G01*
G37*
G36*
G01*
X137975000Y-76225000D02*
X137975000Y-76775000D01*
G75*
G02*
X137775000Y-76975000I-200000J0D01*
G01*
X137375000Y-76975000D01*
G75*
G02*
X137175000Y-76775000I0J200000D01*
G01*
X137175000Y-76225000D01*
G75*
G02*
X137375000Y-76025000I200000J0D01*
G01*
X137775000Y-76025000D01*
G75*
G02*
X137975000Y-76225000I0J-200000D01*
G01*
G37*
%TD*%
%TO.C,R6*%
G36*
G01*
X137175000Y-75025000D02*
X137175000Y-74475000D01*
G75*
G02*
X137375000Y-74275000I200000J0D01*
G01*
X137775000Y-74275000D01*
G75*
G02*
X137975000Y-74475000I0J-200000D01*
G01*
X137975000Y-75025000D01*
G75*
G02*
X137775000Y-75225000I-200000J0D01*
G01*
X137375000Y-75225000D01*
G75*
G02*
X137175000Y-75025000I0J200000D01*
G01*
G37*
G36*
G01*
X135525000Y-75025000D02*
X135525000Y-74475000D01*
G75*
G02*
X135725000Y-74275000I200000J0D01*
G01*
X136125000Y-74275000D01*
G75*
G02*
X136325000Y-74475000I0J-200000D01*
G01*
X136325000Y-75025000D01*
G75*
G02*
X136125000Y-75225000I-200000J0D01*
G01*
X135725000Y-75225000D01*
G75*
G02*
X135525000Y-75025000I0J200000D01*
G01*
G37*
%TD*%
%TO.C,R5*%
G36*
G01*
X133675000Y-75025000D02*
X133675000Y-74475000D01*
G75*
G02*
X133875000Y-74275000I200000J0D01*
G01*
X134275000Y-74275000D01*
G75*
G02*
X134475000Y-74475000I0J-200000D01*
G01*
X134475000Y-75025000D01*
G75*
G02*
X134275000Y-75225000I-200000J0D01*
G01*
X133875000Y-75225000D01*
G75*
G02*
X133675000Y-75025000I0J200000D01*
G01*
G37*
G36*
G01*
X132025000Y-75025000D02*
X132025000Y-74475000D01*
G75*
G02*
X132225000Y-74275000I200000J0D01*
G01*
X132625000Y-74275000D01*
G75*
G02*
X132825000Y-74475000I0J-200000D01*
G01*
X132825000Y-75025000D01*
G75*
G02*
X132625000Y-75225000I-200000J0D01*
G01*
X132225000Y-75225000D01*
G75*
G02*
X132025000Y-75025000I0J200000D01*
G01*
G37*
%TD*%
%TO.C,R4*%
G36*
G01*
X132825000Y-76225000D02*
X132825000Y-76775000D01*
G75*
G02*
X132625000Y-76975000I-200000J0D01*
G01*
X132225000Y-76975000D01*
G75*
G02*
X132025000Y-76775000I0J200000D01*
G01*
X132025000Y-76225000D01*
G75*
G02*
X132225000Y-76025000I200000J0D01*
G01*
X132625000Y-76025000D01*
G75*
G02*
X132825000Y-76225000I0J-200000D01*
G01*
G37*
G36*
G01*
X134475000Y-76225000D02*
X134475000Y-76775000D01*
G75*
G02*
X134275000Y-76975000I-200000J0D01*
G01*
X133875000Y-76975000D01*
G75*
G02*
X133675000Y-76775000I0J200000D01*
G01*
X133675000Y-76225000D01*
G75*
G02*
X133875000Y-76025000I200000J0D01*
G01*
X134275000Y-76025000D01*
G75*
G02*
X134475000Y-76225000I0J-200000D01*
G01*
G37*
%TD*%
%TO.C,R3*%
G36*
G01*
X128525000Y-85575000D02*
X127975000Y-85575000D01*
G75*
G02*
X127775000Y-85375000I0J200000D01*
G01*
X127775000Y-84975000D01*
G75*
G02*
X127975000Y-84775000I200000J0D01*
G01*
X128525000Y-84775000D01*
G75*
G02*
X128725000Y-84975000I0J-200000D01*
G01*
X128725000Y-85375000D01*
G75*
G02*
X128525000Y-85575000I-200000J0D01*
G01*
G37*
G36*
G01*
X128525000Y-87225000D02*
X127975000Y-87225000D01*
G75*
G02*
X127775000Y-87025000I0J200000D01*
G01*
X127775000Y-86625000D01*
G75*
G02*
X127975000Y-86425000I200000J0D01*
G01*
X128525000Y-86425000D01*
G75*
G02*
X128725000Y-86625000I0J-200000D01*
G01*
X128725000Y-87025000D01*
G75*
G02*
X128525000Y-87225000I-200000J0D01*
G01*
G37*
%TD*%
%TO.C,R2*%
G36*
G01*
X126525000Y-85575000D02*
X125975000Y-85575000D01*
G75*
G02*
X125775000Y-85375000I0J200000D01*
G01*
X125775000Y-84975000D01*
G75*
G02*
X125975000Y-84775000I200000J0D01*
G01*
X126525000Y-84775000D01*
G75*
G02*
X126725000Y-84975000I0J-200000D01*
G01*
X126725000Y-85375000D01*
G75*
G02*
X126525000Y-85575000I-200000J0D01*
G01*
G37*
G36*
G01*
X126525000Y-87225000D02*
X125975000Y-87225000D01*
G75*
G02*
X125775000Y-87025000I0J200000D01*
G01*
X125775000Y-86625000D01*
G75*
G02*
X125975000Y-86425000I200000J0D01*
G01*
X126525000Y-86425000D01*
G75*
G02*
X126725000Y-86625000I0J-200000D01*
G01*
X126725000Y-87025000D01*
G75*
G02*
X126525000Y-87225000I-200000J0D01*
G01*
G37*
%TD*%
%TO.C,R1*%
G36*
G01*
X121475000Y-86425000D02*
X122025000Y-86425000D01*
G75*
G02*
X122225000Y-86625000I0J-200000D01*
G01*
X122225000Y-87025000D01*
G75*
G02*
X122025000Y-87225000I-200000J0D01*
G01*
X121475000Y-87225000D01*
G75*
G02*
X121275000Y-87025000I0J200000D01*
G01*
X121275000Y-86625000D01*
G75*
G02*
X121475000Y-86425000I200000J0D01*
G01*
G37*
G36*
G01*
X121475000Y-84775000D02*
X122025000Y-84775000D01*
G75*
G02*
X122225000Y-84975000I0J-200000D01*
G01*
X122225000Y-85375000D01*
G75*
G02*
X122025000Y-85575000I-200000J0D01*
G01*
X121475000Y-85575000D01*
G75*
G02*
X121275000Y-85375000I0J200000D01*
G01*
X121275000Y-84975000D01*
G75*
G02*
X121475000Y-84775000I200000J0D01*
G01*
G37*
%TD*%
%TO.C,FB15*%
G36*
G01*
X151256250Y-110187500D02*
X150743750Y-110187500D01*
G75*
G02*
X150525000Y-109968750I0J218750D01*
G01*
X150525000Y-109531250D01*
G75*
G02*
X150743750Y-109312500I218750J0D01*
G01*
X151256250Y-109312500D01*
G75*
G02*
X151475000Y-109531250I0J-218750D01*
G01*
X151475000Y-109968750D01*
G75*
G02*
X151256250Y-110187500I-218750J0D01*
G01*
G37*
G36*
G01*
X151256250Y-111762500D02*
X150743750Y-111762500D01*
G75*
G02*
X150525000Y-111543750I0J218750D01*
G01*
X150525000Y-111106250D01*
G75*
G02*
X150743750Y-110887500I218750J0D01*
G01*
X151256250Y-110887500D01*
G75*
G02*
X151475000Y-111106250I0J-218750D01*
G01*
X151475000Y-111543750D01*
G75*
G02*
X151256250Y-111762500I-218750J0D01*
G01*
G37*
%TD*%
%TO.C,FB14*%
G36*
G01*
X124256250Y-104150000D02*
X123743750Y-104150000D01*
G75*
G02*
X123525000Y-103931250I0J218750D01*
G01*
X123525000Y-103493750D01*
G75*
G02*
X123743750Y-103275000I218750J0D01*
G01*
X124256250Y-103275000D01*
G75*
G02*
X124475000Y-103493750I0J-218750D01*
G01*
X124475000Y-103931250D01*
G75*
G02*
X124256250Y-104150000I-218750J0D01*
G01*
G37*
G36*
G01*
X124256250Y-105725000D02*
X123743750Y-105725000D01*
G75*
G02*
X123525000Y-105506250I0J218750D01*
G01*
X123525000Y-105068750D01*
G75*
G02*
X123743750Y-104850000I218750J0D01*
G01*
X124256250Y-104850000D01*
G75*
G02*
X124475000Y-105068750I0J-218750D01*
G01*
X124475000Y-105506250D01*
G75*
G02*
X124256250Y-105725000I-218750J0D01*
G01*
G37*
%TD*%
%TO.C,FB13*%
G36*
G01*
X151256250Y-97150000D02*
X150743750Y-97150000D01*
G75*
G02*
X150525000Y-96931250I0J218750D01*
G01*
X150525000Y-96493750D01*
G75*
G02*
X150743750Y-96275000I218750J0D01*
G01*
X151256250Y-96275000D01*
G75*
G02*
X151475000Y-96493750I0J-218750D01*
G01*
X151475000Y-96931250D01*
G75*
G02*
X151256250Y-97150000I-218750J0D01*
G01*
G37*
G36*
G01*
X151256250Y-98725000D02*
X150743750Y-98725000D01*
G75*
G02*
X150525000Y-98506250I0J218750D01*
G01*
X150525000Y-98068750D01*
G75*
G02*
X150743750Y-97850000I218750J0D01*
G01*
X151256250Y-97850000D01*
G75*
G02*
X151475000Y-98068750I0J-218750D01*
G01*
X151475000Y-98506250D01*
G75*
G02*
X151256250Y-98725000I-218750J0D01*
G01*
G37*
%TD*%
%TO.C,FB12*%
G36*
G01*
X138100000Y-118006250D02*
X138100000Y-117493750D01*
G75*
G02*
X138318750Y-117275000I218750J0D01*
G01*
X138756250Y-117275000D01*
G75*
G02*
X138975000Y-117493750I0J-218750D01*
G01*
X138975000Y-118006250D01*
G75*
G02*
X138756250Y-118225000I-218750J0D01*
G01*
X138318750Y-118225000D01*
G75*
G02*
X138100000Y-118006250I0J218750D01*
G01*
G37*
G36*
G01*
X136525000Y-118006250D02*
X136525000Y-117493750D01*
G75*
G02*
X136743750Y-117275000I218750J0D01*
G01*
X137181250Y-117275000D01*
G75*
G02*
X137400000Y-117493750I0J-218750D01*
G01*
X137400000Y-118006250D01*
G75*
G02*
X137181250Y-118225000I-218750J0D01*
G01*
X136743750Y-118225000D01*
G75*
G02*
X136525000Y-118006250I0J218750D01*
G01*
G37*
%TD*%
%TO.C,FB11*%
G36*
G01*
X134600000Y-110506250D02*
X134600000Y-109993750D01*
G75*
G02*
X134818750Y-109775000I218750J0D01*
G01*
X135256250Y-109775000D01*
G75*
G02*
X135475000Y-109993750I0J-218750D01*
G01*
X135475000Y-110506250D01*
G75*
G02*
X135256250Y-110725000I-218750J0D01*
G01*
X134818750Y-110725000D01*
G75*
G02*
X134600000Y-110506250I0J218750D01*
G01*
G37*
G36*
G01*
X133025000Y-110506250D02*
X133025000Y-109993750D01*
G75*
G02*
X133243750Y-109775000I218750J0D01*
G01*
X133681250Y-109775000D01*
G75*
G02*
X133900000Y-109993750I0J-218750D01*
G01*
X133900000Y-110506250D01*
G75*
G02*
X133681250Y-110725000I-218750J0D01*
G01*
X133243750Y-110725000D01*
G75*
G02*
X133025000Y-110506250I0J218750D01*
G01*
G37*
%TD*%
%TO.C,FB10*%
G36*
G01*
X141756250Y-93650000D02*
X141243750Y-93650000D01*
G75*
G02*
X141025000Y-93431250I0J218750D01*
G01*
X141025000Y-92993750D01*
G75*
G02*
X141243750Y-92775000I218750J0D01*
G01*
X141756250Y-92775000D01*
G75*
G02*
X141975000Y-92993750I0J-218750D01*
G01*
X141975000Y-93431250D01*
G75*
G02*
X141756250Y-93650000I-218750J0D01*
G01*
G37*
G36*
G01*
X141756250Y-95225000D02*
X141243750Y-95225000D01*
G75*
G02*
X141025000Y-95006250I0J218750D01*
G01*
X141025000Y-94568750D01*
G75*
G02*
X141243750Y-94350000I218750J0D01*
G01*
X141756250Y-94350000D01*
G75*
G02*
X141975000Y-94568750I0J-218750D01*
G01*
X141975000Y-95006250D01*
G75*
G02*
X141756250Y-95225000I-218750J0D01*
G01*
G37*
%TD*%
%TO.C,FB9*%
G36*
G01*
X150743750Y-90850000D02*
X151256250Y-90850000D01*
G75*
G02*
X151475000Y-91068750I0J-218750D01*
G01*
X151475000Y-91506250D01*
G75*
G02*
X151256250Y-91725000I-218750J0D01*
G01*
X150743750Y-91725000D01*
G75*
G02*
X150525000Y-91506250I0J218750D01*
G01*
X150525000Y-91068750D01*
G75*
G02*
X150743750Y-90850000I218750J0D01*
G01*
G37*
G36*
G01*
X150743750Y-89275000D02*
X151256250Y-89275000D01*
G75*
G02*
X151475000Y-89493750I0J-218750D01*
G01*
X151475000Y-89931250D01*
G75*
G02*
X151256250Y-90150000I-218750J0D01*
G01*
X150743750Y-90150000D01*
G75*
G02*
X150525000Y-89931250I0J218750D01*
G01*
X150525000Y-89493750D01*
G75*
G02*
X150743750Y-89275000I218750J0D01*
G01*
G37*
%TD*%
%TO.C,FB8*%
G36*
G01*
X138100000Y-98006250D02*
X138100000Y-97493750D01*
G75*
G02*
X138318750Y-97275000I218750J0D01*
G01*
X138756250Y-97275000D01*
G75*
G02*
X138975000Y-97493750I0J-218750D01*
G01*
X138975000Y-98006250D01*
G75*
G02*
X138756250Y-98225000I-218750J0D01*
G01*
X138318750Y-98225000D01*
G75*
G02*
X138100000Y-98006250I0J218750D01*
G01*
G37*
G36*
G01*
X136525000Y-98006250D02*
X136525000Y-97493750D01*
G75*
G02*
X136743750Y-97275000I218750J0D01*
G01*
X137181250Y-97275000D01*
G75*
G02*
X137400000Y-97493750I0J-218750D01*
G01*
X137400000Y-98006250D01*
G75*
G02*
X137181250Y-98225000I-218750J0D01*
G01*
X136743750Y-98225000D01*
G75*
G02*
X136525000Y-98006250I0J218750D01*
G01*
G37*
%TD*%
%TO.C,FB7*%
G36*
G01*
X134600000Y-90506250D02*
X134600000Y-89993750D01*
G75*
G02*
X134818750Y-89775000I218750J0D01*
G01*
X135256250Y-89775000D01*
G75*
G02*
X135475000Y-89993750I0J-218750D01*
G01*
X135475000Y-90506250D01*
G75*
G02*
X135256250Y-90725000I-218750J0D01*
G01*
X134818750Y-90725000D01*
G75*
G02*
X134600000Y-90506250I0J218750D01*
G01*
G37*
G36*
G01*
X133025000Y-90506250D02*
X133025000Y-89993750D01*
G75*
G02*
X133243750Y-89775000I218750J0D01*
G01*
X133681250Y-89775000D01*
G75*
G02*
X133900000Y-89993750I0J-218750D01*
G01*
X133900000Y-90506250D01*
G75*
G02*
X133681250Y-90725000I-218750J0D01*
G01*
X133243750Y-90725000D01*
G75*
G02*
X133025000Y-90506250I0J218750D01*
G01*
G37*
%TD*%
%TO.C,FB6*%
G36*
G01*
X131506250Y-91900000D02*
X130993750Y-91900000D01*
G75*
G02*
X130775000Y-91681250I0J218750D01*
G01*
X130775000Y-91243750D01*
G75*
G02*
X130993750Y-91025000I218750J0D01*
G01*
X131506250Y-91025000D01*
G75*
G02*
X131725000Y-91243750I0J-218750D01*
G01*
X131725000Y-91681250D01*
G75*
G02*
X131506250Y-91900000I-218750J0D01*
G01*
G37*
G36*
G01*
X131506250Y-93475000D02*
X130993750Y-93475000D01*
G75*
G02*
X130775000Y-93256250I0J218750D01*
G01*
X130775000Y-92818750D01*
G75*
G02*
X130993750Y-92600000I218750J0D01*
G01*
X131506250Y-92600000D01*
G75*
G02*
X131725000Y-92818750I0J-218750D01*
G01*
X131725000Y-93256250D01*
G75*
G02*
X131506250Y-93475000I-218750J0D01*
G01*
G37*
%TD*%
%TO.C,FB5*%
G36*
G01*
X122006250Y-95400000D02*
X121493750Y-95400000D01*
G75*
G02*
X121275000Y-95181250I0J218750D01*
G01*
X121275000Y-94743750D01*
G75*
G02*
X121493750Y-94525000I218750J0D01*
G01*
X122006250Y-94525000D01*
G75*
G02*
X122225000Y-94743750I0J-218750D01*
G01*
X122225000Y-95181250D01*
G75*
G02*
X122006250Y-95400000I-218750J0D01*
G01*
G37*
G36*
G01*
X122006250Y-96975000D02*
X121493750Y-96975000D01*
G75*
G02*
X121275000Y-96756250I0J218750D01*
G01*
X121275000Y-96318750D01*
G75*
G02*
X121493750Y-96100000I218750J0D01*
G01*
X122006250Y-96100000D01*
G75*
G02*
X122225000Y-96318750I0J-218750D01*
G01*
X122225000Y-96756250D01*
G75*
G02*
X122006250Y-96975000I-218750J0D01*
G01*
G37*
%TD*%
%TO.C,FB4*%
G36*
G01*
X138100000Y-108006250D02*
X138100000Y-107493750D01*
G75*
G02*
X138318750Y-107275000I218750J0D01*
G01*
X138756250Y-107275000D01*
G75*
G02*
X138975000Y-107493750I0J-218750D01*
G01*
X138975000Y-108006250D01*
G75*
G02*
X138756250Y-108225000I-218750J0D01*
G01*
X138318750Y-108225000D01*
G75*
G02*
X138100000Y-108006250I0J218750D01*
G01*
G37*
G36*
G01*
X136525000Y-108006250D02*
X136525000Y-107493750D01*
G75*
G02*
X136743750Y-107275000I218750J0D01*
G01*
X137181250Y-107275000D01*
G75*
G02*
X137400000Y-107493750I0J-218750D01*
G01*
X137400000Y-108006250D01*
G75*
G02*
X137181250Y-108225000I-218750J0D01*
G01*
X136743750Y-108225000D01*
G75*
G02*
X136525000Y-108006250I0J218750D01*
G01*
G37*
%TD*%
%TO.C,FB3*%
G36*
G01*
X134600000Y-100506250D02*
X134600000Y-99993750D01*
G75*
G02*
X134818750Y-99775000I218750J0D01*
G01*
X135256250Y-99775000D01*
G75*
G02*
X135475000Y-99993750I0J-218750D01*
G01*
X135475000Y-100506250D01*
G75*
G02*
X135256250Y-100725000I-218750J0D01*
G01*
X134818750Y-100725000D01*
G75*
G02*
X134600000Y-100506250I0J218750D01*
G01*
G37*
G36*
G01*
X133025000Y-100506250D02*
X133025000Y-99993750D01*
G75*
G02*
X133243750Y-99775000I218750J0D01*
G01*
X133681250Y-99775000D01*
G75*
G02*
X133900000Y-99993750I0J-218750D01*
G01*
X133900000Y-100506250D01*
G75*
G02*
X133681250Y-100725000I-218750J0D01*
G01*
X133243750Y-100725000D01*
G75*
G02*
X133025000Y-100506250I0J218750D01*
G01*
G37*
%TD*%
%TO.C,FB2*%
G36*
G01*
X133600000Y-86006250D02*
X133600000Y-85493750D01*
G75*
G02*
X133818750Y-85275000I218750J0D01*
G01*
X134256250Y-85275000D01*
G75*
G02*
X134475000Y-85493750I0J-218750D01*
G01*
X134475000Y-86006250D01*
G75*
G02*
X134256250Y-86225000I-218750J0D01*
G01*
X133818750Y-86225000D01*
G75*
G02*
X133600000Y-86006250I0J218750D01*
G01*
G37*
G36*
G01*
X132025000Y-86006250D02*
X132025000Y-85493750D01*
G75*
G02*
X132243750Y-85275000I218750J0D01*
G01*
X132681250Y-85275000D01*
G75*
G02*
X132900000Y-85493750I0J-218750D01*
G01*
X132900000Y-86006250D01*
G75*
G02*
X132681250Y-86225000I-218750J0D01*
G01*
X132243750Y-86225000D01*
G75*
G02*
X132025000Y-86006250I0J218750D01*
G01*
G37*
%TD*%
%TO.C,FB1*%
G36*
G01*
X141756250Y-78900000D02*
X141243750Y-78900000D01*
G75*
G02*
X141025000Y-78681250I0J218750D01*
G01*
X141025000Y-78243750D01*
G75*
G02*
X141243750Y-78025000I218750J0D01*
G01*
X141756250Y-78025000D01*
G75*
G02*
X141975000Y-78243750I0J-218750D01*
G01*
X141975000Y-78681250D01*
G75*
G02*
X141756250Y-78900000I-218750J0D01*
G01*
G37*
G36*
G01*
X141756250Y-80475000D02*
X141243750Y-80475000D01*
G75*
G02*
X141025000Y-80256250I0J218750D01*
G01*
X141025000Y-79818750D01*
G75*
G02*
X141243750Y-79600000I218750J0D01*
G01*
X141756250Y-79600000D01*
G75*
G02*
X141975000Y-79818750I0J-218750D01*
G01*
X141975000Y-80256250D01*
G75*
G02*
X141756250Y-80475000I-218750J0D01*
G01*
G37*
%TD*%
%TO.C,C18*%
G36*
G01*
X150750000Y-107600000D02*
X151250000Y-107600000D01*
G75*
G02*
X151475000Y-107825000I0J-225000D01*
G01*
X151475000Y-108275000D01*
G75*
G02*
X151250000Y-108500000I-225000J0D01*
G01*
X150750000Y-108500000D01*
G75*
G02*
X150525000Y-108275000I0J225000D01*
G01*
X150525000Y-107825000D01*
G75*
G02*
X150750000Y-107600000I225000J0D01*
G01*
G37*
G36*
G01*
X150750000Y-106050000D02*
X151250000Y-106050000D01*
G75*
G02*
X151475000Y-106275000I0J-225000D01*
G01*
X151475000Y-106725000D01*
G75*
G02*
X151250000Y-106950000I-225000J0D01*
G01*
X150750000Y-106950000D01*
G75*
G02*
X150525000Y-106725000I0J225000D01*
G01*
X150525000Y-106275000D01*
G75*
G02*
X150750000Y-106050000I225000J0D01*
G01*
G37*
%TD*%
%TO.C,C17*%
G36*
G01*
X139575000Y-120000000D02*
X139575000Y-119500000D01*
G75*
G02*
X139800000Y-119275000I225000J0D01*
G01*
X140250000Y-119275000D01*
G75*
G02*
X140475000Y-119500000I0J-225000D01*
G01*
X140475000Y-120000000D01*
G75*
G02*
X140250000Y-120225000I-225000J0D01*
G01*
X139800000Y-120225000D01*
G75*
G02*
X139575000Y-120000000I0J225000D01*
G01*
G37*
G36*
G01*
X138025000Y-120000000D02*
X138025000Y-119500000D01*
G75*
G02*
X138250000Y-119275000I225000J0D01*
G01*
X138700000Y-119275000D01*
G75*
G02*
X138925000Y-119500000I0J-225000D01*
G01*
X138925000Y-120000000D01*
G75*
G02*
X138700000Y-120225000I-225000J0D01*
G01*
X138250000Y-120225000D01*
G75*
G02*
X138025000Y-120000000I0J225000D01*
G01*
G37*
%TD*%
%TO.C,C16*%
G36*
G01*
X136325000Y-120000000D02*
X136325000Y-119500000D01*
G75*
G02*
X136550000Y-119275000I225000J0D01*
G01*
X137000000Y-119275000D01*
G75*
G02*
X137225000Y-119500000I0J-225000D01*
G01*
X137225000Y-120000000D01*
G75*
G02*
X137000000Y-120225000I-225000J0D01*
G01*
X136550000Y-120225000D01*
G75*
G02*
X136325000Y-120000000I0J225000D01*
G01*
G37*
G36*
G01*
X134775000Y-120000000D02*
X134775000Y-119500000D01*
G75*
G02*
X135000000Y-119275000I225000J0D01*
G01*
X135450000Y-119275000D01*
G75*
G02*
X135675000Y-119500000I0J-225000D01*
G01*
X135675000Y-120000000D01*
G75*
G02*
X135450000Y-120225000I-225000J0D01*
G01*
X135000000Y-120225000D01*
G75*
G02*
X134775000Y-120000000I0J225000D01*
G01*
G37*
%TD*%
%TO.C,C15*%
G36*
G01*
X133075000Y-120000000D02*
X133075000Y-119500000D01*
G75*
G02*
X133300000Y-119275000I225000J0D01*
G01*
X133750000Y-119275000D01*
G75*
G02*
X133975000Y-119500000I0J-225000D01*
G01*
X133975000Y-120000000D01*
G75*
G02*
X133750000Y-120225000I-225000J0D01*
G01*
X133300000Y-120225000D01*
G75*
G02*
X133075000Y-120000000I0J225000D01*
G01*
G37*
G36*
G01*
X131525000Y-120000000D02*
X131525000Y-119500000D01*
G75*
G02*
X131750000Y-119275000I225000J0D01*
G01*
X132200000Y-119275000D01*
G75*
G02*
X132425000Y-119500000I0J-225000D01*
G01*
X132425000Y-120000000D01*
G75*
G02*
X132200000Y-120225000I-225000J0D01*
G01*
X131750000Y-120225000D01*
G75*
G02*
X131525000Y-120000000I0J225000D01*
G01*
G37*
%TD*%
%TO.C,C14*%
G36*
G01*
X149250000Y-118925000D02*
X148750000Y-118925000D01*
G75*
G02*
X148525000Y-118700000I0J225000D01*
G01*
X148525000Y-118250000D01*
G75*
G02*
X148750000Y-118025000I225000J0D01*
G01*
X149250000Y-118025000D01*
G75*
G02*
X149475000Y-118250000I0J-225000D01*
G01*
X149475000Y-118700000D01*
G75*
G02*
X149250000Y-118925000I-225000J0D01*
G01*
G37*
G36*
G01*
X149250000Y-120475000D02*
X148750000Y-120475000D01*
G75*
G02*
X148525000Y-120250000I0J225000D01*
G01*
X148525000Y-119800000D01*
G75*
G02*
X148750000Y-119575000I225000J0D01*
G01*
X149250000Y-119575000D01*
G75*
G02*
X149475000Y-119800000I0J-225000D01*
G01*
X149475000Y-120250000D01*
G75*
G02*
X149250000Y-120475000I-225000J0D01*
G01*
G37*
%TD*%
%TO.C,C13*%
G36*
G01*
X122000000Y-104825000D02*
X122500000Y-104825000D01*
G75*
G02*
X122725000Y-105050000I0J-225000D01*
G01*
X122725000Y-105500000D01*
G75*
G02*
X122500000Y-105725000I-225000J0D01*
G01*
X122000000Y-105725000D01*
G75*
G02*
X121775000Y-105500000I0J225000D01*
G01*
X121775000Y-105050000D01*
G75*
G02*
X122000000Y-104825000I225000J0D01*
G01*
G37*
G36*
G01*
X122000000Y-103275000D02*
X122500000Y-103275000D01*
G75*
G02*
X122725000Y-103500000I0J-225000D01*
G01*
X122725000Y-103950000D01*
G75*
G02*
X122500000Y-104175000I-225000J0D01*
G01*
X122000000Y-104175000D01*
G75*
G02*
X121775000Y-103950000I0J225000D01*
G01*
X121775000Y-103500000D01*
G75*
G02*
X122000000Y-103275000I225000J0D01*
G01*
G37*
%TD*%
%TO.C,C12*%
G36*
G01*
X133925000Y-117500000D02*
X133925000Y-118000000D01*
G75*
G02*
X133700000Y-118225000I-225000J0D01*
G01*
X133250000Y-118225000D01*
G75*
G02*
X133025000Y-118000000I0J225000D01*
G01*
X133025000Y-117500000D01*
G75*
G02*
X133250000Y-117275000I225000J0D01*
G01*
X133700000Y-117275000D01*
G75*
G02*
X133925000Y-117500000I0J-225000D01*
G01*
G37*
G36*
G01*
X135475000Y-117500000D02*
X135475000Y-118000000D01*
G75*
G02*
X135250000Y-118225000I-225000J0D01*
G01*
X134800000Y-118225000D01*
G75*
G02*
X134575000Y-118000000I0J225000D01*
G01*
X134575000Y-117500000D01*
G75*
G02*
X134800000Y-117275000I225000J0D01*
G01*
X135250000Y-117275000D01*
G75*
G02*
X135475000Y-117500000I0J-225000D01*
G01*
G37*
%TD*%
%TO.C,C11*%
G36*
G01*
X137425000Y-110000000D02*
X137425000Y-110500000D01*
G75*
G02*
X137200000Y-110725000I-225000J0D01*
G01*
X136750000Y-110725000D01*
G75*
G02*
X136525000Y-110500000I0J225000D01*
G01*
X136525000Y-110000000D01*
G75*
G02*
X136750000Y-109775000I225000J0D01*
G01*
X137200000Y-109775000D01*
G75*
G02*
X137425000Y-110000000I0J-225000D01*
G01*
G37*
G36*
G01*
X138975000Y-110000000D02*
X138975000Y-110500000D01*
G75*
G02*
X138750000Y-110725000I-225000J0D01*
G01*
X138300000Y-110725000D01*
G75*
G02*
X138075000Y-110500000I0J225000D01*
G01*
X138075000Y-110000000D01*
G75*
G02*
X138300000Y-109775000I225000J0D01*
G01*
X138750000Y-109775000D01*
G75*
G02*
X138975000Y-110000000I0J-225000D01*
G01*
G37*
%TD*%
%TO.C,C10*%
G36*
G01*
X151250000Y-93675000D02*
X150750000Y-93675000D01*
G75*
G02*
X150525000Y-93450000I0J225000D01*
G01*
X150525000Y-93000000D01*
G75*
G02*
X150750000Y-92775000I225000J0D01*
G01*
X151250000Y-92775000D01*
G75*
G02*
X151475000Y-93000000I0J-225000D01*
G01*
X151475000Y-93450000D01*
G75*
G02*
X151250000Y-93675000I-225000J0D01*
G01*
G37*
G36*
G01*
X151250000Y-95225000D02*
X150750000Y-95225000D01*
G75*
G02*
X150525000Y-95000000I0J225000D01*
G01*
X150525000Y-94550000D01*
G75*
G02*
X150750000Y-94325000I225000J0D01*
G01*
X151250000Y-94325000D01*
G75*
G02*
X151475000Y-94550000I0J-225000D01*
G01*
X151475000Y-95000000D01*
G75*
G02*
X151250000Y-95225000I-225000J0D01*
G01*
G37*
%TD*%
%TO.C,C8*%
G36*
G01*
X133925000Y-97500000D02*
X133925000Y-98000000D01*
G75*
G02*
X133700000Y-98225000I-225000J0D01*
G01*
X133250000Y-98225000D01*
G75*
G02*
X133025000Y-98000000I0J225000D01*
G01*
X133025000Y-97500000D01*
G75*
G02*
X133250000Y-97275000I225000J0D01*
G01*
X133700000Y-97275000D01*
G75*
G02*
X133925000Y-97500000I0J-225000D01*
G01*
G37*
G36*
G01*
X135475000Y-97500000D02*
X135475000Y-98000000D01*
G75*
G02*
X135250000Y-98225000I-225000J0D01*
G01*
X134800000Y-98225000D01*
G75*
G02*
X134575000Y-98000000I0J225000D01*
G01*
X134575000Y-97500000D01*
G75*
G02*
X134800000Y-97275000I225000J0D01*
G01*
X135250000Y-97275000D01*
G75*
G02*
X135475000Y-97500000I0J-225000D01*
G01*
G37*
%TD*%
%TO.C,C7*%
G36*
G01*
X137425000Y-90000000D02*
X137425000Y-90500000D01*
G75*
G02*
X137200000Y-90725000I-225000J0D01*
G01*
X136750000Y-90725000D01*
G75*
G02*
X136525000Y-90500000I0J225000D01*
G01*
X136525000Y-90000000D01*
G75*
G02*
X136750000Y-89775000I225000J0D01*
G01*
X137200000Y-89775000D01*
G75*
G02*
X137425000Y-90000000I0J-225000D01*
G01*
G37*
G36*
G01*
X138975000Y-90000000D02*
X138975000Y-90500000D01*
G75*
G02*
X138750000Y-90725000I-225000J0D01*
G01*
X138300000Y-90725000D01*
G75*
G02*
X138075000Y-90500000I0J225000D01*
G01*
X138075000Y-90000000D01*
G75*
G02*
X138300000Y-89775000I225000J0D01*
G01*
X138750000Y-89775000D01*
G75*
G02*
X138975000Y-90000000I0J-225000D01*
G01*
G37*
%TD*%
%TO.C,C6*%
G36*
G01*
X131000000Y-96075000D02*
X131500000Y-96075000D01*
G75*
G02*
X131725000Y-96300000I0J-225000D01*
G01*
X131725000Y-96750000D01*
G75*
G02*
X131500000Y-96975000I-225000J0D01*
G01*
X131000000Y-96975000D01*
G75*
G02*
X130775000Y-96750000I0J225000D01*
G01*
X130775000Y-96300000D01*
G75*
G02*
X131000000Y-96075000I225000J0D01*
G01*
G37*
G36*
G01*
X131000000Y-94525000D02*
X131500000Y-94525000D01*
G75*
G02*
X131725000Y-94750000I0J-225000D01*
G01*
X131725000Y-95200000D01*
G75*
G02*
X131500000Y-95425000I-225000J0D01*
G01*
X131000000Y-95425000D01*
G75*
G02*
X130775000Y-95200000I0J225000D01*
G01*
X130775000Y-94750000D01*
G75*
G02*
X131000000Y-94525000I225000J0D01*
G01*
G37*
%TD*%
%TO.C,C5*%
G36*
G01*
X121500000Y-92575000D02*
X122000000Y-92575000D01*
G75*
G02*
X122225000Y-92800000I0J-225000D01*
G01*
X122225000Y-93250000D01*
G75*
G02*
X122000000Y-93475000I-225000J0D01*
G01*
X121500000Y-93475000D01*
G75*
G02*
X121275000Y-93250000I0J225000D01*
G01*
X121275000Y-92800000D01*
G75*
G02*
X121500000Y-92575000I225000J0D01*
G01*
G37*
G36*
G01*
X121500000Y-91025000D02*
X122000000Y-91025000D01*
G75*
G02*
X122225000Y-91250000I0J-225000D01*
G01*
X122225000Y-91700000D01*
G75*
G02*
X122000000Y-91925000I-225000J0D01*
G01*
X121500000Y-91925000D01*
G75*
G02*
X121275000Y-91700000I0J225000D01*
G01*
X121275000Y-91250000D01*
G75*
G02*
X121500000Y-91025000I225000J0D01*
G01*
G37*
%TD*%
%TO.C,C4*%
G36*
G01*
X133925000Y-107500000D02*
X133925000Y-108000000D01*
G75*
G02*
X133700000Y-108225000I-225000J0D01*
G01*
X133250000Y-108225000D01*
G75*
G02*
X133025000Y-108000000I0J225000D01*
G01*
X133025000Y-107500000D01*
G75*
G02*
X133250000Y-107275000I225000J0D01*
G01*
X133700000Y-107275000D01*
G75*
G02*
X133925000Y-107500000I0J-225000D01*
G01*
G37*
G36*
G01*
X135475000Y-107500000D02*
X135475000Y-108000000D01*
G75*
G02*
X135250000Y-108225000I-225000J0D01*
G01*
X134800000Y-108225000D01*
G75*
G02*
X134575000Y-108000000I0J225000D01*
G01*
X134575000Y-107500000D01*
G75*
G02*
X134800000Y-107275000I225000J0D01*
G01*
X135250000Y-107275000D01*
G75*
G02*
X135475000Y-107500000I0J-225000D01*
G01*
G37*
%TD*%
%TO.C,C3*%
G36*
G01*
X137425000Y-100000000D02*
X137425000Y-100500000D01*
G75*
G02*
X137200000Y-100725000I-225000J0D01*
G01*
X136750000Y-100725000D01*
G75*
G02*
X136525000Y-100500000I0J225000D01*
G01*
X136525000Y-100000000D01*
G75*
G02*
X136750000Y-99775000I225000J0D01*
G01*
X137200000Y-99775000D01*
G75*
G02*
X137425000Y-100000000I0J-225000D01*
G01*
G37*
G36*
G01*
X138975000Y-100000000D02*
X138975000Y-100500000D01*
G75*
G02*
X138750000Y-100725000I-225000J0D01*
G01*
X138300000Y-100725000D01*
G75*
G02*
X138075000Y-100500000I0J225000D01*
G01*
X138075000Y-100000000D01*
G75*
G02*
X138300000Y-99775000I225000J0D01*
G01*
X138750000Y-99775000D01*
G75*
G02*
X138975000Y-100000000I0J-225000D01*
G01*
G37*
%TD*%
%TO.C,C2*%
G36*
G01*
X133575000Y-84250000D02*
X133575000Y-83750000D01*
G75*
G02*
X133800000Y-83525000I225000J0D01*
G01*
X134250000Y-83525000D01*
G75*
G02*
X134475000Y-83750000I0J-225000D01*
G01*
X134475000Y-84250000D01*
G75*
G02*
X134250000Y-84475000I-225000J0D01*
G01*
X133800000Y-84475000D01*
G75*
G02*
X133575000Y-84250000I0J225000D01*
G01*
G37*
G36*
G01*
X132025000Y-84250000D02*
X132025000Y-83750000D01*
G75*
G02*
X132250000Y-83525000I225000J0D01*
G01*
X132700000Y-83525000D01*
G75*
G02*
X132925000Y-83750000I0J-225000D01*
G01*
X132925000Y-84250000D01*
G75*
G02*
X132700000Y-84475000I-225000J0D01*
G01*
X132250000Y-84475000D01*
G75*
G02*
X132025000Y-84250000I0J225000D01*
G01*
G37*
%TD*%
%TO.C,C1*%
G36*
G01*
X140000000Y-78925000D02*
X139500000Y-78925000D01*
G75*
G02*
X139275000Y-78700000I0J225000D01*
G01*
X139275000Y-78250000D01*
G75*
G02*
X139500000Y-78025000I225000J0D01*
G01*
X140000000Y-78025000D01*
G75*
G02*
X140225000Y-78250000I0J-225000D01*
G01*
X140225000Y-78700000D01*
G75*
G02*
X140000000Y-78925000I-225000J0D01*
G01*
G37*
G36*
G01*
X140000000Y-80475000D02*
X139500000Y-80475000D01*
G75*
G02*
X139275000Y-80250000I0J225000D01*
G01*
X139275000Y-79800000D01*
G75*
G02*
X139500000Y-79575000I225000J0D01*
G01*
X140000000Y-79575000D01*
G75*
G02*
X140225000Y-79800000I0J-225000D01*
G01*
X140225000Y-80250000D01*
G75*
G02*
X140000000Y-80475000I-225000J0D01*
G01*
G37*
%TD*%
D10*
%TO.C,U9*%
X146250000Y-118250000D03*
X147200000Y-120250000D03*
X145300000Y-120250000D03*
%TD*%
%TO.C,U8*%
G36*
G01*
X137500000Y-112245000D02*
X137500000Y-111945000D01*
G75*
G02*
X137650000Y-111795000I150000J0D01*
G01*
X139300000Y-111795000D01*
G75*
G02*
X139450000Y-111945000I0J-150000D01*
G01*
X139450000Y-112245000D01*
G75*
G02*
X139300000Y-112395000I-150000J0D01*
G01*
X137650000Y-112395000D01*
G75*
G02*
X137500000Y-112245000I0J150000D01*
G01*
G37*
G36*
G01*
X137500000Y-113515000D02*
X137500000Y-113215000D01*
G75*
G02*
X137650000Y-113065000I150000J0D01*
G01*
X139300000Y-113065000D01*
G75*
G02*
X139450000Y-113215000I0J-150000D01*
G01*
X139450000Y-113515000D01*
G75*
G02*
X139300000Y-113665000I-150000J0D01*
G01*
X137650000Y-113665000D01*
G75*
G02*
X137500000Y-113515000I0J150000D01*
G01*
G37*
G36*
G01*
X137500000Y-114785000D02*
X137500000Y-114485000D01*
G75*
G02*
X137650000Y-114335000I150000J0D01*
G01*
X139300000Y-114335000D01*
G75*
G02*
X139450000Y-114485000I0J-150000D01*
G01*
X139450000Y-114785000D01*
G75*
G02*
X139300000Y-114935000I-150000J0D01*
G01*
X137650000Y-114935000D01*
G75*
G02*
X137500000Y-114785000I0J150000D01*
G01*
G37*
G36*
G01*
X137500000Y-116055000D02*
X137500000Y-115755000D01*
G75*
G02*
X137650000Y-115605000I150000J0D01*
G01*
X139300000Y-115605000D01*
G75*
G02*
X139450000Y-115755000I0J-150000D01*
G01*
X139450000Y-116055000D01*
G75*
G02*
X139300000Y-116205000I-150000J0D01*
G01*
X137650000Y-116205000D01*
G75*
G02*
X137500000Y-116055000I0J150000D01*
G01*
G37*
G36*
G01*
X132550000Y-116055000D02*
X132550000Y-115755000D01*
G75*
G02*
X132700000Y-115605000I150000J0D01*
G01*
X134350000Y-115605000D01*
G75*
G02*
X134500000Y-115755000I0J-150000D01*
G01*
X134500000Y-116055000D01*
G75*
G02*
X134350000Y-116205000I-150000J0D01*
G01*
X132700000Y-116205000D01*
G75*
G02*
X132550000Y-116055000I0J150000D01*
G01*
G37*
G36*
G01*
X132550000Y-114785000D02*
X132550000Y-114485000D01*
G75*
G02*
X132700000Y-114335000I150000J0D01*
G01*
X134350000Y-114335000D01*
G75*
G02*
X134500000Y-114485000I0J-150000D01*
G01*
X134500000Y-114785000D01*
G75*
G02*
X134350000Y-114935000I-150000J0D01*
G01*
X132700000Y-114935000D01*
G75*
G02*
X132550000Y-114785000I0J150000D01*
G01*
G37*
G36*
G01*
X132550000Y-113515000D02*
X132550000Y-113215000D01*
G75*
G02*
X132700000Y-113065000I150000J0D01*
G01*
X134350000Y-113065000D01*
G75*
G02*
X134500000Y-113215000I0J-150000D01*
G01*
X134500000Y-113515000D01*
G75*
G02*
X134350000Y-113665000I-150000J0D01*
G01*
X132700000Y-113665000D01*
G75*
G02*
X132550000Y-113515000I0J150000D01*
G01*
G37*
G36*
G01*
X132550000Y-112245000D02*
X132550000Y-111945000D01*
G75*
G02*
X132700000Y-111795000I150000J0D01*
G01*
X134350000Y-111795000D01*
G75*
G02*
X134500000Y-111945000I0J-150000D01*
G01*
X134500000Y-112245000D01*
G75*
G02*
X134350000Y-112395000I-150000J0D01*
G01*
X132700000Y-112395000D01*
G75*
G02*
X132550000Y-112245000I0J150000D01*
G01*
G37*
%TD*%
%TO.C,U7*%
G36*
G01*
X137500000Y-92245000D02*
X137500000Y-91945000D01*
G75*
G02*
X137650000Y-91795000I150000J0D01*
G01*
X139300000Y-91795000D01*
G75*
G02*
X139450000Y-91945000I0J-150000D01*
G01*
X139450000Y-92245000D01*
G75*
G02*
X139300000Y-92395000I-150000J0D01*
G01*
X137650000Y-92395000D01*
G75*
G02*
X137500000Y-92245000I0J150000D01*
G01*
G37*
G36*
G01*
X137500000Y-93515000D02*
X137500000Y-93215000D01*
G75*
G02*
X137650000Y-93065000I150000J0D01*
G01*
X139300000Y-93065000D01*
G75*
G02*
X139450000Y-93215000I0J-150000D01*
G01*
X139450000Y-93515000D01*
G75*
G02*
X139300000Y-93665000I-150000J0D01*
G01*
X137650000Y-93665000D01*
G75*
G02*
X137500000Y-93515000I0J150000D01*
G01*
G37*
G36*
G01*
X137500000Y-94785000D02*
X137500000Y-94485000D01*
G75*
G02*
X137650000Y-94335000I150000J0D01*
G01*
X139300000Y-94335000D01*
G75*
G02*
X139450000Y-94485000I0J-150000D01*
G01*
X139450000Y-94785000D01*
G75*
G02*
X139300000Y-94935000I-150000J0D01*
G01*
X137650000Y-94935000D01*
G75*
G02*
X137500000Y-94785000I0J150000D01*
G01*
G37*
G36*
G01*
X137500000Y-96055000D02*
X137500000Y-95755000D01*
G75*
G02*
X137650000Y-95605000I150000J0D01*
G01*
X139300000Y-95605000D01*
G75*
G02*
X139450000Y-95755000I0J-150000D01*
G01*
X139450000Y-96055000D01*
G75*
G02*
X139300000Y-96205000I-150000J0D01*
G01*
X137650000Y-96205000D01*
G75*
G02*
X137500000Y-96055000I0J150000D01*
G01*
G37*
G36*
G01*
X132550000Y-96055000D02*
X132550000Y-95755000D01*
G75*
G02*
X132700000Y-95605000I150000J0D01*
G01*
X134350000Y-95605000D01*
G75*
G02*
X134500000Y-95755000I0J-150000D01*
G01*
X134500000Y-96055000D01*
G75*
G02*
X134350000Y-96205000I-150000J0D01*
G01*
X132700000Y-96205000D01*
G75*
G02*
X132550000Y-96055000I0J150000D01*
G01*
G37*
G36*
G01*
X132550000Y-94785000D02*
X132550000Y-94485000D01*
G75*
G02*
X132700000Y-94335000I150000J0D01*
G01*
X134350000Y-94335000D01*
G75*
G02*
X134500000Y-94485000I0J-150000D01*
G01*
X134500000Y-94785000D01*
G75*
G02*
X134350000Y-94935000I-150000J0D01*
G01*
X132700000Y-94935000D01*
G75*
G02*
X132550000Y-94785000I0J150000D01*
G01*
G37*
G36*
G01*
X132550000Y-93515000D02*
X132550000Y-93215000D01*
G75*
G02*
X132700000Y-93065000I150000J0D01*
G01*
X134350000Y-93065000D01*
G75*
G02*
X134500000Y-93215000I0J-150000D01*
G01*
X134500000Y-93515000D01*
G75*
G02*
X134350000Y-93665000I-150000J0D01*
G01*
X132700000Y-93665000D01*
G75*
G02*
X132550000Y-93515000I0J150000D01*
G01*
G37*
G36*
G01*
X132550000Y-92245000D02*
X132550000Y-91945000D01*
G75*
G02*
X132700000Y-91795000I150000J0D01*
G01*
X134350000Y-91795000D01*
G75*
G02*
X134500000Y-91945000I0J-150000D01*
G01*
X134500000Y-92245000D01*
G75*
G02*
X134350000Y-92395000I-150000J0D01*
G01*
X132700000Y-92395000D01*
G75*
G02*
X132550000Y-92245000I0J150000D01*
G01*
G37*
%TD*%
%TO.C,U6*%
G36*
G01*
X137500000Y-102245000D02*
X137500000Y-101945000D01*
G75*
G02*
X137650000Y-101795000I150000J0D01*
G01*
X139300000Y-101795000D01*
G75*
G02*
X139450000Y-101945000I0J-150000D01*
G01*
X139450000Y-102245000D01*
G75*
G02*
X139300000Y-102395000I-150000J0D01*
G01*
X137650000Y-102395000D01*
G75*
G02*
X137500000Y-102245000I0J150000D01*
G01*
G37*
G36*
G01*
X137500000Y-103515000D02*
X137500000Y-103215000D01*
G75*
G02*
X137650000Y-103065000I150000J0D01*
G01*
X139300000Y-103065000D01*
G75*
G02*
X139450000Y-103215000I0J-150000D01*
G01*
X139450000Y-103515000D01*
G75*
G02*
X139300000Y-103665000I-150000J0D01*
G01*
X137650000Y-103665000D01*
G75*
G02*
X137500000Y-103515000I0J150000D01*
G01*
G37*
G36*
G01*
X137500000Y-104785000D02*
X137500000Y-104485000D01*
G75*
G02*
X137650000Y-104335000I150000J0D01*
G01*
X139300000Y-104335000D01*
G75*
G02*
X139450000Y-104485000I0J-150000D01*
G01*
X139450000Y-104785000D01*
G75*
G02*
X139300000Y-104935000I-150000J0D01*
G01*
X137650000Y-104935000D01*
G75*
G02*
X137500000Y-104785000I0J150000D01*
G01*
G37*
G36*
G01*
X137500000Y-106055000D02*
X137500000Y-105755000D01*
G75*
G02*
X137650000Y-105605000I150000J0D01*
G01*
X139300000Y-105605000D01*
G75*
G02*
X139450000Y-105755000I0J-150000D01*
G01*
X139450000Y-106055000D01*
G75*
G02*
X139300000Y-106205000I-150000J0D01*
G01*
X137650000Y-106205000D01*
G75*
G02*
X137500000Y-106055000I0J150000D01*
G01*
G37*
G36*
G01*
X132550000Y-106055000D02*
X132550000Y-105755000D01*
G75*
G02*
X132700000Y-105605000I150000J0D01*
G01*
X134350000Y-105605000D01*
G75*
G02*
X134500000Y-105755000I0J-150000D01*
G01*
X134500000Y-106055000D01*
G75*
G02*
X134350000Y-106205000I-150000J0D01*
G01*
X132700000Y-106205000D01*
G75*
G02*
X132550000Y-106055000I0J150000D01*
G01*
G37*
G36*
G01*
X132550000Y-104785000D02*
X132550000Y-104485000D01*
G75*
G02*
X132700000Y-104335000I150000J0D01*
G01*
X134350000Y-104335000D01*
G75*
G02*
X134500000Y-104485000I0J-150000D01*
G01*
X134500000Y-104785000D01*
G75*
G02*
X134350000Y-104935000I-150000J0D01*
G01*
X132700000Y-104935000D01*
G75*
G02*
X132550000Y-104785000I0J150000D01*
G01*
G37*
G36*
G01*
X132550000Y-103515000D02*
X132550000Y-103215000D01*
G75*
G02*
X132700000Y-103065000I150000J0D01*
G01*
X134350000Y-103065000D01*
G75*
G02*
X134500000Y-103215000I0J-150000D01*
G01*
X134500000Y-103515000D01*
G75*
G02*
X134350000Y-103665000I-150000J0D01*
G01*
X132700000Y-103665000D01*
G75*
G02*
X132550000Y-103515000I0J150000D01*
G01*
G37*
G36*
G01*
X132550000Y-102245000D02*
X132550000Y-101945000D01*
G75*
G02*
X132700000Y-101795000I150000J0D01*
G01*
X134350000Y-101795000D01*
G75*
G02*
X134500000Y-101945000I0J-150000D01*
G01*
X134500000Y-102245000D01*
G75*
G02*
X134350000Y-102395000I-150000J0D01*
G01*
X132700000Y-102395000D01*
G75*
G02*
X132550000Y-102245000I0J150000D01*
G01*
G37*
%TD*%
%TO.C,U5*%
G36*
G01*
X147750000Y-106590000D02*
X147750000Y-106290000D01*
G75*
G02*
X147900000Y-106140000I150000J0D01*
G01*
X149550000Y-106140000D01*
G75*
G02*
X149700000Y-106290000I0J-150000D01*
G01*
X149700000Y-106590000D01*
G75*
G02*
X149550000Y-106740000I-150000J0D01*
G01*
X147900000Y-106740000D01*
G75*
G02*
X147750000Y-106590000I0J150000D01*
G01*
G37*
G36*
G01*
X147750000Y-107860000D02*
X147750000Y-107560000D01*
G75*
G02*
X147900000Y-107410000I150000J0D01*
G01*
X149550000Y-107410000D01*
G75*
G02*
X149700000Y-107560000I0J-150000D01*
G01*
X149700000Y-107860000D01*
G75*
G02*
X149550000Y-108010000I-150000J0D01*
G01*
X147900000Y-108010000D01*
G75*
G02*
X147750000Y-107860000I0J150000D01*
G01*
G37*
G36*
G01*
X147750000Y-109130000D02*
X147750000Y-108830000D01*
G75*
G02*
X147900000Y-108680000I150000J0D01*
G01*
X149550000Y-108680000D01*
G75*
G02*
X149700000Y-108830000I0J-150000D01*
G01*
X149700000Y-109130000D01*
G75*
G02*
X149550000Y-109280000I-150000J0D01*
G01*
X147900000Y-109280000D01*
G75*
G02*
X147750000Y-109130000I0J150000D01*
G01*
G37*
G36*
G01*
X147750000Y-110400000D02*
X147750000Y-110100000D01*
G75*
G02*
X147900000Y-109950000I150000J0D01*
G01*
X149550000Y-109950000D01*
G75*
G02*
X149700000Y-110100000I0J-150000D01*
G01*
X149700000Y-110400000D01*
G75*
G02*
X149550000Y-110550000I-150000J0D01*
G01*
X147900000Y-110550000D01*
G75*
G02*
X147750000Y-110400000I0J150000D01*
G01*
G37*
G36*
G01*
X147750000Y-111670000D02*
X147750000Y-111370000D01*
G75*
G02*
X147900000Y-111220000I150000J0D01*
G01*
X149550000Y-111220000D01*
G75*
G02*
X149700000Y-111370000I0J-150000D01*
G01*
X149700000Y-111670000D01*
G75*
G02*
X149550000Y-111820000I-150000J0D01*
G01*
X147900000Y-111820000D01*
G75*
G02*
X147750000Y-111670000I0J150000D01*
G01*
G37*
G36*
G01*
X147750000Y-112940000D02*
X147750000Y-112640000D01*
G75*
G02*
X147900000Y-112490000I150000J0D01*
G01*
X149550000Y-112490000D01*
G75*
G02*
X149700000Y-112640000I0J-150000D01*
G01*
X149700000Y-112940000D01*
G75*
G02*
X149550000Y-113090000I-150000J0D01*
G01*
X147900000Y-113090000D01*
G75*
G02*
X147750000Y-112940000I0J150000D01*
G01*
G37*
G36*
G01*
X147750000Y-114210000D02*
X147750000Y-113910000D01*
G75*
G02*
X147900000Y-113760000I150000J0D01*
G01*
X149550000Y-113760000D01*
G75*
G02*
X149700000Y-113910000I0J-150000D01*
G01*
X149700000Y-114210000D01*
G75*
G02*
X149550000Y-114360000I-150000J0D01*
G01*
X147900000Y-114360000D01*
G75*
G02*
X147750000Y-114210000I0J150000D01*
G01*
G37*
G36*
G01*
X142800000Y-114210000D02*
X142800000Y-113910000D01*
G75*
G02*
X142950000Y-113760000I150000J0D01*
G01*
X144600000Y-113760000D01*
G75*
G02*
X144750000Y-113910000I0J-150000D01*
G01*
X144750000Y-114210000D01*
G75*
G02*
X144600000Y-114360000I-150000J0D01*
G01*
X142950000Y-114360000D01*
G75*
G02*
X142800000Y-114210000I0J150000D01*
G01*
G37*
G36*
G01*
X142800000Y-112940000D02*
X142800000Y-112640000D01*
G75*
G02*
X142950000Y-112490000I150000J0D01*
G01*
X144600000Y-112490000D01*
G75*
G02*
X144750000Y-112640000I0J-150000D01*
G01*
X144750000Y-112940000D01*
G75*
G02*
X144600000Y-113090000I-150000J0D01*
G01*
X142950000Y-113090000D01*
G75*
G02*
X142800000Y-112940000I0J150000D01*
G01*
G37*
G36*
G01*
X142800000Y-111670000D02*
X142800000Y-111370000D01*
G75*
G02*
X142950000Y-111220000I150000J0D01*
G01*
X144600000Y-111220000D01*
G75*
G02*
X144750000Y-111370000I0J-150000D01*
G01*
X144750000Y-111670000D01*
G75*
G02*
X144600000Y-111820000I-150000J0D01*
G01*
X142950000Y-111820000D01*
G75*
G02*
X142800000Y-111670000I0J150000D01*
G01*
G37*
G36*
G01*
X142800000Y-110400000D02*
X142800000Y-110100000D01*
G75*
G02*
X142950000Y-109950000I150000J0D01*
G01*
X144600000Y-109950000D01*
G75*
G02*
X144750000Y-110100000I0J-150000D01*
G01*
X144750000Y-110400000D01*
G75*
G02*
X144600000Y-110550000I-150000J0D01*
G01*
X142950000Y-110550000D01*
G75*
G02*
X142800000Y-110400000I0J150000D01*
G01*
G37*
G36*
G01*
X142800000Y-109130000D02*
X142800000Y-108830000D01*
G75*
G02*
X142950000Y-108680000I150000J0D01*
G01*
X144600000Y-108680000D01*
G75*
G02*
X144750000Y-108830000I0J-150000D01*
G01*
X144750000Y-109130000D01*
G75*
G02*
X144600000Y-109280000I-150000J0D01*
G01*
X142950000Y-109280000D01*
G75*
G02*
X142800000Y-109130000I0J150000D01*
G01*
G37*
G36*
G01*
X142800000Y-107860000D02*
X142800000Y-107560000D01*
G75*
G02*
X142950000Y-107410000I150000J0D01*
G01*
X144600000Y-107410000D01*
G75*
G02*
X144750000Y-107560000I0J-150000D01*
G01*
X144750000Y-107860000D01*
G75*
G02*
X144600000Y-108010000I-150000J0D01*
G01*
X142950000Y-108010000D01*
G75*
G02*
X142800000Y-107860000I0J150000D01*
G01*
G37*
G36*
G01*
X142800000Y-106590000D02*
X142800000Y-106290000D01*
G75*
G02*
X142950000Y-106140000I150000J0D01*
G01*
X144600000Y-106140000D01*
G75*
G02*
X144750000Y-106290000I0J-150000D01*
G01*
X144750000Y-106590000D01*
G75*
G02*
X144600000Y-106740000I-150000J0D01*
G01*
X142950000Y-106740000D01*
G75*
G02*
X142800000Y-106590000I0J150000D01*
G01*
G37*
%TD*%
%TO.C,U3*%
G36*
G01*
X125000000Y-98295000D02*
X125000000Y-98595000D01*
G75*
G02*
X124850000Y-98745000I-150000J0D01*
G01*
X123200000Y-98745000D01*
G75*
G02*
X123050000Y-98595000I0J150000D01*
G01*
X123050000Y-98295000D01*
G75*
G02*
X123200000Y-98145000I150000J0D01*
G01*
X124850000Y-98145000D01*
G75*
G02*
X125000000Y-98295000I0J-150000D01*
G01*
G37*
G36*
G01*
X125000000Y-97025000D02*
X125000000Y-97325000D01*
G75*
G02*
X124850000Y-97475000I-150000J0D01*
G01*
X123200000Y-97475000D01*
G75*
G02*
X123050000Y-97325000I0J150000D01*
G01*
X123050000Y-97025000D01*
G75*
G02*
X123200000Y-96875000I150000J0D01*
G01*
X124850000Y-96875000D01*
G75*
G02*
X125000000Y-97025000I0J-150000D01*
G01*
G37*
G36*
G01*
X125000000Y-95755000D02*
X125000000Y-96055000D01*
G75*
G02*
X124850000Y-96205000I-150000J0D01*
G01*
X123200000Y-96205000D01*
G75*
G02*
X123050000Y-96055000I0J150000D01*
G01*
X123050000Y-95755000D01*
G75*
G02*
X123200000Y-95605000I150000J0D01*
G01*
X124850000Y-95605000D01*
G75*
G02*
X125000000Y-95755000I0J-150000D01*
G01*
G37*
G36*
G01*
X125000000Y-94485000D02*
X125000000Y-94785000D01*
G75*
G02*
X124850000Y-94935000I-150000J0D01*
G01*
X123200000Y-94935000D01*
G75*
G02*
X123050000Y-94785000I0J150000D01*
G01*
X123050000Y-94485000D01*
G75*
G02*
X123200000Y-94335000I150000J0D01*
G01*
X124850000Y-94335000D01*
G75*
G02*
X125000000Y-94485000I0J-150000D01*
G01*
G37*
G36*
G01*
X125000000Y-93215000D02*
X125000000Y-93515000D01*
G75*
G02*
X124850000Y-93665000I-150000J0D01*
G01*
X123200000Y-93665000D01*
G75*
G02*
X123050000Y-93515000I0J150000D01*
G01*
X123050000Y-93215000D01*
G75*
G02*
X123200000Y-93065000I150000J0D01*
G01*
X124850000Y-93065000D01*
G75*
G02*
X125000000Y-93215000I0J-150000D01*
G01*
G37*
G36*
G01*
X125000000Y-91945000D02*
X125000000Y-92245000D01*
G75*
G02*
X124850000Y-92395000I-150000J0D01*
G01*
X123200000Y-92395000D01*
G75*
G02*
X123050000Y-92245000I0J150000D01*
G01*
X123050000Y-91945000D01*
G75*
G02*
X123200000Y-91795000I150000J0D01*
G01*
X124850000Y-91795000D01*
G75*
G02*
X125000000Y-91945000I0J-150000D01*
G01*
G37*
G36*
G01*
X125000000Y-90675000D02*
X125000000Y-90975000D01*
G75*
G02*
X124850000Y-91125000I-150000J0D01*
G01*
X123200000Y-91125000D01*
G75*
G02*
X123050000Y-90975000I0J150000D01*
G01*
X123050000Y-90675000D01*
G75*
G02*
X123200000Y-90525000I150000J0D01*
G01*
X124850000Y-90525000D01*
G75*
G02*
X125000000Y-90675000I0J-150000D01*
G01*
G37*
G36*
G01*
X125000000Y-89405000D02*
X125000000Y-89705000D01*
G75*
G02*
X124850000Y-89855000I-150000J0D01*
G01*
X123200000Y-89855000D01*
G75*
G02*
X123050000Y-89705000I0J150000D01*
G01*
X123050000Y-89405000D01*
G75*
G02*
X123200000Y-89255000I150000J0D01*
G01*
X124850000Y-89255000D01*
G75*
G02*
X125000000Y-89405000I0J-150000D01*
G01*
G37*
G36*
G01*
X129950000Y-89405000D02*
X129950000Y-89705000D01*
G75*
G02*
X129800000Y-89855000I-150000J0D01*
G01*
X128150000Y-89855000D01*
G75*
G02*
X128000000Y-89705000I0J150000D01*
G01*
X128000000Y-89405000D01*
G75*
G02*
X128150000Y-89255000I150000J0D01*
G01*
X129800000Y-89255000D01*
G75*
G02*
X129950000Y-89405000I0J-150000D01*
G01*
G37*
G36*
G01*
X129950000Y-90675000D02*
X129950000Y-90975000D01*
G75*
G02*
X129800000Y-91125000I-150000J0D01*
G01*
X128150000Y-91125000D01*
G75*
G02*
X128000000Y-90975000I0J150000D01*
G01*
X128000000Y-90675000D01*
G75*
G02*
X128150000Y-90525000I150000J0D01*
G01*
X129800000Y-90525000D01*
G75*
G02*
X129950000Y-90675000I0J-150000D01*
G01*
G37*
G36*
G01*
X129950000Y-91945000D02*
X129950000Y-92245000D01*
G75*
G02*
X129800000Y-92395000I-150000J0D01*
G01*
X128150000Y-92395000D01*
G75*
G02*
X128000000Y-92245000I0J150000D01*
G01*
X128000000Y-91945000D01*
G75*
G02*
X128150000Y-91795000I150000J0D01*
G01*
X129800000Y-91795000D01*
G75*
G02*
X129950000Y-91945000I0J-150000D01*
G01*
G37*
G36*
G01*
X129950000Y-93215000D02*
X129950000Y-93515000D01*
G75*
G02*
X129800000Y-93665000I-150000J0D01*
G01*
X128150000Y-93665000D01*
G75*
G02*
X128000000Y-93515000I0J150000D01*
G01*
X128000000Y-93215000D01*
G75*
G02*
X128150000Y-93065000I150000J0D01*
G01*
X129800000Y-93065000D01*
G75*
G02*
X129950000Y-93215000I0J-150000D01*
G01*
G37*
G36*
G01*
X129950000Y-94485000D02*
X129950000Y-94785000D01*
G75*
G02*
X129800000Y-94935000I-150000J0D01*
G01*
X128150000Y-94935000D01*
G75*
G02*
X128000000Y-94785000I0J150000D01*
G01*
X128000000Y-94485000D01*
G75*
G02*
X128150000Y-94335000I150000J0D01*
G01*
X129800000Y-94335000D01*
G75*
G02*
X129950000Y-94485000I0J-150000D01*
G01*
G37*
G36*
G01*
X129950000Y-95755000D02*
X129950000Y-96055000D01*
G75*
G02*
X129800000Y-96205000I-150000J0D01*
G01*
X128150000Y-96205000D01*
G75*
G02*
X128000000Y-96055000I0J150000D01*
G01*
X128000000Y-95755000D01*
G75*
G02*
X128150000Y-95605000I150000J0D01*
G01*
X129800000Y-95605000D01*
G75*
G02*
X129950000Y-95755000I0J-150000D01*
G01*
G37*
G36*
G01*
X129950000Y-97025000D02*
X129950000Y-97325000D01*
G75*
G02*
X129800000Y-97475000I-150000J0D01*
G01*
X128150000Y-97475000D01*
G75*
G02*
X128000000Y-97325000I0J150000D01*
G01*
X128000000Y-97025000D01*
G75*
G02*
X128150000Y-96875000I150000J0D01*
G01*
X129800000Y-96875000D01*
G75*
G02*
X129950000Y-97025000I0J-150000D01*
G01*
G37*
G36*
G01*
X129950000Y-98295000D02*
X129950000Y-98595000D01*
G75*
G02*
X129800000Y-98745000I-150000J0D01*
G01*
X128150000Y-98745000D01*
G75*
G02*
X128000000Y-98595000I0J150000D01*
G01*
X128000000Y-98295000D01*
G75*
G02*
X128150000Y-98145000I150000J0D01*
G01*
X129800000Y-98145000D01*
G75*
G02*
X129950000Y-98295000I0J-150000D01*
G01*
G37*
%TD*%
%TO.C,U2*%
G36*
G01*
X147750000Y-89705000D02*
X147750000Y-89405000D01*
G75*
G02*
X147900000Y-89255000I150000J0D01*
G01*
X149550000Y-89255000D01*
G75*
G02*
X149700000Y-89405000I0J-150000D01*
G01*
X149700000Y-89705000D01*
G75*
G02*
X149550000Y-89855000I-150000J0D01*
G01*
X147900000Y-89855000D01*
G75*
G02*
X147750000Y-89705000I0J150000D01*
G01*
G37*
G36*
G01*
X147750000Y-90975000D02*
X147750000Y-90675000D01*
G75*
G02*
X147900000Y-90525000I150000J0D01*
G01*
X149550000Y-90525000D01*
G75*
G02*
X149700000Y-90675000I0J-150000D01*
G01*
X149700000Y-90975000D01*
G75*
G02*
X149550000Y-91125000I-150000J0D01*
G01*
X147900000Y-91125000D01*
G75*
G02*
X147750000Y-90975000I0J150000D01*
G01*
G37*
G36*
G01*
X147750000Y-92245000D02*
X147750000Y-91945000D01*
G75*
G02*
X147900000Y-91795000I150000J0D01*
G01*
X149550000Y-91795000D01*
G75*
G02*
X149700000Y-91945000I0J-150000D01*
G01*
X149700000Y-92245000D01*
G75*
G02*
X149550000Y-92395000I-150000J0D01*
G01*
X147900000Y-92395000D01*
G75*
G02*
X147750000Y-92245000I0J150000D01*
G01*
G37*
G36*
G01*
X147750000Y-93515000D02*
X147750000Y-93215000D01*
G75*
G02*
X147900000Y-93065000I150000J0D01*
G01*
X149550000Y-93065000D01*
G75*
G02*
X149700000Y-93215000I0J-150000D01*
G01*
X149700000Y-93515000D01*
G75*
G02*
X149550000Y-93665000I-150000J0D01*
G01*
X147900000Y-93665000D01*
G75*
G02*
X147750000Y-93515000I0J150000D01*
G01*
G37*
G36*
G01*
X147750000Y-94785000D02*
X147750000Y-94485000D01*
G75*
G02*
X147900000Y-94335000I150000J0D01*
G01*
X149550000Y-94335000D01*
G75*
G02*
X149700000Y-94485000I0J-150000D01*
G01*
X149700000Y-94785000D01*
G75*
G02*
X149550000Y-94935000I-150000J0D01*
G01*
X147900000Y-94935000D01*
G75*
G02*
X147750000Y-94785000I0J150000D01*
G01*
G37*
G36*
G01*
X147750000Y-96055000D02*
X147750000Y-95755000D01*
G75*
G02*
X147900000Y-95605000I150000J0D01*
G01*
X149550000Y-95605000D01*
G75*
G02*
X149700000Y-95755000I0J-150000D01*
G01*
X149700000Y-96055000D01*
G75*
G02*
X149550000Y-96205000I-150000J0D01*
G01*
X147900000Y-96205000D01*
G75*
G02*
X147750000Y-96055000I0J150000D01*
G01*
G37*
G36*
G01*
X147750000Y-97325000D02*
X147750000Y-97025000D01*
G75*
G02*
X147900000Y-96875000I150000J0D01*
G01*
X149550000Y-96875000D01*
G75*
G02*
X149700000Y-97025000I0J-150000D01*
G01*
X149700000Y-97325000D01*
G75*
G02*
X149550000Y-97475000I-150000J0D01*
G01*
X147900000Y-97475000D01*
G75*
G02*
X147750000Y-97325000I0J150000D01*
G01*
G37*
G36*
G01*
X147750000Y-98595000D02*
X147750000Y-98295000D01*
G75*
G02*
X147900000Y-98145000I150000J0D01*
G01*
X149550000Y-98145000D01*
G75*
G02*
X149700000Y-98295000I0J-150000D01*
G01*
X149700000Y-98595000D01*
G75*
G02*
X149550000Y-98745000I-150000J0D01*
G01*
X147900000Y-98745000D01*
G75*
G02*
X147750000Y-98595000I0J150000D01*
G01*
G37*
G36*
G01*
X142800000Y-98595000D02*
X142800000Y-98295000D01*
G75*
G02*
X142950000Y-98145000I150000J0D01*
G01*
X144600000Y-98145000D01*
G75*
G02*
X144750000Y-98295000I0J-150000D01*
G01*
X144750000Y-98595000D01*
G75*
G02*
X144600000Y-98745000I-150000J0D01*
G01*
X142950000Y-98745000D01*
G75*
G02*
X142800000Y-98595000I0J150000D01*
G01*
G37*
G36*
G01*
X142800000Y-97325000D02*
X142800000Y-97025000D01*
G75*
G02*
X142950000Y-96875000I150000J0D01*
G01*
X144600000Y-96875000D01*
G75*
G02*
X144750000Y-97025000I0J-150000D01*
G01*
X144750000Y-97325000D01*
G75*
G02*
X144600000Y-97475000I-150000J0D01*
G01*
X142950000Y-97475000D01*
G75*
G02*
X142800000Y-97325000I0J150000D01*
G01*
G37*
G36*
G01*
X142800000Y-96055000D02*
X142800000Y-95755000D01*
G75*
G02*
X142950000Y-95605000I150000J0D01*
G01*
X144600000Y-95605000D01*
G75*
G02*
X144750000Y-95755000I0J-150000D01*
G01*
X144750000Y-96055000D01*
G75*
G02*
X144600000Y-96205000I-150000J0D01*
G01*
X142950000Y-96205000D01*
G75*
G02*
X142800000Y-96055000I0J150000D01*
G01*
G37*
G36*
G01*
X142800000Y-94785000D02*
X142800000Y-94485000D01*
G75*
G02*
X142950000Y-94335000I150000J0D01*
G01*
X144600000Y-94335000D01*
G75*
G02*
X144750000Y-94485000I0J-150000D01*
G01*
X144750000Y-94785000D01*
G75*
G02*
X144600000Y-94935000I-150000J0D01*
G01*
X142950000Y-94935000D01*
G75*
G02*
X142800000Y-94785000I0J150000D01*
G01*
G37*
G36*
G01*
X142800000Y-93515000D02*
X142800000Y-93215000D01*
G75*
G02*
X142950000Y-93065000I150000J0D01*
G01*
X144600000Y-93065000D01*
G75*
G02*
X144750000Y-93215000I0J-150000D01*
G01*
X144750000Y-93515000D01*
G75*
G02*
X144600000Y-93665000I-150000J0D01*
G01*
X142950000Y-93665000D01*
G75*
G02*
X142800000Y-93515000I0J150000D01*
G01*
G37*
G36*
G01*
X142800000Y-92245000D02*
X142800000Y-91945000D01*
G75*
G02*
X142950000Y-91795000I150000J0D01*
G01*
X144600000Y-91795000D01*
G75*
G02*
X144750000Y-91945000I0J-150000D01*
G01*
X144750000Y-92245000D01*
G75*
G02*
X144600000Y-92395000I-150000J0D01*
G01*
X142950000Y-92395000D01*
G75*
G02*
X142800000Y-92245000I0J150000D01*
G01*
G37*
G36*
G01*
X142800000Y-90975000D02*
X142800000Y-90675000D01*
G75*
G02*
X142950000Y-90525000I150000J0D01*
G01*
X144600000Y-90525000D01*
G75*
G02*
X144750000Y-90675000I0J-150000D01*
G01*
X144750000Y-90975000D01*
G75*
G02*
X144600000Y-91125000I-150000J0D01*
G01*
X142950000Y-91125000D01*
G75*
G02*
X142800000Y-90975000I0J150000D01*
G01*
G37*
G36*
G01*
X142800000Y-89705000D02*
X142800000Y-89405000D01*
G75*
G02*
X142950000Y-89255000I150000J0D01*
G01*
X144600000Y-89255000D01*
G75*
G02*
X144750000Y-89405000I0J-150000D01*
G01*
X144750000Y-89705000D01*
G75*
G02*
X144600000Y-89855000I-150000J0D01*
G01*
X142950000Y-89855000D01*
G75*
G02*
X142800000Y-89705000I0J150000D01*
G01*
G37*
%TD*%
%TO.C,U1*%
G36*
G01*
X136500000Y-78495000D02*
X136500000Y-78195000D01*
G75*
G02*
X136650000Y-78045000I150000J0D01*
G01*
X138300000Y-78045000D01*
G75*
G02*
X138450000Y-78195000I0J-150000D01*
G01*
X138450000Y-78495000D01*
G75*
G02*
X138300000Y-78645000I-150000J0D01*
G01*
X136650000Y-78645000D01*
G75*
G02*
X136500000Y-78495000I0J150000D01*
G01*
G37*
G36*
G01*
X136500000Y-79765000D02*
X136500000Y-79465000D01*
G75*
G02*
X136650000Y-79315000I150000J0D01*
G01*
X138300000Y-79315000D01*
G75*
G02*
X138450000Y-79465000I0J-150000D01*
G01*
X138450000Y-79765000D01*
G75*
G02*
X138300000Y-79915000I-150000J0D01*
G01*
X136650000Y-79915000D01*
G75*
G02*
X136500000Y-79765000I0J150000D01*
G01*
G37*
G36*
G01*
X136500000Y-81035000D02*
X136500000Y-80735000D01*
G75*
G02*
X136650000Y-80585000I150000J0D01*
G01*
X138300000Y-80585000D01*
G75*
G02*
X138450000Y-80735000I0J-150000D01*
G01*
X138450000Y-81035000D01*
G75*
G02*
X138300000Y-81185000I-150000J0D01*
G01*
X136650000Y-81185000D01*
G75*
G02*
X136500000Y-81035000I0J150000D01*
G01*
G37*
G36*
G01*
X136500000Y-82305000D02*
X136500000Y-82005000D01*
G75*
G02*
X136650000Y-81855000I150000J0D01*
G01*
X138300000Y-81855000D01*
G75*
G02*
X138450000Y-82005000I0J-150000D01*
G01*
X138450000Y-82305000D01*
G75*
G02*
X138300000Y-82455000I-150000J0D01*
G01*
X136650000Y-82455000D01*
G75*
G02*
X136500000Y-82305000I0J150000D01*
G01*
G37*
G36*
G01*
X131550000Y-82305000D02*
X131550000Y-82005000D01*
G75*
G02*
X131700000Y-81855000I150000J0D01*
G01*
X133350000Y-81855000D01*
G75*
G02*
X133500000Y-82005000I0J-150000D01*
G01*
X133500000Y-82305000D01*
G75*
G02*
X133350000Y-82455000I-150000J0D01*
G01*
X131700000Y-82455000D01*
G75*
G02*
X131550000Y-82305000I0J150000D01*
G01*
G37*
G36*
G01*
X131550000Y-81035000D02*
X131550000Y-80735000D01*
G75*
G02*
X131700000Y-80585000I150000J0D01*
G01*
X133350000Y-80585000D01*
G75*
G02*
X133500000Y-80735000I0J-150000D01*
G01*
X133500000Y-81035000D01*
G75*
G02*
X133350000Y-81185000I-150000J0D01*
G01*
X131700000Y-81185000D01*
G75*
G02*
X131550000Y-81035000I0J150000D01*
G01*
G37*
G36*
G01*
X131550000Y-79765000D02*
X131550000Y-79465000D01*
G75*
G02*
X131700000Y-79315000I150000J0D01*
G01*
X133350000Y-79315000D01*
G75*
G02*
X133500000Y-79465000I0J-150000D01*
G01*
X133500000Y-79765000D01*
G75*
G02*
X133350000Y-79915000I-150000J0D01*
G01*
X131700000Y-79915000D01*
G75*
G02*
X131550000Y-79765000I0J150000D01*
G01*
G37*
G36*
G01*
X131550000Y-78495000D02*
X131550000Y-78195000D01*
G75*
G02*
X131700000Y-78045000I150000J0D01*
G01*
X133350000Y-78045000D01*
G75*
G02*
X133500000Y-78195000I0J-150000D01*
G01*
X133500000Y-78495000D01*
G75*
G02*
X133350000Y-78645000I-150000J0D01*
G01*
X131700000Y-78645000D01*
G75*
G02*
X131550000Y-78495000I0J150000D01*
G01*
G37*
%TD*%
%TO.C,RN1*%
G36*
G01*
X146330000Y-86930000D02*
X146330000Y-86510000D01*
G75*
G02*
X146500000Y-86340000I170000J0D01*
G01*
X146840000Y-86340000D01*
G75*
G02*
X147010000Y-86510000I0J-170000D01*
G01*
X147010000Y-86930000D01*
G75*
G02*
X146840000Y-87100000I-170000J0D01*
G01*
X146500000Y-87100000D01*
G75*
G02*
X146330000Y-86930000I0J170000D01*
G01*
G37*
G36*
G01*
X146330000Y-85990000D02*
X146330000Y-85570000D01*
G75*
G02*
X146500000Y-85400000I170000J0D01*
G01*
X146840000Y-85400000D01*
G75*
G02*
X147010000Y-85570000I0J-170000D01*
G01*
X147010000Y-85990000D01*
G75*
G02*
X146840000Y-86160000I-170000J0D01*
G01*
X146500000Y-86160000D01*
G75*
G02*
X146330000Y-85990000I0J170000D01*
G01*
G37*
G36*
G01*
X145490000Y-86930000D02*
X145490000Y-86510000D01*
G75*
G02*
X145660000Y-86340000I170000J0D01*
G01*
X146000000Y-86340000D01*
G75*
G02*
X146170000Y-86510000I0J-170000D01*
G01*
X146170000Y-86930000D01*
G75*
G02*
X146000000Y-87100000I-170000J0D01*
G01*
X145660000Y-87100000D01*
G75*
G02*
X145490000Y-86930000I0J170000D01*
G01*
G37*
G36*
G01*
X145490000Y-85990000D02*
X145490000Y-85570000D01*
G75*
G02*
X145660000Y-85400000I170000J0D01*
G01*
X146000000Y-85400000D01*
G75*
G02*
X146170000Y-85570000I0J-170000D01*
G01*
X146170000Y-85990000D01*
G75*
G02*
X146000000Y-86160000I-170000J0D01*
G01*
X145660000Y-86160000D01*
G75*
G02*
X145490000Y-85990000I0J170000D01*
G01*
G37*
G36*
G01*
X147675000Y-85375000D02*
X147675000Y-85175000D01*
G75*
G02*
X147775000Y-85075000I100000J0D01*
G01*
X149025000Y-85075000D01*
G75*
G02*
X149125000Y-85175000I0J-100000D01*
G01*
X149125000Y-85375000D01*
G75*
G02*
X149025000Y-85475000I-100000J0D01*
G01*
X147775000Y-85475000D01*
G75*
G02*
X147675000Y-85375000I0J100000D01*
G01*
G37*
G36*
G01*
X147675000Y-86025000D02*
X147675000Y-85825000D01*
G75*
G02*
X147775000Y-85725000I100000J0D01*
G01*
X149025000Y-85725000D01*
G75*
G02*
X149125000Y-85825000I0J-100000D01*
G01*
X149125000Y-86025000D01*
G75*
G02*
X149025000Y-86125000I-100000J0D01*
G01*
X147775000Y-86125000D01*
G75*
G02*
X147675000Y-86025000I0J100000D01*
G01*
G37*
G36*
G01*
X147675000Y-86675000D02*
X147675000Y-86475000D01*
G75*
G02*
X147775000Y-86375000I100000J0D01*
G01*
X149025000Y-86375000D01*
G75*
G02*
X149125000Y-86475000I0J-100000D01*
G01*
X149125000Y-86675000D01*
G75*
G02*
X149025000Y-86775000I-100000J0D01*
G01*
X147775000Y-86775000D01*
G75*
G02*
X147675000Y-86675000I0J100000D01*
G01*
G37*
G36*
G01*
X147675000Y-87325000D02*
X147675000Y-87125000D01*
G75*
G02*
X147775000Y-87025000I100000J0D01*
G01*
X149025000Y-87025000D01*
G75*
G02*
X149125000Y-87125000I0J-100000D01*
G01*
X149125000Y-87325000D01*
G75*
G02*
X149025000Y-87425000I-100000J0D01*
G01*
X147775000Y-87425000D01*
G75*
G02*
X147675000Y-87325000I0J100000D01*
G01*
G37*
G36*
G01*
X143375000Y-87325000D02*
X143375000Y-87125000D01*
G75*
G02*
X143475000Y-87025000I100000J0D01*
G01*
X144725000Y-87025000D01*
G75*
G02*
X144825000Y-87125000I0J-100000D01*
G01*
X144825000Y-87325000D01*
G75*
G02*
X144725000Y-87425000I-100000J0D01*
G01*
X143475000Y-87425000D01*
G75*
G02*
X143375000Y-87325000I0J100000D01*
G01*
G37*
G36*
G01*
X143375000Y-86675000D02*
X143375000Y-86475000D01*
G75*
G02*
X143475000Y-86375000I100000J0D01*
G01*
X144725000Y-86375000D01*
G75*
G02*
X144825000Y-86475000I0J-100000D01*
G01*
X144825000Y-86675000D01*
G75*
G02*
X144725000Y-86775000I-100000J0D01*
G01*
X143475000Y-86775000D01*
G75*
G02*
X143375000Y-86675000I0J100000D01*
G01*
G37*
G36*
G01*
X143375000Y-86025000D02*
X143375000Y-85825000D01*
G75*
G02*
X143475000Y-85725000I100000J0D01*
G01*
X144725000Y-85725000D01*
G75*
G02*
X144825000Y-85825000I0J-100000D01*
G01*
X144825000Y-86025000D01*
G75*
G02*
X144725000Y-86125000I-100000J0D01*
G01*
X143475000Y-86125000D01*
G75*
G02*
X143375000Y-86025000I0J100000D01*
G01*
G37*
G36*
G01*
X143375000Y-85375000D02*
X143375000Y-85175000D01*
G75*
G02*
X143475000Y-85075000I100000J0D01*
G01*
X144725000Y-85075000D01*
G75*
G02*
X144825000Y-85175000I0J-100000D01*
G01*
X144825000Y-85375000D01*
G75*
G02*
X144725000Y-85475000I-100000J0D01*
G01*
X143475000Y-85475000D01*
G75*
G02*
X143375000Y-85375000I0J100000D01*
G01*
G37*
%TD*%
%TO.C,Q1*%
X146250000Y-122000000D03*
X147200000Y-124000000D03*
X145300000Y-124000000D03*
%TD*%
D11*
%TO.C,D1*%
X124000000Y-87050000D03*
X124000000Y-84950000D03*
%TD*%
%TO.C,C19*%
G36*
G01*
X131500000Y-105425000D02*
X131000000Y-105425000D01*
G75*
G02*
X130775000Y-105200000I0J225000D01*
G01*
X130775000Y-104750000D01*
G75*
G02*
X131000000Y-104525000I225000J0D01*
G01*
X131500000Y-104525000D01*
G75*
G02*
X131725000Y-104750000I0J-225000D01*
G01*
X131725000Y-105200000D01*
G75*
G02*
X131500000Y-105425000I-225000J0D01*
G01*
G37*
G36*
G01*
X131500000Y-106975000D02*
X131000000Y-106975000D01*
G75*
G02*
X130775000Y-106750000I0J225000D01*
G01*
X130775000Y-106300000D01*
G75*
G02*
X131000000Y-106075000I225000J0D01*
G01*
X131500000Y-106075000D01*
G75*
G02*
X131725000Y-106300000I0J-225000D01*
G01*
X131725000Y-106750000D01*
G75*
G02*
X131500000Y-106975000I-225000J0D01*
G01*
G37*
%TD*%
%TO.C,C9*%
G36*
G01*
X131000000Y-102575000D02*
X131500000Y-102575000D01*
G75*
G02*
X131725000Y-102800000I0J-225000D01*
G01*
X131725000Y-103250000D01*
G75*
G02*
X131500000Y-103475000I-225000J0D01*
G01*
X131000000Y-103475000D01*
G75*
G02*
X130775000Y-103250000I0J225000D01*
G01*
X130775000Y-102800000D01*
G75*
G02*
X131000000Y-102575000I225000J0D01*
G01*
G37*
G36*
G01*
X131000000Y-101025000D02*
X131500000Y-101025000D01*
G75*
G02*
X131725000Y-101250000I0J-225000D01*
G01*
X131725000Y-101700000D01*
G75*
G02*
X131500000Y-101925000I-225000J0D01*
G01*
X131000000Y-101925000D01*
G75*
G02*
X130775000Y-101700000I0J225000D01*
G01*
X130775000Y-101250000D01*
G75*
G02*
X131000000Y-101025000I225000J0D01*
G01*
G37*
%TD*%
M02*
